<svg xmlns="http://www.w3.org/2000/svg" viewBox="0 0 117 104.26"><defs><style>.cls-1{fill:#0071bc;}.cls-2{fill:#fbb03b;}.cls-3{fill:#2e3192;}</style></defs><title>bluebox</title><g id="Layer_2" data-name="Layer 2"><g id="Layer_1-2" data-name="Layer 1"><g id="bluebox"><rect class="cls-1" x="6" y="32.76" width="105.3" height="71.5"/><path class="cls-2" d="M73.8.06C65.1-1,59.3,13.86,59.3,13.86S55,4.56,52.9,2.76a11.52,11.52,0,0,0-12.7-1.1c-5,2.9-3.2,7.9-3,10.4s11,13.2,11,13.2,19.1,1.7,22.3-.8,6.6-6.6,10-10S82.5,1.16,73.8.06ZM44.3,5.46C50.7,2.46,54.9,20,54.9,20,47.9,18.56,37.9,8.56,44.3,5.46Zm19.1,15.1s4.3-17.4,10.8-14.9S70.2,19.46,63.4,20.56Z"/><rect class="cls-3" x="6" y="28.76" width="105.9" height="7.3"/><rect class="cls-1" y="24.76" width="117" height="8.6"/><polygon class="cls-2" points="51.6 24.06 51.6 104.26 66.1 104.26 66.1 23.76 51.6 24.06"/></g></g></g></svg>