<?xml version="1.0" encoding="utf-8"?>
<!-- Generator: Adobe Illustrator 22.0.1, SVG Export Plug-In . SVG Version: 6.00 Build 0)  -->
<svg version="1.1" id="Layer_1" xmlns="http://www.w3.org/2000/svg" xmlns:xlink="http://www.w3.org/1999/xlink" x="0px" y="0px"
	 viewBox="0 0 132.1 143.7" style="enable-background:new 0 0 132.1 143.7;" xml:space="preserve">
<style type="text/css">
	.st0{fill:#FFFFFF;}
	.st1{fill:#ED1C24;}
</style>
<title>Candy Cane</title>
<g id="Layer_2_1_">
	<g id="Layer_1-2">
		<g id="Candy_Cane">
			<g>
				<path class="st0" d="M107,87l11.1,15.2c2.5-1.6,4.7-3.5,6.6-5.7L108.6,86C108.1,86.3,107.6,86.7,107,87z"/>
				<path class="st0" d="M108.5,64.8l18.1-6.8c-1.7-2.9-3.8-5.6-6.2-7.9l-14.1,12.6C107.1,63.4,107.9,64.1,108.5,64.8z"/>
				<path class="st0" d="M112.3,81l-0.2,0.4l15.9,10.3c0.8-1.4,1.5-2.9,2-4.4c0.9-2.6,1.5-5.3,1.6-8l-18.9-0.3
					C112.7,79.7,112.6,80.4,112.3,81z"/>
				<path class="st0" d="M111.8,70.6c0.3,0.8,0.6,1.7,0.8,2.5l19.1,0.3c-0.3-3.2-1.1-6.4-2.2-9.4c-0.1-0.3-0.2-0.5-0.3-0.8
					l-17.6,6.6C111.6,70.1,111.7,70.3,111.8,70.6z"/>
				<path class="st0" d="M66.1,102.2L77.7,118c1.5-0.6,3.1-1.1,4.6-1.7l-11.5-15.9L66.1,102.2z"/>
				<path class="st0" d="M11.6,121.9l11.6,15.8l5.4-1.9L17,120L11.6,121.9z"/>
				<path class="st0" d="M95.6,41.6l-6.8,19.6c1.6,0.5,3.2,0.6,4.9,0.2l6.9-20C98.9,41.3,97.2,41.4,95.6,41.6z"/>
				<path class="st0" d="M2.7,135.2l0,0.1c1.8,4.8,7.2,7.3,12,5.5l2.8-1L6.2,124.3C2.7,126.7,1.2,131.2,2.7,135.2z"/>
				<path class="st0" d="M44.8,109.9l11.6,15.8c1.8-0.7,3.7-1.3,5.6-2l-11.6-15.8L44.8,109.9z"/>
				<path class="st0" d="M22.7,118l11.6,15.8c1.7-0.6,3.4-1.2,5.2-1.9l-11.6-15.8L22.7,118z"/>
				<path class="st0" d="M88.3,43.4c-4.9,1.8-7.3,7.2-5.5,12.1c0.3,0.8,0.7,1.5,1.1,2.1l5-14.4L88.3,43.4z"/>
				<path class="st0" d="M56,105.9l11.6,15.8c1.5-0.5,2.9-1.1,4.4-1.6l-11.6-15.8L56,105.9z"/>
				<path class="st0" d="M100.4,60.4l15.5-13.9c-0.5-0.3-1-0.6-1.5-0.9c-2.5-1.5-5.2-2.6-8-3.3l-6.3,18.1
					C100.2,60.4,100.3,60.4,100.4,60.4z"/>
				<path class="st0" d="M33.5,114L45,129.9c1.9-0.7,3.8-1.4,5.7-2.1L39.2,112L33.5,114z"/>
				<path class="st0" d="M80.9,96.8l-4.6,1.7l11.6,15.7l4.6-1.7L80.9,96.8z"/>
				<path class="st0" d="M102.5,108.9L91,93.1c-1.4,0.5-2.9,1.1-4.4,1.6l11.5,15.8C99.6,109.9,101.1,109.4,102.5,108.9z"/>
				<path class="st0" d="M111.6,105.5c0.5-0.2,1-0.4,1.4-0.6l-11.5-15.7c-1.5,0.6-3.2,1.2-4.9,1.8l11.6,15.8
					C109.3,106.4,110.5,105.9,111.6,105.5z"/>
				<path class="st1" d="M8.3,123.1c-0.8,0.3-1.5,0.6-2.2,1.1l11.4,15.6c1.4-0.5,3.3-1.2,5.7-2l-11.6-15.8L8.3,123.1z"/>
				<path class="st1" d="M17,120l11.6,15.8c1.8-0.6,3.7-1.3,5.7-2L22.7,118L17,120z"/>
				<path class="st1" d="M27.8,116.1l11.6,15.8l5.7-2.1L33.5,114L27.8,116.1z"/>
				<path class="st1" d="M39.2,112l11.6,15.8c1.8-0.7,3.7-1.4,5.6-2.1l-11.6-15.8C42.9,110.6,41,111.3,39.2,112z"/>
				<path class="st1" d="M50.4,107.9l11.6,15.8c1.9-0.7,3.8-1.4,5.7-2.1L56,105.9L50.4,107.9z"/>
				<path class="st1" d="M60.5,104.2L72,120.1l5.6-2.1l-11.6-15.8L60.5,104.2z"/>
				<path class="st1" d="M70.7,100.5l11.5,15.9c1.9-0.7,3.8-1.4,5.6-2.1L76.3,98.5L70.7,100.5z"/>
				<path class="st1" d="M98.1,110.5L86.6,94.7l-5.6,2.1l11.6,15.8C94.4,111.9,96.3,111.2,98.1,110.5z"/>
				<path class="st1" d="M108.1,106.8L96.6,91L91,93.1l11.5,15.8C104.5,108.1,106.4,107.4,108.1,106.8z"/>
				<path class="st1" d="M118.2,102.2L107,87c-0.7,0.4-1.4,0.7-2.1,0.9l-3.5,1.3l11.5,15.7C114.8,104.1,116.5,103.2,118.2,102.2z"/>
				<path class="st1" d="M108.6,86l16.2,10.4c1.3-1.5,2.4-3.1,3.3-4.7l-15.9-10.3C111.4,83.3,110.2,84.9,108.6,86z"/>
				<path class="st1" d="M112.8,78.9l18.9,0.3c0.1-1.9,0.1-3.9-0.1-5.8l-19.1-0.3C113,75,113.1,77,112.8,78.9z"/>
				<path class="st1" d="M111.5,69.8l17.6-6.6c-0.7-1.8-1.6-3.5-2.5-5.2l-18.1,6.8C109.8,66.3,110.8,68,111.5,69.8z"/>
				<path class="st1" d="M106.4,62.8l14.1-12.6c-1.4-1.4-2.9-2.6-4.6-3.7l-15.5,13.9C102.6,60.6,104.6,61.5,106.4,62.8z"/>
				<path class="st1" d="M100.1,60.4l6.3-18.1c-1.9-0.5-3.9-0.8-5.8-0.9l-6.9,20c0.4-0.1,0.8-0.2,1.2-0.4
					C96.6,60.4,98.3,60.2,100.1,60.4z"/>
				<path class="st1" d="M88.9,43.2l-5,14.4c1.2,1.7,2.9,2.9,4.9,3.6l6.8-19.6C93.3,41.9,91.1,42.4,88.9,43.2z"/>
			</g>
			<g>
				<path class="st0" d="M52.5,31.7l15.2-11.1c-1.6-2.5-3.5-4.7-5.8-6.6L51.5,30.2C51.9,30.7,52.2,31.2,52.5,31.7z"/>
				<path class="st0" d="M30.3,30.3l-6.8-18.1c-2.9,1.7-5.6,3.8-7.9,6.2l12.6,14C28.9,31.6,29.6,30.9,30.3,30.3z"/>
				<path class="st0" d="M46.5,26.5l0.4,0.2l10.3-15.9c-1.4-0.8-2.9-1.5-4.5-2c-2.6-0.9-5.3-1.4-8.1-1.6L44.4,26
					C45.1,26.1,45.8,26.2,46.5,26.5z"/>
				<path class="st0" d="M36.1,27c0.8-0.3,1.7-0.6,2.5-0.7l0.3-19.1c-3.2,0.3-6.4,1.1-9.4,2.2l-0.8,0.3l6.6,17.6L36.1,27z"/>
				<path class="st0" d="M67.7,72.7l15.8-11.6c-0.6-1.5-1.1-3-1.7-4.6L66,68.1C66.6,69.6,67.1,71.1,67.7,72.7z"/>
				<path class="st0" d="M87.5,127.1l15.8-11.6c-0.6-1.6-1.3-3.4-1.9-5.4l-15.8,11.6C86.3,123.9,87,125.7,87.5,127.1z"/>
				<path class="st0" d="M7.1,43.2L26.7,50c0.5-1.6,0.6-3.2,0.2-4.9l-20-6.9C6.8,39.9,6.9,41.6,7.1,43.2z"/>
				<path class="st0" d="M100.7,136.1l0.1,0c4.8-1.8,7.3-7.2,5.5-12c0-0.1-0.4-1.1-1.1-2.8l-15.5,11.3
					C92.2,136.1,96.7,137.6,100.7,136.1z"/>
				<path class="st0" d="M75.5,93.9l15.8-11.6c-0.7-1.9-1.4-3.7-2.1-5.5L73.4,88.4C74.1,90.3,74.8,92.1,75.5,93.9z"/>
				<path class="st0" d="M83.5,116.1l15.8-11.6c-0.6-1.6-1.3-3.4-1.9-5.2L81.6,111C82.3,112.8,82.9,114.5,83.5,116.1z"/>
				<path class="st0" d="M8.9,50.5c1.8,4.9,7.2,7.3,12,5.5c0.8-0.3,1.5-0.7,2.2-1.2l-14.5-5C8.8,50.1,8.8,50.3,8.9,50.5z"/>
				<path class="st0" d="M71.4,82.7l15.8-11.6c-0.6-1.5-1.1-2.9-1.7-4.4L69.8,78.3C70.3,79.8,70.8,81.3,71.4,82.7z"/>
				<path class="st0" d="M25.9,38.5L12,23c-0.3,0.5-0.6,1-0.9,1.5c-1.5,2.5-2.6,5.2-3.3,8l18.1,6.3L25.9,38.5z"/>
				<path class="st0" d="M79.6,105.3l15.8-11.6c-0.7-1.9-1.4-3.8-2.1-5.7L77.5,99.6C78.2,101.6,78.9,103.5,79.6,105.3z"/>
				<path class="st0" d="M62.3,57.8c0.6,1.5,1.1,3.1,1.7,4.6l15.8-11.6c-0.6-1.6-1.2-3.1-1.7-4.6L62.3,57.8z"/>
				<path class="st0" d="M74.4,36.2L58.6,47.8c0.5,1.4,1.1,2.9,1.6,4.4L76,40.7C75.4,39.2,74.9,37.7,74.4,36.2z"/>
				<path class="st0" d="M71,27.2c-0.2-0.5-0.4-0.9-0.5-1.4L54.7,37.3c0.6,1.5,1.2,3.2,1.8,4.9l15.8-11.6L71,27.2z"/>
				<path class="st1" d="M88.7,130.4c0.3,0.8,0.7,1.5,1.1,2.1l15.6-11.4c-0.5-1.4-1.2-3.3-2-5.6l-15.8,11.6
					C88.2,129.2,88.7,130.4,88.7,130.4z"/>
				<path class="st1" d="M85.6,121.8l15.8-11.6c-0.7-1.8-1.3-3.6-2-5.6l-15.8,11.6C84.3,118.2,84.9,120.1,85.6,121.8z"/>
				<path class="st1" d="M81.6,110.9l15.8-11.6c-0.7-1.8-1.4-3.7-2-5.6l-15.8,11.6C80.3,107.2,81,109.1,81.6,110.9z"/>
				<path class="st1" d="M77.5,99.6L93.3,88c-0.7-1.9-1.4-3.7-2.1-5.6L75.5,93.9C76.2,95.9,76.8,97.7,77.5,99.6z"/>
				<path class="st1" d="M73.4,88.4l15.8-11.6c-0.7-1.9-1.4-3.7-2.1-5.6L71.4,82.7C72.1,84.6,72.8,86.5,73.4,88.4z"/>
				<path class="st1" d="M69.8,78.3l15.8-11.6c-0.7-1.9-1.4-3.7-2.1-5.6L67.7,72.7C68.4,74.5,69.1,76.4,69.8,78.3z"/>
				<path class="st1" d="M66,68.1l15.8-11.6c-0.7-1.9-1.4-3.7-2.1-5.6L64,62.5C64.7,64.3,65.3,66.2,66,68.1z"/>
				<path class="st1" d="M76,40.7L60.2,52.2c0.7,1.9,1.4,3.7,2.1,5.6l15.8-11.6C77.4,44.4,76.7,42.5,76,40.7z"/>
				<path class="st1" d="M72.3,30.6L56.5,42.2c0.7,1.8,1.4,3.7,2.1,5.6l15.8-11.5C73.6,34.3,72.9,32.4,72.3,30.6z"/>
				<path class="st1" d="M67.7,20.6L52.5,31.7c0.4,0.7,0.7,1.4,0.9,2.1l1.3,3.5l15.7-11.5C69.7,24,68.7,22.3,67.7,20.6z"/>
				<path class="st1" d="M51.5,30.2L61.9,14c-1.5-1.2-3-2.3-4.7-3.3L47,26.6C48.8,27.4,50.4,28.6,51.5,30.2z"/>
				<path class="st1" d="M44.4,26l0.3-18.9c-1.9-0.1-3.8-0.1-5.8,0.1l-0.3,19.1C40.5,25.8,42.5,25.7,44.4,26z"/>
				<path class="st1" d="M35.4,27.3L28.7,9.7c-1.8,0.7-3.5,1.6-5.2,2.5l6.8,18.1C31.8,29,33.5,28,35.4,27.3z"/>
				<path class="st1" d="M28.3,32.4l-12.6-14c-1.3,1.4-2.6,2.9-3.6,4.6l13.9,15.5C26.1,36.3,27,34.2,28.3,32.4z"/>
				<path class="st1" d="M25.8,38.7L7.8,32.4c-0.5,1.9-0.8,3.9-0.8,5.8l20,6.9c-0.1-0.4-0.2-0.8-0.4-1.2
					C25.9,42.2,25.7,40.5,25.8,38.7z"/>
				<path class="st1" d="M8.7,49.9l14.5,5c1.7-1.2,2.9-2.9,3.5-4.9L7,43.3C7.4,45.5,7.9,47.7,8.7,49.9z"/>
			</g>
		</g>
	</g>
</g>
</svg>
