<svg xmlns="http://www.w3.org/2000/svg" viewBox="0 0 83.03 33.34"><defs><style>.cls-1{fill:#fff;}.cls-2{fill:#c1272d;}</style></defs><title>close</title><g id="Layer_2" data-name="Layer 2"><g id="Layer_1-2" data-name="Layer 1"><g id="close"><polygon class="cls-1" points="48.63 24.13 34.13 24.18 48.63 24.23 48.63 24.13"/><rect class="cls-2" x="61.31" y="11.59" width="9" height="34.4" transform="translate(36.8 94.5) rotate(-89.8)"/><rect class="cls-2" x="12.57" y="11.57" width="9" height="34.1" transform="translate(-11.61 45.59) rotate(-89.8)"/><rect class="cls-1" x="36.87" y="21.45" width="9" height="14.5" transform="translate(12.52 69.97) rotate(-89.8)"/><path class="cls-1" d="M57.41.06C48.72-1,42.87,13.81,42.87,13.81S38.6,4.49,36.5,2.69A11.49,11.49,0,0,0,23.81,1.54c-5,2.89-3.23,7.89-3,10.39s11,13.24,11,13.24S50.82,27,54,24.45s6.62-6.58,10-10S66.11,1.19,57.41.06ZM28,5.36c6.41-3,10.56,14.57,10.56,14.57C31.55,18.47,21.48,8.43,28,5.36ZM47,20.52S51.4,3.14,57.89,5.66,53.85,19.45,47,20.52Z"/></g></g></g></svg>