<?xml version="1.0" encoding="utf-8"?>
<!-- Generator: Adobe Illustrator 22.0.1, SVG Export Plug-In . SVG Version: 6.00 Build 0)  -->
<svg version="1.1" id="Layer_1" xmlns="http://www.w3.org/2000/svg" xmlns:xlink="http://www.w3.org/1999/xlink" x="0px" y="0px"
	 viewBox="0 0 350 399.8" style="enable-background:new 0 0 350 399.8;" xml:space="preserve">
<style type="text/css">
	.st0{fill:#998675;}
	.st1{fill:#F0FCFF;}
	.st2{fill:#C7B299;}
	.st3{fill:#FFDECC;}
	.st4{fill:#FFFFFF;}
	.st5{fill:#635140;}
	.st6{fill:#DEBAAD;}
	.st7{fill:#FFCFC4;}
	.st8{fill:#FFE5D3;}
	.st9{fill:none;stroke:#DAA9A2;stroke-width:3.52;stroke-miterlimit:10;}
	.st10{fill:none;}
	.st11{fill:#006837;}
	.st12{fill:#F7931E;}
	.st13{fill:#58483C;}
	.st14{display:none;}
	.st15{display:inline;}
	.st16{fill:#0000FF;}
	.st17{fill:#FFFF00;}
	.st18{fill:#FF0000;}
	.st19{fill:#ECE94B;}
	.st20{fill:#ED2024;}
</style>
<title>Clothes</title>
<g id="clothes1">
	<g id="Layer_1-2">
		<g id="Clothes">
			<g id="BG">
				<path class="st0" d="M115.3,81.3c0,0,59.6-25.7,118.5,4.6c-8.1-30.7-45.3-39.5-60.8-38.4s-81.7,13-81.3-3.9s21.7-26.8,21.7-26.8
					l-7-7.1c0,0-31.7,14.1-29,40.2S115.6,67.5,115.3,81.3z"/>
				<path class="st1" d="M113.5,0.2c6.3,0,11.4,4.7,11.4,10.4s-5.1,10.4-11.4,10.4s-11.4-4.6-11.4-10.4S107.1,0.2,113.5,0.2"/>
				<path class="st2" d="M100.2,115.6c0,0,67-52.2,141.8,2.4c3.5-26.5-8.1-32-8.1-32s-52.6-30-118.5-4.6
					C93.5,92.9,100.2,115.6,100.2,115.6z"/>
				<path class="st3" d="M47.4,122.3c0,0-5.5-5.3-5.5-12.1s-10-10.1-12.1-0.6c-8.6-9-17.7-4.1-13.9,2.1c-6.4-4.7-12.7,2.2-7.4,7.3
					c-7.9,0.4-13.2,7.6-2.1,11.6c4.2,0.9,13.5,8.3,14.3,13.3C32.5,135.1,47.4,122.3,47.4,122.3z"/>
				<g id="Face">
					<path class="st3" d="M100.7,115.1c0,0-8.5,39,2.6,49.6s45.9,37.1,65.1,35.5s49.4-8.5,59.9-18s22.7-40.2,21.5-46.6
						s-7.2-18-7.2-18S183.6,63.3,100.7,115.1z"/>
					<path class="st4" d="M250.9,129.9c3.7-13.6-8.4-12.5-8.4-12.5C167,62.3,100.7,115,100.7,115c-5.7,0.4-14.6,8.3-7.3,14.1
						c-31.4,7.9-22.1,59.1,6.4,61.4c-6,1.1-14,18-2.9,20.1c-6.7,2.1-12.2,24.9,4.7,24.4c-3.5,2.1-2.1,19.3,9.9,18.9
						c-1.4,5.3,4.7,17.2,18.8,15.3c0,11.6,15.1,18.2,22.7,11.1c10.5,12.5,21.5,7.6,29.1-1.6c6.7,1.6,18,3.7,20.7-13.2
						c18,4,23-1.9,22.7-13.6c10.7,0.5,15.1-10.4,13.4-19.9c14.9-7.6,6.4-23.8-3.7-25.2c2.6-0.9,3.7-9,0-13.8
						C295.3,175.8,269.7,134.1,250.9,129.9z M233.9,166.3l-23.9-0.5c0.2-8.5-16.1-17.1-21.6-10.7c-0.6,7.6-28.8,8.3-29-0.5
						c-20.9,1.3-21.1,7.2-25.3,11.4c-27,10.4-39.3-14-34.3-23.3c23-5.8,11.6-11.9,0.6-10.6C99,116.5,111,115.4,111,115.4
						s0.6,17,8.7,7.2s29.6-16.4,29.6-16.4v-6.6l46.6,1.1v8.3c0,0,18,3.4,27,11.9s12.8,8,12.2-4.2c3.5,0.8,6.4,4.4,7.9,15
						c-10.2,4-9.3,7.9,0.9,7.2C250,145.8,233.9,166.3,233.9,166.3L233.9,166.3z"/>
					<path class="st5" d="M135.6,139h10.5C145.8,122,136.5,120.4,135.6,139z"/>
					<path class="st5" d="M197.2,138.9h10.5C207.4,121.8,198.1,120.2,197.2,138.9z"/>
					<ellipse class="st6" cx="173.7" cy="150.7" rx="18.9" ry="13.6"/>
					<ellipse class="st7" cx="201.9" cy="154.8" rx="16.1" ry="12.9"/>
					<ellipse class="st7" cx="141.5" cy="154.6" rx="16.1" ry="12.9"/>
					<ellipse class="st8" cx="173.2" cy="149.4" rx="18.9" ry="13.6"/>
					<path class="st9" d="M154.2,176.8l2.7,5.1c6.5,12.5,21.1,13.1,28.5,1.2l3.7-6.2"/>
				</g>
			</g>
			<g id="green_and_blue">
				<path class="st3" d="M268.2,146.1l25.6-17.6c0,0,21.6,17.9,29.5,23.4c-7.1,16-41.1,65.2-51.2,71.5c-10.8-14.3-13.5-34.2-18-37.9
					C260.7,178,280.6,167.6,268.2,146.1z"/>
				<path class="st3" d="M56.7,129.7L76,142.6l19.6,37.2l-18.8,45c0,0-44.2-56.1-48.8-72.2C41.9,142,56.7,129.7,56.7,129.7z"/>
				<path class="st10" d="M115.6,81.2c0,0,59.7-25.8,118.6,4.6C226,55,188.8,46.2,173.3,47.3s-81.8,13.1-81.4-3.9
					s21.7-26.8,21.7-26.8l-7-7.1c0,0-31.8,14.1-29.1,40.2S116,67.4,115.6,81.2z"/>
				<ellipse class="st10" cx="113.8" cy="10.4" rx="11.4" ry="10.4"/>
				<path class="st10" d="M100.4,115.4c0,0,67.1-52.2,141.9,2.5c3.5-26.5-8.1-32.1-8.1-32.1s-52.7-30-118.6-4.6
					C93.9,92.8,100.4,115.4,100.4,115.4z"/>
				<path class="st11" d="M254.2,185.6c-6.2,3.4-12.7,6.1-19.6,8c3.8,4.8,2.6,13,0,13.8c10.2,1.3,18.6,17.5,3.8,25.1
					c1.8,9.5-2.6,20.4-13.4,19.9c0.3,11.6-4.6,17.5-22.7,13.5c-2.6,16.9-14,14.8-20.6,13.2c-7.6,9.3-18.6,14-29.1,1.6
					c-7.6,7.1-22.7,0.5-22.7-11.1c-14.2,1.9-20.3-10.1-18.9-15.4c-11.9,0.5-13.4-16.7-9.9-18.8c-16.9,0.5-11.3-22.2-4.7-24.4
					c-11-2.1-3.2-19.1,2.9-20.1c-2.8-0.2-5.6-1-8.2-2.2c-3.8,7.2-17.9,34.7-18.5,45.1c-0.8,12-2.1,66.5-2.1,66.5
					s68.2,31.1,209.3,0.7C276.8,295.3,285.7,221.8,254.2,185.6z"/>
				<path class="st4" d="M47.7,122.1L21,143.8c-2,1.5-2.4,4.4-0.8,6.5c0.1,0.2,0.3,0.3,0.4,0.5l1,1.1c2.1,2,5.3,2.2,7.6,0.4
					l26.6-21.6c2-1.6,2.4-4.5,0.8-6.5c-0.1-0.2-0.3-0.3-0.4-0.5l-1-1C53.2,120.5,50,120.3,47.7,122.1z"/>
				<path class="st3" d="M47.7,122.1c0,0-5.5-5.3-5.5-12s-10-10.1-12.1-0.7c-8.6-9-17.7-4.1-14,2.1c-6.4-4.6-12.6,2.2-7.4,7.3
					c-7.8,0.4-13.2,7.7-2,11.6c4.2,0.8,15.1,7.6,14.3,13.3L47.7,122.1z"/>
				<path class="st3" d="M302.7,122.8c0,0,5.5-5.3,5.5-12s10-10.1,12.1-0.7c8.6-9,17.7-4.1,14,2.1c6.4-4.6,12.6,2.2,7.4,7.3
					c7.9,0.4,13.2,7.7,2,11.7c-4.2,0.8-15.1,7.6-14.3,13.3L302.7,122.8z"/>
				<path class="st4" d="M329.9,142.8l-27.2-21c-2.3-1.7-5.6-1.5-7.6,0.6l-1,1.1c-1.8,1.8-1.7,4.8,0.2,6.5c0.1,0.1,0.3,0.3,0.5,0.4
					l27.2,21c2.3,1.7,5.6,1.5,7.6-0.6l1-1.1c1.8-1.8,1.7-4.8-0.2-6.5C330.2,143.1,330.1,142.9,329.9,142.8z"/>
				<path class="st12" d="M100.6,321.1l4.1,25.4c0,0,25.6,9,57,3.2l9.3-19.1L100.6,321.1z"/>
				<path class="st12" d="M187.9,328l18,22.2c0,0,39.5-10.1,51.7-21.7l-0.6-17.4L187.9,328z"/>
				<path class="st4" d="M70.6,300.3c0,0,78.1,30.9,209.3,0.7c12.3-2.9,12.6,9.8,8.8,11.4s-100.9,38.4-225.9,1.3
					C52.8,308.6,58.8,297.3,70.6,300.3z"/>
				<path class="st13" d="M160,363l0.9,31.8c0,0-6.4,4.2-22.7,1.3c-18.6,3.7-42.4,7.9-57-4.8c-14.5-13.5,8.4-26.5,25.3-22.5
					l0.3-12.2l53.2,1.1L160,363z"/>
				<path class="st4" d="M205.9,350.3c0,0,42.4-11.4,51.7-21.7c8.1-5.5,14.2,6.6,10.5,8.7s-35.2,21.4-58.1,24.1
					C201.8,362.4,200.1,352.6,205.9,350.3z"/>
				<path class="st4" d="M104.7,346.5c0,0,31.1,10.1,57,3.2c9.6-2.4,11.3,10.6,4.9,12.2s-51.7,3.2-66.3-4.5
					C93.1,352.6,99.2,345.8,104.7,346.5z"/>
				<path class="st13" d="M261.1,340.7l2.1,9.9c0,0,3.5,0.5,8.3-5.3s37,1.1,27.5,15.4S281.5,376.5,251,384
					c-23.6,8.5-26.7,7.9-26.7,7.9L213,360.7L261.1,340.7z"/>
			</g>
		</g>
	</g>
</g>
<g id="clothes2" class="st14">
	<g id="BG_1_" class="st15">
		<path class="st16" d="M555.8,103.8c0,0,59.6-25.7,118.5,4.6c-8.1-30.7-45.3-39.5-60.8-38.4c-15.5,1.1-81.7,13-81.4-3.9
			c0.4-16.9,21.7-26.8,21.7-26.8l-7-7.1c0,0-31.7,14.1-29,40.2C520.6,98.5,556.1,90,555.8,103.8z"/>
		<path class="st1" d="M554,22.7c6.3,0,11.4,4.7,11.4,10.4s-5.1,10.4-11.4,10.4c-6.3,0-11.4-4.7-11.4-10.4S547.6,22.7,554,22.7"/>
		<path class="st11" d="M540.7,138.1c0,0,67-52.2,141.8,2.4c3.5-26.5-8.1-32-8.1-32s-52.6-30-118.5-4.6
			C534,115.4,540.7,138.1,540.7,138.1z"/>
		<g id="Face_1_">
			<path class="st3" d="M541.3,137.6c0,0-8.5,39,2.5,49.6c11,10.6,45.9,37.1,65.1,35.5s49.4-8.5,59.8-18
				c10.5-9.5,22.7-40.2,21.5-46.6c-1.2-6.4-7.2-18-7.2-18S624.1,85.8,541.3,137.6z"/>
			<path class="st4" d="M691.4,152.4c3.7-13.6-8.4-12.5-8.4-12.5c-75.5-55.1-141.8-2.4-141.8-2.4c-5.7,0.4-14.6,8.3-7.3,14.1
				c-31.4,7.9-22.1,59.1,6.4,61.4c-6,1.1-14,18-2.9,20.1c-6.7,2.1-12.2,24.9,4.6,24.4c-3.5,2.1-2.1,19.3,9.9,18.9
				c-1.4,5.3,4.7,17.2,18.8,15.4c0,11.6,15.1,18.2,22.7,11.1c10.5,12.5,21.5,7.6,29.1-1.6c6.7,1.6,18,3.7,20.7-13.2
				c18,4,23-1.9,22.7-13.6c10.7,0.5,15.1-10.4,13.4-19.9c14.9-7.6,6.4-23.8-3.7-25.2c2.5-0.9,3.7-9,0-13.8
				C735.8,198.2,710.2,156.6,691.4,152.4z M674.4,188.8l-23.9-0.5c0.2-8.5-16.2-17.1-21.6-10.7c-0.6,7.6-28.8,8.3-29-0.5
				c-20.9,1.3-21.2,7.2-25.3,11.4c-27,10.4-39.3-14-34.3-23.3c23-5.8,11.6-11.9,0.6-10.6c-1.4-15.7,10.7-16.7,10.7-16.7
				s0.6,17,8.7,7.2s29.6-16.4,29.6-16.4v-6.6l46.6,1.1v8.3c0,0,18,3.4,27,11.9c9,8.5,12.8,8,12.2-4.2c3.5,0.8,6.4,4.4,7.9,15
				c-10.2,4-9.3,7.9,0.9,7.2C690.5,168.3,674.4,188.8,674.4,188.8L674.4,188.8z"/>
			<path class="st5" d="M576.1,161.5h10.5C586.3,144.5,577,142.9,576.1,161.5z"/>
			<path class="st5" d="M637.7,161.4h10.5C647.9,144.2,638.6,142.7,637.7,161.4z"/>
			<ellipse class="st6" cx="614.2" cy="173.2" rx="18.9" ry="13.6"/>
			<ellipse class="st7" cx="642.5" cy="177.3" rx="16.1" ry="12.9"/>
			<ellipse class="st7" cx="582" cy="177.1" rx="16.1" ry="12.9"/>
			<ellipse class="st8" cx="613.8" cy="171.9" rx="18.9" ry="13.6"/>
			<path class="st9" d="M594.7,199.3l2.7,5.1c6.5,12.5,21.2,13.1,28.5,1.2l3.7-6.2"/>
		</g>
	</g>
	<g id="green_and_blue_1_" class="st15">
		<path class="st16" d="M708.8,168.6l25.6-17.6c0,0,21.6,17.9,29.5,23.4c-7.1,16-41.1,65.2-51.2,71.5c-10.8-14.3-13.5-34.2-18-37.9
			C701.2,200.5,721.1,190.1,708.8,168.6z"/>
		<path class="st16" d="M497.2,152.2l19.4,12.9l19.6,37.2l-18.8,45c0,0-44.2-56.1-48.8-72.2C482.4,164.5,497.2,152.2,497.2,152.2z"
			/>
		<path class="st10" d="M556.1,103.7c0,0,59.7-25.8,118.6,4.6c-8.2-30.7-45.3-39.5-60.8-38.5c-15.5,1.1-81.8,13.1-81.4-3.9
			s21.7-26.8,21.7-26.8l-7-7.1c0,0-31.8,14.1-29,40.2C520.8,98.4,556.5,89.9,556.1,103.7z"/>
		<ellipse class="st10" cx="554.3" cy="32.9" rx="11.4" ry="10.4"/>
		<path class="st10" d="M541,137.9c0,0,67-52.2,141.9,2.5c3.5-26.5-8.1-32.1-8.1-32.1s-52.7-30-118.6-4.6
			C534.4,115.3,541,137.9,541,137.9z"/>
		<path class="st11" d="M694.7,208.1c-6.2,3.4-12.7,6.1-19.6,8c3.8,4.8,2.6,13,0,13.8c10.2,1.3,18.6,17.5,3.8,25.1
			c1.8,9.5-2.6,20.4-13.4,19.9c0.3,11.6-4.6,17.5-22.7,13.5c-2.6,16.9-14,14.8-20.6,13.2c-7.6,9.3-18.6,14-29.1,1.6
			c-7.6,7.1-22.7,0.5-22.7-11.1c-14.2,1.9-20.3-10.1-18.9-15.4c-11.9,0.5-13.4-16.7-9.9-18.8c-16.9,0.5-11.3-22.2-4.7-24.4
			c-11-2.1-3.2-19.1,2.9-20.1c-2.8-0.2-5.6-1-8.2-2.2c-3.8,7.2-17.9,34.7-18.5,45.1c-0.8,12-2.1,66.5-2.1,66.5s68.2,31.1,209.3,0.7
			C717.3,317.8,726.2,244.3,694.7,208.1z"/>
		<path class="st4" d="M488.2,144.6l-26.6,21.6c-2,1.5-2.4,4.4-0.8,6.5c0.1,0.2,0.3,0.3,0.4,0.5l1,1.1c2.1,2,5.3,2.2,7.6,0.4
			l26.6-21.6c2-1.6,2.4-4.5,0.8-6.5c-0.1-0.2-0.3-0.3-0.4-0.5l-1-1C493.7,143,490.5,142.8,488.2,144.6z"/>
		<path class="st13" d="M488.2,144.6c0,0-5.5-5.3-5.5-12c0-6.7-10-10.1-12.1-0.7c-8.6-9-17.7-4.1-14,2.1c-6.4-4.6-12.6,2.2-7.4,7.3
			c-7.8,0.4-13.2,7.7-2,11.6c4.2,0.8,15.1,7.6,14.3,13.3L488.2,144.6z"/>
		<path class="st13" d="M743.2,145.3c0,0,5.5-5.3,5.5-12s10-10.1,12.1-0.7c8.6-9,17.7-4.1,14,2.1c6.4-4.6,12.7,2.2,7.4,7.3
			c7.8,0.4,13.2,7.7,2,11.7c-4.2,0.8-15.1,7.6-14.3,13.3L743.2,145.3z"/>
		<path class="st4" d="M770.4,165.3l-27.2-21c-2.3-1.7-5.6-1.5-7.6,0.6l-1,1.1c-1.8,1.8-1.7,4.8,0.2,6.5c0.1,0.1,0.3,0.3,0.5,0.4
			l27.2,21c2.3,1.7,5.6,1.5,7.6-0.6l1-1.1c1.8-1.8,1.7-4.8-0.2-6.5C770.7,165.6,770.6,165.4,770.4,165.3z"/>
		<path class="st16" d="M541.2,343.6l4.1,25.4c0,0,25.6,9,57,3.2l9.3-19.1L541.2,343.6z"/>
		<path class="st16" d="M628.4,350.5l18,22.2c0,0,39.5-10.1,51.7-21.7l-0.6-17.4L628.4,350.5z"/>
		<path class="st4" d="M511.1,322.8c0,0,78.1,30.9,209.3,0.7c12.3-2.9,12.6,9.8,8.8,11.4c-3.8,1.6-100.9,38.4-225.9,1.3
			C493.3,331.1,499.3,319.8,511.1,322.8z"/>
		<path class="st13" d="M600.5,385.5l0.9,31.8c0,0-6.4,4.2-22.7,1.3c-18.6,3.7-42.4,7.9-57-4.8c-14.5-13.5,8.4-26.5,25.3-22.5
			l0.3-12.2l53.2,1.1L600.5,385.5z"/>
		<path class="st4" d="M646.4,372.8c0,0,42.4-11.4,51.7-21.7c8.1-5.5,14.2,6.6,10.5,8.7c-3.8,2.1-35.2,21.4-58.1,24.1
			C642.3,384.9,640.6,375.1,646.4,372.8z"/>
		<path class="st4" d="M545.2,369c0,0,31.1,10.1,57,3.2c9.6-2.4,11.3,10.6,4.9,12.2c-6.4,1.6-51.7,3.2-66.3-4.5
			C533.6,375.1,539.7,368.3,545.2,369z"/>
		<path class="st13" d="M701.6,363.2l2.1,9.9c0,0,3.5,0.5,8.3-5.3c4.8-5.8,37,1.1,27.5,15.4c-9.5,14.3-17.6,15.9-48.1,23.3
			c-23.6,8.5-26.7,7.9-26.7,7.9l-11.2-31.2L701.6,363.2z"/>
	</g>
	<g class="st15">
		<path d="M510.7,302.5c0,0,34.7,10.6,90,10.6s118.7-10.2,118.7-10.2l0.4,12.7c0,0-67.6,21.2-208.4,0.5
			C511.1,307.9,510.7,302.5,510.7,302.5z"/>
		<path class="st17" d="M632.7,317.5v-9.1h-31.5l-0.1,21.5h31.7v-9h1.9v-3L632.7,317.5z M627.9,320.6v4.5l-23.3,0.3V313h23.1
			l0.1,4.5h-6.4v3H627.9z"/>
	</g>
</g>
<g id="clothes3" class="st14">
	<g id="BG_2_" class="st15">
		<path class="st18" d="M962.3,91.8c0,0,59.6-25.7,118.5,4.6c-8.1-30.7-45.3-39.5-60.8-38.4s-81.7,13-81.4-3.9
			c0.4-16.9,21.7-26.8,21.7-26.8l-7-7.1c0,0-31.7,14.1-29,40.2C927.1,86.5,962.6,78,962.3,91.8z"/>
		<path class="st1" d="M960.5,10.7c6.3,0,11.4,4.7,11.4,10.4s-5.1,10.4-11.4,10.4c-6.3,0-11.4-4.6-11.4-10.4S954.1,10.7,960.5,10.7"
			/>
		<path class="st1" d="M947.2,126.1c0,0,67-52.2,141.8,2.4c3.5-26.5-8.1-32-8.1-32s-52.6-30-118.5-4.6
			C940.5,103.4,947.2,126.1,947.2,126.1z"/>
		<g id="Face_2_">
			<path class="st3" d="M947.7,125.6c0,0-8.5,39,2.5,49.6c11,10.6,45.9,37.1,65.1,35.5s49.4-8.5,59.9-18
				c10.5-9.5,22.7-40.2,21.5-46.6c-1.2-6.4-7.2-18-7.2-18S1030.6,73.8,947.7,125.6z"/>
			<path class="st4" d="M1097.9,140.4c3.7-13.6-8.4-12.5-8.4-12.5c-75.5-55.1-141.8-2.4-141.8-2.4c-5.7,0.4-14.6,8.3-7.3,14.1
				c-31.4,7.9-22.1,59.1,6.4,61.4c-6,1.1-14,18-2.9,20.1c-6.7,2.1-12.2,24.9,4.6,24.4c-3.5,2.1-2.1,19.3,9.9,18.9
				c-1.4,5.3,4.7,17.1,18.8,15.3c0,11.6,15.1,18.2,22.7,11.1c10.5,12.5,21.5,7.6,29.1-1.6c6.7,1.6,18,3.7,20.7-13.2
				c18,4,23-1.9,22.7-13.6c10.7,0.5,15.1-10.4,13.4-19.9c14.9-7.6,6.4-23.8-3.7-25.2c2.5-0.9,3.7-9,0-13.8
				C1142.3,186.2,1116.7,144.6,1097.9,140.4z M1080.9,176.8l-23.9-0.5c0.2-8.5-16.1-17.1-21.6-10.7c-0.6,7.6-28.8,8.3-29-0.5
				c-20.9,1.3-21.2,7.2-25.3,11.4c-27,10.4-39.3-14-34.3-23.3c23-5.8,11.6-11.9,0.6-10.6c-1.4-15.7,10.7-16.7,10.7-16.7
				s0.6,17,8.7,7.2s29.6-16.4,29.6-16.4v-6.6l46.6,1.1v8.3c0,0,18,3.4,27,11.9c9,8.5,12.8,8,12.2-4.2c3.5,0.8,6.4,4.4,7.9,15
				c-10.2,4-9.3,7.9,0.9,7.2C1097,156.3,1080.9,176.8,1080.9,176.8L1080.9,176.8z"/>
			<path class="st5" d="M982.6,149.5h10.5C992.8,132.5,983.5,130.9,982.6,149.5z"/>
			<path class="st5" d="M1044.2,149.4h10.5C1054.4,132.2,1045.1,130.7,1044.2,149.4z"/>
			<ellipse class="st6" cx="1020.7" cy="161.2" rx="18.9" ry="13.6"/>
			<ellipse class="st7" cx="1049" cy="165.3" rx="16.1" ry="12.9"/>
			<ellipse class="st7" cx="988.5" cy="165.1" rx="16.1" ry="12.9"/>
			<ellipse class="st8" cx="1020.3" cy="159.9" rx="18.9" ry="13.6"/>
			<path class="st9" d="M1001.2,187.3l2.7,5.1c6.5,12.5,21.1,13.1,28.5,1.2l3.7-6.2"/>
		</g>
	</g>
	<g id="green_and_blue_2_" class="st15">
		<path class="st18" d="M1115.2,156.6l25.6-17.6c0,0,21.6,17.9,29.5,23.4c-7.1,16-41.1,65.2-51.2,71.5c-10.8-14.3-13.5-34.2-18-37.9
			C1107.7,188.5,1127.6,178.1,1115.2,156.6z"/>
		<path class="st18" d="M903.7,140.2l19.4,12.9l19.6,37.2l-18.8,45c0,0-44.2-56.1-48.8-72.2C888.9,152.5,903.7,140.2,903.7,140.2z"
			/>
		<path class="st10" d="M962.6,91.7c0,0,59.7-25.8,118.6,4.6c-8.2-30.7-45.3-39.5-60.8-38.5s-81.8,13.1-81.4-3.9
			s21.7-26.8,21.7-26.8l-7-7.1c0,0-31.8,14.1-29,40.2C927.3,86.4,963,77.9,962.6,91.7z"/>
		<ellipse class="st10" cx="960.8" cy="20.9" rx="11.4" ry="10.4"/>
		<path class="st10" d="M947.5,125.9c0,0,67-52.2,141.9,2.5c3.5-26.5-8.1-32.1-8.1-32.1s-52.7-30-118.6-4.6
			C940.9,103.3,947.5,125.9,947.5,125.9z"/>
		<path class="st18" d="M1101.2,196.1c-6.2,3.4-12.7,6.1-19.6,8c3.8,4.8,2.6,13,0,13.8c10.2,1.3,18.6,17.5,3.8,25.1
			c1.8,9.5-2.6,20.4-13.4,19.8c0.3,11.6-4.7,17.5-22.7,13.5c-2.6,16.9-14,14.8-20.6,13.2c-7.6,9.3-18.6,14-29.1,1.6
			c-7.6,7.1-22.7,0.5-22.7-11.1c-14.2,1.9-20.3-10.1-18.9-15.4c-11.9,0.5-13.4-16.7-9.9-18.8c-16.9,0.5-11.3-22.2-4.7-24.4
			c-11-2.1-3.2-19.1,2.9-20.1c-2.8-0.2-5.6-1-8.2-2.2c-3.8,7.2-17.9,34.7-18.5,45.1c-0.8,12-2.1,66.5-2.1,66.5s68.2,31.1,209.3,0.7
			C1123.8,305.8,1132.7,232.3,1101.2,196.1z"/>
		<path class="st4" d="M894.7,132.6l-26.6,21.6c-2,1.5-2.4,4.4-0.8,6.5c0.1,0.2,0.3,0.3,0.4,0.5l1,1.1c2.1,2,5.3,2.2,7.6,0.4
			l26.6-21.6c2-1.6,2.4-4.5,0.8-6.5c-0.1-0.2-0.3-0.3-0.4-0.5l-1-1C900.2,131,897,130.8,894.7,132.6z"/>
		<path class="st13" d="M894.7,132.6c0,0-5.5-5.3-5.5-12s-10-10.1-12.1-0.7c-8.6-9-17.7-4.1-13.9,2.1c-6.4-4.6-12.7,2.2-7.4,7.3
			c-7.8,0.4-13.2,7.7-2,11.6c4.2,0.8,15.1,7.6,14.3,13.3L894.7,132.6z"/>
		<path class="st13" d="M1149.7,133.3c0,0,5.5-5.3,5.5-12c0-6.7,10-10.1,12.1-0.7c8.6-9,17.7-4.1,13.9,2.1c6.4-4.6,12.7,2.2,7.4,7.3
			c7.8,0.4,13.2,7.7,2,11.7c-4.2,0.8-15.1,7.6-14.3,13.3L1149.7,133.3z"/>
		<path class="st4" d="M1176.9,153.3l-27.2-21c-2.3-1.7-5.6-1.5-7.6,0.6l-1,1.1c-1.8,1.8-1.7,4.8,0.2,6.5c0.1,0.1,0.3,0.3,0.5,0.4
			l27.2,21c2.3,1.7,5.6,1.5,7.6-0.6l1-1.1c1.8-1.8,1.7-4.8-0.2-6.5C1177.2,153.6,1177.1,153.4,1176.9,153.3z"/>
		<path class="st18" d="M947.6,331.6l4.1,25.4c0,0,25.6,9,57,3.2l9.3-19.1L947.6,331.6z"/>
		<path class="st18" d="M1034.9,338.5l18,22.2c0,0,39.5-10.1,51.7-21.7l-0.6-17.4L1034.9,338.5z"/>
		<path class="st4" d="M917.6,310.8c0,0,78.1,30.9,209.3,0.7c12.3-2.9,12.6,9.8,8.8,11.4c-3.8,1.6-100.9,38.4-225.9,1.3
			C899.8,319.1,905.8,307.8,917.6,310.8z"/>
		<path class="st13" d="M1007,373.5l0.9,31.8c0,0-6.4,4.2-22.7,1.3c-18.6,3.7-42.4,7.9-57-4.8c-14.5-13.5,8.4-26.5,25.3-22.5
			l0.3-12.2l53.2,1.1L1007,373.5z"/>
		<path class="st4" d="M1052.9,360.8c0,0,42.4-11.4,51.7-21.7c8.1-5.5,14.2,6.6,10.5,8.7c-3.8,2.1-35.2,21.4-58.1,24.1
			C1048.8,372.9,1047.1,363.1,1052.9,360.8z"/>
		<path class="st4" d="M951.7,357c0,0,31.1,10.1,57,3.2c9.6-2.4,11.3,10.6,4.9,12.2c-6.4,1.6-51.7,3.2-66.3-4.5
			C940.1,363.1,946.2,356.3,951.7,357z"/>
		<path class="st13" d="M1108.1,351.2l2.1,9.9c0,0,3.5,0.5,8.3-5.3c4.8-5.8,37,1.1,27.5,15.4c-9.5,14.3-17.6,15.9-48.1,23.3
			c-23.6,8.5-26.7,7.9-26.7,7.9l-11.2-31.2L1108.1,351.2z"/>
	</g>
	<g class="st15">
		<path d="M917.2,290.5c0,0,34.7,10.6,90,10.6c55.3,0,118.7-10.2,118.7-10.2l0.4,12.7c0,0-67.6,21.2-208.4,0.5
			C917.6,295.9,917.2,290.5,917.2,290.5z"/>
		<path class="st17" d="M1039.2,305.5v-9.1h-31.5l-0.1,21.5h31.7v-9h1.9v-3L1039.2,305.5z M1034.4,308.6v4.5l-23.3,0.3V301h23.1
			l0.2,4.5h-6.4v3H1034.4z"/>
	</g>
</g>
<g id="clothes4" class="st14">
	<g id="BG_3_" class="st15">
		<path class="st16" d="M1394.2,87.3c0,0,59.6-25.7,118.5,4.6c-8.1-30.7-45.3-39.5-60.8-38.4c-15.5,1.1-81.7,13-81.3-3.9
			s21.7-26.8,21.7-26.8l-7-7.1c0,0-31.7,14.1-29,40.2C1359.1,82,1394.6,73.5,1394.2,87.3z"/>
		<path class="st1" d="M1392.5,6.2c6.3,0,11.4,4.7,11.4,10.4s-5.1,10.4-11.4,10.4c-6.3,0-11.4-4.6-11.4-10.4S1386.1,6.2,1392.5,6.2"
			/>
		<path class="st19" d="M1379.1,121.6c0,0,67-52.2,141.8,2.4c3.5-26.5-8.1-32-8.1-32s-52.6-30-118.5-4.6
			C1372.5,98.9,1379.1,121.6,1379.1,121.6z"/>
		<g id="Face_3_">
			<path class="st3" d="M1379.7,121.1c0,0-8.5,39,2.5,49.6c11,10.6,45.9,37.1,65.1,35.5c19.2-1.6,49.4-8.5,59.9-18
				c10.5-9.5,22.7-40.2,21.5-46.6c-1.2-6.4-7.2-18-7.2-18S1462.6,69.3,1379.7,121.1z"/>
			<path class="st4" d="M1529.9,135.9c3.7-13.6-8.4-12.5-8.4-12.5c-75.5-55.1-141.8-2.4-141.8-2.4c-5.7,0.4-14.6,8.3-7.3,14.1
				c-31.4,7.9-22.1,59.1,6.4,61.4c-6,1.1-14,18-2.9,20.1c-6.7,2.1-12.2,24.9,4.7,24.4c-3.5,2.1-2.1,19.3,9.9,18.8
				c-1.4,5.3,4.7,17.2,18.8,15.4c0,11.6,15.1,18.2,22.7,11.1c10.5,12.5,21.5,7.6,29.1-1.6c6.7,1.6,18,3.7,20.7-13.2
				c18,4,23-1.9,22.7-13.6c10.7,0.5,15.1-10.4,13.4-19.9c14.9-7.6,6.4-23.8-3.7-25.2c2.5-0.9,3.7-9,0-13.8
				C1574.3,181.7,1548.7,140.1,1529.9,135.9z M1512.9,172.3l-23.9-0.5c0.2-8.5-16.1-17.1-21.6-10.7c-0.6,7.6-28.8,8.3-29-0.5
				c-20.9,1.3-21.1,7.2-25.3,11.4c-27,10.4-39.3-14-34.3-23.3c23-5.8,11.6-11.9,0.6-10.6c-1.4-15.7,10.7-16.7,10.7-16.7
				s0.6,17,8.7,7.2c8.1-9.8,29.6-16.4,29.6-16.4v-6.6l46.6,1.1v8.3c0,0,18,3.4,27,11.9c9,8.5,12.8,8,12.2-4.2
				c3.5,0.8,6.4,4.4,7.9,15c-10.2,4-9.3,7.9,0.9,7.2C1529,151.8,1512.9,172.3,1512.9,172.3L1512.9,172.3z"/>
			<path class="st5" d="M1414.6,145h10.5C1424.8,128,1415.5,126.4,1414.6,145z"/>
			<path class="st5" d="M1476.2,144.9h10.5C1486.4,127.7,1477.1,126.2,1476.2,144.9z"/>
			<ellipse class="st6" cx="1452.7" cy="156.7" rx="18.9" ry="13.6"/>
			<ellipse class="st7" cx="1480.9" cy="160.8" rx="16.1" ry="12.9"/>
			<ellipse class="st7" cx="1420.5" cy="160.6" rx="16.1" ry="12.9"/>
			<ellipse class="st8" cx="1452.2" cy="155.4" rx="18.9" ry="13.6"/>
			<path class="st9" d="M1433.2,182.8l2.7,5.1c6.5,12.5,21.1,13.1,28.5,1.2l3.7-6.2"/>
		</g>
	</g>
	<g id="green_and_blue_3_" class="st15">
		<path class="st16" d="M1547.2,152.1l25.6-17.6c0,0,21.6,17.9,29.5,23.4c-7.1,16-41.1,65.2-51.2,71.5c-10.8-14.3-13.5-34.2-18-37.9
			C1539.7,184,1559.6,173.6,1547.2,152.1z"/>
		<path class="st16" d="M1335.6,135.7l19.3,12.9l19.6,37.2l-18.8,45c0,0-44.2-56.1-48.8-72.2C1320.9,148,1335.6,135.7,1335.6,135.7z
			"/>
		<path class="st10" d="M1394.6,87.2c0,0,59.7-25.8,118.6,4.6c-8.2-30.7-45.3-39.5-60.8-38.5s-81.8,13.1-81.4-3.9
			s21.7-26.8,21.7-26.8l-7-7.1c0,0-31.8,14.1-29,40.2S1395,73.4,1394.6,87.2z"/>
		<ellipse class="st10" cx="1392.8" cy="16.4" rx="11.4" ry="10.4"/>
		<path class="st10" d="M1379.4,121.4c0,0,67-52.2,141.9,2.5c3.5-26.5-8.1-32.1-8.1-32.1s-52.7-30-118.6-4.6
			C1372.8,98.8,1379.4,121.4,1379.4,121.4z"/>
		<path class="st19" d="M1533.2,191.6c-6.2,3.4-12.7,6.1-19.6,8c3.8,4.8,2.6,13,0,13.8c10.2,1.3,18.6,17.5,3.8,25.1
			c1.8,9.5-2.6,20.4-13.4,19.9c0.3,11.6-4.7,17.5-22.7,13.5c-2.6,16.9-14,14.8-20.6,13.2c-7.6,9.3-18.6,14-29.1,1.6
			c-7.6,7.1-22.7,0.5-22.7-11.1c-14.2,1.9-20.3-10.1-18.9-15.4c-11.9,0.5-13.4-16.7-9.9-18.8c-16.9,0.5-11.3-22.2-4.7-24.4
			c-11-2.1-3.2-19.1,2.9-20.1c-2.8-0.2-5.6-1-8.2-2.2c-3.8,7.2-17.9,34.7-18.5,45.1c-0.8,12-2.1,66.5-2.1,66.5s68.2,31.1,209.3,0.7
			C1555.7,301.3,1564.7,227.8,1533.2,191.6z"/>
		<path class="st4" d="M1326.7,128.1l-26.6,21.6c-2,1.5-2.4,4.4-0.8,6.5c0.1,0.2,0.3,0.3,0.4,0.5l1,1.1c2.1,2,5.3,2.2,7.6,0.4
			l26.6-21.6c2-1.6,2.4-4.5,0.8-6.5c-0.1-0.2-0.3-0.3-0.4-0.5l-1-1C1332.2,126.5,1329,126.3,1326.7,128.1z"/>
		<path class="st13" d="M1326.7,128.1c0,0-5.5-5.3-5.5-12s-10-10.1-12.1-0.7c-8.6-9-17.7-4.1-13.9,2.1c-6.4-4.6-12.7,2.2-7.4,7.3
			c-7.8,0.4-13.2,7.7-2,11.6c4.2,0.8,15.1,7.6,14.3,13.3L1326.7,128.1z"/>
		<path class="st13" d="M1581.7,128.8c0,0,5.5-5.3,5.5-12s10-10.1,12.1-0.7c8.6-9,17.7-4.1,13.9,2.1c6.4-4.6,12.7,2.2,7.4,7.3
			c7.8,0.4,13.2,7.7,2,11.7c-4.2,0.8-15.1,7.6-14.3,13.3L1581.7,128.8z"/>
		<path class="st4" d="M1608.9,148.8l-27.2-21c-2.3-1.7-5.6-1.5-7.6,0.6l-1,1.1c-1.8,1.8-1.7,4.8,0.2,6.5c0.1,0.1,0.3,0.3,0.5,0.4
			l27.2,21c2.3,1.7,5.6,1.5,7.6-0.6l1-1.1c1.8-1.8,1.7-4.8-0.2-6.5C1609.2,149.1,1609,148.9,1608.9,148.8z"/>
		<path class="st16" d="M1379.6,327.1l4.1,25.4c0,0,25.6,9,57,3.2l9.3-19.1L1379.6,327.1z"/>
		<path class="st16" d="M1466.8,334l18,22.2c0,0,39.5-10.1,51.7-21.7l-0.6-17.4L1466.8,334z"/>
		<path class="st4" d="M1349.6,306.3c0,0,78.1,30.9,209.3,0.7c12.3-2.9,12.6,9.8,8.8,11.4c-3.8,1.6-100.9,38.4-225.9,1.3
			C1331.8,314.6,1337.8,303.3,1349.6,306.3z"/>
		<path class="st13" d="M1439,369l0.9,31.8c0,0-6.4,4.2-22.7,1.3c-18.6,3.7-42.4,7.9-57-4.8c-14.5-13.5,8.4-26.5,25.3-22.5l0.3-12.2
			l53.2,1.1L1439,369z"/>
		<path class="st4" d="M1484.9,356.3c0,0,42.4-11.4,51.7-21.7c8.1-5.5,14.2,6.6,10.5,8.7c-3.8,2.1-35.2,21.4-58.1,24.1
			C1480.8,368.4,1479,358.6,1484.9,356.3z"/>
		<path class="st4" d="M1383.7,352.5c0,0,31.1,10.1,57,3.2c9.6-2.4,11.3,10.6,4.9,12.2s-51.7,3.2-66.3-4.5
			C1372.1,358.6,1378.2,351.8,1383.7,352.5z"/>
		<path class="st13" d="M1540.1,346.7l2.1,9.9c0,0,3.5,0.5,8.3-5.3c4.8-5.8,37,1.1,27.5,15.4c-9.5,14.3-17.6,15.9-48.1,23.3
			c-23.6,8.5-26.7,7.9-26.7,7.9l-11.2-31.2L1540.1,346.7z"/>
	</g>
	<g class="st15">
		<path d="M1349.2,286c0,0,34.7,10.6,90,10.6c55.3,0,118.7-10.2,118.7-10.2l0.4,12.7c0,0-67.6,21.2-208.4,0.5
			C1349.5,291.4,1349.2,286,1349.2,286z"/>
		<path class="st20" d="M1471.2,301v-9.1h-31.5l-0.1,21.5h31.7v-9h1.9v-3L1471.2,301z M1466.4,304.1v4.5l-23.3,0.3v-12.3h23.1
			l0.2,4.5h-6.4v3H1466.4z"/>
	</g>
</g>
</svg>
