<svg xmlns="http://www.w3.org/2000/svg" viewBox="0 0 349.61 399.86"><defs><style>.cls-1{fill:blue;}.cls-2{fill:#f0fcff;}.cls-3{fill:#ece94b;}.cls-4{fill:#ffdecc;}.cls-5{fill:#fff;}.cls-6{fill:#635140;}.cls-7{fill:#debaad;}.cls-8{fill:#ffcfc4;}.cls-9{fill:#ffe5d3;}.cls-10,.cls-11{fill:none;}.cls-10{stroke:#daa9a2;stroke-miterlimit:10;stroke-width:3.52px;}.cls-12{fill:#58483c;}.cls-13{fill:#ed2024;}</style></defs><title>clothes4</title><g id="Layer_2" data-name="Layer 2"><g id="Layer_1-2" data-name="Layer 1"><g id="clothes4"><g id="BG"><path class="cls-1" d="M114.88,81.29s59.61-25.73,118.53,4.56c-8.13-30.71-45.32-39.5-60.78-38.44s-81.7,13-81.35-3.92S113,16.7,113,16.7l-7-7.1S74.3,23.69,77,49.84,115.22,67.53,114.88,81.29Z"/><path class="cls-2" d="M113.13.18c6.28,0,11.39,4.66,11.39,10.38s-5.11,10.37-11.39,10.37-11.39-4.65-11.39-10.37S106.74.18,113.13.18"/><path class="cls-3" d="M99.77,115.6s67-52.2,141.78,2.44c3.49-26.47-8.14-32-8.14-32s-52.64-30-118.53-4.6C93.14,92.94,99.77,115.6,99.77,115.6Z"/><g id="Face"><path class="cls-4" d="M100.35,115.08s-8.49,39,2.55,49.55S148.81,201.7,168,200.11s49.39-8.47,59.85-18,22.66-40.24,21.5-46.6-7.21-18-7.21-18S183.21,63.29,100.35,115.08Z"/><path class="cls-5" d="M250.5,129.9c3.72-13.55-8.37-12.5-8.37-12.5C166.62,62.34,100.35,115,100.35,115c-5.7.42-14.64,8.26-7.32,14.08C61.62,137,71,188.14,99.42,190.47c-6,1.06-14,18-2.91,20.12-6.74,2.12-12.2,24.89,4.65,24.36-3.48,2.12-2.09,19.27,9.88,18.85-1.39,5.29,4.65,17.15,18.83,15.35,0,11.65,15.1,18.22,22.66,11.12,10.46,12.5,21.5,7.63,29.05-1.59,6.74,1.59,18,3.71,20.69-13.23,18,4,23-1.91,22.66-13.56,10.69.53,15.11-10.38,13.37-19.91,14.87-7.62,6.39-23.82-3.72-25.2,2.55-.85,3.72-9,0-13.77C294.89,175.75,269.32,134.14,250.5,129.9Zm-17,36.43-23.88-.53c.23-8.47-16.15-17.05-21.62-10.7-.58,7.63-28.82,8.26-29-.53-20.92,1.27-21.15,7.2-25.33,11.44-27,10.38-39.28-14-34.29-23.3,23-5.82,11.62-11.86.58-10.59-1.39-15.67,10.7-16.73,10.7-16.73s.58,17,8.71,7.2S149,106.18,149,106.18V99.61l46.61,1.06v8.26s18,3.39,27,11.86,12.78,8,12.2-4.23c3.49.84,6.39,4.45,7.9,15-10.23,4-9.3,7.95.93,7.21,6,7-10.12,27.56-10.12,27.56Z"/><path class="cls-6" d="M135.21,139h10.46C145.44,122,136.14,120.37,135.21,139Z"/><path class="cls-6" d="M196.81,138.9h10.46C207,121.75,197.74,120.16,196.81,138.9Z"/><ellipse class="cls-7" cx="173.33" cy="150.66" rx="18.94" ry="13.55"/><ellipse class="cls-8" cx="201.57" cy="154.79" rx="16.15" ry="12.92"/><ellipse class="cls-8" cx="141.14" cy="154.57" rx="16.15" ry="12.92"/><ellipse class="cls-9" cx="172.87" cy="149.39" rx="18.94" ry="13.55"/><path class="cls-10" d="M153.81,176.81l2.67,5.08C163,194.39,177.63,195,185,183.06l3.72-6.25"/></g></g><g id="green_and_blue" data-name="green and blue"><path class="cls-1" d="M267.85,146.06l25.58-17.6s21.56,17.91,29.51,23.42c-7.13,16-41.14,65.16-51.17,71.51-10.75-14.29-13.51-34.19-18-37.89C260.29,178,280.2,167.63,267.85,146.06Z"/><path class="cls-1" d="M56.27,129.69l19.35,12.88L95.2,179.81l-18.8,45s-44.16-56.12-48.78-72.18C41.54,142,56.27,129.69,56.27,129.69Z"/><path class="cls-11" d="M115.19,81.17s59.69-25.76,118.6,4.59c-8.17-30.71-45.35-39.53-60.85-38.47s-81.78,13.06-81.4-3.88,21.71-26.82,21.71-26.82l-7-7.06s-31.76,14.11-29,40.23S115.62,67.4,115.19,81.17Z"/><ellipse class="cls-11" cx="113.44" cy="10.41" rx="11.43" ry="10.41"/><path class="cls-11" d="M100.07,115.4s67.05-52.23,141.86,2.47c3.49-26.47-8.14-32.11-8.14-32.11s-52.71-30-118.6-4.59C93.48,92.81,100.07,115.4,100.07,115.4Z"/><path class="cls-3" d="M253.83,185.58a87.45,87.45,0,0,1-19.56,8c3.78,4.76,2.62,13,0,13.76,10.18,1.33,18.61,17.47,3.78,25.15,1.75,9.52-2.61,20.38-13.37,19.85C225,264,220,269.81,202,265.84c-2.62,16.94-14,14.82-20.64,13.23-7.56,9.26-18.61,14-29.07,1.59-7.56,7.14-22.68.53-22.68-11.12-14.24,1.85-20.34-10.06-18.89-15.35-11.92.53-13.37-16.68-9.88-18.79-16.86.53-11.34-22.24-4.65-24.35-11-2.12-3.2-19.06,2.9-20.12a23.46,23.46,0,0,1-8.2-2.21c-3.77,7.2-17.87,34.7-18.54,45.09-.78,12-2.13,66.52-2.13,66.52s68.21,31.06,209.3.71C276.37,295.3,285.3,221.8,253.83,185.58Z"/><path class="cls-5" d="M47.3,122.11,20.67,143.75a4.6,4.6,0,0,0-.84,6.45,4.4,4.4,0,0,0,.4.46l1,1.05a5.78,5.78,0,0,0,7.6.4l26.63-21.63a4.61,4.61,0,0,0,.83-6.47,4.28,4.28,0,0,0-.4-.45l-1-1A5.78,5.78,0,0,0,47.3,122.11Z"/><path class="cls-12" d="M47.3,122.11s-5.46-5.3-5.46-12-10-10.06-12.07-.66c-8.57-9-17.73-4.1-13.95,2.12-6.4-4.63-12.65,2.25-7.41,7.28-7.85.39-13.23,7.67-2,11.64,4.22.8,15.07,7.55,14.3,13.31Z"/><path class="cls-12" d="M302.31,122.82s5.46-5.3,5.46-12,10-10.06,12.07-.66c8.57-9,17.73-4.11,14,2.11,6.4-4.63,12.65,2.25,7.41,7.28,7.85.4,13.23,7.68,2,11.65-4.22.79-15.07,7.55-14.3,13.3Z"/><path class="cls-5" d="M329.51,142.81l-27.24-21a5.76,5.76,0,0,0-7.58.58l-1,1.07a4.61,4.61,0,0,0,.17,6.52c.15.13.3.26.46.38l27.23,21a5.77,5.77,0,0,0,7.58-.57l1-1.08a4.61,4.61,0,0,0-.16-6.52C329.82,143.06,329.67,142.93,329.51,142.81Z"/><path class="cls-1" d="M100.26,321.14l4.07,25.41s25.59,9,57,3.18l9.3-19.06Z"/><path class="cls-1" d="M187.47,328l18,22.23s39.53-10.06,51.74-21.71l-.59-17.43Z"/><path class="cls-5" d="M70.23,300.32s78.1,30.88,209.3.71c12.3-2.91,12.59,9.79,8.81,11.38s-100.87,38.38-225.87,1.32C52.4,308.62,58.41,297.32,70.23,300.32Z"/><path class="cls-12" d="M159.62,363l.87,31.76s-6.4,4.24-22.68,1.33c-18.6,3.7-42.44,7.94-57-4.77-14.54-13.5,8.43-26.46,25.29-22.49l.29-12.18,53.2,1.06Z"/><path class="cls-5" d="M205.5,350.26s42.44-11.38,51.74-21.71c8.14-5.55,14.24,6.62,10.46,8.74s-35.17,21.44-58.08,24.08C201.43,362.43,199.68,352.64,205.5,350.26Z"/><path class="cls-5" d="M104.33,346.55s31.11,10.06,57,3.18c9.59-2.38,11.34,10.59,4.94,12.17s-51.74,3.18-66.28-4.5C92.71,352.64,98.81,345.76,104.33,346.55Z"/><path class="cls-12" d="M260.73,340.73l2.13,9.88s3.49.53,8.33-5.29,37,1.06,27.52,15.35S281.08,376.55,250.62,384c-23.64,8.47-26.74,7.94-26.74,7.94l-11.24-31.23Z"/></g><path d="M69.78,280s34.73,10.59,90,10.59,118.73-10.24,118.73-10.24l.38,12.71s-67.59,21.18-208.42.53C70.17,285.44,69.78,280,69.78,280Z"/><path class="cls-13" d="M191.81,295v-9.13H160.33l-.1,21.45H192v-9h1.89v-3Zm-4.8,3.05v4.5l-23.28.27V290.51h23.13L187,295H180.6v3.05Z"/></g></g></g></svg>