<svg xmlns="http://www.w3.org/2000/svg" xmlns:xlink="http://www.w3.org/1999/xlink" viewBox="0 0 125.05 178.05"><defs><style>.cls-1{fill:#7e4f17;}.cls-2{fill:#9b6619;}.cls-3{fill:#fff;}.cls-4{fill:url(#linear-gradient);}</style><linearGradient id="linear-gradient" x1="-13.49" y1="121.05" x2="64.01" y2="121.05" gradientUnits="userSpaceOnUse"><stop offset="0.92" stop-color="#f4ebc3"/><stop offset="0.97" stop-color="#f3e9c1"/><stop offset="0.98" stop-color="#eee2bb"/><stop offset="1" stop-color="#e7d7af"/><stop offset="1" stop-color="#e2cfa8"/></linearGradient></defs><title>Eggnog</title><g id="Layer_2" data-name="Layer 2"><g id="Layer_1-2" data-name="Layer 1"><g id="Eggnog"><polygon class="cls-1" points="60.62 123.17 48.99 126.16 20.42 4.95 30.61 4.4 60.62 123.17"/><polygon class="cls-2" points="71.27 138.5 64.74 141.21 29.64 4.65 35.67 0 71.27 138.5"/><polygon class="cls-2" points="29.64 4.65 20.42 4.95 26.71 1.27 35.67 0 29.64 4.65"/><path class="cls-3" d="M21.76,51.05h81s59,125-15,126l-50,1S-35.24,178.05,21.76,51.05Z"/><path class="cls-4" d="M37.76,168.05c-1.34-.05-14.37-.8-21.91-12.7-7.73-12.2-23.64-25.92.41-81.8h91c3.11,7.32,16,55.06,11,67-8,19-20,27.85-31,28Z"/></g></g></g></svg>