<svg xmlns="http://www.w3.org/2000/svg" viewBox="0 0 34.73 41.88"><defs><style>.cls-1{fill:#ffebcd;}.cls-2{fill:#ffc4ab;}.cls-3{fill:#603713;}.cls-4{fill:#231f20;}.cls-5,.cls-6{fill:none;}.cls-5{stroke:#231f20;stroke-width:0.09px;}.cls-10,.cls-5{stroke-miterlimit:10;}.cls-7{fill:#ccc;opacity:0.57;}.cls-8{fill:#ef509c;}.cls-9{fill:#e3d3b9;}.cls-10,.cls-12{fill:#fff;}.cls-10{stroke:#fff;stroke-width:0.1px;}.cls-11{fill:#ec1c2b;}.cls-13{fill:#0d0d1f;}.cls-14{fill:#006838;}</style></defs><title>elf</title><g id="Layer_2" data-name="Layer 2"><g id="Layer_1-2" data-name="Layer 1"><g id="elf"><g id="Henryelf"><path class="cls-1" d="M25.55,17.68s4.94-6.12,5.3-7.4c1.18,6.74-3.26,11.28-4.62,12A11.38,11.38,0,0,1,25.55,17.68Z"/><path class="cls-1" d="M6.26,19.54S.6,14.48,0,13.29c.47,6.79,5.34,10.39,6.69,10.86A12.72,12.72,0,0,0,6.26,19.54Z"/><path class="cls-2" d="M26.2,17.81,30.45,12s.7,3.61-3.83,9.36A11.62,11.62,0,0,1,26.2,17.81Z"/><g id="henry"><polygon class="cls-1" points="13.48 28.89 13.64 31.36 17.59 35.74 20.41 30.7 20.37 28.1 13.48 28.89"/><polygon class="cls-3" points="11.69 29.56 12.74 30.1 12.99 29.82 13.73 30.28 13.67 29.72 14.18 30.23 14.74 29.66 15.7 30.12 16.44 29.59 17.31 29.95 18.02 29.47 19.01 29.93 19.72 29.34 20.39 29.72 20.83 29.11 21.56 29.25 22.28 28.29 11.69 29.56"/><path class="cls-1" d="M25.48,17.7S25.3,15,23.75,13.9c0,0-.2,2.87.42,3.77a20.7,20.7,0,0,1-3.55-4.8s-1.68,2.29-1.11,3.37C17.6,13.37,18,12.94,18,12.94s-2.36,1.91-1.9,3l-2.15-2.3s-2.64,2.24-2.3,3.92a3.09,3.09,0,0,1-.93-2.91c-1.63,4.85-1.74,3.84-1.74,3.84a5.1,5.1,0,0,1-.56-3.59c-1.58,4.84-2.11,4.16-2.11,4.16l-.21-.15L6.62,24a6.3,6.3,0,0,0,6.93,5.57l7.08-.77a6.31,6.31,0,0,0,5.57-6.93l-.5-4.54Z"/><path class="cls-3" d="M8.38,14.89a5.1,5.1,0,0,0,.56,3.59s.11,1,1.74-3.84a3.09,3.09,0,0,0,.93,2.91c-.34-1.68,2.3-3.92,2.3-3.92L16.35,17C15.89,15.93,18,12.94,18,12.94s-.36.43,1.55,3.3c-.57-1.08,1.11-3.37,1.11-3.37a20.7,20.7,0,0,0,3.55,4.8c-.62-.9-.42-3.77-.42-3.77,1.55,1.14,1.9,4.17,1.9,4.17l.05-.73-.35-3.23a6.31,6.31,0,0,0-6.93-5.57l-7.08.77a6.31,6.31,0,0,0-5.57,6.93l.29,2.66.21.15S6.8,19.73,8.38,14.89Z"/><ellipse class="cls-4" cx="12.07" cy="20.56" rx="1.64" ry="1.11" transform="translate(-2.16 1.43) rotate(-6.23)"/><ellipse class="cls-4" cx="20.84" cy="19.49" rx="1.64" ry="1.11" transform="translate(-1.99 2.38) rotate(-6.23)"/><rect class="cls-5" x="9.11" y="18.73" width="5.55" height="3.45" rx="1.73" ry="1.73" transform="translate(-2.15 1.41) rotate(-6.23)"/><path class="cls-6" d="M22.55,17.56,19,18A1,1,0,0,0,18.09,19l.17,1.51a1,1,0,0,0,1.06.86l.93-.11L23,17.61A.9.9,0,0,0,22.55,17.56Z"/><path class="cls-7" d="M23.78,19.93l-.17-1.52a1,1,0,0,0-.63-.8l-2.73,3.67L22.92,21A1,1,0,0,0,23.78,19.93Z"/><rect class="cls-5" x="18.11" y="17.75" width="5.55" height="3.45" rx="1.73" ry="1.73" transform="translate(-1.99 2.38) rotate(-6.23)"/><path class="cls-3" d="M20.76,25.42a1.38,1.38,0,0,0-.23-.63c-.33.73-1.77,1.41-3.55,1.6s-3.29-.14-3.8-.76a1.5,1.5,0,0,0-.07.63c.09.86,1,1.52,2.18,1.78.07-.46.79-.89,1.7-1s1.76.18,1.89.65C20.08,27.18,20.86,26.32,20.76,25.42Z"/><path class="cls-8" d="M17,27.05c-.91.1-1.63.53-1.7,1a5.87,5.87,0,0,0,1.89.09,6.23,6.23,0,0,0,1.7-.43C18.75,27.23,17.94,27,17,27.05Z"/><path class="cls-9" d="M12.53,25a1,1,0,0,0-.58.94.94.94,0,0,0,.63.75,1.25,1.25,0,0,1-.34-.73A1.27,1.27,0,0,1,12.53,25Z"/><rect class="cls-4" x="14.66" y="19.86" width="3.5" height="0.31" transform="translate(-2.07 1.9) rotate(-6.23)"/><path class="cls-10" d="M5.9,15.5s18.37-2.39,19.43-1.77c-.26-5.52-9.52-3.47-15-2.94C4.24,11.4,5.9,15.5,5.9,15.5Z"/><path class="cls-11" d="M5.73,14S6-4,18.45.81A19.76,19.76,0,0,1,31.3,17.71l-6.86-5.86S12.34,9.15,5.73,14Z"/><circle class="cls-12" cx="32.32" cy="17.04" r="2.41"/><path class="cls-13" d="M24.44,11.85c-.2-.38-.4-.76-.57-1.15a3.68,3.68,0,0,0-.63-1.07,4.7,4.7,0,0,0-1-.77c-.35-.24-.7-.49-1-.76.39.2.76.4,1.13.62a4.06,4.06,0,0,1,1.06.76A3.34,3.34,0,0,1,24,10.64C24.18,11,24.31,11.44,24.44,11.85Z"/><path class="cls-13" d="M21.8,9.18A2.85,2.85,0,0,1,23,9.83,2.22,2.22,0,0,1,23.59,11a2.72,2.72,0,0,0-.71-1.08A3.61,3.61,0,0,0,21.8,9.18Z"/><path class="cls-14" d="M13.64,31.36a5.12,5.12,0,0,0,6.77-.66c9.36-1.4,13.2,11.18,13.2,11.18H.57l3-5.09A9.34,9.34,0,0,1,9,32.43l.3-.08Z"/></g><path class="cls-2" d="M1.18,15.54,6,20.12l.3,3S1.86,19.9,1.18,15.54Z"/></g><ellipse class="cls-1" cx="31.54" cy="38.01" rx="3.2" ry="2.27"/></g></g></g></svg>