<?xml version="1.0" encoding="utf-8"?>
<!-- Generator: Adobe Illustrator 22.0.1, SVG Export Plug-In . SVG Version: 6.00 Build 0)  -->
<svg version="1.1" id="Layer_1" xmlns="http://www.w3.org/2000/svg" xmlns:xlink="http://www.w3.org/1999/xlink" x="0px" y="0px"
	 viewBox="0 0 153.5 149.6" style="enable-background:new 0 0 153.5 149.6;" xml:space="preserve">
<style type="text/css">
	.st0{fill:#FFFFFF;stroke:#B63866;stroke-width:4.23;stroke-miterlimit:10;}
	.st1{font-family:'IowanOldStyle-Roman';}
	.st2{font-size:16px;}
	.st3{letter-spacing:-1;}
</style>
<title>fact7</title>
<g id="Layer_2_1_">
	<g id="Layer_1-2">
		<g id="fact7">
			<rect x="2.1" y="2.1" class="st0" width="149.3" height="145.4"/>
			<text transform="matrix(1 0 0 1 39.21 22.73)" class="st1 st2">The city of </text>
			<text transform="matrix(1 0 0 1 9.84 41.93)" class="st1 st2 st3">V</text>
			<text transform="matrix(1 0 0 1 19.47 41.93)" class="st1 st2">ancouve</text>
			<text transform="matrix(1 0 0 1 77.54 41.93)" class="st1 st2 st3">r</text>
			<text transform="matrix(1 0 0 1 82.48 41.93)" class="st1 st2">, Canada </text>
			<text transform="matrix(1 0 0 1 20.48 61.13)" class="st1 st2">claims to be the </text>
			<text transform="matrix(1 0 0 1 18.44 80.33)" class="st1 st2">birthplace of the </text>
			<text transform="matrix(1 0 0 1 41.64 99.53)" class="st1 st2">first “ugly </text>
			<text transform="matrix(1 0 0 1 6.53 118.73)" class="st1 st2">Christmas sweate</text>
			<text transform="matrix(1 0 0 1 132.91 118.73)" class="st1 st2">r</text>
			<text transform="matrix(1 0 0 1 139.82 118.73)" class="st1 st2">” </text>
			<text transform="matrix(1 0 0 1 58.76 137.93)" class="st1 st2">party</text>
		</g>
	</g>
</g>
</svg>
