<svg xmlns="http://www.w3.org/2000/svg" viewBox="0 0 190.08 191.21"><defs><style>.cls-1{fill:#d1a14e;}.cls-2{fill:#f0be5c;}.cls-3{fill:#fff;stroke:#fee098;stroke-miterlimit:10;stroke-width:4.23px;}</style></defs><title>Frame</title><g id="Layer_2" data-name="Layer 2"><g id="Layer_1-2" data-name="Layer 1"><g id="Frame"><path class="cls-1" d="M8.41,39.32S-13,13.64,12.49,2.17c19.64-4.28,15.56,9.14,37.15,1.16,11.86-3.89,23.73,7.4,28,7.59S85.82.81,95.93,0s9.92,14.78,14.39,13.22S127.25-.17,144,5.28c5.86,3.58,8.56,5.64,15.56-.39s24.32-6.81,29.37,9.53C192,24.54,183.85,33.29,183.46,35s-3.12,5.64,2.33,12.64-2.33,23.73-8,30.54c-2.53,4.86,9.14,9.72,9.53,11.86S191,101,178.21,108.17c0,0-3.51,2,4.27,12.06s3.12,24.12.59,29.18,16.53,19.83.58,35.59-26.06-3.5-32.29-2.92S135,196.28,112.85,179c-8.94-.78-5.83,9.73-16.92,10.5S86,178.58,80.37,177.8s-11.09,10.12-23.14,9.53-14.4-4.66-20.23-4.47-7.59,9.53-19.65,8-26.45-15.94-8.94-38.9c-12.45-17.7,4.27-40.06,4.27-40.06S.43,104.09,1.6,96.5s8.56-10.7,10.31-13.42-8-13.81-9.15-22S8.41,39.32,8.41,39.32Z"/><path class="cls-2" d="M105.86,92.09c-8.35-15.47-26.25-19-40.57-29.75C44.81,48,23.82,8.52,8.71,18.33a5.9,5.9,0,0,0-2.59,3.22c-.9,3.83,2.75,10.93,5.69,14.53l5,6L13.33,49c-2.72,5.47-5,12.87-4.64,15.23.28,2,2.89,6.53,4.45,9.25,3.71,6.49,7.92,13.84,3.12,21.28a23.72,23.72,0,0,1-5.4,5.56A23.28,23.28,0,0,0,8,102.89a26,26,0,0,0,5.4,4.74l10.87,6.89-7.71,10.29a42.58,42.58,0,0,0-5.21,10.32c-3.44,10.21-.07,15,1,16.56l5,7.13-5.31,6.93C7.2,172.21,5.24,178,6.77,181.68a8.62,8.62,0,0,0,6.55,4.72,9.81,9.81,0,0,0,1.14.08c1.1,0,1.33-.08,3.58-2.06,2.56-2.25,6.83-6,13.44-6.24l.81,0a28.15,28.15,0,0,1,10.8,2.39,27.53,27.53,0,0,0,10,2.2h.37c2.58,0,4.71-1.47,8-3.87,3.57-2.63,8-5.91,14.16-5.91a15.21,15.21,0,0,1,2.23.16c8.18,1.12,11.84,7.61,13.61,10.73.07.12.14.26.22.39l.09-.14c2-3,6.54-10,16.72-10,.65,0,1.31,0,2,.09l3.52.3,2.79,2.17c3.75,2.92,9.2,6.41,13.86,6.41,2.7,0,5-1.16,7.67-2.5a25.7,25.7,0,0,1,9.39-3.2,13,13,0,0,1,1.4-.07c5.76,0,10,3.06,13.66,5.77,2,1.41,4.89,3.55,6.27,3.55.68,0,2.24-.75,4.41-2.89s3.12-3.69,3-5.9c-.61-7.71-4.18-7.44-4.45-7.71C144.54,144,125,125.41,105.86,92.09Z"/><rect class="cls-3" x="20.71" y="23.02" width="149.34" height="145.39"/></g></g></g></svg>