<?xml version="1.0" encoding="utf-8"?>
<!-- Generator: Adobe Illustrator 22.0.1, SVG Export Plug-In . SVG Version: 6.00 Build 0)  -->
<svg version="1.1" id="gift" xmlns="http://www.w3.org/2000/svg" xmlns:xlink="http://www.w3.org/1999/xlink" x="0px" y="0px"
	 viewBox="0 0 64 59.2" style="enable-background:new 0 0 64 59.2;" xml:space="preserve">
<style type="text/css">
	.st0{fill:#F5F5F5;}
	.st1{fill:#0C0C0C;}
	.st2{fill:#2E2F2E;}
	.st3{fill:#0D0D0D;}
	.st4{fill:#969696;}
	.st5{fill:#181818;}
	.st6{fill:#232323;}
	.st7{fill:#3E3E3E;}
	.st8{fill:#303030;}
	.st9{fill:#6B6B6B;}
	.st10{fill:#7D7D7D;}
	.st11{fill:#4F4F4F;}
	.st12{fill:#272626;}
	.st13{fill:#A5A5A5;}
	.st14{fill:#535453;}
	.st15{fill:#5D5D5D;}
	.st16{fill:#4C4D4D;}
	.st17{fill:#87BD42;}
	.st18{fill:#DC2328;}
	.st19{fill:#010101;}
	.st20{fill:#146537;}
	.st21{fill:#010102;}
	.st22{fill:#B5282C;}
	.st23{fill:#020202;}
	.st24{fill:#146536;}
	.st25{fill:#8CC146;}
	.st26{fill:#DE2528;}
	.st27{fill:#E02628;}
	.st28{fill:#116E3F;}
	.st29{fill:#89BD44;}
	.st30{fill:#89BE44;}
	.st31{fill:#88BD43;}
	.st32{fill:#E12528;}
	.st33{fill:#E52829;}
	.st34{fill:#E52429;}
	.st35{fill:#8ABF45;}
	.st36{fill:#8ABD44;}
	.st37{fill:#116B37;}
	.st38{fill:#8ABE44;}
	.st39{fill:#DF2729;}
	.st40{fill:#8BBE45;}
	.st41{fill:#DF2629;}
	.st42{fill:#88BC43;}
	.st43{fill:#E1262A;}
	.st44{fill:#8DC246;}
	.st45{fill:#20643B;}
	.st46{fill:#8ABC44;}
	.st47{fill:#8BBF44;}
	.st48{fill:#18693E;}
	.st49{fill:#DE2629;}
	.st50{fill:#87BE43;}
	.st51{fill:#88BB43;}
	.st52{fill:#156439;}
	.st53{fill:#DE2628;}
	.st54{fill:#DD2628;}
	.st55{fill:#91C542;}
	.st56{fill:#89BB42;}
	.st57{fill:#DD2627;}
	.st58{fill:#18673A;}
	.st59{fill:#18673C;}
	.st60{fill:#8ABC43;}
	.st61{fill:#8BC144;}
	.st62{fill:#DC2529;}
	.st63{fill:#18633C;}
	.st64{fill:#DA2328;}
	.st65{fill:#89BC43;}
	.st66{fill:#8CBF48;}
	.st67{fill:#17663E;}
	.st68{fill:#DD2528;}
	.st69{fill:#18653D;}
	.st70{fill:#DF2627;}
	.st71{fill:#17633B;}
	.st72{fill:#1A663A;}
	.st73{fill:#8BBD44;}
	.st74{fill:#88BC42;}
	.st75{fill:#8BBB45;}
	.st76{fill:#8FC045;}
	.st77{fill:#E2242A;}
	.st78{fill:#EE2B2E;}
	.st79{fill:#8ABC42;}
	.st80{fill:#E42529;}
	.st81{fill:#15653A;}
	.st82{fill:#DC2528;}
	.st83{fill:#8BBB42;}
	.st84{fill:#186C41;}
	.st85{fill:#176E40;}
	.st86{fill:#186B40;}
	.st87{fill:#90C648;}
	.st88{fill:#1B613B;}
	.st89{fill:#18633A;}
	.st90{fill:#17663C;}
	.st91{fill:#99CA48;}
	.st92{fill:#265B3E;}
	.st93{fill:#B82C31;}
	.st94{fill:#19633C;}
	.st95{fill:#196D41;}
	.st96{fill:#EC242F;}
	.st97{fill:#95C94B;}
	.st98{fill:#91C84A;}
	.st99{fill:#19653B;}
	.st100{fill:#177042;}
	.st101{fill:#ED252A;}
	.st102{fill:#E4252B;}
	.st103{fill:#93C545;}
	.st104{fill:#93C14B;}
	.st105{fill:#1A6940;}
	.st106{fill:#98CA4E;}
	.st107{fill:#1E6E41;}
	.st108{fill:#156E3F;}
	.st109{fill:#93C44A;}
	.st110{fill:#DB232A;}
	.st111{fill:#95C946;}
	.st112{fill:#166E3F;}
	.st113{fill:#8FC44A;}
	.st114{fill:#E52534;}
	.st115{fill:#E8262D;}
	.st116{fill:#EE282A;}
	.st117{fill:#8FBE4B;}
	.st118{fill:#94C553;}
	.st119{fill:#E62F33;}
	.st120{fill:#EE2631;}
	.st121{fill:#EB2628;}
	.st122{fill:#EE2A2F;}
	.st123{fill:#EE252E;}
	.st124{fill:#EE2727;}
	.st125{fill:#EB262E;}
	.st126{fill:#EE292F;}
	.st127{fill:#EC2A26;}
	.st128{fill:#ED2727;}
	.st129{fill:#EE262B;}
	.st130{fill:#8FC34A;}
	.st131{fill:#8FC249;}
	.st132{fill:#91C544;}
	.st133{fill:#96C94C;}
	.st134{fill:#E12529;}
	.st135{fill:#E7242E;}
	.st136{fill:#E5252B;}
	.st137{fill:#E02529;}
	.st138{fill:#E22528;}
	.st139{fill:#E02627;}
	.st140{fill:#16673A;}
	.st141{fill:#E32429;}
	.st142{fill:#DD252A;}
	.st143{fill:#E4242A;}
	.st144{fill:#B52A2F;}
	.st145{fill:#E0242A;}
	.st146{fill:#DF2429;}
	.st147{fill:#DD2529;}
	.st148{fill:#C22C31;}
	.st149{fill:#166D3F;}
	.st150{fill:#E62527;}
	.st151{fill:#EE2A2E;}
	.st152{fill:#E42329;}
	.st153{fill:#E0232A;}
	.st154{fill:#E12329;}
	.st155{fill:#B52A31;}
	.st156{fill:#DC252A;}
	.st157{fill:#DC232A;}
	.st158{fill:#15653D;}
	.st159{fill:#156F41;}
	.st160{fill:#E1252B;}
	.st161{fill:#156E40;}
	.st162{fill:#E9282E;}
	.st163{fill:#DC232C;}
	.st164{fill:#E8262C;}
	.st165{fill:#EE292B;}
	.st166{fill:#E62625;}
	.st167{fill:#EE232E;}
	.st168{fill:#CA2E2D;}
	.st169{fill:#16643C;}
	.st170{fill:#146740;}
	.st171{fill:#DC2428;}
	.st172{fill:#EE262A;}
	.st173{fill:#DD232C;}
	.st174{fill:#030202;}
	.st175{fill:#DE252A;}
	.st176{fill:#E12727;}
	.st177{fill:#DF262C;}
	.st178{fill:#DD2428;}
	.st179{fill:#DD252B;}
	.st180{fill:#EE2730;}
	.st181{fill:#E92628;}
	.st182{fill:#E32529;}
	.st183{fill:#EE2330;}
	.st184{fill:#C52C2E;}
	.st185{fill:#BA2B2D;}
	.st186{fill:#BC2A32;}
	.st187{fill:#DD2328;}
	.st188{fill:#E42229;}
</style>
<g id="TfQB5Y_1_">
	<g>
		<path d="M0,26c0-0.2,0-0.5,0-0.7c0.1-0.2,0-0.4,0.1-0.6c0-0.2,0-0.3,0-0.5c0-0.7,0-1.3,0-2c0-0.2,0-0.4,0-0.5
			c0-0.5,0.3-0.8,0.7-1.1c1.5-1.1,3-2.2,4.5-3.2c0.7-0.5,1.4-1,2.1-1.5c-0.9-0.3-1.8-0.5-2.7-0.6c-1-0.2-2.1-0.4-3.1-0.6
			c-0.9-0.2-1.1-0.6-1-1.4C0.9,10.8,1.4,8.4,1.8,6C1.9,5.3,2,4.6,2,3.9c0.1-0.9,0.7-1.3,1.5-1c1.9,0.7,3.8,1,5.7,1.4
			c1.3,0.2,2.6,0.5,4,0.7c0.8,0.1,0.9,0,1.1-0.8c0.1-0.7,0.3-1.5,0.6-2.1c0.7-1.8,2.4-2.4,4.2-1.6c1.1,0.5,2,1.1,3,1.8
			c1,0.7,2,1.1,3.2,0.9c0.2,0,0.4,0,0.6,0c5.2,0,10.4,0,15.6,0c2.7,0,5.3,0.1,8,0.2c2.5,0.1,5,0.3,7.5,0.4c1.9,0.1,3.9,0.3,5.8,0.5
			c0.8,0.1,1.1,0.3,1.2,0.9c0,0.2,0,0.4,0,0.7c0,0.1,0,0.3,0,0.4c0,0.1,0,0.3,0,0.4c0,0.1,0,0.2,0,0.3c0,0.1,0,0.3,0,0.4
			c0,0.1,0,0.3,0,0.4c0,0.1,0,0.3,0,0.4c0,0.2,0,0.3,0,0.5c0,0.2,0,0.3,0,0.5c0,0.3-0.1,0.6,0.1,0.9c0,0.4,0,0.7,0,1.1
			c-0.2,0.4-0.1,0.8-0.1,1.1c0,0.1,0,0.2,0,0.3c-0.1,0.4-0.4,0.6-0.7,0.8c-0.5,0.3-0.7,0.8-0.6,1.4c0,2.1,0.2,4.2,0.3,6.3
			c0,0.8,0.1,1.7,0.1,2.5c0,1.2,0.1,2.3,0.1,3.5c0.1,1.8,0.1,3.6,0.2,5.3c0.1,0.9,0.1,1.9,0.1,2.8c0,0.3,0,0.5,0,0.8
			c0.2,0.8-0.1,1.5-0.6,2.1c-1.1,1.1-2.2,2.3-3.2,3.4c-2.2,2.3-4.4,4.7-6.7,7c-1.4,1.5-2.9,3-4.3,4.5c-1.6,1.7-3.3,3.4-4.9,5.2
			c-0.7,0.8-1.5,1-2.5,0.9c-3.7-0.2-7.4-0.8-11.1-1.2c-3.4-0.4-6.7-0.8-10.1-1.1c-3-0.3-6-0.7-8.9-1c-1.8-0.2-3.5-0.4-5.3-0.7
			c-0.3,0-0.5,0-0.8,0c-0.6,0.1-0.9-0.2-1.1-0.8c-0.1-0.3-0.1-0.5-0.1-0.8c0-1.1-0.1-2.2-0.1-3.3c0-2.5-0.1-4.9-0.2-7.4
			c-0.1-2.2-0.2-4.4-0.3-6.5c-0.1-1.9-0.2-3.7-0.3-5.6c0-0.5-0.1-0.6-0.7-0.7c-0.3-0.1-0.6-0.1-0.9-0.1c-0.7-0.1-1.1-0.4-1.2-1.1
			c-0.1-0.5,0-1-0.1-1.5c0-0.2,0-0.4,0-0.6C0.1,26.4,0.1,26.2,0,26z"/>
		<path class="st0" d="M0,27.2c0.2,0.5,0.2,1,0.3,1.6c0.1,0.6,0.3,0.8,1,0.9c0.4,0,0.7,0.1,1.1,0.1c0.6,0,0.7,0.3,0.7,0.8
			c0.1,2.1,0.2,4.1,0.3,6.2C3.6,42.3,3.8,47.9,4,53.4c0,0.2,0,0.4,0.1,0.6c0.1,0.8,0.3,0.9,1.1,0.8c0.9-0.1,1.8,0.2,2.6,0.3
			c2.1,0.2,4.2,0.5,6.2,0.7c2.5,0.3,4.9,0.6,7.4,0.9c2.4,0.3,4.9,0.5,7.3,0.8c2.3,0.3,4.5,0.6,6.8,0.8c1.8,0.2,3.6,0.3,5.3,0.6
			c1.3,0.2,2.3-0.3,3.2-1.2c4-4.4,8.1-8.6,12.1-12.9c2.3-2.4,4.5-4.8,6.8-7.2c0.3-0.4,0.5-0.8,0.5-1.2c-0.3-5.1-0.5-10.2-0.7-15.2
			c-0.1-2.1-0.2-4.2-0.3-6.3c0-0.8,0.2-1.4,0.9-1.8c0.2-0.2,0.5-0.4,0.5-0.7c0.1-0.1,0.1-0.1,0.2,0c0,15.4,0,30.9,0,46.3
			c0,0.4-0.1,0.5-0.5,0.5c-21,0-42.1,0-63.1,0c-0.4,0-0.5-0.1-0.5-0.5C0,48.2,0,37.7,0,27.2z"/>
		<path class="st0" d="M63.8,5.1c-0.1-0.5-0.4-0.7-0.8-0.7c-2-0.3-4-0.4-6-0.5c-5.7-0.3-11.4-0.6-17.2-0.6c-5.1,0-10.1,0-15.2,0
			c-0.8,0-1.6-0.2-2.3-0.7c-1-0.7-2.1-1.5-3.2-2.1c-1.7-0.9-3.5-0.2-4.2,1.6c-0.3,0.7-0.4,1.5-0.5,2.3c-0.1,0.7-0.2,0.8-0.9,0.7
			C10.2,4.6,6.7,4.2,3.4,3C2.7,2.8,2.3,3.1,2.2,3.9C2.1,4.7,2,5.4,1.9,6.1c-0.4,2.4-0.8,4.8-1.2,7.2c-0.1,0.7,0.1,1.1,0.9,1.2
			c2,0.4,4.1,0.7,6.1,1.3C7.5,16,7.4,16,7.2,16.1c-2.1,1.6-4.3,3.1-6.5,4.7c-0.3,0.2-0.6,0.5-0.7,0.9c0,0.1-0.1,0.1-0.1,0
			C0,14.6,0,7.5,0,0.4C0,0.1,0.1,0,0.4,0c21.1,0,42.1,0,63.2,0C63.9,0,64,0.1,64,0.4c0,1.6,0,3.1,0,4.7C63.9,5.2,63.9,5.2,63.8,5.1z
			"/>
		<path class="st1" d="M63.8,12.1c0.1-0.4-0.2-0.8,0.2-1.1c0,0.4,0,0.7,0,1.1C63.9,12.2,63.9,12.2,63.8,12.1z"/>
		<path class="st2" d="M0.1,22.2c0,0.7,0,1.4,0,2.1c0,0-0.1,0-0.1,0C0,23.5,0,22.8,0.1,22.2C0,22.1,0.1,22.1,0.1,22.2z"/>
		<path class="st3" d="M64,10c-0.4-0.2-0.1-0.6-0.2-0.9C63.9,9,63.9,9,64,9.1C64,9.4,64,9.7,64,10z"/>
		<path class="st4" d="M63.8,5.1c0.1,0,0.1,0,0.2,0c0,0.2,0,0.5,0,0.7c-0.1,0.1-0.1,0.1-0.2,0C63.8,5.6,63.8,5.4,63.8,5.1z"/>
		<path class="st5" d="M64,9.1c-0.1,0-0.1,0-0.2,0c0-0.2,0-0.3,0-0.5c0.1-0.1,0.1-0.1,0.2,0C64,8.7,64,8.9,64,9.1z"/>
		<path class="st6" d="M64,8.6c-0.1,0-0.1,0-0.2,0c0-0.2,0-0.3,0-0.5C63.9,8,63.9,8,64,8.1C64,8.2,64,8.4,64,8.6z"/>
		<path class="st7" d="M63.8,7.7c0-0.1,0-0.3,0-0.4c0.1-0.1,0.1-0.1,0.2,0c0,0.1,0,0.3,0,0.4C63.9,7.7,63.9,7.7,63.8,7.7z"/>
		<path class="st8" d="M63.8,7.7c0.1,0,0.1,0,0.2,0c0,0.1,0,0.3,0,0.4c-0.1,0-0.1,0-0.2,0C63.8,7.9,63.8,7.8,63.8,7.7z"/>
		<path class="st9" d="M63.8,6.6c0-0.1,0-0.3,0-0.4c0.1-0.1,0.1-0.1,0.2,0c0,0.1,0,0.3,0,0.4C63.9,6.7,63.9,6.7,63.8,6.6z"/>
		<path class="st10" d="M64,6.2c-0.1,0-0.1,0-0.2,0c0-0.1,0-0.3,0-0.4c0.1,0,0.1,0,0.2,0C64,5.9,64,6.1,64,6.2z"/>
		<path class="st11" d="M64,7.3c-0.1,0-0.1,0-0.2,0c0-0.1,0-0.3,0-0.4c0.1-0.1,0.1-0.1,0.2,0C64,7,64,7.2,64,7.3z"/>
		<path class="st12" d="M63.8,12.1c0.1,0,0.1,0,0.2,0c0,0.1,0,0.2,0,0.3c-0.1,0-0.1,0-0.2,0C63.8,12.3,63.8,12.2,63.8,12.1z"/>
		<path class="st13" d="M0,26c0.1,0.2,0.2,0.4,0,0.6C0,26.4,0,26.2,0,26z"/>
		<path class="st14" d="M0.1,24.7c0,0.2,0.1,0.4-0.1,0.6C0,25.1,0,24.9,0.1,24.7C0,24.7,0.1,24.7,0.1,24.7z"/>
		<path class="st15" d="M64,6.9c-0.1,0-0.1,0-0.2,0c0-0.1,0-0.2,0-0.3c0.1,0,0.1,0,0.2,0C64,6.7,64,6.8,64,6.9z"/>
		<path class="st7" d="M0.1,24.7C0.1,24.7,0,24.7,0.1,24.7C0,24.6,0,24.4,0,24.2c0,0,0.1,0,0.1,0C0.1,24.4,0.1,24.6,0.1,24.7z"/>
		<path class="st16" d="M0.1,22.2C0.1,22.2,0,22.2,0.1,22.2C0,22,0,21.8,0,21.7c0,0,0.1,0,0.1,0C0.1,21.8,0.1,22,0.1,22.2z"/>
		<path class="st17" d="M6.6,54.1c-0.4,0-0.8,0-1.3-0.1c-0.2,0-0.4,0-0.4-0.2c-0.2-0.9-0.1-1.8-0.1-2.7C4.7,49,4.7,47,4.6,44.9
			c-0.1-1.5-0.1-3-0.2-4.5c0-0.3,0-0.6,0-0.9c0-0.1-0.1-0.1,0-0.1c0,0,0,0,0,0c0,0.1,0,0.2-0.1,0.3c-0.1-0.8-0.1-1.6-0.2-2.4
			c0.1-0.8-0.1-1.6,0-2.4c0-0.1,0-0.1-0.1-0.2c-0.2-0.7-0.1-1.5-0.2-2.2c-0.1-0.8-0.1-1.7-0.1-2.5c0.1-0.1,0.3,0,0.4,0
			c1.8,0.1,3.5,0.3,5.3,0.3c0.4,0,0.8,0.2,1.2,0c1.7,0.1,3.5,0.2,5.2,0.3c1,0.1,2,0.2,3,0.2c-0.1,0.1-0.2,0-0.4,0.1
			c0.4,0,0.5,0,0.6,0.5c0.1,1.5,0.1,2.9,0.1,4.4c0.1,1.7,0.1,3.4,0.2,5c0,1.2,0.1,2.3,0.1,3.5c0,0.6,0,1.2,0,1.8
			c0-0.2-0.1-0.4,0.1-0.6c0.1,0.3,0.1,0.7,0.1,1c0,1.2,0.1,2.3,0.1,3.5c-0.1,1,0,2.1,0,3.1c0,0.1,0,0.2,0,0.3l0,0
			c-0.1,0.3,0.1,0.6,0,0.8c0,0.3-0.1,0.6,0.1,0.9c-0.2,0.2-0.4,0.1-0.6,0.1c-1.6-0.2-3.1-0.3-4.7-0.5c-0.1,0-0.1,0-0.2-0.1
			c0-0.1,0.1-0.1,0.2-0.1c0,0-0.1,0-0.1,0c-0.2,0-0.4,0-0.6,0c-0.8-0.1-1.7-0.1-2.5-0.3c0,0,0,0,0,0c0.1,0,0.1,0,0,0
			C9.8,54.4,8.2,54.2,6.6,54.1C6.6,54.1,6.6,54.1,6.6,54.1z"/>
		<path class="st17" d="M40.6,45.4c0.1,0.2,0.1,0.5,0.1,0.7c-0.1,0.2-0.1,0.4-0.1,0.6c0.2,1.9,0.3,3.7,0.4,5.6c0,0.1,0,0.2,0,0.2
			c0,0.3,0,0.6,0,0.9c0-0.2,0-0.3,0.1-0.3c0.1,0.2,0.1,0.3,0.1,0.5c-0.1,0.6,0,1.3,0.1,1.9c0,0.3-0.1,0.6,0.1,0.8
			c0,0.1,0.1,0.2,0,0.3c-0.1,0.2-0.1,0.3,0.1,0.4c0,0.1,0,0.2,0,0.3c0.1,0.4-0.1,0.5-0.4,0.3c0-0.1,0.1-0.1,0.1,0
			c-0.2,0-0.3,0-0.5,0c-1.5-0.1-2.9-0.3-4.4-0.5c0.1-0.1,0.3,0,0.4-0.1c-0.6,0.1-1.2-0.1-1.7,0c-1.7-0.2-3.4-0.3-5.2-0.6
			c0.1-0.1,0.3,0,0.4-0.1c0,0,0,0,0,0c0,0-0.1,0-0.1,0c-1.2,0-1.2,0-1.3-1.2c0-1,0-2-0.2-3c-0.1-0.4,0.1-0.8-0.1-1.2
			c0-0.3,0-0.7,0-1c0,0.2,0.1,0.4-0.1,0.6c-0.1-0.3-0.1-0.6-0.1-0.9c0.1-0.8,0-1.6-0.1-2.4c-0.1-1.4-0.2-2.9-0.2-4.3
			c-0.1-0.6,0-1.2-0.1-1.8c0-0.1,0-0.2-0.1-0.3c-0.1-2.3-0.3-4.6-0.4-6.9c0.1-0.7,0-1.4-0.1-2c0-0.4,0.1-0.4,0.4-0.4
			c0.6,0,1.1,0.2,1.7,0.1c0.4,0,0.8,0,1.2,0.1c0.8,0.1,1.6,0.2,2.4,0.1c0.2,0,0.5,0,0.7,0.1c-0.1,0.1-0.2,0-0.3,0.1
			c0.2,0,0.4,0,0.6,0c1.3,0,2.6,0.2,3.9,0.2c0.4,0,0.8,0.1,1.2,0.1c0.4,0,0.5,0.2,0.6,0.5c0.1,0.3,0.1,0.5,0.1,0.8c0,0-0.1,0-0.1,0
			c0,0,0,0.1,0,0.1c0,0.1,0.1,0.2,0.1,0.3c0,0.9,0.1,1.8,0.2,2.8c0.1,0.4-0.1,0.9,0,1.2c0-0.1-0.1-0.3,0.1-0.4
			c0.1,0.5,0.1,1,0.1,1.5c0.1,1.8,0.2,3.5,0.3,5.3c-0.1,0.4,0,0.8,0,1.2C40.6,45.5,40.5,45.4,40.6,45.4z"/>
		<path class="st17" d="M48.1,51.6c-0.5,0.5-1,1-1.4,1.5c-0.2,0.1-0.3,0.2-0.4,0.4c-0.2,0.3-0.5,0.5-0.7,0.8
			c-0.3,0.2-0.6,0.5-0.8,0.9c-0.3,0.5-0.7,0.9-1.2,1.3c-0.2,0.1-0.5,0.3-0.5,0.6c-0.1,0.2-0.3,0.3-0.4,0.5c-0.1-0.4-0.1-0.8-0.1-1.2
			c0,0,0.1,0,0.1,0c0,0,0,0,0,0c-0.2-0.8-0.1-1.6-0.2-2.4c0-1.6-0.1-3.2-0.3-4.8c0-1.2-0.1-2.3-0.2-3.5c0-0.2,0-0.4,0-0.6
			c-0.2-2.8-0.4-5.5-0.5-8.3c0-0.1,0,0,0,0c0,0,0,0,0,0c0,0.1,0,0.2-0.1,0.3c-0.1-0.2-0.1-0.5-0.1-0.7c0.1-0.5,0-1,0-1.5
			c0-0.6-0.1-1.3-0.2-1.9c-0.1-0.4,0.1-0.5,0.4-0.5c0.3,0,0.5,0.2,0.8,0c0.4-0.4,0.7-0.8,1.4-0.8c0.3,0,0.4-0.3,0.6-0.6
			c1-1.2,1.9-2.3,3-3.4c0.2,0,0.3-0.2,0.3-0.3c0.3-0.3,0.6-0.6,0.8-1c0.1-0.1,0.2-0.2,0.3-0.2c0.1,0,0.1,0.2,0.1,0.3
			c0,1.2,0,2.4,0,3.5c-0.1,0.5-0.1,1,0,1.5c0.1,0.8,0,1.6,0,2.4c0.1,2.4,0.2,4.8,0.1,7.3c0,0.1,0.1,0,0,0c0,0,0,0,0,0
			c0-0.5-0.1-1,0.1-1.5c0.1,0.7,0.1,1.3,0.1,2c-0.1,1,0.1,1.9,0,2.9c0,1.3,0.1,2.6,0.2,3.8c0,0.6-0.2,1.1-0.2,1.6
			c0,0.5-0.3,0.8-0.6,1.2C48.3,51.3,48.1,51.4,48.1,51.6z"/>
		<path class="st18" d="M23.4,55.8c-0.8,0-1.5-0.2-2.3-0.2c-0.4,0-0.2-0.3-0.2-0.5c0.1-0.2,0.1-0.3,0-0.5c-0.1-2-0.2-3.9-0.2-5.9
			c0-0.5,0.1-1,0-1.5c-0.1-0.5-0.1-1.1-0.1-1.6c0.1-1,0-2.1-0.1-3.1c0-1.3-0.1-2.6-0.1-3.8c0-0.5,0.1-1,0-1.4
			c-0.1-0.2-0.1-0.5-0.1-0.7c0-1.5-0.1-2.9-0.1-4.4c0,0,0.1-0.1,0.1-0.2c0.1-0.8,0.1-0.8,0.9-0.8c0.9,0.1,1.8,0.1,2.7,0.2
			c0.2,0,0.4,0,0.5,0c0.7,0,1.4,0,2.1,0.2c-0.1,0.1-0.1,0.2-0.1,0.3c0,2.5,0,5,0.1,7.5c0,0.1,0,0.2,0,0.2c0-0.1-0.1-0.2,0.1-0.3
			c0.1,1.3,0.2,2.6,0.3,3.9c0.1,1,0.1,1.9,0.2,2.9c0,0.6,0,1.1,0,1.7c0.1,1.5,0.3,3.1,0.3,4.6c0-0.1-0.1-0.3,0.1-0.5
			c0.1,0.9,0.2,1.7,0.2,2.6c-0.1,0.5,0,1,0,1.5c0,0.4-0.1,0.5-0.5,0.4c-0.2-0.1-0.5-0.1-0.7,0c-0.2,0-0.5-0.1-0.7-0.1
			C25.4,56,25,55.9,24.5,56c-0.1,0-0.2,0-0.3,0C24,55.8,23.7,55.9,23.4,55.8z"/>
		<path class="st17" d="M56.5,42.6C56.4,42.8,56.3,43,56,43c-0.2,0.1-0.3,0.4-0.6,0.5c-0.1-0.3-0.1-0.6-0.1-0.9
			c0-0.7-0.2-1.4-0.1-2.1c0-0.1-0.1-0.3-0.1-0.4c0-0.1,0-0.2,0-0.3c-0.1-1.2,0.1-2.4-0.1-3.5c0-0.1,0-0.2,0-0.2
			c0.1-1.9-0.1-3.8-0.1-5.7c0-0.9-0.1-1.9-0.1-2.8c-0.2-1.6,0-3.2-0.2-4.8c0,0,0,0,0,0c-0.4-0.7-0.3-1,0.4-1.1c0.1,0,0.2,0,0.3,0.1
			c0.1,0,0.1,0,0.2,0.1c0-0.1-0.1,0-0.1-0.1c0.1-0.2,0.2-0.2,0.4-0.2c0.7-0.1,1.3-0.3,2-0.2c0.4,0.1,0.7,0,1-0.2
			c0.1-0.2,0.2-0.2,0.4-0.3c0.3-0.2,0.3-0.5,0.3-0.8c0.1-1.4,0.4-2.8,0.7-4.1c0.1-0.1,0.2-0.3,0.3-0.4l0,0c0.1-0.1,0.3-0.1,0.3-0.3
			c0.2-0.2,0.5-0.5,0.8-0.4c0.2,0.1,0.1,0.5,0.1,0.8c0.1,3.6,0.3,7.2,0.4,10.8c0,0.2,0,0.5,0,0.7c-0.1,0-0.1,0-0.1-0.1
			c0,0,0,0.1,0,0.1c0.1,1.2,0.2,2.5,0.1,3.7c0,0.4,0.1,0.8-0.1,1.1c0.2-0.2,0-0.5,0.2-0.8c0.1,1.4,0.2,2.8,0.2,4.2
			c-0.1,0.3-0.1,0.6,0,0.9c0,0,0,0.1,0,0.1c-0.3,0.6-0.8,1.1-1.3,1.5c-0.1,0.1-0.3,0.2-0.3,0.4c-1,1.2-2,2.3-3.1,3.4
			c-0.2,0.2-0.3,0.5-0.5,0.6C56.6,42.3,56.6,42.4,56.5,42.6z"/>
		<path class="st18" d="M2.5,10.6c0.2-1.4,0.4-2.7,0.6-4.1c0.1,0,0.1,0.1,0,0.1c0.1,0,0.1-0.1,0.1-0.1c0-0.1,0-0.2,0-0.3
			c0.1-0.7,0.2-1.4,0.3-2.1c0-0.4,0.3-0.1,0.4-0.1c1.3,0.4,2.7,0.8,4,1.1c0.5,0.1,0.9,0.2,1.4,0.3c0,0,0,0-0.1,0c0,0,0,0,0.1,0
			c0.1,0,0.1,0,0.2,0c0.5,0.1,0.9,0.1,1.4,0.3c0.5,0.3,1,0.2,1.5,0.3c0.2,0,0.3,0.1,0.5,0c0.1,0,0.3,0,0.4,0.1c0,0,0,0-0.1,0
			c0.1,0,0.2,0,0.3,0c0.2,0,0.3,0,0.4,0.1c0.1,0.3,0,0.5,0,0.8c-0.1,0.4-0.4,0.6-0.5,1c-0.1,0.4-0.4,0.7-0.7,1.1
			c-0.5,0.6-0.4,1.7,0.2,2.1c0.5,0.4,0.9,0.8,1.3,1.4c0.1,0.2,0.3,0.3,0.5,0.4c0.5,0.2,0.9,0.4,1.3,0.7c0.1,0.2,0.3,0.1,0.4,0.1
			c0.4,0,0.8,0.3,1.2,0.2c0.1,0,0.1,0,0.2,0c0.2,0.1,0.5,0,0.7,0.2c1.9,0.1,3.8,0,5.7,0.1c-0.3,0.3-0.7,0.4-1.1,0.4
			c-1.1,0.1-2.2,0.4-3.4,0.4c-1.2,0.1-2.3,0.1-3.5,0.2c-0.5,0-1,0.1-1.5,0.1c-1.2,0-2.4,0-3.6-0.1c-0.1,0-0.2,0-0.3,0l0,0l0,0
			c-0.2-0.1-0.5,0-0.7-0.1c-0.1,0-0.1,0-0.2,0c-0.2-0.1-0.3,0-0.5-0.1l0,0C9,15,8.6,14.9,8.2,14.9c-0.9-0.1-1.7-0.3-2.5-0.5
			c-0.1-0.1-0.2-0.2-0.4-0.1c-0.4-0.1-0.8-0.1-1.2-0.3c0,0,0.1,0,0.1-0.1C4.1,14,4,13.9,4,14c-0.5-0.1-1-0.2-1.5-0.3
			c-0.3-0.1-0.5-0.2-0.3-0.6C2.3,12.2,2.5,11.4,2.5,10.6z"/>
		<path class="st19" d="M56.6,11c0.2,0.8,0.2,0.8,1.1,0.8c0.1,0,0.3,0,0.4,0c-0.1,0.3-0.3,0.3-0.5,0.3c-1.4,0.3-2.8,0.4-4.1,0.5
			c-0.5,0-1,0.1-1.6,0.1c-0.6,0.1-0.6,0-0.6,0.7c0,1-0.1,2-0.2,3c0,0.2-0.1,0.4-0.1,0.6c-0.3,1.5-1.3,2.2-2.7,2.5
			c-0.6-0.1-1.2,0.1-1.8,0.1c-0.2,0-0.4,0-0.6,0c-0.2-0.1-0.4-0.1-0.6-0.1c-0.2,0-0.3,0-0.5,0c-0.3-0.1-0.6-0.1-0.9-0.2
			c-0.7-0.1-1.3-0.4-1.9-0.5c-0.7-0.3-1.5-0.6-2-0.9c0.4,0.2,0.9,0.5,1.4,0.8c0.1,0.1,0.2,0.1,0.4,0.2c0.1,0,0.2,0.1,0.3,0.1
			c0.4,0.2,0.8,0.4,1.2,0.5c0.1,0.1,0.3,0.1,0.4,0.1c0.8,0.3,1.6,0.6,2.5,0.8c0.1,0.1,0.3,0.1,0.4,0.1c0.2,0.1,0.4,0,0.6,0.1
			c0.3,0.1,0.6,0.2,0.9,0.1c0.4,0,0.7,0.1,1.1,0.1c0.2,0,0.4,0.1,0.5,0.2c0,0.3,0.1,0.6,0.1,0.9c-0.1,0.1-0.2,0.1-0.4,0.1
			c-0.9-0.1-1.9-0.3-2.8-0.2c-0.3,0.1-0.5,0.3-0.7,0.5c-0.7,0.6-1.2,1.3-1.8,2c-0.2,0.2-0.3,0.4-0.3,0.7c0,0.4,0,0.8,0,1.1
			c0,0.4-0.1,0.8,0,1.2c0.1,0.6,0,1.1,0.1,1.7c0.1,0.1,0.2-0.1,0.3,0c0,0.3,0.1,0.6-0.2,0.7c-0.1,0.1-0.3,0.1-0.5,0
			c-0.1-0.1-0.1-0.4-0.1-0.5c0.1-0.7,0.3-1.3,0-2.1c-0.1-0.4,0-0.8,0-1.2c0-0.3,0-0.6,0-0.9c-0.1-0.4,0-0.8,0-1.2
			c0-0.4-0.1-0.5-0.4-0.4c-0.2,0-0.4,0.1-0.5-0.1c-0.1-0.1-0.2-0.1-0.3,0c-0.1,0-0.2,0.1-0.3,0.1c-0.4-0.1-0.7-0.1-0.6,0.5
			c0,0.3,0.1,0.3,0.2,0.3c0.1,0,0.2-0.1,0.3,0.1c-0.1,0.1-0.2,0.1-0.3,0.1c-0.8-0.1-1.5-0.1-2.3-0.2c-0.1,0-0.2-0.1-0.2-0.1
			c0-0.3,0.2-0.1,0.3-0.2c0,0,0,0,0,0s0,0,0,0c-0.2,0-0.4,0-0.5,0.1c-0.5,0.2-1,0-1.5,0c-0.2,0-0.4,0-0.6-0.1c-0.1,0-0.1-0.1,0-0.1
			c0.5-0.4,1.1-0.2,1.6-0.2c0.3,0,0.6-0.3,0.9-0.1c0-0.1,0.1-0.1,0.1-0.2c0-0.1,0-0.2-0.1-0.3c-0.2-0.1-0.3-0.2-0.5-0.4
			c0.2-0.2,0.4-0.1,0.5-0.1c1.1,0.1,2.2,0.2,3.3,0.3c0.6,0.1,1-0.1,1.3-0.5c0.2-0.3,0.5-0.6,0.7-0.9c0.1-0.1,0.1-0.1,0-0.2
			c-3.1-0.9-5.8-2.3-8.2-4.5c-0.6-0.5-1.2-1-1.8-1.5c-0.3-0.3-0.6-0.2-0.8,0.1c-0.9,1-1.7,1.9-2.6,2.9c-1,1.1-1.9,2.2-2.9,3.2
			c-0.1,0.2,0.1,0.1,0.1,0.1c0.1,0,0.2,0.1,0.2,0.2c-0.9,0.1-1.7,0.1-2.6,0c-0.5-0.1-0.9-0.1-1.4,0c-0.2,0.1-0.4,0-0.6-0.1
			c-0.2-0.1-0.6,0.1-0.8,0.1c-0.2,0-0.4,0.1-0.6,0c0.1-0.1,0.3-0.1,0.3-0.3c0.1-0.2,0.4-0.2,0.5-0.2c0.6,0,1.2,0,1.8,0.1
			c0.5,0.1,1,0.1,1.5-0.2c0.3-0.2,0.5-0.6,0.8-0.8c0.1-0.1,0.2-0.2,0.2-0.2c0.1-0.1,0.2-0.2,0.2-0.3c0.3-0.3,0.5-0.7,0.8-0.9
			c0.2-0.1,0.3-0.3,0.4-0.5c0.1-0.1,0.2-0.2,0.3-0.3c0.1-0.2,0.3-0.4,0.4-0.5c0.8-0.9,1.6-1.8,2.3-2.7c-0.1-0.1-0.3-0.1-0.4-0.1
			c-0.7-0.3-1.3-0.4-2.1-0.3c-0.3,0.1-0.5,0.2-0.8,0.2c-0.1,0-0.3-0.1-0.4-0.1c-0.1-0.1-0.2-0.1-0.2-0.3c0.3-0.3,0-0.5,0-0.8
			c0-0.1-0.1-0.2-0.2-0.2c-0.8,0.2-1.5-0.1-2.3,0c-0.4,0.1-0.8-0.1-1.2-0.1c-1.3,0-2.6,0-3.9,0.1c-0.2,0-0.5,0-0.7-0.2
			c0.2-0.2,0.5-0.1,0.8-0.1c0.4,0,0.8,0,1.1,0c1.4,0,2.9,0,4.3,0c0.7,0,0.7,0,0.5-0.6c-0.1-0.2-0.1-0.3-0.1-0.5
			c0.1-0.2,0.3-0.2,0.5-0.2c0.3,0,0.4-0.2,0.4-0.5c0-0.4,0.2-0.8,0.3-1.2c0.1-0.3,0.3-0.4,0.6-0.1c0.1,0.2,0,0.5,0,0.7
			c-0.1,0.4,0,0.9-0.1,1.3c-0.1,0.2-0.3,0.3-0.2,0.6c0,0.1,0.1,0,0,0c-0.1-0.2-0.1-0.3,0.1-0.3c0.3,0.2,0.2,0.4,0.3,0.7
			c0.1,0.3,0.3,0.5,0.6,0.5c1-0.1,1.9,0.1,2.8,0.4c0.2,0.1,0.4,0.1,0.6,0.2c0.5,0.1,0.5,0.1,0.5-0.4c0-0.5,0-1.1,0-1.6
			c0-0.5,0.1-1,0.3-1.5c0.1-0.2,0.2-0.3,0.3-0.5c0.4-0.5,0.8-1,1.2-1.5c0.1-0.1,0.3-0.3,0-0.5c-0.3-0.1-0.5,0.1-0.8,0
			c-0.1,0-0.2,0-0.3-0.1c-0.2-0.5-0.1-0.6,0.4-0.7c-0.2-0.1-0.6,0.1-0.6-0.3c0.6-0.4,1.2-0.2,1.8,0c0.1,0,0.3,0.1,0.4,0.2
			c0.9,0.5,1,0.5,1.8-0.2c0.1-0.1,0.2-0.1,0.3-0.1c-0.1,0.6-0.1,0.6,0,1c-0.7,0-1.4,0-2-0.1c-0.1,0-0.3-0.1-0.4,0.1
			c-0.1,0.2-0.1,0.5,0,0.7c0,0.2,0.2,0.1,0.3,0.1c0.3,0.1,0.6-0.1,0.9,0.1c0.1,0.1,0,0.2-0.1,0.2c-0.5,0.2-0.8,0.5-1.1,0.9
			c-0.3,0.5-0.6,1-0.8,1.6c-0.2,0.7-0.2,1.5-0.1,2.2c0,0.4,0.3,0.6,0.7,0.7c0.1,0,0.1,0.1,0.2,0.1c0.2,0.1,0.4,0.2,0.7,0.3
			c0.5,0.3,1,0.5,1.5,0.7c0.6,0.3,1.3,0.6,1.9,0.9c0.1,0.1,0.3,0.1,0.4,0.2c0.1,0,0.2,0.1,0.3,0.1c0.3,0.2,0.6,0.3,1,0.5
			c0.2,0.1,0.4,0.2,0.6,0.2c2,0.8,4.1,1.1,6.3,0.7c0.1,0,0.2,0,0.3-0.1c0.5-0.3,0.9-0.6,1-1.2c0-0.1,0-0.3,0-0.4c0,0,0-0.1,0-0.1
			c0.1-0.2,0-0.3,0.1-0.5c0.1-0.2,0-0.4,0-0.7c-0.1-0.9,0-1.8,0.2-2.7c0.3-1,0.7-2.1,1-3c-0.9,0.4-1.8,0.6-2.8,0.7
			c-0.2,0-0.5,0-0.7,0.1c-0.2,0-0.4,0-0.6,0c-1.1,0-2.2,0-3.3-0.2c-0.1,0-0.2,0-0.2,0c-0.4-0.1-0.8,0-1.2-0.2c-0.1,0-0.1,0-0.1,0
			c-0.2-0.1-0.4-0.1-0.6-0.1c-0.6-0.1-1.1-0.2-1.7-0.3c-0.5-0.2-1.1-0.2-1.6-0.4c-0.1-0.1-0.2-0.1-0.2-0.3c0.7,0,1.5-0.2,2.2,0
			c0.3,0.1,0.5-0.1,0.8-0.1c0.2,0,0.2-0.6,0-0.8c-0.1-0.1-0.1-0.1-0.2-0.1c0.1-0.3,0.3-0.2,0.5-0.3c0.6-0.1,1.3-0.2,1.9-0.3
			c0.8-0.2,1.6-0.3,2.4-0.4c1.3-0.2,2.5-0.5,3.8-0.7C50.1,6,50.9,6,51.7,6.4c0.5,0.2,0.8,0.5,0.9,1.1c0,0.2,0,0.3,0,0.5
			c-0.2,1.2-0.5,2.3-0.8,3.4c0,0.5,0.4,0.1,0.5,0.2c0.9-0.1,1.7-0.2,2.6-0.3C55.5,11.2,56,11,56.6,11z"/>
		<path class="st20" d="M0.9,27.3c0-0.1,0-0.1,0-0.2c0.1-0.6,0-1.2-0.1-1.9c0-0.1,0-0.2,0-0.3c0.1-0.6,0-1.1,0-1.7
			c0-0.2,0-0.5,0-0.7c0-0.3,0.2-0.3,0.4-0.4c0.1,0,0.3,0,0.4,0c0.8,0.1,1.5,0.2,2.3,0.1c0.3,0,0.7,0,1,0c0.8,0.2,1.6,0.1,2.4,0.1
			c1,0,2,0.1,3,0.1c0.4,0.1,0.7,0,1.1,0.1c0.7,0,1.4,0,2.1,0c0.9,0.2,1.8,0.1,2.7,0.1c0.3,0,0.6-0.1,0.9,0.1
			c0.2,0.2,0.4,0.5,0.4,0.8c0,0,0,0.1,0,0.1c-0.1,0.2-0.1,0.3,0,0.5c0,0.1,0,0.1,0,0.2c0,0.3-0.1,0.6,0.1,0.9c0,1.3,0.1,2.5,0.1,3.8
			c0.1,0.1-0.2,0.2,0,0.3c0.1,0.2,0,0.2-0.2,0.3c-0.3-0.1-0.7,0-1-0.1c-0.7-0.1-1.5-0.1-2.3-0.1c-0.3,0-0.6-0.2-0.9-0.1
			c-0.4,0-0.9,0.1-1.3-0.1c-0.4-0.1-0.7-0.1-1.1,0c-1.2-0.1-2.3-0.1-3.5-0.2c-1.1-0.1-2.2-0.2-3.3-0.3c-0.9-0.1-1.8-0.1-2.6-0.2
			c-0.3,0-0.6-0.1-0.6-0.5C1,27.9,1,27.6,0.9,27.3z"/>
		<path class="st18" d="M42,9.7C42,9.7,42,9.7,42,9.7c0.3,0.3,0.7,0.1,1,0.2c0.2,0,0.3,0.1,0.5,0c1.1,0.1,2.3,0.2,3.4,0.2
			c-0.4,0.3-0.8,0.1-1.1,0.1c0.7,0.1,1.4-0.1,2.1-0.1c0.1,0,0.2,0,0.3-0.1c1-0.2,1.9-0.4,3-0.8c-0.4,1.1-0.7,2.1-1.1,3.2
			c-0.3,0.4-0.2,0.9-0.3,1.3c-0.2,0.9,0,1.7-0.2,2.6l0,0c-0.1,0.2-0.1,0.3,0,0.5c-0.1,0.6-0.6,1-1.1,1.3c-0.1,0.1-0.3-0.2-0.3,0.1
			c-1,0.3-2,0.3-3,0.2c-1.2-0.1-2.4-0.4-3.5-0.9c-0.1-0.2-0.3-0.2-0.6-0.2c-0.4-0.1-0.7-0.3-1-0.5c0-0.1-0.1-0.2-0.3-0.1
			c-0.1-0.1-0.3-0.1-0.4-0.2c-0.1-0.1-0.3-0.2-0.3-0.4c0-0.1-0.1-0.2-0.1-0.1c-0.6,0.2-1-0.3-1.5-0.4c0,0-0.1,0-0.1,0
			c-0.5-0.2-1-0.5-1.5-0.7c-0.2-0.2-0.4-0.3-0.7-0.3c0,0-0.1,0-0.1,0c-0.3-0.2-0.6-0.4-0.8-0.7c-0.2-0.8-0.2-1.6,0.1-2.4
			c0.2-0.1,0.3-0.1,0.4,0.1c0,0.2,0.1,0.3,0.3,0.3c0.7,0.3,1.3,0.8,2,1.1c0.2,0.1,0.4,0.3,0.7,0.2c-0.2-0.3-0.5-0.3-0.7-0.6
			c-0.1-0.2-0.3-0.2-0.5-0.3c-0.3-0.1-0.7-0.2-0.5-0.6c0.1-0.3,0.5-0.1,0.8-0.1c0.4,0,0.7,0.1,1.2,0.2c-0.1-0.3-0.3-0.3-0.5-0.4
			c-0.8-0.2-1.5-0.3-2.3-0.5c-0.4-0.3-0.4-0.4-0.1-0.8c0.1-0.1,0.2-0.2,0.1-0.3c0.3-0.6,0.8-0.8,1.3-1.1c0.1,0,0.2,0,0.3,0
			c0.2,0.1,0.3,0,0.5,0c0.2,0,0.3,0,0.5,0.1c0.6,0.2,1.2,0.3,1.8,0.4c0.6,0,1.1,0.2,1.7,0.3C41.6,9.8,41.8,9.6,42,9.7z"/>
		<path class="st20" d="M38.9,24.1c0.4,0.2,0.8,0.1,1.1,0.1c0.6,0.1,1.2,0.1,1.7,0.1c0.1,0,0.3,0,0.4,0.1c0.1,0.2,0,0.5,0,0.7
			c0,1.8,0,3.6,0,5.4c0,0.2,0.1,0.4-0.2,0.5c-0.4,0-0.8,0.1-1.2-0.1c0.1-0.1,0.3,0,0.5-0.1c-0.4,0.1-0.8,0-1.2,0.1
			c-0.4,0-0.8,0.1-1.2-0.1c0,0,0.1,0,0.1-0.1c-0.3,0-0.6,0-0.9,0c-0.3,0-0.6,0.1-0.9-0.1c-0.1-0.1-0.2-0.1-0.4,0
			c-1.8,0-3.6-0.2-5.4-0.3c-0.8-0.1-1.7-0.1-2.5-0.1c-0.6,0-1.2-0.1-1.9-0.1c-0.3,0-0.4-0.1-0.4-0.5c0-1.7,0-3.3,0-5
			c0-0.5,0-1,0-1.6c0-0.2,0.1-0.4,0.3-0.2c-0.1,0.3-0.2,0.6-0.2,0.9c0,1.9,0,3.7,0,5.6c0,0.1,0.1,0.3-0.1,0.5
			c0.1-0.2,0.1-0.3,0.1-0.5c0-1.9,0-3.8,0-5.6c0-0.4,0.1-0.7,0.5-0.8c0.6,0,1.3,0.1,1.9,0.2c0,0.1-0.1,0.1-0.2,0.1c-0.1,0,0,0.1,0,0
			c0.2-0.1,0.4,0,0.6-0.1c0.2,0,0.5-0.1,0.7,0.1c0.2,0.1,0.4,0.1,0.6,0c1.2,0.1,2.5,0.2,3.7,0.3c0.7,0.1,1.5,0.2,2.2,0.2
			c0,0,0,0.1,0,0.1c0.2,0.1,0.4,0.1,0.6,0C37.7,24,38.3,24.2,38.9,24.1C38.8,24.1,38.8,24.1,38.9,24.1z"/>
		<path class="st18" d="M54.2,42.3c0,0.7,0,1.4,0.1,2.2c0,0.4,0,0.6-0.3,0.9c-0.6,0.6-1.1,1.2-1.7,1.8c-0.2,0.1-0.2,0.2-0.3,0.4
			c-0.5,0.5-1,1-1.4,1.5c-0.1,0.1-0.3,0.3-0.3-0.1c0.1-0.3,0-0.7,0-1c-0.1-2.3-0.1-4.5-0.1-6.8c-0.1-2.7-0.2-5.3-0.1-8
			c-0.1-1.8-0.1-3.6-0.1-5.4c0-0.1,0-0.3-0.1-0.4c0-0.1,0-0.1,0-0.2c0.1-0.6,0.1-1.1,0-1.7c0-0.3,0.2-0.5,0.4-0.7
			c0.7-0.7,1.4-1.4,2.1-2.1c0.2-0.5,0.7-0.6,1.1-0.7c0.2,0,0.3,0.1,0.4,0.3c0,0.2,0,0.4,0,0.6c0,1.8,0,3.7,0,5.5
			c0,2.7,0.1,5.4,0.3,8c0,0.2,0,0.3,0,0.5c-0.2,0.7-0.2,1.4,0,2c0,0,0,0.1,0,0.1c0.1,0.5,0,1.1,0,1.5c0-0.2,0-0.2,0.2-0.4
			C54.3,40.9,54.2,41.6,54.2,42.3z"/>
		<path class="st18" d="M15.7,5.5c0.1-1.1,0.1-2.3,0.5-3.3c-0.1-0.2,0.1-0.4,0.2-0.5c0.2-0.1,0.3,0.1,0.3,0.2
			C17.5,3,18.3,4,19.4,4.8c0.1,0,0.1,0.1,0.1,0.2c0.1,0.3,0.3,0.4,0.6,0.4c0.4,0.2,0.7,0.5,1,0.7c0.1,0.2,0.2,0.4,0.5,0.4
			c0.2,0,0.3,0,0.4,0.1c0.7,0.5,1.4,0.7,2.1,1.1C24.3,8.1,24.7,8,25,8.1c0.4,0.3,0.8,0.1,1.1,0c0.5,0,0.9-0.1,1.4,0
			c0.2,0.2,0.1,0.4,0,0.5c-0.2,0.5-0.4,1.1-0.6,1.6c-0.1,0.2-0.3,0.2-0.5,0c-0.2-0.2-0.5-0.4-0.7-0.6c-0.1-0.2-0.4-0.1-0.5-0.3
			c-0.2-0.2-0.5-0.1-0.7-0.1c-0.2-0.1-0.4-0.1-0.6-0.2C23.7,9,23.6,9,23.5,9.2c0.1,0.3,0.3,0.5,0.6,0.6c0.3,0.1,0.7,0.2,1,0.3
			c0.2,0.1,0.3,0.1,0.3,0.3c0,0.2-0.1,0.3-0.3,0.4C25,10.9,24.9,11,24.7,11c-0.1,0.1-0.3,0.1-0.3,0.3c0,0.2,0.2,0.2,0.3,0.3
			c0.1,0,0.1,0.1,0.1,0.1c0,0.3,0.3,0,0.4,0.1c0-0.1,0-0.1,0-0.2c0.4-0.2,0.8-0.5,1.3-0.4c0.1,0.1,0.2,0.2,0.2,0.3
			c0,0.4,0.1,0.7,0.2,1.1c0.1,0.3,0,0.4-0.3,0.4c-1.6,0-3.3,0-4.9,0c-1.5,0-2.9,0.1-4.4-0.1c-0.2,0-0.4,0-0.6,0
			c-0.8,0-1.5-0.4-2.1-0.9c-0.4-0.3-0.8-0.7-1-1.2c0-0.1,0-0.2,0-0.3c0-0.2-0.1-0.1-0.1-0.1c-0.2-0.3-0.1-0.6,0-0.8
			c0.4-0.6,0.8-1.1,1.3-1.6c0.3-0.4,0.4-0.8,0.5-1.2C15.6,6.5,15.7,6,15.7,5.5z"/>
		<path class="st18" d="M46.9,20.8c-0.2,0-0.4,0-0.6-0.1c-0.1-0.1-0.3,0-0.4-0.1c-0.9-0.1-1.7-0.4-2.6-0.8c-0.1-0.1-0.2-0.1-0.4-0.1
			c-0.4-0.1-0.8-0.3-1.2-0.6c0-0.1-0.1-0.2-0.3-0.1c-0.1,0-0.2-0.1-0.3-0.2c-0.1-0.2,0-0.3,0.2-0.3c0.1,0,0.3,0.1,0.4,0.1
			c0.7,0.1,1.3,0.4,2,0.5c0.2,0.1,0.4,0.1,0.6,0.2c0.3,0.1,0.5,0.1,0.8,0c0.2,0,0.4,0,0.6,0.1c0.6,0.1,1.3,0.1,1.9,0
			c0.2,0,0.4-0.1,0.6,0c0.2-0.1,0.4-0.2,0.6-0.2c1.4-0.4,1.9-1.5,2.1-2.8c0.2-1.1,0.2-2.3,0.2-3.4c0-0.3,0.1-0.4,0.5-0.4
			c2.1-0.1,4.2-0.2,6.3-0.7c0.1,0,0.1-0.1,0.2-0.1c0.4,0,0.7-0.1,1-0.2c0.3-0.1,0.4,0,0.3,0.2c-0.1,0.2-0.1,0.4-0.2,0.6
			c-0.1,0-0.1-0.1,0-0.1c-0.1,0-0.1,0.1-0.1,0.1c0,0.1,0,0.2,0,0.3c-0.1,0.7-0.2,1.3-0.4,2c-0.1,0-0.1-0.1,0-0.1
			c-0.1,0-0.1,0.1,0,0.1c0,0.1,0,0.2,0,0.3c-0.1,0.5-0.1,0.9-0.3,1.4c-0.1,0,0-0.1-0.1-0.1c0.1,0.1,0,0.2,0.1,0.3
			c-0.1,0.9-0.3,1.7-0.5,2.6c-0.1,0-0.1-0.1,0-0.1C58,19,58,19.1,58,19.1c0,0.1,0,0.2,0,0.3c0,0.3-0.1,0.5-0.1,0.8c0,0-0.1,0-0.1,0
			c-0.2,0.2-0.3,0.4-0.6,0.5c-1.7,0.4-3.3,0.6-5,0.5c-0.7-0.1-1.4,0-2.2,0c-0.1,0-0.3,0-0.4,0c-0.1,0-0.1,0-0.2,0
			C49,21.1,48.4,21,47.8,21C47.5,20.9,47.2,20.8,46.9,20.8z"/>
		<path class="st20" d="M10.3,16.2c0,0,0.1,0,0.1,0c0.4,0.1,0.8,0,1.2,0c0.8,0,1.6,0,2.4,0.1c0.8,0.1,1.6,0.1,2.4,0
			c2.1,0,4.2,0,6.4-0.4c-0.5,0.5-0.9,1-1.3,1.4c-1.2,1.1-2.4,2.3-3.4,3.6c-0.3,0.4-0.6,0.5-1.1,0.5c-1.3,0-2.6,0-3.9,0
			c-2.1-0.1-4.3-0.1-6.4-0.1c-0.1,0-0.3,0-0.4-0.1c0.3-0.1,0.7,0,1-0.1c-1.4,0-2.8,0-4.3,0c-0.2,0-0.5,0.1-0.5-0.2
			c1.7-1.1,3.3-2.3,5-3.4c0.5-0.4,1-0.7,1.5-1.1c0.2-0.1,0.3-0.3,0.5-0.2C9.9,16.2,10.1,16.2,10.3,16.2z"/>
		<path class="st20" d="M51.7,11.4c0.3-1.2,0.6-2.3,0.9-3.5c-0.1,0,0.1,0,0,0c0,0,0,0.1,0,0c0-0.2,0.1-0.4,0-0.5
			c-0.4-1-1.3-1.2-2.2-1.3c-1-0.1-2,0.2-2.9,0.3c-0.7,0.1-1.3,0.2-2,0.3c-0.8,0-1.6,0.2-2.4,0.4c-0.7,0.2-1.4,0.3-2,0.4
			c-0.1,0-0.3,0-0.4,0.1c-0.2,0-0.3,0-0.5,0c-0.4,0-0.7-0.1-1.1,0c-0.1,0-0.2,0-0.3,0c-0.1,0-0.2,0-0.3-0.1
			c-0.1-0.1,0.1-0.2,0.1-0.2c0.9-0.9,1.7-1.8,2.6-2.6c0.5-0.5,1.1-0.6,1.8-0.4c0.3,0.1,0.6,0.1,0.9,0c1.8,0.1,3.6,0.2,5.3,0.3
			c0.9,0,1.8,0.1,2.7,0.1C52.2,5,52.4,5,52.6,5C52.8,5,53,5,53.3,5c0.8,0.1,1.6,0.1,2.4,0.2c0.5,0,1,0,1.5,0c1.7,0,3.3,0.1,5,0.3
			c0,0.2-0.1,0.2-0.2,0.3c-1.8,1.7-3.6,3.4-5.3,5.2c-0.6,0.4-1.2,0.4-1.9,0.4c-0.8,0.1-1.6,0.2-2.4,0.3
			C52.1,11.6,51.7,11.8,51.7,11.4z"/>
		<path class="st20" d="M28.1,21.7c1.6-1.8,3.2-3.6,4.8-5.4c0.2-0.3,0.5-0.5,0.7-0.8c0.4-0.4,0.5-0.4,1-0.1c0.8,0.7,1.6,1.3,2.4,2
			c2.2,1.9,4.7,3.1,7.4,3.9c0.1,0,0.1,0.1,0.2,0.1c0,0.1,0.1,0.1,0.1,0.2c-0.3,0.3-0.5,0.7-0.8,1c-0.4,0.6-1,0.7-1.8,0.6
			C41,23,39.8,23,38.6,22.9c-2.4-0.3-4.8-0.5-7.2-0.7c-0.9-0.1-1.9-0.2-2.8-0.2c-0.1,0-0.2-0.1-0.3-0.1C28.2,21.8,28,21.9,28.1,21.7
			z"/>
		<path class="st18" d="M27.7,20.4c-0.1,0.1-0.1,0.1-0.2,0.2c-0.3,0.2-0.6,0.4-0.7,0.8c-0.2,0.3-0.6,0.4-0.9,0.4
			c-1,0-2.1-0.1-3.1-0.1c-1.2-0.1-2.4-0.1-3.6-0.2c-0.1,0-0.4,0.1-0.4-0.1c-0.1-0.2,0.1-0.3,0.2-0.4c0.6-0.5,1.1-1.1,1.7-1.6
			c0.2,0,0.3-0.1,0.3-0.3c0.7-0.7,1.4-1.4,2.2-2.1c0.3-0.2,0.7-0.4,0.9-0.8c0.5-0.6,1.1-0.9,1.8-1.2c0.2,0.1,0.3,0,0.5-0.1
			c0.7-0.2,1.2-0.8,2-0.6c0.1,0,0.2,0.1,0.2,0.1c0.1,0.1,0.2,0.2,0.4,0.1c0.3-0.1,0.5-0.1,0.8-0.2c0.8,0,1.5,0.2,2.3,0.4
			c0.4,0,0.4,0.2,0.2,0.5c-0.7,0.9-1.5,1.7-2.2,2.6c-0.2,0.1-0.4,0.2-0.4,0.5c-0.1,0.1-0.2,0.2-0.3,0.3c-0.2,0.1-0.3,0.3-0.4,0.5
			c-0.3,0.4-0.5,0.7-0.9,1C27.9,20.2,27.7,20.2,27.7,20.4z"/>
		<path class="st18" d="M19.3,22.8c0.9,0,1.9,0.1,2.8,0.2c-0.2,0.1-0.4,0-0.6,0.1c-0.1,0,0,0.1-0.1,0.1c0,0,0,0,0,0
			c0.8,0,1.6,0,2.3,0.1c0.2,0,0.5,0.1,0.7,0c0.9,0,0.9,0,0.9,0.8c0,1.9,0,3.8,0,5.7c0,0.2,0.1,0.4-0.1,0.5c0-0.1-0.1-0.1-0.1-0.2
			c0-2,0-4,0-6c0-0.1-0.1-0.2,0.1-0.3c-0.2,0.1-0.1,0.2-0.1,0.3c0,1.9,0,3.8,0,5.6c0,0.4-0.1,0.5-0.5,0.5c-0.3,0-0.6-0.1-0.9,0
			c-1.1-0.1-2.2-0.1-3.2-0.2c-0.4-0.2-0.9-0.1-1.4-0.2c-0.4,0-0.4-0.2-0.4-0.5c0-0.4,0-0.9,0-1.3c0,0.2,0.1,0.4-0.1,0.6
			c-0.1-0.4-0.1-0.9-0.1-1.3c0.2-0.3,0-0.6,0-0.9c0-1.1-0.1-2.1-0.2-3.2c0-0.2,0.1-0.3,0.3-0.3C18.9,22.8,19.1,22.8,19.3,22.8z"/>
		<path class="st20" d="M43.6,27.6c-0.2-0.4-0.1-0.9-0.1-1.3c0.1-0.4,0.1-0.9,0-1.3c0-0.4,0.2-0.6,0.4-0.8c0.6-0.6,1.1-1.3,1.7-1.9
			c0.2-0.1,0.4-0.3,0.6-0.5c0.6-0.3,1.2,0,1.8,0c0.4,0,0.8,0,1.1,0.1c0.2,0.1,0.3,0.1,0.5,0c0,0,0.1,0,0.1,0c0.3,0.2,0.6,0.1,1,0.1
			c0.2,0,0.1,0.1,0,0.2c-0.2,0.2-0.5,0.5-0.7,0.7c-1.9,1.9-3.8,3.8-5.6,5.6c-0.1,0.1-0.2,0.2-0.3,0.3c-0.2,0-0.3,0.2-0.5,0.3
			C43.6,28.7,43.7,28.1,43.6,27.6C43.7,27.5,43.7,27.6,43.6,27.6C43.6,27.5,43.6,27.6,43.6,27.6z"/>
		<path class="st21" d="M49.7,21.2c0.1,0,0.3,0,0.4,0c0.7-0.1,1.4-0.1,2.2,0c1.7,0,3.4-0.2,5.1-0.6c0.2-0.1,0.4-0.2,0.5-0.4
			c0,0,0,0,0.1,0c0.4,0.1,0.6,0.4,0.5,0.7c0.2-0.1,0.4-0.4,0.7-0.2c0.1,0.1,0,0.2-0.1,0.3c-0.1,0.1-0.3,0.2-0.4,0.3
			c-0.3,0.2-0.6,0.2-1,0.2c-0.8,0.1-1.6,0.2-2.4,0.4c-0.1,0.1-0.2,0.1-0.3,0c-0.7,0.1-0.7,0.1-0.4,1c0.1,0.4,0.1,0.8,0.1,1.1
			c0,0.5,0,1.1,0,1.6c0,0.4,0,0.9,0,1.3c0,0.6,0,1.1,0,1.7c0,0.6,0.1,1.3,0.1,1.9c0,0.5,0,1.1,0,1.6c0,1.6,0,3.2,0.2,4.8
			c0,0.5,0,1.1,0,1.6c0,0.5,0.1,0.9,0,1.4c0,0.1,0,0.1,0,0.2c0,0.1,0.1,0.1,0.1,0.2c0,0.1,0,0.1-0.1,0.2c-0.1,0-0.2-0.1-0.1-0.1
			c0.2-0.5-0.2-0.8-0.4-1.1c0.2-0.2-0.1-0.5,0.1-0.7c0.2,0,0.2,0,0.3,0.2c-0.1,0,0.1-0.3-0.2-0.3c-0.1,0.1-0.3,0.2-0.1,0.4
			c0.1,0.1,0.1,0.2,0,0.4c0,0-0.1,0-0.1,0c0.2,0.4-0.2,0.8-0.1,1.3c0.1,0.5,0,1-0.1,1.5c-0.2-0.7,0-1.4-0.2-2.1
			C54,39.8,54,39.4,54,39l0,0c0-0.6-0.1-1.1-0.1-1.7c0-0.1,0-0.2,0.1-0.3c-0.1-1.9-0.2-3.9-0.2-5.8c-0.1-2.8,0-5.7,0-8.6
			c0-0.2,0.1-0.7-0.1-0.7c-0.3,0-0.7,0-0.9,0.2c-0.1,0.1-0.2,0.2-0.4,0.3c-0.1-0.1-0.3,0.1-0.3-0.2c0-0.3,0.1-0.3,0.3-0.2
			c0.5,0.1,0.6-0.5,0.9-0.7c-0.2-0.2-0.4-0.2-0.7-0.2c-0.8,0-1.5,0-2.3,0C50,21.3,49.9,21.3,49.7,21.2z"/>
		<path class="st22" d="M17.7,1.1c0.5-0.1,1,0.1,1.4,0.4c0.6,0.4,1.2,0.7,1.7,1.1c0.1,0.2,0.2,0.3,0.5,0.3c0.6,0.4,1.2,0.8,1.8,1.2
			c0.3,0,0.5,0.3,0.8,0.5c0.8,0.5,1.6,1.1,2.4,1.7c0.1,0.1,0.2,0.1,0.2,0.3c0.1,0.3,0.3,0.3,0.5,0.3c0.2,0.1,0.5,0.2,0.4,0.5
			c-0.3,0.2-0.6,0.1-0.9,0.1c-0.3,0-0.7,0-1,0.1c-0.6,0-1.1-0.1-1.6-0.5c-0.1-0.1,0.1-0.1,0-0.2c-0.3-0.1-0.5-0.3-0.8-0.3
			c-0.7-0.3-1.4-0.8-2-1.3c-1.1-0.8-2-1.7-2.9-2.8c-0.3-0.3-0.4-0.7-0.5-1C17.5,1.3,17.5,1.1,17.7,1.1z"/>
		<path class="st23" d="M26.4,6.5c-0.9-0.7-1.9-1.4-2.8-2c-0.2-0.1-0.4-0.3-0.5-0.5c0.4-0.2,0.9-0.1,1.3-0.1c0.1,0,0.3,0.1,0.2,0.2
			c-0.2,0.4,0.2,0.2,0.3,0.3c0.3-0.1,0.4,0.1,0.6,0.2c1.2,0.8,2.3,1.6,3.6,2.2c0.1,0,0.2,0.1,0.3,0.2c0,0.1,0,0.1,0,0.2
			c-0.1,0.3-0.2,0.3-0.4,0.1c-0.1-0.2-0.3-0.2-0.5-0.2c-0.3,0-0.4,0-0.3,0.3c0.2,0.4,0,0.4-0.3,0.5c-0.2,0-0.5,0-0.4,0.3
			c-0.5,0-1,0-1.6,0c-0.3,0.1-0.7-0.1-1-0.1c-0.3-0.1-0.7-0.1-0.9-0.4c-0.8-0.3-1.6-0.7-2.4-1.2c-0.1,0-0.1,0-0.2,0
			c-0.2-0.1-0.4-0.3-0.5-0.5c-0.3-0.2-0.6-0.5-1-0.7c-0.2-0.1-0.5-0.2-0.6-0.5c-0.5-0.5-1.1-0.9-1.6-1.5c-0.5-0.6-0.9-1.1-1.3-1.8
			c-0.2,0.1-0.2,0.3-0.3,0.5c-0.5,0.1-0.4-0.4-0.4-0.5c-0.1-0.2,0.3-0.1,0.4-0.1c0.2,0,0.4,0.1,0.6,0.1c0.3,0.1,0.6-0.2,0.6-0.5
			c0-0.1,0-0.3,0.2-0.3c0.1,0,0.1,0.2,0.2,0.2c-0.1,0.6,0.1,1,0.5,1.4c0.7,0.9,1.6,1.7,2.5,2.4c0.7,0.6,1.5,1.2,2.4,1.6
			c0.3,0.1,0.6,0.1,0.8,0.4c0.5,0.3,1,0.4,1.6,0.5c0.6,0,1.1,0.1,1.7,0c0.1,0,0.3,0,0.3-0.2c-0.2-0.1-0.3-0.2-0.5-0.4
			C26.7,6.8,26.5,6.7,26.4,6.5z"/>
		<path class="st18" d="M37.7,7c-0.2,0.2-0.3,0.3-0.5,0.5c-0.4,0.2-0.7,0.3-1.1,0c-0.7-0.6-1.5-0.7-2.4-0.4
			c-0.2,0.2-0.4,0.2-0.7,0.2c-0.4-0.1-0.3-0.3-0.1-0.5c0.2-0.2,0.5-0.5,0.8-0.6c0.2,0,0.4,0,0.6,0.1C34.2,6.1,34.1,6,34,5.9
			c0.2-0.6,0.7-0.8,1.2-1.1c0.2-0.1,0.3-0.3,0.5-0.3c1-0.1,2.1-0.1,3.1,0c0.2,0,0.4,0,0.6,0C39.7,4.7,40,4.4,40,4.8
			c-0.4,0.4-0.8,0.7-1.1,1.1c-0.3,0.1-0.5,0.3-0.6,0.6c-0.1,0.1-0.1,0.1-0.2,0.2C37.9,6.8,37.8,6.8,37.7,7z"/>
		<path class="st24" d="M61.9,12.7c-0.4,0.3-0.8,0.7-1.2,1c-0.1,0.1-0.2,0.2-0.3,0.1c-0.1-0.1-0.1-0.2,0-0.4
			c0.2-0.9,0.5-1.8,0.7-2.7c0.1-0.6-0.1-0.8-0.6-0.6c-0.5,0.1-0.9,0.4-1.5,0.5c-0.1-0.1-0.3,0-0.2-0.2C60,9.2,61.3,8,62.6,6.8
			c0.2,0.1,0.1,0.2,0.1,0.3c0,1.4,0,2.9,0,4.3c0,0.1,0,0.3-0.1,0.4c-0.1,0.2-0.3,0.3-0.4,0.5l0,0C62.1,12.5,62,12.6,61.9,12.7z"/>
		<path class="st23" d="M14.8,8.1c-0.2,0.5-0.6,0.9-0.9,1.3c-0.3,0.3-0.6,0.7-0.3,1.1c0.1,0.1,0.2,0.2,0.1,0.3
			c0.6,1.1,1.6,1.9,2.9,2.2c0.1,0,0.2,0,0.3,0c0.2,0.1,0.3,0,0.5,0c0.1,0,0.3,0,0.4,0.1c0.2,0.1,0.5,0,0.7,0c0.3,0.1,0.6,0,0.9,0
			c0.1,0.1,0.3,0,0.5,0.1c-0.3,0.1-0.6,0.3-1,0.1c-0.1-0.1-0.2,0-0.2,0.1c-0.1,0.3-0.4,0.4-0.7,0.2c0,0.5,0.6,0.2,0.7,0.6
			c-0.3,0-0.5,0-0.8-0.1c-0.1,0-0.1-0.2-0.2,0c-0.5,0.1-0.8-0.2-1.3-0.3c-0.2,0-0.3,0-0.4-0.1c-0.4-0.2-0.9-0.5-1.3-0.7
			c-0.2-0.1-0.4-0.1-0.5-0.4c-0.4-0.5-0.9-0.9-1.3-1.4C12,10.6,12,9.5,12.5,8.9c0.3-0.3,0.5-0.6,0.8-1c0.1,0.1,0.1,0.1,0.1,0.2
			c0,0.5,0.2,0.6,0.6,0.5c0.1,0,0.1-0.1,0.1-0.2C14.3,7.9,14.3,7.9,14.8,8.1C14.8,8.1,14.8,8.1,14.8,8.1z"/>
		<path class="st23" d="M33.8,6.1c-0.3,0.2-0.6,0.5-0.8,0.7c0,0-0.4,0.2,0,0.3c0.1,0.1,0.2,0.2,0.2,0.4c0,0.2,0,0.3-0.2,0.4
			c-0.2,0.1-0.3,0-0.4-0.1c-0.1-0.1-0.3-0.2-0.4-0.3c-0.3-0.4-0.7-0.4-1-0.1C31,7.7,30,7.9,29.7,7.8c-0.2-0.1-0.2-0.3-0.3-0.5
			c0-0.1,0-0.1,0-0.2c0.2-0.1,0.4,0,0.6,0.1c0.2,0.2,0.5,0.3,0.7,0c0.3-0.4,0.7-0.6,1-0.8c0.7-0.6,1.4-1.1,2.1-1.7
			c0.1,0,0.1,0,0.2,0c-0.1,0-0.1-0.1-0.2-0.1c-0.2-0.1-0.5-0.1-0.7-0.1c-2.3,0-4.5,0-6.8,0c-0.2,0-0.5,0.1-0.7-0.1
			c0-0.1-0.1-0.2,0-0.3c0.1-0.1,0.2-0.1,0.3,0c0.2,0.2,0.4,0.2,0.7,0.2c2.2,0,4.4,0,6.5,0c0.3,0,0.5,0.1,0.8-0.2
			c0.1-0.1,0.6,0.4,0.5,0.6c0,0.1-0.1,0.2,0.1,0.3c0.2,0.1,0.2,0,0.3-0.1c0.2-0.2,0.3-0.1,0.5,0c-0.4,0.4-0.8,0.7-1.2,1.1
			C34,6.1,33.9,6.1,33.8,6.1z"/>
		<path class="st25" d="M4.3,39.8c0-0.2,0-0.5,0-0.7c0.1,0.6,0.1,1.2,0.2,1.8c0,1,0.1,2.1,0.1,3.1c0.1,2.4,0.2,4.7,0.2,7.1
			c0,0.9,0.1,1.8,0.1,2.7c-0.1-0.2-0.2-0.4-0.2-0.6c-0.1-2.4-0.1-4.7-0.1-7.1c0,0,0-0.1,0-0.1c-0.1-0.4,0-0.9-0.1-1.3
			c0-0.3,0-0.6,0-0.9c-0.1-0.4,0-0.8-0.1-1.2c0-0.3,0-0.5,0-0.8c-0.1-0.4,0-0.7-0.1-1.1C4.3,40.4,4.3,40.1,4.3,39.8z"/>
		<path class="st26" d="M11,15.2c1,0.1,2.1,0.1,3.1,0.1c1.3,0,2.6-0.1,3.9-0.1c0.9,0,1.8-0.1,2.7-0.2c0.6-0.1,1.1-0.2,1.7-0.2
			c0.2,0,0.4-0.1,0.7,0c-0.8,0.3-1.6,0.4-2.4,0.4c-0.2,0.1-0.4,0-0.5,0.1c-0.2,0-0.3,0-0.5,0c-0.2,0.1-0.4,0-0.6,0.1
			c-0.3,0-0.5,0-0.8,0c-0.3,0.1-0.6,0-0.8,0.1c-2,0.1-4.1,0.2-6.1,0C11.3,15.2,11.1,15.4,11,15.2z"/>
		<path class="st27" d="M50,33.1c0,1.2,0,2.3,0,3.5c0,0.2,0.1,0.5,0.1,0.7c0,0.6,0,1.2,0,1.8c0,0.3,0,0.6,0,0.9c0,2,0.2,4,0.1,6.1
			c0,0.8,0.1,1.6,0.1,2.5c0,0.1,0,0.3-0.1,0.4c0-0.2,0-0.4,0-0.5c-0.1-0.2,0-0.5-0.1-0.7c0-0.5,0-1,0-1.4c-0.1-0.7,0-1.3,0-2
			c0-0.2,0-0.4,0-0.5c0-0.9,0-1.8,0-2.7c-0.1-0.8,0-1.5-0.1-2.3c0-0.8,0-1.6,0-2.4c-0.1-1,0-2.1,0-3.1C49.9,33.1,49.9,33.1,50,33.1z
			"/>
		<path class="st28" d="M25.6,4.3c2.6,0,5.2,0,7.8,0c0.3,0,0.5,0,0.7,0.3c0,0,0,0,0,0c0,0,0,0,0,0c-0.1,0-0.1,0-0.2,0.1
			c-0.3-0.1-0.6-0.1-0.9-0.1c-2.5,0-5,0-7.5,0c-0.2-0.1-0.4-0.2-0.5-0.3C25.1,4.2,25.4,4.4,25.6,4.3z"/>
		<path class="st29" d="M19.4,44.4c0-0.5-0.1-1-0.1-1.5c-0.1-1.4-0.2-2.8-0.1-4.2c0-0.8-0.1-1.6-0.1-2.4c0.1-1.2-0.1-2.3-0.1-3.5
			c0-0.4,0-0.8,0-1.3c0-0.5-0.1-0.5-0.5-0.5c-0.1,0-0.2,0-0.2-0.1c0.2,0,0.4,0,0.6,0c0.2,0,0.3,0,0.3,0.2c0,0.3,0,0.6,0,0.8
			c0.1,0.5,0,1,0.1,1.5c-0.1,0.5,0.1,1,0.1,1.5c0,0.2,0,0.4,0,0.5c0.1,0.5,0,1.1,0.1,1.6c0,0.5,0,1,0,1.4c0.1,0.7,0,1.3,0.1,2
			c0,0.5,0,1,0,1.4c0.1,0.5,0,1.1,0.1,1.6C19.5,43.9,19.5,44.2,19.4,44.4C19.5,44.4,19.4,44.4,19.4,44.4z"/>
		<path class="st30" d="M41.2,37.1c0-0.2,0-0.4,0-0.5c0.2,0,0.2,0.1,0.2,0.2c-0.1,1.7,0.2,3.4,0.3,5c0.1,1.1,0.1,2.2,0.2,3.3
			c0,0-0.1,0-0.1,0c0,0-0.1-0.1-0.1-0.1c0-0.2,0-0.5,0-0.7c-0.1-0.2,0-0.5-0.1-0.7c0-0.2,0-0.4,0-0.7c-0.1-0.3,0-0.6-0.1-0.9
			c-0.1-1.1-0.2-2.2-0.2-3.3c-0.1-0.3,0-0.5-0.1-0.8C41.3,37.6,41.2,37.3,41.2,37.1z"/>
		<path class="st31" d="M28.6,51.1c0.4,0.2,0.1,0.6,0.1,0.9c0,0.2-0.1,0.5,0.1,0.6c0.1,0,0,0.2,0,0.3c-0.1,0.7-0.1,1.4,0,2.1
			c0,0.1,0,0.3,0,0.4c0,0.3-0.2,0.6,0.1,0.8c0.4,0.2,0.9,0.4,1.4,0c-0.1,0.3-0.1,0.3-0.7,0.3c-0.1,0-0.2,0-0.4,0
			c-0.2-0.1-0.4,0-0.6-0.1c-0.1-0.2-0.1-0.4,0-0.5c-0.1-0.3,0-0.6-0.1-0.8c0-0.3,0-0.6,0-0.9c-0.1-0.3,0-0.6-0.1-0.8
			c0-0.3,0-0.6,0-0.8c-0.1-0.3,0-0.6,0-0.9C28.5,51.4,28.5,51.2,28.6,51.1z"/>
		<path class="st32" d="M27.5,51.8c0,0.2,0,0.4,0,0.6c0,0,0,0-0.1,0c-0.1-1-0.1-2-0.2-3c-0.1-0.9-0.2-1.9-0.2-2.8
			c0-0.2-0.1-0.4,0.1-0.5c0,0.2,0,0.3,0,0.5c0.1,0.3,0,0.5,0.1,0.8c0,0.2,0,0.3,0,0.5c0.1,0.2,0,0.5,0.1,0.7
			C27.4,49.5,27.5,50.6,27.5,51.8z"/>
		<path class="st31" d="M10.6,30.4c-0.1,0.1-0.2,0.2-0.3,0.1c-2-0.1-4-0.4-6-0.4c-0.1,0-0.1-0.1-0.2-0.1c0.1-0.1,0.2,0,0.3-0.1
			c0.1,0,0.2,0,0.3,0c0.2,0.1,0.5,0,0.7,0.1c1.2,0,2.5,0.1,3.7,0.2c0.2,0.1,0.5,0,0.7,0.1C10.1,30.4,10.4,30.4,10.6,30.4z"/>
		<path class="st33" d="M26.6,39.2c0,0.3,0,0.5,0,0.8c-0.1-0.7-0.2-1.4-0.2-2.1c0-1.9,0-3.8,0-5.6c0-0.3,0.1-0.5-0.3-0.7
			c0.1,0,0.3,0,0.4,0c0.2,0.2,0,0.5,0,0.7c0,1.5,0,3,0,4.6c0.1,0.5,0,0.9,0.1,1.4C26.6,38.5,26.6,38.8,26.6,39.2z"/>
		<path class="st34" d="M23.8,30c0.3-0.2,0.6-0.1,0.9-0.1c0.4,0,0.5-0.1,0.5-0.5c0-1.8,0-3.7,0-5.5c0-0.1,0-0.3,0.1-0.5
			c0,2.3,0,4.4,0,6.6C24.8,30.1,24.3,30,23.8,30z"/>
		<path class="st35" d="M49,50c0-0.1-0.1-0.2-0.1-0.3c0.3-0.9,0.1-1.9,0.1-2.9c0-0.8-0.1-1.5-0.1-2.3c0,0,0.1,0,0.1-0.1
			c0,0,0.1,0,0.1,0.1c0.1,1.3,0.1,2.6,0.2,3.8C49.3,49,49.2,49.5,49,50z"/>
		<path class="st36" d="M48.9,39.6c0,0.6,0,1.2,0,1.8c0,0-0.1,0-0.1,0c0-0.1,0-0.1,0-0.2c0-2-0.2-4-0.1-6c0-0.5-0.1-0.9-0.1-1.4
			c0,0,0.1,0,0.1,0c0.1,0.1,0,0.2,0.1,0.3c0,0.6,0,1.2,0,1.7c0.1,0.7,0,1.3,0.1,2C48.9,38.5,48.9,39.1,48.9,39.6z"/>
		<path class="st37" d="M27.2,23.1c-0.6,0.3-0.5,0.9-0.5,1.4c0,1.6,0,3.2,0,4.8c0,0.3-0.1,0.6,0.1,0.9c-0.3-0.1-0.2-0.3-0.2-0.4
			c0-2.1,0-4.1,0-6.2c0-0.2-0.1-0.4,0.2-0.5C26.9,23.1,27.1,23.1,27.2,23.1z"/>
		<path class="st38" d="M41,52.5c-0.2-0.6-0.2-1.3-0.2-1.9c0-0.8-0.1-1.6-0.2-2.4c0-0.5,0-1.1-0.1-1.6c0-0.2,0-0.4,0.2-0.5
			c0,0.2,0,0.5,0,0.7c0.1,0.3,0,0.7,0.1,1c0,0.2,0,0.4,0,0.6c0.1,0.3,0,0.5,0.1,0.8c0,0.3,0,0.6,0,0.8c0.1,0.3,0,0.6,0.1,0.8
			c0,0.2,0,0.4,0,0.7c0.1,0.2,0,0.4,0,0.6C41,52.3,41,52.4,41,52.5z"/>
		<path class="st39" d="M19.3,22.8c-0.2,0.2-0.6-0.1-0.7,0.2c-0.1,0.2,0.1,0.5,0.1,0.8c0,1,0.1,2.1,0.1,3.1c0,0.1,0,0.2-0.2,0.3
			c0-0.2,0-0.4,0-0.7c-0.1-0.3,0-0.6-0.1-0.9c0-0.8-0.1-1.6-0.1-2.4c0-0.4,0.1-0.5,0.5-0.5C19,22.8,19.2,22.8,19.3,22.8z"/>
		<path class="st40" d="M42.2,32.4C42.2,32.4,42.3,32.4,42.2,32.4c0.1,0,0.1,0.1,0.1,0.1c-0.3,0.1-0.5,0.1-0.8,0
			c-0.3,0-0.5,0-0.5,0.4c0.1,0.6,0.1,1.3,0.2,1.9c0.1,0.5,0.1,1-0.1,1.5c0-0.2,0-0.4,0-0.6c-0.1-0.3,0-0.6-0.1-0.9
			c-0.1-0.7-0.1-1.4-0.2-2.1c0-0.3,0.1-0.4,0.4-0.4C41.6,32.3,41.9,32.4,42.2,32.4z"/>
		<path class="st35" d="M28.1,42.9c0.1,0.1,0.1,0.2,0.1,0.3c0,1.4,0.2,2.8,0.2,4.2c0,0.6,0.1,1.2,0.1,1.9c0,0.2,0,0.3-0.1,0.5
			c0-0.3,0-0.6,0-0.8c-0.1-0.3,0-0.6-0.1-0.9c0-0.2,0-0.4,0-0.7c-0.1-0.3,0-0.5-0.1-0.8c0-0.3,0-0.7,0-1c-0.1-0.3,0-0.6-0.1-0.8
			c0-0.3,0-0.5,0-0.8c-0.1-0.2,0-0.5,0-0.8C28,43,28,43,28.1,42.9z"/>
		<path class="st41" d="M50,33.1C50,33.1,49.9,33.1,50,33.1c-0.1,0.1-0.2,0-0.2,0c0-0.8,0-1.6,0-2.3c-0.1-0.7,0-1.5,0-2.2
			c0-0.2,0-0.4,0-0.6c0-0.2,0-0.5,0-0.7c0.3,0.1,0.2,0.3,0.2,0.5c0,1.2,0,2.5,0,3.7c0,0.5-0.1,1,0.2,1.5C50.1,32.9,50,33,50,33.1z"
			/>
		<path class="st42" d="M61.9,31.2c0,0.4,0,0.7-0.2,1.1c0.1-1.8,0-3.6-0.1-5.5c0.1,0.2,0.1,0.3,0.2,0.4c0,0.4,0,0.8,0,1.1
			c0.1,0.4,0,0.9,0.1,1.3C61.9,30.1,61.9,30.7,61.9,31.2z"/>
		<path class="st43" d="M24.4,31.3c-0.4,0.2-0.9,0.1-1.3,0.1c-0.7-0.1-1.4,0-2.1-0.2c-0.6-0.1-0.7,0-0.7,0.6c0,0.3,0,0.3-0.2,0.2
			c-0.1-1.1-0.1-1.1,1-1c0.1,0,0.3,0,0.4,0c0.3,0.1,0.6,0,0.8,0.1c0.2,0,0.4,0,0.7,0c0.2,0.1,0.5,0,0.7,0.1
			C24,31.3,24.2,31.3,24.4,31.3z"/>
		<path class="st17" d="M42.1,49.2c0.1,0.6,0.2,1.1,0.2,1.7c0.1,1,0.1,2,0.1,2.9c0,0-0.1,0-0.1,0c-0.1-0.2,0-0.3-0.1-0.5
			c0-0.2,0-0.4,0-0.6c-0.1-0.2,0-0.5-0.1-0.7c0-0.2,0-0.5,0-0.7c-0.1-0.2,0-0.5-0.1-0.7c0-0.2,0-0.4,0-0.6
			C42.1,49.7,42.1,49.5,42.1,49.2C42.1,49.3,42.1,49.2,42.1,49.2z"/>
		<path class="st44" d="M29.5,31.7c-0.5,0.3-1.1,0.1-1.7,0c-0.3,0-0.4-0.1-0.4,0.3c0,0.7,0.2,1.3,0,2c0-0.7-0.1-1.5-0.1-2.2
			c0-0.3,0.1-0.3,0.3-0.3C28.3,31.6,28.9,31.7,29.5,31.7z"/>
		<path class="st45" d="M41.9,31.1c0.2-0.2,0.2-0.4,0.2-0.6c0-2,0-4,0-6c0.1,0.1,0.1,0.3,0.1,0.4c0,1.9,0,3.9,0,5.8
			C42.2,30.9,42.3,31.2,41.9,31.1z"/>
		<path class="st46" d="M6.6,54.1c0.3-0.2,0.7-0.1,1-0.1c1.2,0.1,2.4,0.2,3.6,0.4c0.2,0,0.4-0.2,0.7,0c-0.2,0.2-0.4,0.1-0.6,0.1
			c-0.1,0-0.2,0-0.4,0c-0.2-0.1-0.4,0-0.6-0.1c-0.2,0-0.3,0-0.5,0c-0.2-0.1-0.4,0-0.6-0.1c-0.1,0-0.2,0-0.4,0
			c-0.2-0.1-0.4,0-0.6-0.1C7.7,54.3,7.2,54.2,6.6,54.1z"/>
		<path class="st47" d="M55.1,40.4c0-0.1,0-0.1,0-0.2c0.3,0.1,0.2,0.3,0.2,0.5c-0.1,0.9,0.3,1.8,0.1,2.8c0.3,0,0.3-0.5,0.6-0.4
			c-0.2,0.3-0.3,0.6-0.7,0.8c-0.1-0.7-0.1-1.4-0.1-2.1C55.1,41.3,55.2,40.8,55.1,40.4z"/>
		<path class="st48" d="M2.6,20.9c0.1,0.2,0.3,0.2,0.6,0.2c1.4,0,2.8,0,4.2,0c0.2,0,0.3,0,0.5,0c0,0,0,0.1,0,0.1c-0.5,0-1,0-1.5,0
			c-1.2,0-2.4,0-3.6,0c-0.1,0-0.3,0-0.3-0.1C2.4,21,2.5,20.9,2.6,20.9z"/>
		<path class="st49" d="M18.7,28.5c0-0.3,0-0.5,0-0.8c0,0,0.1,0,0.1,0c0,0.4,0,0.7,0,1.1c0,0.8,0.2,1,1,0.9c0.2,0,0.4,0,0.6,0
			c0.1,0,0.2,0.1,0.1,0.2c-0.5,0-1.1-0.1-1.6-0.1c-0.2,0-0.3-0.1-0.3-0.3C18.7,29.1,18.7,28.8,18.7,28.5z"/>
		<path class="st38" d="M41.8,45.1C41.9,45.1,41.9,45.1,41.8,45.1c0.2,1.2,0.2,2.3,0.3,3.5c0,0.2,0,0.4,0,0.6c0,0-0.1,0-0.1,0
			c-0.1-0.7-0.2-1.4-0.1-2.1c-0.1-0.3,0-0.6-0.1-0.8c0-0.2,0-0.4,0-0.6C41.8,45.5,41.8,45.3,41.8,45.1z"/>
		<path class="st50" d="M38.1,32.4c-1.3-0.1-2.5-0.2-3.8-0.2c-0.1,0-0.1-0.1-0.2-0.1c0.1-0.1,0.2,0,0.3-0.1c0.1,0,0.1,0,0.2,0
			c0.3,0.1,0.6,0,0.9,0.1c0.2,0,0.5,0,0.7,0c0.3,0.1,0.6,0,0.8,0.1c0.3,0,0.6,0,0.8,0c0.1,0.1,0.2,0,0.2,0.1
			C38.1,32.3,38.1,32.4,38.1,32.4z"/>
		<path class="st51" d="M19.7,53.6c-0.2-0.8-0.1-1.6-0.1-2.4c0-0.4-0.2-0.7,0.1-1.1c0,1,0.1,2.1,0.1,3.1
			C19.8,53.4,19.8,53.5,19.7,53.6z"/>
		<path class="st52" d="M57.1,5.2c-0.8,0.1-1.6,0-2.4,0c-0.5-0.1-1,0.1-1.4-0.1c1.2,0,2.4,0.1,3.6,0.1C57,5.1,57,5.2,57.1,5.2z"/>
		<path class="st53" d="M26.5,56.2c0.2-0.3,0.5-0.1,0.8,0c0.3,0,0.3-0.1,0.3-0.3c0-0.5-0.1-1,0.1-1.5c0,0.5,0,1,0.1,1.5
			c0.1,0.4-0.1,0.5-0.5,0.4C27,56.3,26.8,56.2,26.5,56.2z"/>
		<path class="st54" d="M20.5,42.5c0.1,0.1,0.2,0.2,0.2,0.3c0,0.9,0,1.8,0,2.7c0,0,0,0.1-0.1,0.1C20.6,44.6,20.5,43.6,20.5,42.5z"/>
		<path class="st55" d="M48.7,33.9C48.7,33.9,48.7,33.9,48.7,33.9c-0.1-1.3,0-2.6-0.2-3.9c0-0.2,0.1,0.1,0.2,0c0,0.5,0,1.1,0,1.6
			C48.8,32.4,48.8,33.1,48.7,33.9z"/>
		<path class="st56" d="M4,34.9c0.1,0,0.2,0.1,0.2,0.2c-0.1,0.7,0.1,1.5,0,2.2c0,0,0,0.1-0.1,0.1C4.1,36.6,4,35.7,4,34.9z"/>
		<path class="st57" d="M24.5,23.1c-0.8,0.2-1.6,0.1-2.4,0c-0.2,0-0.5,0-0.7-0.1c0.2,0,0.5,0,0.7,0c0.3,0,0.5,0,0.8,0
			c0.3,0.1,0.7,0,1,0.1C24.1,23,24.3,23,24.5,23.1z"/>
		<path class="st58" d="M1.2,22.2c-0.4,0.1-0.3,0.5-0.3,0.7c0,0.6-0.1,1.2,0.1,1.8c0,0.1-0.1,0.1-0.1,0.2c0-0.8-0.1-1.6,0-2.4
			C0.8,22.2,0.9,22.1,1.2,22.2z"/>
		<path class="st59" d="M43.6,27.6c0-0.1,0-0.2,0-0.3c0,0,0,0,0.1,0c0,0.6,0,1.2,0,1.9c0.2-0.1,0.2-0.5,0.5-0.2
			c0,0.1-0.1,0.1-0.1,0.2c-0.1,0.1-0.3,0.3-0.5,0.4C43.6,28.9,43.6,28.2,43.6,27.6z"/>
		<path class="st60" d="M28.1,42.9C28.1,43,28.1,43,28.1,42.9C28,43.1,28,43.1,28.1,42.9c-0.1-0.6-0.1-1.3-0.2-2
			c0.2,0.2,0.4,0.5,0.2,0.8C28,42.2,28.2,42.6,28.1,42.9z"/>
		<path class="st61" d="M40,36.8c-0.2-0.6-0.1-1.3-0.2-1.9c-0.1-0.4,0-0.7,0-1.1c0,0,0.1,0,0.1,0c0.1,0.7,0.1,1.4,0.1,2.1
			C40.1,36.2,40,36.5,40,36.8C40,36.8,40,36.8,40,36.8z"/>
		<path class="st42" d="M33.1,31.9c-0.2,0.3-0.6,0.1-0.8,0.1c-0.5,0-1.1,0.2-1.6-0.2C31.5,31.8,32.3,31.9,33.1,31.9z"/>
		<path class="st62" d="M2.5,10.6c0.2,0.7-0.1,1.4-0.2,2c0,0.2-0.1,0.3-0.1,0.5c0,0,0,0,0,0c0,0,0,0,0,0C2.2,12.2,2.4,11.4,2.5,10.6
			z"/>
		<path class="st58" d="M3.8,22.3c-0.5,0.2-1,0-1.5,0.1c-0.2,0-0.5,0-0.7,0c-0.2,0-0.1-0.1-0.1-0.2C2.3,22.2,3.1,22.2,3.8,22.3z"/>
		<path class="st18" d="M49.8,33.1C49.9,33.1,49.9,33.1,49.8,33.1c0.1,1.1,0.1,2.1,0.1,3.2C49.8,35.2,49.8,34.1,49.8,33.1z"/>
		<path class="st63" d="M14.2,29.4c0.8,0,1.6,0,2.4,0.1c0,0,0,0,0,0.1c0,0,0,0,0,0c-0.9-0.1-1.9,0-2.8-0.2
			C13.9,29.4,14,29.4,14.2,29.4z"/>
		<path class="st64" d="M38.9,4.5c-1,0-2.1,0-3.1,0c0.4-0.2,0.9-0.1,1.3-0.1C37.7,4.4,38.3,4.4,38.9,4.5z"/>
		<path class="st65" d="M42.4,53.9C42.5,53.9,42.5,53.9,42.4,53.9c0.2,0.9,0.2,1.8,0.3,2.8c-0.1-0.1-0.1-0.2-0.2-0.3
			c0-0.2,0-0.4,0-0.7c-0.1-0.2,0-0.5-0.1-0.7c0-0.2,0-0.5,0-0.7C42.4,54.1,42.4,54,42.4,53.9z"/>
		<path class="st66" d="M49,44.6C49,44.6,49,44.6,49,44.6c-0.1-0.8-0.1-1.7-0.1-2.5c0-0.2,0-0.3,0.1-0.5c0,0.5,0,1,0,1.4
			C49.1,43.6,49.1,44.1,49,44.6z"/>
		<path class="st67" d="M16.1,22.7c-0.9,0.2-1.8,0.1-2.6,0.1c0,0-0.1-0.1-0.1-0.1c0.1,0,0.1,0,0.2,0c0.2,0.1,0.4,0,0.6,0.1
			C14.9,22.6,15.5,22.7,16.1,22.7z"/>
		<path class="st68" d="M12.3,6.1C12.1,6,11.9,6,11.7,6C11.4,6,11.2,6,11,5.9c-0.1,0-0.1-0.1-0.1-0.2C11.4,5.8,12,5.8,12.6,6
			C12.5,6.1,12.4,6,12.3,6.1z"/>
		<path class="st69" d="M7.3,22.4c-0.8,0.1-1.6,0.2-2.4-0.1C5.7,22.3,6.5,22.3,7.3,22.4z"/>
		<path class="st18" d="M49.7,28c0.2,0.6,0,1.1,0.1,1.7c0,0.4,0,0.7,0,1.1C49.7,29.8,49.7,28.9,49.7,28z"/>
		<path class="st46" d="M38.1,32.4C38.1,32.4,38.1,32.3,38.1,32.4c0.2-0.2,0.5-0.2,0.7-0.1c0.1,0,0.3,0,0.4,0
			c0.5-0.1,0.6,0.1,0.5,0.6c0,0,0,0.1,0,0.1c0,0.1-0.1,0-0.1,0c0-0.5-0.3-0.5-0.7-0.5C38.7,32.4,38.4,32.4,38.1,32.4z"/>
		<path class="st18" d="M19.8,13.2c-0.1,0-0.3-0.1-0.4-0.1c0.9-0.1,1.7,0,2.6,0c0.1,0,0.1,0.1,0.1,0.1c-0.7,0-1.3,0-2,0
			C20,13.2,19.9,13.2,19.8,13.2z"/>
		<path class="st18" d="M50,43.7c0.2,0.8,0,1.7,0.1,2.5C50,45.4,50,44.5,50,43.7z"/>
		<path class="st17" d="M48.7,33.9c0-0.7,0-1.5,0-2.2c0.1,0.8,0.1,1.7,0.1,2.5C48.7,34.1,48.7,34,48.7,33.9z"/>
		<path class="st70" d="M15.7,5.5c0.2,0.5,0.1,1-0.3,1.4C15.5,6.4,15.6,6,15.7,5.5z"/>
		<path class="st71" d="M0.8,25.2c0.3,0.6,0.2,1.2,0.1,1.9C0.9,26.5,0.8,25.8,0.8,25.2z"/>
		<path class="st72" d="M16.3,16.3c-0.8,0.1-1.6,0.2-2.4,0C14.8,16.3,15.6,16.3,16.3,16.3z"/>
		<path class="st73" d="M34.9,57.1c0.6-0.3,1.2,0.1,1.9,0c-0.2,0.2-0.4,0.1-0.5,0.1C35.7,57.2,35.3,57.1,34.9,57.1z"/>
		<path class="st18" d="M49.9,38.7c0.2,0.8,0,1.5,0.1,2.3C49.9,40.2,49.9,39.5,49.9,38.7z"/>
		<path class="st74" d="M41.2,55.5c-0.1-0.6-0.3-1.2,0-1.9c0,0.3,0,0.7,0,1c0.1,0.2,0,0.4,0,0.6C41.2,55.4,41.2,55.5,41.2,55.5z"/>
		<path class="st75" d="M19.4,44.4C19.4,44.4,19.5,44.4,19.4,44.4c0.1,0.4,0.1,0.8,0.1,1.2c0,0.2,0,0.5,0,0.7c0,0-0.1,0-0.1,0
			C19.4,45.7,19.4,45.1,19.4,44.4z"/>
		<path class="st17" d="M48.9,37.9c-0.2-0.7,0-1.3-0.1-2C49,36.6,48.9,37.2,48.9,37.9z"/>
		<path class="st76" d="M44.8,55.1c0-0.4,0.5-0.9,0.8-0.9C45.4,54.6,45,54.8,44.8,55.1z"/>
		<path class="st17" d="M19.4,40.7c-0.2-0.7,0-1.3-0.1-2C19.4,39.3,19.4,40,19.4,40.7z"/>
		<path class="st77" d="M24.1,16.2C24,16.6,23.6,17,23.2,17C23.5,16.7,23.8,16.5,24.1,16.2z"/>
		<path class="st35" d="M28.6,51.1c0,0.1,0,0.3,0,0.4c0,0-0.1,0-0.1,0c0-0.3,0-0.6,0-0.9c0-0.2,0-0.5,0-0.8
			C28.7,50.3,28.5,50.7,28.6,51.1z"/>
		<path class="st31" d="M40.1,37.6c0,0.2,0,0.4,0,0.7c-0.2-0.5-0.1-1-0.1-1.4l0,0c0,0,0.1,0,0.1,0C40.1,37.1,40.1,37.3,40.1,37.6z"
			/>
		<path class="st54" d="M20.4,37.3c0-0.1,0.1-0.1,0.1-0.1c0,0.5,0.1,1-0.1,1.5C20.4,38.2,20.4,37.7,20.4,37.3z"/>
		<path class="st78" d="M49.7,25.4c0.2,0.6,0.1,1.1,0,1.7C49.7,26.5,49.7,26,49.7,25.4z"/>
		<path class="st79" d="M59.1,21c0-0.1,0.1-0.2,0.1-0.3c0-0.2,0.1-0.4,0.1-0.6c0.2,0.3,0.1,0.6,0,0.8C59.2,21.1,59.1,21.1,59.1,21z"
			/>
		<path class="st80" d="M13.8,7c-0.1-0.3,0-0.5,0-0.8C14.2,6.5,13.8,6.7,13.8,7z"/>
		<path class="st81" d="M17.5,25.2c-0.3-0.3-0.2-0.6-0.1-0.9C17.6,24.6,17.5,24.9,17.5,25.2z"/>
		<path class="st17" d="M19.3,37.2c-0.2-0.5,0-1.1-0.1-1.6C19.3,36.1,19.3,36.7,19.3,37.2z"/>
		<path class="st17" d="M19.5,43.7c-0.2-0.5,0-1.1-0.1-1.6C19.5,42.6,19.5,43.2,19.5,43.7z"/>
		<path class="st82" d="M20.7,47.3c0,0,0.1,0,0.1,0c-0.1,0.5,0.1,1-0.1,1.4C20.7,48.2,20.7,47.8,20.7,47.3z"/>
		<path class="st82" d="M24.5,56c0.4-0.1,0.9-0.1,1.3,0.1C25.4,56.1,25,56,24.5,56z"/>
		<path class="st17" d="M19.2,33.6c-0.2-0.5,0-1-0.1-1.5C19.2,32.6,19.2,33.1,19.2,33.6z"/>
		<path class="st17" d="M49,44.6c0-0.5,0-1,0-1.5C49.2,43.6,49.1,44.1,49,44.6C49.1,44.6,49.1,44.6,49,44.6z"/>
		<path class="st74" d="M41,52.5c0-0.1,0-0.2,0-0.3c0,0,0,0,0.1,0c0,0.3,0,0.6,0,1c0,0.1,0,0.2,0,0.3c0,0-0.1,0-0.1,0
			C41,53.1,41,52.8,41,52.5z"/>
		<path class="st83" d="M40.6,45.4c0,0.1,0,0.1,0,0.2c0-0.4-0.2-0.8,0-1.1C40.6,44.7,40.6,45,40.6,45.4z"/>
		<path class="st18" d="M26.6,38.2c-0.2-0.5-0.1-0.9-0.1-1.4C26.6,37.2,26.6,37.7,26.6,38.2z"/>
		<path class="st84" d="M10.9,29.3c0.4-0.2,0.8,0,1.3-0.1c0,0-0.1,0.1-0.1,0.1c0,0-0.1,0-0.1,0C11.7,29.3,11.3,29.3,10.9,29.3z"/>
		<path class="st85" d="M40,31c0.4-0.2,0.8,0,1.4-0.1c-0.3,0.2-0.4,0.1-0.6,0.1C40.5,31,40.2,31,40,31z"/>
		<path class="st17" d="M4.6,44.7c0.2,0.4,0.1,0.9,0.1,1.3C4.5,45.6,4.5,45.1,4.6,44.7z"/>
		<path class="st17" d="M61.9,29.6c-0.2-0.4,0-0.9-0.1-1.3C61.9,28.8,61.9,29.2,61.9,29.6z"/>
		<path class="st17" d="M55.1,40.4c0.2,0.4,0.1,0.9,0.1,1.3c-0.1-0.4,0-0.8-0.1-1.1C55.1,40.5,55.1,40.4,55.1,40.4z"/>
		<path class="st60" d="M13.8,54.8c0.3-0.2,0.6-0.2,0.9,0c-0.1,0.1-0.2,0-0.3,0.1C14.2,54.8,14,54.8,13.8,54.8z"/>
		<path class="st56" d="M41.2,55.5c0-0.1,0-0.1,0-0.2c0,0,0.1,0,0.1,0c0,0.4,0,0.7,0.1,1.1C41,56.2,41.2,55.8,41.2,55.5z"/>
		<path class="st86" d="M38,30.9c0.3-0.2,0.7,0,1.1-0.1c-0.1,0.1-0.2,0.1-0.3,0.1C38.5,30.9,38.3,30.9,38,30.9z"/>
		<path class="st87" d="M43.1,57c0-0.4,0.2-0.5,0.5-0.6C43.4,56.6,43.3,56.8,43.1,57z"/>
		<path class="st82" d="M8.2,14.9c0.4,0,0.8,0,1.1,0.2C9,15.1,8.6,15,8.2,14.9z"/>
		<path class="st17" d="M4.5,42.5c0.2,0.4,0.1,0.8,0.1,1.2C4.4,43.4,4.4,42.9,4.5,42.5z"/>
		<path class="st88" d="M11.6,16.2c-0.4,0.1-0.8,0.1-1.2,0C10.8,16.2,11.2,16.2,11.6,16.2z"/>
		<path class="st81" d="M17.4,23.5c0-0.3-0.3-0.5-0.4-0.8C17.4,22.9,17.5,23.2,17.4,23.5z"/>
		<path class="st89" d="M16.5,29.6C16.5,29.6,16.5,29.6,16.5,29.6c0.3,0,0.7-0.2,1,0C17.2,29.6,16.9,29.6,16.5,29.6z"/>
		<path class="st90" d="M50.8,22.2c-0.3,0.1-0.7,0.2-1-0.1C50.1,22.2,50.5,22.1,50.8,22.2z"/>
		<path class="st17" d="M4.4,40.7c0.2,0.4,0.1,0.7,0.1,1.1C4.3,41.4,4.4,41,4.4,40.7z"/>
		<path class="st51" d="M19.7,54.3c0.1-0.3-0.3-0.5,0-0.8C19.8,53.8,19.8,54.1,19.7,54.3C19.8,54.4,19.7,54.4,19.7,54.3z"/>
		<path class="st91" d="M34.4,32c-0.1,0.1-0.2,0.1-0.3,0.1c-0.2,0-0.5,0-0.7,0c0.2-0.1,0.3-0.1,0.5-0.1C34,32,34.2,32,34.4,32z"/>
		<path class="st92" d="M11.3,22.5c-0.4,0-0.7,0.1-1.1-0.1C10.6,22.5,11,22.4,11.3,22.5z"/>
		<path class="st93" d="M21.3,2.9c-0.3,0.1-0.4,0-0.5-0.3C20.9,2.7,21.1,2.8,21.3,2.9z"/>
		<path class="st94" d="M39.1,7.8c0.4-0.2,0.7-0.1,1.1,0C39.8,7.8,39.4,7.8,39.1,7.8z"/>
		<path class="st46" d="M39.9,33.9C39.8,33.9,39.8,33.9,39.9,33.9c-0.3-0.2-0.1-0.4-0.3-0.7c0.3,0.2,0.2,0.4,0.3,0.5
			C39.9,33.7,39.9,33.8,39.9,33.9z"/>
		<path class="st95" d="M43.9,4.5c-0.3,0.2-0.6,0.1-0.9,0.1c0,0,0,0,0,0c0,0,0.1,0,0.1-0.1C43.3,4.5,43.6,4.5,43.9,4.5z"/>
		<path class="st96" d="M38.2,6.5c0.1-0.4,0.3-0.6,0.6-0.6C38.6,6.1,38.4,6.3,38.2,6.5z"/>
		<path class="st18" d="M23.9,23c-0.3,0-0.7,0.1-1-0.1C23.2,23,23.5,22.9,23.9,23z"/>
		<path class="st82" d="M23.4,55.8c0.3-0.1,0.6-0.1,0.8,0.1C23.9,55.9,23.7,55.9,23.4,55.8z"/>
		<path class="st17" d="M40.7,47.8c-0.2-0.3-0.1-0.7-0.1-1C40.8,47.2,40.8,47.5,40.7,47.8z"/>
		<path class="st97" d="M19.7,54.3C19.7,54.3,19.8,54.3,19.7,54.3c0.1,0.3,0.1,0.7,0.1,1C19.6,55,19.7,54.7,19.7,54.3z"/>
		<path class="st17" d="M41.6,41.9c0.2,0.3,0.1,0.6,0.1,0.9C41.5,42.6,41.6,42.3,41.6,41.9z"/>
		<path class="st17" d="M38.8,32.3c-0.2,0-0.5,0-0.7,0c-0.1,0-0.1-0.1-0.2-0.1C38.2,32.2,38.5,32.2,38.8,32.3z"/>
		<path class="st17" d="M28.3,47.9c0.2,0.3,0.1,0.6,0.1,0.9C28.2,48.6,28.3,48.3,28.3,47.9z"/>
		<path class="st98" d="M62.1,36.2c-0.1-0.3-0.1-0.6,0-0.9C62.1,35.6,62.1,35.9,62.1,36.2z"/>
		<path class="st64" d="M40,4.8c0-0.3-0.3-0.1-0.4-0.3c0.1,0,0.3,0,0.4,0C40.3,4.7,40.1,4.7,40,4.8z"/>
		<path class="st17" d="M28.5,51.5C28.5,51.5,28.5,51.5,28.5,51.5c0.1,0.3,0.1,0.6,0.1,0.9C28.4,52.1,28.5,51.8,28.5,51.5z"/>
		<path class="st17" d="M41.1,34.9c0.2,0.3,0.1,0.6,0.1,0.9C41,35.5,41.1,35.2,41.1,34.9z"/>
		<path class="st17" d="M35.5,32.1c-0.3,0-0.6,0.1-0.9-0.1C34.9,32,35.2,32,35.5,32.1z"/>
		<path class="st99" d="M62.2,12.4c0.1-0.2,0.2-0.4,0.4-0.5C62.6,12.2,62.4,12.3,62.2,12.4z"/>
		<path class="st18" d="M18.5,25.6c0.2,0.3,0.1,0.6,0.1,0.9C18.5,26.2,18.5,25.9,18.5,25.6z"/>
		<path class="st100" d="M14.2,29.4c-0.1,0-0.3,0-0.4,0c-0.2,0-0.3,0-0.5,0C13.6,29.3,13.9,29.3,14.2,29.4z"/>
		<path class="st101" d="M37.9,9c-0.2,0-0.3,0-0.5-0.1c0,0,0,0,0-0.1c0,0,0,0,0,0c0.1,0,0.3,0,0.4,0C37.9,8.9,38,8.8,38,9
			C38,9,37.9,9,37.9,9z"/>
		<path class="st102" d="M26.4,15c-0.1,0.3-0.2,0.3-0.5,0.1C26.1,15,26.2,15,26.4,15z"/>
		<path class="st71" d="M0.9,27.3c0.1,0.3,0.1,0.6,0,0.9C0.9,27.9,0.9,27.6,0.9,27.3z"/>
		<path class="st103" d="M48.1,51.6c0-0.3,0.1-0.3,0.3-0.4C48.4,51.4,48.3,51.5,48.1,51.6z"/>
		<path class="st17" d="M41.3,37.8c0.2,0.3,0.1,0.5,0.1,0.8C41.2,38.4,41.3,38.1,41.3,37.8z"/>
		<path class="st104" d="M46.3,53.5c0-0.2,0.1-0.4,0.4-0.4C46.5,53.2,46.4,53.4,46.3,53.5z"/>
		<path class="st17" d="M28.6,53.3c0.2,0.3,0.1,0.6,0.1,0.8C28.5,53.8,28.6,53.5,28.6,53.3z"/>
		<path class="st17" d="M42.4,53.9c0,0.1,0,0.2,0,0.3c-0.1-0.3-0.1-0.6-0.1-0.8C42.5,53.5,42.4,53.7,42.4,53.9z"/>
		<path class="st17" d="M40.1,36.8C40,36.8,40,36.8,40.1,36.8C40,36.5,40,36.3,40,36C40.1,36.3,40.1,36.5,40.1,36.8z"/>
		<path class="st17" d="M40.9,50.9c-0.2-0.3-0.1-0.5-0.1-0.8C41,50.3,40.9,50.6,40.9,50.9z"/>
		<path class="st18" d="M17.5,15.3c0.3-0.2,0.5-0.1,0.8-0.1C18.1,15.4,17.8,15.4,17.5,15.3z"/>
		<path class="st82" d="M11,15.2c0.1,0.2,0.3,0,0.4,0.2c-0.2,0-0.4,0-0.6-0.1C10.9,15.2,10.9,15.2,11,15.2z"/>
		<path class="st31" d="M28,43C28,43,28,43,28,43c0.1,0.3,0.1,0.5,0.1,0.8C28,43.6,28,43.3,28,43z"/>
		<path class="st17" d="M40.8,49.2c-0.2-0.3-0.1-0.5-0.1-0.8C40.9,48.7,40.9,48.9,40.8,49.2z"/>
		<path class="st31" d="M28.1,44.6c0.2,0.3,0.1,0.6,0.1,0.8C28,45.2,28.1,44.9,28.1,44.6z"/>
		<path class="st17" d="M28.2,46.5c0.2,0.3,0.1,0.5,0.1,0.8C28.1,47,28.2,46.7,28.2,46.5z"/>
		<path class="st17" d="M41.9,46.3c0.2,0.3,0.1,0.6,0.1,0.8C41.8,46.8,41.8,46.6,41.9,46.3z"/>
		<path class="st18" d="M27.2,47.3c-0.2-0.3-0.1-0.5-0.1-0.8C27.2,46.7,27.2,47,27.2,47.3z"/>
		<path class="st17" d="M37.1,32.2c-0.3,0-0.6,0.1-0.8-0.1C36.5,32.1,36.8,32.1,37.1,32.2z"/>
		<path class="st18" d="M22.4,31.2c-0.3,0-0.6,0.1-0.8-0.1C21.8,31.1,22.1,31.1,22.4,31.2z"/>
		<path class="st105" d="M30.7,23.5c-0.2,0.2-0.4,0.1-0.6,0.1c0,0,0,0,0,0c0,0,0.1,0,0.1-0.1C30.3,23.4,30.5,23.4,30.7,23.5z"/>
		<path class="st17" d="M28.7,55c0.2,0.3,0.1,0.6,0.1,0.8C28.6,55.6,28.7,55.3,28.7,55z"/>
		<path class="st106" d="M4.4,30c-0.1,0.1-0.2,0.1-0.3,0.1c-0.1,0-0.3,0-0.4,0C3.9,29.8,4.2,30.1,4.4,30z"/>
		<path class="st17" d="M42.1,49.2C42.1,49.2,42.1,49.2,42.1,49.2c0.1,0.2,0.1,0.5,0.1,0.7C42,49.7,42,49.5,42.1,49.2z"/>
		<path class="st82" d="M10,15.2c0.2,0,0.5-0.1,0.7,0.1C10.5,15.3,10.2,15.3,10,15.2z"/>
		<path class="st17" d="M41.7,43.5c0.2,0.2,0.1,0.5,0.1,0.7C41.6,44,41.6,43.8,41.7,43.5z"/>
		<path class="st18" d="M27.3,48.4c-0.2-0.2-0.1-0.5-0.1-0.7C27.3,47.9,27.3,48.2,27.3,48.4z"/>
		<path class="st18" d="M23.8,31.3c-0.2,0-0.5,0.1-0.7-0.1C23.3,31.2,23.5,31.2,23.8,31.3z"/>
		<path class="st89" d="M17.7,29.3c-0.1,0-0.2,0-0.3,0c0.1-0.1,0.2-0.2,0.2-0.3C17.7,29.1,17.7,29.2,17.7,29.3z"/>
		<path class="st18" d="M50.1,47.7c0.2,0.2,0.1,0.5,0.1,0.7C50.1,48.1,50.1,47.9,50.1,47.7z"/>
		<path class="st17" d="M41.8,45.1c0,0.2,0,0.4,0,0.6C41.7,45.5,41.8,45.2,41.8,45.1C41.8,45,41.8,45.1,41.8,45.1z"/>
		<path class="st17" d="M5.5,30.1c-0.2,0-0.5,0.1-0.7-0.1C5,30,5.2,30,5.5,30.1z"/>
		<path class="st17" d="M9.9,30.4c-0.2,0-0.5,0.1-0.7-0.1C9.4,30.3,9.7,30.3,9.9,30.4z"/>
		<path class="st107" d="M58.8,10.4c0.1,0.1,0.1,0.1,0.2,0.2c-0.1,0-0.3,0.2-0.3,0C58.5,10.5,58.7,10.5,58.8,10.4z"/>
		<path class="st90" d="M49.7,22.1c-0.2,0.1-0.4,0.1-0.5,0.1c-0.1,0,0-0.1,0.1-0.1C49.4,22,49.5,22,49.7,22.1
			C49.6,22.1,49.7,22.1,49.7,22.1z"/>
		<path class="st108" d="M29.4,23.3c-0.2,0.2-0.4,0.1-0.6,0.1c0.1-0.1,0.1-0.1,0.2-0.1C29.2,23.3,29.3,23.3,29.4,23.3z"/>
		<path class="st109" d="M60.5,38.2c-0.1-0.3,0.2-0.3,0.3-0.4C60.7,38,60.6,38.1,60.5,38.2z"/>
		<path class="st17" d="M42.3,52.1c0.2,0.2,0.1,0.5,0.1,0.7C42.2,52.6,42.2,52.3,42.3,52.1z"/>
		<path class="st88" d="M10.3,16.2c-0.2,0.1-0.5,0.1-0.7,0C9.9,16.2,10.1,16.2,10.3,16.2z"/>
		<path class="st17" d="M42.2,50.6c0.2,0.2,0.1,0.5,0.1,0.7C42.1,51.1,42.1,50.9,42.2,50.6z"/>
		<path class="st17" d="M42.5,54.9c0.2,0.2,0.1,0.5,0.1,0.7C42.4,55.4,42.4,55.2,42.5,54.9z"/>
		<path class="st99" d="M61.9,12.7c-0.1-0.3,0.1-0.3,0.3-0.3C62.2,12.5,62,12.6,61.9,12.7z"/>
		<path class="st17" d="M41,52.2C41,52.2,41,52.2,41,52.2C41,52,41,51.8,41,51.5C41.1,51.8,41,52,41,52.2z"/>
		<path class="st56" d="M10.3,54.5c0.2,0,0.4-0.1,0.6,0.1C10.7,54.5,10.5,54.5,10.3,54.5z"/>
		<path class="st17" d="M28.8,56.4c0.2,0,0.4-0.1,0.6,0.1C29.1,56.5,28.9,56.6,28.8,56.4z"/>
		<path class="st17" d="M41.2,55.3L41.2,55.3L41.2,55.3c-0.1-0.2-0.1-0.4-0.1-0.6C41.3,54.9,41.2,55.1,41.2,55.3z"/>
		<path class="st56" d="M9.2,54.4c0.2,0,0.4-0.1,0.6,0.1C9.6,54.4,9.4,54.4,9.2,54.4z"/>
		<path class="st17" d="M8.2,54.3c0.2,0,0.4-0.1,0.6,0.1C8.7,54.3,8.4,54.4,8.2,54.3z"/>
		<path class="st110" d="M52,47.4c0-0.2,0.1-0.3,0.3-0.4C52.2,47.2,52.1,47.3,52,47.4z"/>
		<path class="st111" d="M40.6,57.7c0.1-0.1,0.3-0.1,0.4-0.1c0.1,0,0.1,0,0,0.1c0,0-0.1,0-0.1,0C40.8,57.7,40.7,57.7,40.6,57.7z"/>
		<path class="st112" d="M36.7,30.8c0.1-0.1,0.3-0.1,0.4-0.1c0.2,0.1,0,0.1,0,0.1C37,30.8,36.8,30.8,36.7,30.8z"/>
		<path class="st113" d="M47.4,27.3c0,0.2,0,0.4-0.3,0.3C47.2,27.5,47.3,27.4,47.4,27.3z"/>
		<path class="st114" d="M37.7,7c-0.1-0.3,0.1-0.3,0.3-0.3c0,0.1-0.1,0.1-0.1,0.2C37.8,6.9,37.8,7,37.7,7z"/>
		<path class="st20" d="M14.2,22.6c-0.2,0-0.4,0.1-0.6-0.1C13.8,22.6,14,22.5,14.2,22.6z"/>
		<path class="st115" d="M21.1,19.1c0.1,0.3-0.1,0.3-0.3,0.3C20.8,19.3,20.9,19.2,21.1,19.1z"/>
		<path class="st116" d="M5.3,14.3c0.2-0.1,0.3-0.2,0.4,0.1C5.6,14.3,5.5,14.3,5.3,14.3z"/>
		<path class="st117" d="M60.2,15.5c0,0.2,0,0.4-0.3,0.4C60,15.8,60.1,15.6,60.2,15.5z"/>
		<path class="st79" d="M60.5,15.3c0.1,0.3-0.2,0.2-0.3,0.3C60.3,15.4,60.4,15.3,60.5,15.3z"/>
		<path class="st18" d="M19.1,15.2c0.2-0.1,0.4-0.1,0.6-0.1C19.5,15.3,19.3,15.3,19.1,15.2z"/>
		<path class="st118" d="M56.5,42.6c0-0.2,0-0.4,0.3-0.3C56.7,42.4,56.6,42.5,56.5,42.6z"/>
		<path class="st52" d="M52.6,5c-0.2,0.1-0.4,0.1-0.6,0C52.2,4.9,52.4,4.9,52.6,5z"/>
		<path class="st82" d="M9.4,15.1c0.2,0,0.4-0.1,0.5,0.1C9.7,15.2,9.5,15.2,9.4,15.1z"/>
		<path class="st119" d="M20.9,54.6c0.1,0.2,0.1,0.3,0,0.5C20.9,55,20.9,54.8,20.9,54.6z"/>
		<path class="st120" d="M58.8,15c-0.1-0.1-0.1-0.2-0.1-0.3c0,0,0-0.1,0.1,0c0,0,0,0.1,0,0.1C58.9,14.8,58.9,14.9,58.8,15z"/>
		<path class="st121" d="M4,14c0.1-0.1,0.3-0.1,0.5,0c-0.1,0-0.2,0-0.3,0C4.1,14,4,14,4,14z"/>
		<path class="st122" d="M37.4,8.8C37.4,8.8,37.4,8.8,37.4,8.8c-0.2,0.1-0.3,0.1-0.5,0C37.1,8.8,37.3,8.8,37.4,8.8z"/>
		<path class="st123" d="M12.3,6.1C12.4,6,12.5,6,12.6,6c0.1,0,0.1,0,0.2,0C12.7,6.2,12.5,6.1,12.3,6.1z"/>
		<path class="st124" d="M13.4,6.1c-0.1,0.1-0.3,0.1-0.5,0c0.1,0,0.2,0,0.3,0C13.3,6.1,13.3,6.1,13.4,6.1z"/>
		<path class="st56" d="M41.3,57.1c-0.3-0.1-0.2-0.2-0.1-0.4C41.2,56.9,41.3,57,41.3,57.1z"/>
		<path class="st125" d="M3.2,6.2c0.1,0.1,0.1,0.2,0.1,0.3c0,0,0,0.1-0.1,0.1c0,0,0-0.1-0.1-0.1C3.2,6.4,3.2,6.3,3.2,6.2z"/>
		<path class="st81" d="M17.4,24.1c-0.2-0.2-0.2-0.3,0-0.5C17.4,23.8,17.4,24,17.4,24.1z"/>
		<path class="st18" d="M20.2,15.2c0.2-0.1,0.3-0.1,0.5-0.1C20.6,15.2,20.4,15.2,20.2,15.2z"/>
		<path class="st126" d="M58.1,19.4C58,19.3,58,19.2,58,19.1c0,0,0-0.1,0.1,0c0,0,0,0.1,0,0.1C58.1,19.2,58.1,19.3,58.1,19.4z"/>
		<path class="st127" d="M59.2,12.7c-0.1-0.1-0.1-0.2-0.1-0.3c0,0,0,0,0.1,0c0,0,0,0.1,0.1,0.1C59.3,12.5,59.3,12.6,59.2,12.7z"/>
		<path class="st128" d="M9.5,5.4C9.3,5.5,9.2,5.5,9,5.5c0.1,0,0.2,0,0.3,0C9.3,5.4,9.4,5.4,9.5,5.4z"/>
		<path class="st129" d="M58.6,16.5c-0.1-0.1-0.1-0.3,0-0.5c0,0.1,0,0.2,0,0.3C58.6,16.4,58.6,16.5,58.6,16.5z"/>
		<path class="st83" d="M40.5,46c-0.3-0.2-0.2-0.4-0.2-0.7C40.4,45.6,40.4,45.7,40.5,46z"/>
		<path class="st42" d="M30.3,31.8c-0.1,0.1-0.2,0.1-0.4,0C30.1,31.8,30.2,31.8,30.3,31.8z"/>
		<path class="st61" d="M55.1,40c0-0.4,0-0.9,0-1.3c-0.1-0.5,0-1.1-0.1-1.6c-0.1-1.6-0.1-3.3-0.1-4.9c-0.1-0.5,0-1.1-0.1-1.6
			c0-0.6-0.1-1.2,0-1.8c-0.1-0.4,0-0.7,0-1.1c0-0.1,0.1-0.1,0.1-0.1c0,1.8,0.1,3.6,0.1,5.4c0,2.1,0.2,4.1,0.2,6.2
			c0,0.2,0.1,0.4,0.1,0.6C55.3,39.9,55.3,40,55.1,40z"/>
		<path class="st130" d="M54.9,27.6C54.9,27.6,54.9,27.6,54.9,27.6c-0.2-0.2-0.1-0.4-0.2-0.6c0-0.4,0-0.9,0-1.3
			c-0.1-0.5,0-1.1-0.1-1.6c0-0.4,0-0.8,0-1.2c0-0.1,0-0.1,0-0.3C55,24.3,54.7,25.9,54.9,27.6z"/>
		<path class="st131" d="M57.7,21.5c0.3-0.1,0.6-0.1,1-0.2C58.4,21.6,58,21.6,57.7,21.5z"/>
		<path class="st132" d="M61.3,15.8c0,0.2,0,0.4,0,0.6c0,0,0,0,0,0C61.3,16.2,61.3,16,61.3,15.8C61.3,15.8,61.3,15.8,61.3,15.8z"/>
		<path class="st133" d="M55,21.9c0.1,0,0.2,0,0.3,0c0.1,0,0.1,0,0.3,0C55.4,22,55.2,22,55,21.9z"/>
		<path class="st134" d="M12.5,8.9c-0.4,0.8-0.3,1.6,0.2,2.3c-0.4,0.1-0.5-0.4-0.5-0.5c-0.1-0.6-0.2-1.2,0.2-1.8
			C12.4,8.9,12.4,8.9,12.5,8.9z"/>
		<path class="st135" d="M14,12.6c0.2,0.1,0.4,0.3,0.5,0.4C14.2,13,14,12.9,14,12.6z"/>
		<path class="st136" d="M15.9,13.7c0.1,0,0.3,0.1,0.4,0.1C16.1,13.9,15.9,14.1,15.9,13.7z"/>
		<path d="M17.5,14.1c0-0.1-0.2-0.1-0.1-0.2c0.1-0.1,0.2,0,0.3,0.2C17.7,14.1,17.6,14.1,17.5,14.1z"/>
		<path class="st18" d="M33.9,7.9c0.1,0,0.2,0,0.3,0c0.3,0.1,0.6,0,0.9,0c0.5,0.2,0.2,0.4,0,0.6c-0.5,0.4-0.9,1-1.3,1.5
			c-0.3,0.1-0.4,0.2-0.2,0.5c-0.5,1.2-0.3,2.5-0.2,3.8c-0.7-0.1-1.4-0.3-2.1-0.5c-0.6-0.2-1.2-0.3-1.9-0.2c-0.6,0.1-0.8,0-1-0.6
			c-0.1-0.2-0.1-0.5-0.2-0.7c-0.1-0.1-0.1-0.1,0-0.2c0.1-0.5-0.1-0.9,0.1-1.4c0.2-0.3,0.1-0.8,0.3-1.1c0.3-0.1,0-0.4,0.1-0.5
			c0.2-0.4,0.5-0.7,0.8-1c0.2-0.2,0.4-0.2,0.7-0.2c1.1,0.2,2.3,0.2,3.4,0C33.7,7.9,33.8,7.9,33.9,7.9z"/>
		<path class="st22" d="M44.1,8.1c0.1,0,0.2,0,0.3,0.1c0.2-0.2,0.6-0.1,0.8-0.2c0.2-0.1,0.3-0.1,0.5-0.2c0.8-0.1,1.5-0.3,2.3-0.4
			c0.3,0.1,0.7-0.1,1-0.1c0.1,0,0-0.1,0,0c0,0,0,0,0,0c-0.1,0-0.2,0-0.3-0.1c0.8-0.2,1.5-0.4,2.3-0.2c0.5,0.1,0.6,0.4,0.3,0.8
			C51.2,8,51,8.2,50.8,8.3c-0.8,0.4-1.7,0.7-2.7,0.8C48.1,9,48,9,47.9,9c0,0-0.1,0-0.1,0c0.1,0,0.1,0,0.1,0
			c-0.9,0.2-1.8,0.2-2.7,0.2c-1.2-0.1-2.5-0.3-3.7-0.5c0,0-0.1,0-0.2-0.1c0.7-0.1,1.4-0.2,2.1-0.3C43.6,8.3,43.8,8.2,44.1,8.1z"/>
		<path d="M33.9,7.9c-1,0.4-2.1,0.4-3.1,0.3c-1.1-0.1-1.4,0-2,1c0,0.1,0,0.2-0.1,0.3c-0.2,0.1-0.1,0.4-0.3,0.5
			c-0.2-0.1-0.4-0.1-0.4,0.2c0,0.4-0.3,0.7-0.3,1.2c0.1,0.3,0,0.5-0.4,0.5c-0.2,0-0.3,0.1-0.5,0c-0.2,0-0.1-0.2-0.1-0.3
			c0.1-0.4-0.1-0.8,0.1-1.2c0.2-0.7,0.5-1.3,0.8-2c0-0.1-0.3-0.1-0.2-0.2c0.1-0.1,0.3-0.3,0.4-0.3c0.2,0,0.3,0,0.5,0
			c0.1-0.3-0.4-0.2-0.2-0.5C28.2,7.2,28,7,28.3,7c0.3,0.1,0.6-0.1,0.8,0.2c0.1,0.2,0.1,0.2,0.2,0c0.1,0.1,0.3,0.3,0.4,0.4
			c0.4,0.1,1.1,0,1.2-0.2c0.3-0.5,0.7-0.4,1.1-0.4c0.2,0,0.2,0,0.2,0.2c0,0,0,0,0,0c0.1,0.4,0.4,0.6,0.6,0.6C33.2,7.7,33,7.4,33,7.1
			c0.2,0,0.4-0.1,0.7-0.1c0.2,0.2,0.4,0.1,0.6,0.2c0,0,0.2,0,0.1,0.1c0,0.1-0.1,0.2-0.1,0.2C33.7,7.2,34,7.7,33.9,7.9z"/>
		<path class="st137" d="M26.7,11.5c0,0.1-0.1,0.2,0.1,0.3c0,0.5,0.3,0.9,0.4,1.4c-1.7,0-3.4,0-5.1,0c-0.9-0.2-1.8-0.1-2.7-0.1
			c-0.3,0-0.6,0-1,0c-0.2-0.1-0.5,0-0.7-0.1c-0.1,0-0.2,0-0.4,0c-0.2-0.1-0.4,0-0.5-0.1c-0.1,0-0.2,0-0.3,0c0.7-0.2,1.3,0.1,2,0.1
			c0.2,0,0.4,0,0.6,0c2.1,0,4.2,0,6.2,0c0.5,0,1,0,1.5,0c-0.2-0.5-0.2-1.2-0.6-1.7c0-0.1,0.1-0.3,0.3-0.2
			C26.8,11.2,26.7,11.4,26.7,11.5z"/>
		<path class="st41" d="M41.9,18.7c-0.1,0.1-0.2,0-0.4,0c-0.2-0.1-0.2,0-0.3,0.1c-0.7-0.3-1.3-0.7-2-1.2c0,0,0.1-0.1,0.1-0.1
			C40.2,17.9,41,18.3,41.9,18.7z"/>
		<path class="st138" d="M35.3,9.8c0.1,0,0.2,0.1,0.3,0.1c-0.4,0.2-0.7,0.5-0.3,1c-0.2,0.3-0.3,0.6-0.2,1c-0.3,0-0.3,0-0.3-0.2
			c0-0.3-0.3-0.1-0.3-0.2C34.7,10.8,35,10.3,35.3,9.8z"/>
		<path class="st139" d="M37.5,15.6c0.3-0.2,0.6,0.1,0.8,0.2c0.2,0.1,0.4,0.3,0.6,0c0.1-0.1,0.2,0,0.2,0.1c0.1,0.2,0.1,0.4,0.3,0.6
			c0,0-0.1,0-0.1,0.1C38.8,16.2,38.2,15.9,37.5,15.6z"/>
		<path class="st49" d="M49.6,16.4c0-1.2,0-2.4,0.2-3.5c0-0.1,0.1-0.3,0.1-0.4c0,0,0,0,0,0c0,0,0,0,0,0c-0.2,0.9-0.3,1.8-0.2,2.7
			c-0.1,0.2,0,0.5-0.1,0.7C49.7,16.1,49.8,16.2,49.6,16.4z"/>
		<path class="st140" d="M43,7.3C43,7.3,42.9,7.2,43,7.3c0.6-0.2,1.4-0.4,2.1-0.5c0.1,0,0.2,0,0.3,0.1C44.7,7,43.9,7.2,43,7.3z"/>
		<path class="st141" d="M32,14.8c-0.1,0.1-0.1,0.1-0.2,0.1c-0.6-0.2-1.2-0.5-1.9-0.3c0,0-0.1-0.1-0.1-0.1
			C30.5,14.3,31.3,14.4,32,14.8z"/>
		<path class="st142" d="M48.3,19.5c-0.9,0.2-1.8,0-2.8,0.1c0.1-0.2,0.3-0.1,0.4-0.1c0.7,0,1.5,0,2.2-0.1
			C48.1,19.4,48.2,19.4,48.3,19.5z"/>
		<path class="st54" d="M37.9,9c0,0,0.1,0,0.1,0c0.6,0.1,1.2,0.1,1.7,0.4c-0.6,0.1-1.1-0.3-1.7-0.3C37.9,9.1,37.9,9,37.9,9z"/>
		<path class="st143" d="M48,10.2c-0.8-0.1-1.6,0.2-2.5,0.1c0.5-0.2,0.9,0.1,1.3-0.1c0.2,0,0.4,0,0.6,0C47.6,10.1,47.9,10,48,10.2z"
			/>
		<path class="st144" d="M45.7,7.8c-0.2,0.3-0.5,0.3-0.8,0.3c-0.2,0-0.3,0-0.5,0.1C44.7,7.8,45.2,7.9,45.7,7.8z"/>
		<path class="st53" d="M28.4,10c0.1-0.2,0.2-0.3,0.3-0.5c0,0,0,0.1,0,0.1c0,0,0,0,0,0c-0.2,0.3,0.1,0.8-0.4,1.1
			C28.2,10.4,28.4,10.2,28.4,10z"/>
		<path class="st145" d="M26.9,21.4c0-0.3,0.4-0.8,0.7-0.8C27.4,20.9,27.1,21.1,26.9,21.4z"/>
		<path class="st68" d="M34.4,13.8c0.3,0.2,0.6,0.4,0.8,0.7C34.9,14.4,34.5,14.3,34.4,13.8z"/>
		<path class="st146" d="M33.6,10.4c-0.1-0.2-0.2-0.1-0.5-0.1c0.3-0.1,0.3-0.5,0.7-0.4C33.7,10.1,33.6,10.3,33.6,10.4z"/>
		<path class="st147" d="M42.9,10c-0.3-0.2-0.7,0.1-0.9-0.3c0.4,0.1,0.8,0,1.2,0.2C43.2,10.1,43,9.9,42.9,10z"/>
		<path class="st148" d="M48.6,7.3c0.1,0,0.2,0,0.3,0c-0.3,0-0.6,0.3-1,0.1C48.2,7.3,48.4,7.3,48.6,7.3z"/>
		<path class="st149" d="M43.5,25c0.2,0.4,0.2,0.8,0,1.3C43.5,25.9,43.5,25.4,43.5,25z"/>
		<path class="st150" d="M35.3,14.6c0.3-0.1,0.6,0.1,0.7,0.3C35.8,14.8,35.6,14.7,35.3,14.6z"/>
		<path class="st151" d="M35,7.9c-0.3,0.2-0.6,0.1-0.9,0C34.5,7.9,34.8,7.7,35,7.9z"/>
		<path class="st67" d="M46.3,21.9c-0.1,0.2-0.3,0.5-0.6,0.5C45.8,22.1,46,21.9,46.3,21.9z"/>
		<path class="st152" d="M29.5,18.3c-0.1-0.4,0.1-0.4,0.4-0.5C29.8,18,29.7,18.2,29.5,18.3z"/>
		<path class="st153" d="M28.8,19.1c-0.1-0.3,0.1-0.4,0.4-0.5C29.1,18.8,29,19,28.8,19.1z"/>
		<path class="st154" d="M41.2,17.3c0.3-0.1,0.5-0.1,0.6,0.2C41.5,17.5,41.3,17.4,41.2,17.3z"/>
		<path class="st155" d="M44.1,8.1c-0.2,0.1-0.5,0.4-0.8,0.2C43.6,8.2,43.8,8.1,44.1,8.1z"/>
		<path class="st68" d="M44.4,19.4c-0.2,0-0.5,0.1-0.6-0.2c0.3,0,0.6,0.1,0.9,0.2C44.6,19.5,44.5,19.5,44.4,19.4z"/>
		<path class="st156" d="M46.9,20.8c0.3,0,0.6,0,0.9,0.2C47.5,20.9,47.2,20.9,46.9,20.8z"/>
		<path class="st157" d="M48.2,18.2c0-0.2-0.1-0.4,0.1-0.5c0.2,0.1-0.2,0.4,0.2,0.4C48.5,18.2,48.4,18.2,48.2,18.2z"/>
		<path d="M39.7,23.7c0.2-0.2,0.3-0.1,0.4,0C40,23.8,39.9,23.7,39.7,23.7z"/>
		<path class="st158" d="M51.7,11.4c0.1,0.2,0.4,0.1,0.6,0.3c-0.2,0-0.3,0-0.5,0C51.5,11.7,51.6,11.6,51.7,11.4z"/>
		<path class="st159" d="M52.6,7.5c0.2,0.2,0.1,0.4,0.1,0.7C52.5,8.1,52.6,8,52.6,8C52.6,7.8,52.6,7.7,52.6,7.5z"/>
		<path class="st160" d="M44.4,19.4c0.1,0,0.2,0,0.3,0c0.1,0,0.3,0,0.4,0C44.9,19.5,44.7,19.6,44.4,19.4z"/>
		<path class="st147" d="M43,19.7c0.1-0.1,0.3,0.1,0.4,0c0,0,0.1-0.1,0.1,0c0,0-0.1,0.1-0.1,0.1C43.3,19.8,43.1,19.7,43,19.7z"/>
		<path d="M28.1,12c0,0.1,0,0.1,0,0.2c-0.1,0.1-0.1,0.3-0.2,0.5C28,12.4,27.9,12.2,28.1,12z"/>
		<path class="st161" d="M37.2,24c-0.2,0.2-0.4,0.1-0.6,0.1c0,0,0,0,0,0c0,0,0.1,0,0.1-0.1C36.8,24,37,24,37.2,24z"/>
		<path class="st54" d="M48,10.2c-0.2-0.2-0.4-0.1-0.6-0.1c0.2-0.1,0.5-0.1,0.7-0.1C48.1,10.1,48.1,10.2,48,10.2z"/>
		<path class="st162" d="M42,9.7c-0.2,0-0.5,0-0.7,0c-0.1,0,0-0.1,0.1-0.1C41.6,9.7,41.8,9.6,42,9.7z"/>
		<path class="st18" d="M49.7,15.9c0-0.2-0.1-0.5,0.1-0.7C49.8,15.4,49.8,15.7,49.7,15.9z"/>
		<path class="st163" d="M28.9,14.6c-0.2,0.1-0.3,0-0.5,0c0,0,0.1-0.1,0.1-0.1C28.7,14.5,28.8,14.6,28.9,14.6z"/>
		<path class="st164" d="M49.6,16.8c-0.3-0.2-0.1-0.3,0-0.5C49.6,16.5,49.7,16.7,49.6,16.8z"/>
		<path d="M28,10.6c0,0,0-0.1,0-0.1c0-0.1,0.1-0.1,0.1-0.2c0,0,0,0.1,0,0.1C28.2,10.5,28.1,10.6,28,10.6z"/>
		<path d="M38.9,24.1L38.9,24.1C38.8,24.1,38.8,24.1,38.9,24.1c0.1-0.2,0.3-0.1,0.5-0.1l0,0C39.2,24.2,39,24.1,38.9,24.1z"/>
		<path class="st165" d="M41.6,19c0.1-0.1,0.2-0.1,0.2-0.1c0.1,0,0.1,0.1,0,0.2C41.7,19.1,41.6,19,41.6,19z"/>
		<path class="st166" d="M39.9,16.7c0.1-0.1,0.2-0.1,0.2-0.1c0.1,0,0.1,0.1,0,0.2C40.1,16.8,40,16.8,39.9,16.7z"/>
		<path class="st167" d="M42.9,10c0.1-0.1,0.2-0.1,0.3-0.1c0.1,0,0.1,0,0.2,0C43.3,10.1,43.1,10,42.9,10z"/>
		<path class="st168" d="M47.9,9.1C47.8,9,47.7,9,47.9,9.1c0-0.2,0.2-0.1,0.3,0C48,9.1,48,9.1,47.9,9.1z"/>
		<path d="M39.4,24c0-0.1,0.1-0.2,0.2-0.2c0,0,0,0.1,0,0.1C39.6,24.1,39.5,24,39.4,24L39.4,24z"/>
		<path d="M34.9,7.6c-0.1,0-0.2,0-0.2-0.1c0,0,0.1-0.1,0.2-0.1c0,0,0.1,0,0.1,0C35,7.5,34.9,7.6,34.9,7.6z"/>
		<path class="st169" d="M28.1,21.7c0.1,0.1,0.1,0.1,0.2,0.2c-0.1,0-0.2,0-0.3,0C27.9,21.8,28,21.7,28.1,21.7z"/>
		<path class="st170" d="M44.7,21.6c-0.1,0-0.2-0.1-0.1-0.2C44.8,21.4,44.9,21.4,44.7,21.6z"/>
		<path class="st171" d="M46,20.6c0.1,0,0.3-0.1,0.4,0.1C46.2,20.7,46.1,20.7,46,20.6z"/>
		<path d="M27.7,12.3c0,0,0,0.1-0.1,0.1c0,0-0.1-0.1-0.1-0.1c0-0.1,0.1-0.1,0.1-0.1C27.6,12.2,27.7,12.3,27.7,12.3z"/>
		<path class="st172" d="M27.7,20.4c-0.1-0.3,0.1-0.3,0.2-0.3C27.9,20.2,27.8,20.3,27.7,20.4z"/>
		<path class="st23" d="M35.2,11.9c-0.3-0.5-0.3-0.6,0.2-1c0.9,0,1.8,0.3,2.7,0.5c0.1,0,0.2,0.1,0.3,0.2c0.1,0.1,0.2,0.1,0.1,0.2
			C38.4,12,38.3,12,38.2,12c-0.4-0.1-0.9-0.2-1.3-0.2c-0.2,0-0.4-0.1-0.6,0c0.2,0.3,0.4,0.4,0.6,0.5c0.2,0.1,0.3,0.1,0.4,0.3
			c0.2,0.2,0.5,0.3,0.7,0.5c0.1,0.1,0.2,0.1,0.2,0.2c-0.1,0.2-0.2,0.1-0.3,0.1c-0.5,0-0.9-0.4-1.3-0.6
			C36.1,12.6,35.6,12.2,35.2,11.9z"/>
		<path class="st173" d="M37.3,12.5c-0.2-0.1-0.3-0.2-0.4-0.3C37.1,12.3,37.3,12.2,37.3,12.5z"/>
		<path class="st68" d="M53.9,37c0,0.7,0.2,1.3,0,2c-0.3-0.6,0-1.3-0.2-1.9C53.8,37.1,53.9,37.1,53.9,37z"/>
		<path class="st68" d="M54,39c0.1,0.4,0.1,0.8,0.1,1.1c0,0.2,0,0.4,0,0.6C54,40.2,53.8,39.6,54,39z"/>
		<path class="st174" d="M26.7,11.5c0-0.1,0-0.3-0.1-0.4c-0.1,0-0.2,0.1-0.3,0.2c-0.4,0.2-0.8,0.4-1.2,0.5c-0.1,0.1-0.2,0.1-0.4,0
			c-0.3-0.1-0.7-0.2-0.7-0.5c0-0.3,0.4-0.3,0.7-0.5c0,0,0.1,0,0.1,0c0.2-0.1,0.4-0.1,0.4-0.3c0-0.2-0.3-0.2-0.4-0.2
			c-0.2-0.1-0.5-0.2-0.7-0.3c-0.5-0.1-0.7-0.4-0.9-0.8C23.5,9,23.7,9,23.8,9.1c0.4,0.2,0.8,0.2,1.2,0.3c0.2,0.2,0.4,0.1,0.6,0.3
			c0.3,0.2,0.6,0.3,0.8,0.6c0.1,0.1,0.2,0.1,0.3,0C26.7,10.7,26.9,11.1,26.7,11.5z"/>
		<path class="st175" d="M25.1,9.5c-0.6,0-1.1-0.3-1.7-0.3C23.5,9,23.6,8.7,23.9,9c0.3,0.2,0.7,0.3,1,0.2c0.2,0,0.3,0,0.3,0.2
			C25.2,9.5,25.1,9.5,25.1,9.5z"/>
		<path class="st176" d="M24.9,8.2c0.4,0,0.7,0.1,1.1,0.1c-0.4,0.2-0.7,0.2-1.1,0C24.9,8.3,24.9,8.2,24.9,8.2
			C24.9,8.2,24.9,8.2,24.9,8.2z"/>
		<path class="st177" d="M24.9,8.2c0,0,0,0.1,0,0.1c-0.3-0.2-0.7,0-0.9-0.4C24.3,8,24.7,8,24.9,8.2z"/>
		<path class="st178" d="M21,6.2c0.2,0.1,0.5,0.2,0.5,0.5C21.2,6.7,21,6.5,21,6.2z"/>
		<path class="st179" d="M19.4,5c0.2,0.2,0.4,0.3,0.6,0.5C19.7,5.4,19.5,5.4,19.4,5z"/>
		<path class="st180" d="M24.8,11.8c0.1,0,0.2,0,0.4,0c0,0,0.1,0,0.1,0.1c-0.2,0.1-0.4,0.1-0.6,0C24.7,11.9,24.7,11.8,24.8,11.8
			C24.8,11.8,24.8,11.8,24.8,11.8z"/>
		<path class="st142" d="M25.1,9.5c0,0,0.1,0,0.1,0c0.2,0,0.4,0,0.5,0.2C25.5,9.6,25.3,9.5,25.1,9.5z"/>
		<path class="st181" d="M13.7,10.7c-0.1-0.1-0.1-0.2-0.1-0.3c0,0,0-0.2,0.1-0.1C13.8,10.5,13.9,10.6,13.7,10.7z"/>
		<path class="st126" d="M52.3,21.2c-0.7,0-1.4,0-2.2,0C50.8,21,51.6,21,52.3,21.2z"/>
		<path class="st182" d="M57.9,20.2c0,0.4-0.3,0.3-0.5,0.4c0.1-0.2,0.5-0.3,0.5-0.6C57.9,20.1,57.9,20.1,57.9,20.2z"/>
		<path class="st183" d="M25.2,23.2c-0.1,0.1-0.2,0.1-0.3,0C25,23.1,25.1,23.1,25.2,23.2z"/>
		<path d="M54.8,38.3c0.1,0.3,0.4,0.7,0,1.1c-0.1-0.4-0.1-0.8-0.2-1.1C54.7,38.3,54.7,38.3,54.8,38.3z"/>
		<path d="M54.6,38.6c0,0.3,0.1,0.5-0.1,0.8c0-0.1,0.1-0.3-0.1-0.3c-0.2-0.1-0.3-0.2-0.2-0.4C54.3,38.5,54.5,38.7,54.6,38.6z"/>
		<path class="st17" d="M54.7,27c0.2,0.2,0.1,0.4,0.1,0.6c0,0.4,0,0.8,0,1.1C54.7,28.1,54.8,27.6,54.7,27z"/>
		<path class="st17" d="M54.9,30.5c0.2,0.5,0.1,1.1,0.1,1.6C54.8,31.6,54.8,31.1,54.9,30.5z"/>
		<path class="st17" d="M54.7,24c0.2,0.5,0.1,1.1,0.1,1.6C54.6,25.1,54.7,24.6,54.7,24z"/>
		<path class="st17" d="M55,37c0.2,0.5,0.1,1.1,0.1,1.6C55,38.1,55,37.6,55,37z"/>
		<path class="st184" d="M27.4,7.2c0,0.2,0,0.2-0.1,0.2c-0.6,0-1.2,0.1-1.8,0c0.4-0.2,0.8-0.1,1.3-0.1C26.9,7.3,27.2,7.3,27.4,7.2z"
			/>
		<path class="st185" d="M23.8,6.9c-0.3-0.1-0.5-0.2-0.8-0.4c0.4-0.1,0.6,0.1,0.9,0.3C23.9,6.9,23.9,6.9,23.8,6.9z"/>
		<path class="st186" d="M26.4,6.5c0.2,0.1,0.3,0.2,0.5,0.3C26.6,6.9,26.4,6.8,26.4,6.5z"/>
		<path class="st24" d="M25.4,4.7c0.1-0.2,0.3-0.2,0.5-0.2c2.5,0,5,0,7.5,0c0.2,0,0.4-0.1,0.5,0.2c-0.9,0.9-2,1.6-3,2.4
			c-0.1,0-0.1,0.1-0.2,0.2c-0.3,0.2-0.5,0.1-0.8,0c-0.2-0.1-0.4-0.1-0.6-0.2C27.9,6.5,26.6,5.6,25.4,4.7z"/>
		<path class="st187" d="M33.8,6.1C33.9,6,34,6,34,5.9c0.2,0.1,0.3,0.2,0.5,0.3C34.3,6.3,34,6.3,33.8,6.1z"/>
		<path class="st18" d="M17.7,13c0.2,0,0.5-0.1,0.7,0.1C18.2,13.1,17.9,13.1,17.7,13z"/>
		<path class="st18" d="M16.8,12.9c0.2,0,0.4-0.1,0.5,0.1C17.2,13,17,13,16.8,12.9z"/>
		<path d="M29.9,7.3c0.3,0,0.5,0,0.8,0C30.5,7.6,30.3,7.6,29.9,7.3z"/>
		<path d="M34.1,4.7C34,4.7,34,4.7,34.1,4.7c0.1,0,0.2,0,0.1,0.1c0,0-0.1,0.1-0.1,0.1C34,4.9,34.1,4.8,34.1,4.7z"/>
		<path class="st188" d="M28.7,9.6c0,0,0-0.1,0-0.1c0-0.1,0.1-0.2,0.1-0.3C28.9,9.5,28.9,9.6,28.7,9.6z"/>
	</g>
</g>
</svg>
