<?xml version="1.0" encoding="utf-8"?>
<!-- Generator: Adobe Illustrator 22.0.1, SVG Export Plug-In . SVG Version: 6.00 Build 0)  -->
<svg version="1.1" id="Layer_1" xmlns="http://www.w3.org/2000/svg" xmlns:xlink="http://www.w3.org/1999/xlink" x="0px" y="0px"
	 viewBox="0 0 144.2 213" style="enable-background:new 0 0 144.2 213;" xml:space="preserve">
<style type="text/css">
	.st0{fill:#FFEBCD;}
</style>
<title>hand</title>
<g id="Layer_2_1_">
	<g id="Layer_1-2">
		<path id="hand" class="st0" d="M64.4,140.7c-0.2-0.5-11.1-27.1-17.7-46.8c-18.7-7.1-19.4-24-19.4-24s-18-1-22.6-1.8
			s-6.6-5.8-1.8-5.9c9.8-1.8,26.2-2.8,25.4-4.1S11.7,50.6,5,43.5s0.7-9.6,3.9-7.8s32.5,17.7,29.6,11.1C20.7,25.9,20.4,18.7,20.2,16
			s6.7-10.2,9.9-1.2s18,29.6,22.8,28.1c-6.1-25.7-5.4-32.5-4.8-36.3S56.8-3.1,58.4,2c0.7,6.6,3.1,22.2,9,45.4
			C77.2,26.8,86.8,30.1,90,30.9s6.6,3.3,1.8,6.6S84.1,41,78.9,51.9c-3.2,32.8-21.5,38.8-21.5,38.8l46.5,70c0,0,10.1-4.9,21-13.7
			s18.9,20.9,18.9,20.9l0.2,10.7c0,0-17,15.6-34.7,31.1S80.3,183.6,64.4,140.7z"/>
	</g>
</g>
</svg>
