<?xml version="1.0" encoding="utf-8"?>
<!-- Generator: Adobe Illustrator 22.0.1, SVG Export Plug-In . SVG Version: 6.00 Build 0)  -->
<svg version="1.1" id="Layer_1" xmlns="http://www.w3.org/2000/svg" xmlns:xlink="http://www.w3.org/1999/xlink" x="0px" y="0px"
	 viewBox="0 0 218.7 371.3" style="enable-background:new 0 0 218.7 371.3;" xml:space="preserve">
<style type="text/css">
	.st0{fill:#FFEBCD;}
	.st1{fill:#603713;}
	.st2{fill:#231F20;}
	.st3{fill:none;stroke:#231F20;stroke-width:0.62;stroke-miterlimit:10;}
	.st4{fill:none;}
	.st5{opacity:0.57;fill:#CCCCCC;enable-background:new    ;}
	.st6{fill:#EF509C;}
	.st7{fill:#E3D3B9;}
	.st8{fill:#FFFFFF;stroke:#FFFFFF;stroke-width:0.68;stroke-miterlimit:10;}
	.st9{fill:#EC1C2B;}
	.st10{fill:#FFFFFF;}
	.st11{fill:#0D0D1F;}
	.st12{fill:#006838;}
	.st13{font-family:'ArialMT';}
	.st14{font-size:35px;}
</style>
<title>henry</title>
<g id="Layer_2_1_">
	<g id="Layer_1-2">
		<g id="henry">
			<polygon class="st0" points="70.6,191.9 72.7,208.1 101,235.3 117.2,200.6 115.7,183.4 			"/>
			<polygon class="st1" points="59,197.2 66.2,200.3 67.7,198.3 72.8,201 72.1,197.3 75.8,200.4 79.2,196.4 85.8,199 90.4,195.1 
				96.3,197.1 100.9,193.6 107.6,196.1 112,191.9 116.6,194.1 119.3,189.8 124.2,190.5 128.5,183.8 			"/>
			<path class="st0" d="M144.6,112.1c0,0-2.4-17.5-13.2-24.3c0,0,0,19.1,4.5,24.8c-18.9-17.5-25.7-30.1-25.7-30.1s-10.1,16-5.8,22.8
				c-14-18.1-11.9-21.1-11.9-21.1S77.8,98,81.4,104.9L66.1,90.7c0,0-16.4,16.1-13.4,27c-5.7-4.5-8.5-11.6-7.5-18.8
				c-8.5,32.9-9.7,26.2-9.7,26.2s-8.4-12.6-5.4-23.5c-8.1,32.8-12,28.5-12,28.5l-1.4-0.9l6.1,33.6c4.2,22.6,25.9,37.6,48.5,33.6
				l46.5-8.4c22.6-4.2,37.6-25.9,33.6-48.6l-5.4-29.8L144.6,112.1z"/>
			<path class="st1" d="M30.1,101.7c-3,10.9,5.4,23.4,5.4,23.4s1.2,6.6,9.7-26.2c-1,7.2,1.8,14.3,7.5,18.8c-3-11,13.4-27,13.4-27
				L83.9,112c-3.6-7,8.7-27.8,8.7-27.8s-2.1,3.1,11.9,21.1c-4.3-6.8,5.8-22.8,5.8-22.8s6.9,12.5,25.7,30.1
				c-4.5-5.7-4.5-24.8-4.5-24.8c10.8,6.8,13.2,24.3,13.2,24.3l1.3-2.5l-3.9-21.3c-4.2-22.6-25.9-37.6-48.5-33.6l-46.5,8.5
				c-22.6,4.2-37.6,25.9-33.6,48.5l3.2,17.4l1.4,0.9C18.1,130.2,21.9,134.5,30.1,101.7z"/>
			
				<ellipse transform="matrix(0.9838 -0.1793 0.1793 0.9838 -23.71 12.4827)" class="st2" cx="57.2" cy="137.4" rx="10.9" ry="7.3"/>
			
				<ellipse transform="matrix(0.9838 -0.1793 0.1793 0.9838 -20.7529 22.6079)" class="st2" cx="114.7" cy="126.1" rx="10.9" ry="7.3"/>
			<path class="st3" d="M46,127l15.9-2.9c5.6-1,11,2.7,12,8.3l0.4,2.2c1,5.6-2.7,11-8.3,12l-15.9,2.9c-5.6,1-11-2.7-12-8.3l-0.4-2.2
				C36.6,133.4,40.3,128,46,127z"/>
			<path class="st4" d="M125.2,112.6l-23.7,4.3c-3.5,0.6-5.8,4-5.2,7.4l0,0l1.8,10c0.6,3.5,4,5.8,7.4,5.1l6.1-1.1l16.2-25.6
				C127.1,112.5,126.1,112.4,125.2,112.6z"/>
			<path class="st5" d="M134.4,127.7l-1.8-10c-0.4-2.4-2.2-4.4-4.6-5l-16.3,25.6l17.5-3.2C132.7,134.5,135,131.2,134.4,127.7z"/>
			<path class="st3" d="M105.1,116.3l15.9-2.9c5.6-1,11,2.7,12,8.3l0.4,2.2c1,5.6-2.7,11-8.3,12l-15.9,2.9c-5.6,1-11-2.7-12-8.3
				l-0.4-2.2C95.7,122.7,99.5,117.3,105.1,116.3z"/>
			<path class="st1" d="M117.1,165.5c-0.3-1.5-0.9-2.9-1.8-4.1c-1.9,5-11.1,10.1-22.8,12.3c-11.5,2.1-21.8,0.6-25.5-3.2
				c-0.4,1.4-0.4,2.8-0.2,4.2c1,5.6,7.1,9.6,15.3,10.8c0.2-3.1,4.8-6.3,10.8-7.4c6.2-1.1,11.7,0.4,12.8,3.4
				C113.4,177.5,118.1,171.4,117.1,165.5z"/>
			<path class="st6" d="M92.9,178c-6,1.1-10.5,4.3-10.8,7.4c4.2,0.6,8.4,0.5,12.6-0.3c3.8-0.7,7.5-1.9,11-3.7
				C104.6,178.4,99.1,176.9,92.9,178z"/>
			<path class="st7" d="M62.4,166.4c-2.4,1.3-3.8,3.9-3.4,6.6c0.5,2.3,2.2,4.1,4.5,4.7c-1.4-1.2-2.3-2.9-2.6-4.7
				C60.4,170.7,61,168.3,62.4,166.4z"/>
			
				<rect x="74.1" y="130.7" transform="matrix(0.9838 -0.1793 0.1793 0.9838 -22.2258 17.498)" class="st2" width="23.2" height="2"/>
			<path class="st8" d="M14,106.8c0,0,120.5-24.5,127.8-21c-4.3-36.4-64.7-18.5-100.5-12.3C1,80.5,14,106.8,14,106.8z"/>
			<path class="st9" d="M12.1,96.8c0,0-6.7-118.9,78-93.1s93.1,105.7,93.1,105.7L135,73.9C135,73.9,53.6,61.7,12.1,96.8z"/>
			<circle class="st10" cx="189.6" cy="104.5" r="16"/>
			<path class="st11" d="M135,73.9c-1.6-2.4-3-4.8-4.4-7.3c-0.7-1.2-1.3-2.5-2.1-3.6c-0.7-1.1-1.6-2.2-2.6-3.1c-1-1-2-1.8-3.2-2.5
				s-2.4-1.4-3.7-2.1c-2.4-1.4-4.9-2.9-7.2-4.5c2.6,1.1,5.2,2.3,7.8,3.5c1.3,0.6,2.5,1.2,3.8,1.9s2.4,1.6,3.5,2.7
				c1.1,1,2,2.2,2.7,3.5c0.8,1.3,1.3,2.6,1.9,3.9C132.8,68.6,134,71.2,135,73.9z"/>
			<path class="st11" d="M116.2,57.5c1.5,0.2,2.9,0.7,4.2,1.4c1.4,0.6,2.6,1.4,3.8,2.4c1.2,1,2.2,2.1,3,3.3c0.8,1.2,1.4,2.6,1.8,4.1
				c-0.4-0.6-0.6-1.3-1-1.9c-0.2-0.3-0.4-0.6-0.6-0.9l-0.6-0.9c-0.9-1.1-1.9-2.2-3-3.1c-1.1-0.9-2.3-1.7-3.6-2.5
				c-0.6-0.4-1.3-0.7-1.9-1C117.6,58,116.9,57.7,116.2,57.5z"/>
			<path class="st0" d="M177.4,256.9l12.6,40.6l-13.8,12.2l-16.5,13.5l20.1,34.3c10.9-10.8,22.5-21.1,29.9-34.5
				c12.1-22,15.1-25.9-11.8-72C169.6,202.2,177.4,256.9,177.4,256.9z"/>
			<path class="st12" d="M72.7,208.1c0,0,25.1,16,44.5-7.6c61.3-13.7,94.7,61.6,94.7,61.6l-41,12.1l-21.8-43.4l55.7,137.6L25,368.8
				l41.6-118.5l-21.2,48L0,261.8l27.3-33.3c4.5-5.5,10.6-9.6,17.4-11.7L72.7,208.1z"/>
		</g>
	</g>
</g>
<text transform="matrix(1 0 0 1 75.0999 273.1204)" class="st10 st13 st14">LUV</text>
<text transform="matrix(1 0 0 1 82.0999 315.1204)" class="st10 st13 st14">D3</text>
</svg>
