<?xml version="1.0" encoding="utf-8"?>
<!-- Generator: Adobe Illustrator 22.0.1, SVG Export Plug-In . SVG Version: 6.00 Build 0)  -->
<svg version="1.1" id="Layer_1" xmlns="http://www.w3.org/2000/svg" xmlns:xlink="http://www.w3.org/1999/xlink" x="0px" y="0px"
	 viewBox="0 0 46.8 28.5" style="enable-background:new 0 0 46.8 28.5;" xml:space="preserve">
<style type="text/css">
	.st0{fill:#0071BC;}
</style>
<title>left</title>
<g id="Layer_2_1_">
	<g id="Layer_1-2">
		<path id="left" class="st0" d="M18.1,2.7L18.1,2.7c0,1.5,1.2,2.6,2.6,2.6h23.4c1.5,0,2.6,1.2,2.7,2.6v12.4c0,1.5-1.2,2.6-2.6,2.6
			h-23c-1.5,0-2.6,1.2-2.6,2.6l0,0v0.2c0,1.5-1.2,2.6-2.6,2.7c-0.6,0-1.3-0.2-1.8-0.7L0.9,16.3c-1.1-1-1.2-2.6-0.3-3.7
			c0.1-0.1,0.1-0.2,0.2-0.2L13.6,0.7c1.1-1,2.7-0.9,3.7,0.2C17.8,1.3,18.1,2,18.1,2.7z"/>
	</g>
</g>
</svg>
