<?xml version="1.0" encoding="utf-8"?>
<!-- Generator: Adobe Illustrator 22.0.1, SVG Export Plug-In . SVG Version: 6.00 Build 0)  -->
<svg version="1.1" id="Layer_1" xmlns="http://www.w3.org/2000/svg" xmlns:xlink="http://www.w3.org/1999/xlink" x="0px" y="0px"
	 viewBox="0 0 153.5 149.6" style="enable-background:new 0 0 153.5 149.6;" xml:space="preserve">
<style type="text/css">
	.st0{fill:#FFFFFF;stroke:#FEE098;stroke-width:4.23;stroke-miterlimit:10;}
	.st1{fill:#998675;}
	.st2{fill:#F0FCFF;}
	.st3{fill:#C7B299;}
	.st4{fill:#FFDECC;}
	.st5{fill:#FFFFFF;}
	.st6{fill:#635140;}
	.st7{fill:#DEBAAD;}
	.st8{fill:#FFCFC4;}
	.st9{fill:#FFE5D3;}
	.st10{fill:none;stroke:#DAA9A2;stroke-width:0.66;stroke-miterlimit:10;}
	.st11{fill:none;}
	.st12{fill:#006837;}
	.st13{fill:#F7931E;}
	.st14{fill:#58483C;}
	.st15{fill:#9D0000;}
	.st16{font-family:'Krungthep';}
	.st17{font-size:16.88px;}
	.st18{font-size:9px;}
	.st19{fill:#86AEB5;}
</style>
<title>leftframe</title>
<g id="Layer_2_1_">
	<g id="Layer_1-2">
		<g id="Layer_2-2">
			<g id="Layer_1-2-2">
				<g id="Frame">
					<rect x="2.1" y="2.1" class="st0" width="149.3" height="145.4"/>
				</g>
			</g>
		</g>
		<g id="clothes1">
			<g id="Layer_1-2-3">
				<g id="Clothes">
					<g id="BG">
						<path class="st1" d="M64.2,66.1c0,0,11.2-4.8,22.3,0.9c-1.6-5.8-8.6-7.5-11.5-7.2S59.7,62.2,59.8,59s4.1-5,4.1-5l-1.3-1.3
							c0,0-6,2.7-5.5,7.6S64.3,63.5,64.2,66.1z"/>
						<path class="st2" d="M63.9,50.8c1.1,0.1,1.9,1,1.8,2.1c-0.1,1.1-1,1.9-2.1,1.8c-1-0.1-1.8-0.9-1.8-2c0-1.1,0.9-2,2-2
							C63.8,50.8,63.8,50.8,63.9,50.8"/>
						<path class="st3" d="M61.4,72.6c0,0,12.6-9.9,26.7,0.4c0.7-5-1.5-6-1.5-6c-7-3.4-15.1-3.7-22.3-0.9
							C61.9,67.3,60.7,70,61.4,72.6z"/>
						<path class="st4" d="M51.4,73.8c-0.6-0.6-0.9-1.4-1-2.3c0-0.6-0.5-1.2-1.1-1.2c-0.6,0-1.2,0.5-1.2,1.1
							c-1.6-1.7-3.3-0.8-2.6,0.4c-1.2-0.9-2.4,0.4-1.4,1.4c-1.5,0.1-2.5,1.4-0.4,2.2c0.8,0.2,2.5,1.6,2.7,2.5
							C48.6,76.2,51.4,73.8,51.4,73.8z"/>
						<g id="Face">
							<path class="st4" d="M61.5,72.5c0,0-1.6,7.3,0.5,9.3c2.1,2,8.7,7,12.3,6.7s9.3-1.6,11.3-3.4s4.3-7.6,4-8.8
								c-0.3-1.2-0.8-2.3-1.3-3.3C88.2,73,77.1,62.7,61.5,72.5z"/>
							<path class="st5" d="M89.8,75.3c0.7-2.6-1.6-2.3-1.6-2.3c-7.8-6.1-18.7-6.3-26.7-0.5c-1.1,0.1-2.8,1.6-1.4,2.7
								c-5.9,1.5-4.2,11.1,1.2,11.6c-1.1,0.2-2.6,3.4-0.5,3.8c-1.3,0.4-2.3,4.7,0.9,4.6c-0.7,0.4-0.4,3.6,1.9,3.6
								c-0.3,1,0.9,3.2,3.6,2.9c0,2.2,2.8,3.4,4.3,2.1c2,2.3,4.1,1.4,5.5-0.3c1.3,0.3,3.4,0.7,3.9-2.5c3.4,0.8,4.3-0.4,4.3-2.6
								c2,0.1,2.8-2,2.5-3.8c2.8-1.4,1.2-4.5-0.7-4.8c0.5-0.2,0.7-1.7,0-2.6C98.1,83.9,93.3,76.1,89.8,75.3z M86.6,82.1L82.1,82
								c0-1.6-3-3.2-4.1-2c-0.1,1.4-5.4,1.6-5.5-0.1c-3.9,0.2-4,1.4-4.8,2.2c-5.1,2-7.4-2.6-6.5-4.4c4.3-1.1,2.2-2.2,0.1-2
								c-0.3-2.9,2-3.2,2-3.2s0.1,3.2,1.6,1.4s5.6-3.1,5.6-3.1v-1.2l8.8,0.2v1.6c0,0,3.4,0.6,5.1,2.2s2.4,1.5,2.3-0.8
								c0.7,0.2,1.2,0.8,1.5,2.8c-1.9,0.8-1.8,1.5,0.2,1.4C89.6,78.3,86.6,82.1,86.6,82.1z"/>
							<path class="st6" d="M68,77h2C70,73.8,68.2,73.5,68,77z"/>
							<path class="st6" d="M79.7,77h2C81.6,73.7,79.8,73.4,79.7,77z"/>
							<ellipse class="st7" cx="75.2" cy="79.2" rx="3.6" ry="2.6"/>
							<ellipse class="st8" cx="80.5" cy="80" rx="3" ry="2.4"/>
							<ellipse class="st8" cx="69.2" cy="79.9" rx="3" ry="2.4"/>
							<ellipse class="st9" cx="75.1" cy="78.9" rx="3.6" ry="2.6"/>
							<path class="st10" d="M71.5,84.1l0.5,1c0.7,1.5,2.4,2.2,4,1.5c0.6-0.3,1.1-0.7,1.4-1.3l0.7-1.2"/>
						</g>
					</g>
					<g id="green_and_blue">
						<path class="st4" d="M93,78.3l4.9-3.3c0,0,4.1,3.4,5.6,4.4c-1.3,3-7.8,12.3-9.7,13.5c-2-2.7-2.6-6.4-3.4-7.2
							C91.6,84.3,95.4,82.4,93,78.3z"/>
						<path class="st4" d="M53.2,75.2l3.6,2.4l3.7,7L57,93.2c0,0-8.3-10.6-9.2-13.6C50.4,77.6,53.2,75.2,53.2,75.2z"/>
						<path class="st11" d="M64.3,66.1c0,0,11.3-4.9,22.4,0.9c-1.5-5.8-8.6-7.5-11.5-7.3S59.7,62.2,59.8,59s4.1-5,4.1-5l-1.3-1.3
							c0,0-6,2.7-5.5,7.6S64.3,63.5,64.3,66.1z"/>
						<ellipse class="st11" cx="63.9" cy="52.7" rx="2.2" ry="2"/>
						<path class="st11" d="M61.4,72.5c0,0,12.7-9.8,26.8,0.5c0.7-5-1.5-6.1-1.5-6.1c-7-3.4-15.1-3.7-22.4-0.9
							C61.9,67.3,60.7,70,61.4,72.5z"/>
						<path class="st12" d="M90.4,85.8c-1.2,0.6-2.4,1.2-3.7,1.5c0.7,0.9,0.5,2.4,0,2.6c1.9,0.2,3.5,3.3,0.7,4.7
							c0.3,1.8-0.5,3.8-2.5,3.8c0.1,2.2-0.9,3.3-4.3,2.5c-0.5,3.2-2.6,2.8-3.9,2.5c-1.4,1.8-3.5,2.6-5.5,0.3
							c-1.4,1.3-4.3,0.1-4.3-2.1c-2.7,0.4-3.8-1.9-3.6-2.9c-2.2,0.1-2.5-3.2-1.9-3.6c-3.2,0.1-2.1-4.2-0.9-4.6
							c-2.1-0.4-0.6-3.6,0.5-3.8c-0.5,0-1.1-0.2-1.5-0.4c-0.7,1.3-3.4,6.5-3.5,8.5c-0.2,2.3-0.4,12.5-0.4,12.5s12.9,5.9,39.5,0.1
							C94.7,106.4,96.3,92.6,90.4,85.8z"/>
						<path class="st5" d="M51.5,73.8l-5,4.1c-0.4,0.3-0.5,0.8-0.2,1.2c0,0,0,0,0,0c0,0,0,0,0.1,0.1l0.2,0.2c0.4,0.4,1,0.4,1.4,0.1
							l5-4.1c0.4-0.3,0.4-0.8,0.2-1.2c0,0-0.1-0.1-0.1-0.1l-0.2-0.2C52.5,73.5,51.9,73.4,51.5,73.8C51.5,73.8,51.5,73.8,51.5,73.8z"
							/>
						<path class="st4" d="M51.5,73.8c-0.6-0.6-0.9-1.4-1-2.3c0-0.6-0.5-1.1-1.2-1.1c-0.6,0-1,0.4-1.1,1c-1.6-1.7-3.3-0.8-2.6,0.4
							c-1.2-0.9-2.4,0.4-1.4,1.4c-1.5,0.1-2.5,1.4-0.4,2.2c0.8,0.2,2.8,1.4,2.7,2.5L51.5,73.8z"/>
						<path class="st4" d="M99.5,73.9c0.6-0.6,0.9-1.4,1-2.3c0-0.6,0.5-1.1,1.2-1.1c0.6,0,1,0.4,1.1,1c1.6-1.7,3.3-0.8,2.6,0.4
							c1.2-0.9,2.4,0.4,1.4,1.4c1.5,0.1,2.5,1.4,0.4,2.2c-0.8,0.2-2.8,1.4-2.7,2.5L99.5,73.9z"/>
						<path class="st5" d="M104.7,77.7l-5.1-4c-0.4-0.3-1.1-0.3-1.4,0.1L97.9,74c-0.3,0.3-0.3,0.9,0,1.2c0,0,0,0,0,0
							c0,0,0.1,0.1,0.1,0.1l5.1,4c0.4,0.3,1.1,0.3,1.4-0.1l0.2-0.2c0.3-0.3,0.4-0.9,0-1.2C104.8,77.8,104.8,77.8,104.7,77.7
							C104.8,77.8,104.7,77.7,104.7,77.7z"/>
						<path class="st13" d="M61.4,111.3l0.8,4.8c3.5,1,7.2,1.2,10.7,0.6l1.8-3.6L61.4,111.3z"/>
						<path class="st13" d="M77.9,112.6l3.4,4.2c0,0,7.4-1.9,9.7-4.1l-0.1-3.3L77.9,112.6z"/>
						<path class="st5" d="M55.8,107.4c0,0,14.7,5.8,39.5,0.1c2.3-0.6,2.4,1.8,1.7,2.2s-19,7.2-42.6,0.2
							C52.4,109,53.6,106.8,55.8,107.4z"/>
						<path class="st14" d="M72.6,119.2l0.2,6c0,0-1.2,0.8-4.3,0.2c-3.5,0.7-8,1.5-10.7-0.9s1.6-5,4.8-4.2l0-2.3l10,0.2L72.6,119.2z
							"/>
						<path class="st5" d="M81.3,116.8c0,0,8-2.2,9.7-4.1c1.5-1,2.7,1.2,2,1.6s-6.6,4-11,4.6c-0.6,0.1-1.2-0.2-1.3-0.8
							C80.6,117.6,80.8,117,81.3,116.8z"/>
						<path class="st5" d="M62.2,116.1c0,0,5.9,1.9,10.7,0.6c1.8-0.4,2.1,2,0.9,2.3s-9.8,0.6-12.5-0.8C60,117.3,61.2,116,62.2,116.1
							z"/>
						<path class="st14" d="M91.7,115l0.4,1.9c0,0,0.7,0.1,1.6-1s7,0.2,5.2,2.9s-3.3,3-9,4.4c-4.4,1.6-5,1.5-5,1.5l-2.1-5.9
							L91.7,115z"/>
					</g>
				</g>
			</g>
		</g>
		<text transform="matrix(0.95 0 0 1 11.4102 29.6299)" class="st15 st16 st17">DRESS UP SANTA</text>
		<text transform="matrix(0.95 0 0 1 35.2998 41.6201)" class="st15 st16 st18">Click on the arrow </text>
	</g>
</g>
<g id="Layer_2_2_">
	<g id="Layer_1-2_1_">
		<path id="right" class="st19" d="M88.8,132.2L88.8,132.2c0,0.5-0.4,0.9-0.9,0.9l-7.8,0c-0.5,0-0.9,0.4-0.9,0.9c0,0,0,0,0,0v4.1
			c0,0.5,0.4,0.9,0.9,0.9h7.6c0.5,0,0.9,0.4,0.9,0.9v0.1c0,0.5,0.4,0.9,0.9,0.9c0.2,0,0.4-0.1,0.6-0.2l4.4-3.8
			c0.4-0.3,0.4-0.9,0.1-1.2c0,0-0.1-0.1-0.1-0.1l-4.3-3.9c-0.4-0.3-0.9-0.3-1.3,0.1C88.9,131.8,88.8,132,88.8,132.2z"/>
	</g>
</g>
<g id="Layer_2_3_">
	<g id="Layer_1-2_2_">
		<path id="right_1_" class="st19" d="M65.6,140L65.6,140c0-0.5,0.4-0.9,0.9-0.9l7.8,0c0.5,0,0.9-0.4,0.9-0.9c0,0,0,0,0,0v-4.1
			c0-0.5-0.4-0.9-0.9-0.9h-7.6c-0.5,0-0.9-0.4-0.9-0.9v-0.1c0-0.5-0.4-0.9-0.9-0.9c-0.2,0-0.4,0.1-0.6,0.2l-4.4,3.8
			c-0.4,0.3-0.4,0.9-0.1,1.2c0,0,0.1,0.1,0.1,0.1l4.3,3.9c0.4,0.3,0.9,0.3,1.3-0.1C65.5,140.4,65.6,140.2,65.6,140z"/>
	</g>
</g>
</svg>
