<svg xmlns="http://www.w3.org/2000/svg" xmlns:xlink="http://www.w3.org/1999/xlink" viewBox="0 0 459.01 717.28"><defs><style>.cls-1{fill:#b00000;}.cls-2{fill:#7a0000;}.cls-3{fill:#fff;}.cls-4{fill:url(#radial-gradient);}.cls-5{fill:url(#radial-gradient-2);}.cls-6{fill:url(#radial-gradient-3);}.cls-7{fill:url(#radial-gradient-4);}.cls-8{fill:url(#radial-gradient-5);}</style><radialGradient id="radial-gradient" cx="849.92" cy="242.54" r="21.16" gradientTransform="matrix(-0.97, 0.23, 0.23, 0.97, 1143.01, -236.13)" gradientUnits="userSpaceOnUse"><stop offset="0" stop-color="#fff"/><stop offset="0.69" stop-color="#ffbf4c"/><stop offset="1" stop-color="#ffa400"/></radialGradient><radialGradient id="radial-gradient-2" cx="914.92" cy="242.54" r="21.16" xlink:href="#radial-gradient"/><radialGradient id="radial-gradient-3" cx="967.92" cy="240.54" r="21.16" xlink:href="#radial-gradient"/><radialGradient id="radial-gradient-4" cx="1024.92" cy="239.54" r="21.16" xlink:href="#radial-gradient"/><radialGradient id="radial-gradient-5" cx="1178.67" cy="159.21" r="21.16" gradientTransform="matrix(-1, 0.02, 0.02, 1, 1316.36, 65.18)" xlink:href="#radial-gradient"/></defs><title>leftsock</title><g id="Layer_2" data-name="Layer 2"><g id="Layer_3" data-name="Layer 3"><g id="leftsock"><path class="cls-1" d="M138.06,375.4,97.86,199.48s287.29-67.71,298.48-70.38c0,0,3.48,14.59,37.66,164.19,6.65,29.08,11.87,53.94,15.8,75.37a116,116,0,0,0-80.91,211.42c-55.14,50.85-127.15,112.09-161,124.8-52.54,19.76-115.41,25.39-181-56.92a66.07,66.07,0,0,1-11.23-21.19C-10.43,544-23.07,515.19,138.06,375.4Z"/><path class="cls-2" d="M406.2,370.65a115.7,115.7,0,0,1,43.6-2c16.25,88.83,10,118.51-11.1,143.1-8.3,9.65-35.85,37-69.81,68.32A116,116,0,0,1,406.2,370.65Z"/><rect class="cls-2" x="94.59" y="147.81" width="306.89" height="41" transform="translate(528.34 274.51) rotate(166.59)"/><polygon class="cls-3" points="365.6 182.72 375.58 129.53 332.7 139.76 365.6 182.72"/><polygon class="cls-3" points="306.27 196.87 316.25 143.68 273.37 153.9 306.27 196.87"/><polygon class="cls-3" points="251.81 209.85 261.79 156.66 218.9 166.88 251.81 209.85"/><polygon class="cls-3" points="197.34 222.83 207.32 169.64 164.44 179.87 197.34 222.83"/><polygon class="cls-3" points="138.01 236.98 147.99 183.79 105.11 194.01 138.01 236.98"/><circle class="cls-4" cx="372.5" cy="196.89" r="21.16"/><circle class="cls-5" cx="309.27" cy="211.96" r="21.16"/><circle class="cls-6" cx="257.25" cy="222.3" r="21.16"/><circle class="cls-7" cx="201.57" cy="234.55" r="21.16"/><circle class="cls-8" cx="141.26" cy="248.93" r="21.16"/><rect class="cls-3" x="25.99" y="38.68" width="404" height="129" rx="31.28" ry="31.28" transform="translate(473.69 150.68) rotate(166.59)"/></g></g></g></svg>