<svg xmlns="http://www.w3.org/2000/svg" viewBox="0 0 1284.06 440.64"><defs><style>.cls-1{fill:none;stroke:#4b4b4b;stroke-linecap:round;stroke-miterlimit:10;stroke-width:3px;}.cls-2{fill:#4b4b4b;}.cls-3{fill:#fff;}</style></defs><title>Asset 3</title><g id="Layer_2" data-name="Layer 2"><g id="Layer_1-2" data-name="Layer 1"><g id="Lights"><path class="cls-1" d="M46.92,439.14c0-100-24-84-24-146s21-45,23-116-28-61-29-114,80-16,154-16,54-23,108-23,61,22,118,22,49-28,117-28,76,31,141,31,66-26,138-26,63,18,120,18,56-22,132-22,54,29,111,29c63,0,74.9-23,100.9,20,45,74.35-46.34,110.15-46.34,158.15,0,55.5,64,95.49,63,157.49"/><g id="bulb"><polygon class="cls-2" points="16.83 294.75 23.97 289.32 21.44 283.32 13.22 284.82 16.83 294.75"/><ellipse class="cls-3" cx="7.77" cy="292.76" rx="7.61" ry="8.88" transform="matrix(0.94, -0.34, 0.34, 0.94, -100.35, 20.59)"/><polygon class="cls-2" points="15.67 299.06 17.89 296.36 12.68 283 8.94 282.25 15.67 299.06"/></g><g id="bulb-2" data-name="bulb"><polygon class="cls-2" points="210.65 50.1 204.53 43.54 198.82 46.66 201.13 54.69 210.65 50.1"/><ellipse class="cls-3" cx="209.58" cy="59.32" rx="8.88" ry="7.61" transform="translate(-4.85 97.54) rotate(-25.91)"/><polygon class="cls-2" points="215.05 50.83 212.14 48.89 199.37 55.42 199.01 59.21 215.05 50.83"/></g><g id="bulb-3" data-name="bulb"><polygon class="cls-2" points="467.32 34.1 461.2 27.54 455.48 30.66 457.8 38.69 467.32 34.1"/><ellipse class="cls-3" cx="466.24" cy="43.32" rx="8.88" ry="7.61" transform="translate(27.94 208.08) rotate(-25.91)"/><polygon class="cls-2" points="471.72 34.83 468.81 32.89 456.04 39.42 455.67 43.21 471.72 34.83"/></g><g id="bulb-4" data-name="bulb"><polygon class="cls-2" points="888.66 43.26 882.54 36.7 876.83 39.82 879.14 47.84 888.66 43.26"/><ellipse class="cls-3" cx="887.58" cy="52.47" rx="8.88" ry="7.61" transform="translate(66.29 393.11) rotate(-25.91)"/><polygon class="cls-2" points="893.06 43.98 890.15 42.05 877.38 48.57 877.01 52.37 893.06 43.98"/></g><g id="bulb-5" data-name="bulb"><polygon class="cls-2" points="1047.18 27.09 1043.18 19.06 1036.81 20.42 1036.75 28.77 1047.18 27.09"/><ellipse class="cls-3" cx="1043.52" cy="35.61" rx="8.88" ry="7.61" transform="translate(8.12 170.33) rotate(-9.37)"/><polygon class="cls-2" points="1051.19 29.03 1048.95 26.35 1034.85 28.97 1033.42 32.5 1051.19 29.03"/></g><g id="bulb-6" data-name="bulb"><polygon class="cls-2" points="1190.66 51.26 1184.54 44.7 1178.83 47.82 1181.14 55.84 1190.66 51.26"/><ellipse class="cls-3" cx="1189.58" cy="60.47" rx="8.88" ry="7.61" transform="translate(93.15 525.87) rotate(-25.91)"/><polygon class="cls-2" points="1195.06 51.98 1192.15 50.05 1179.38 56.57 1179.02 60.37 1195.06 51.98"/></g><g id="bulb-7" data-name="bulb"><polygon class="cls-2" points="299.29 36.1 299.66 27.14 293.43 25.26 289.34 32.54 299.29 36.1"/><ellipse class="cls-3" cx="291.97" cy="41.8" rx="7.61" ry="8.88" transform="translate(155.19 303.12) rotate(-70.52)"/><polygon class="cls-2" points="301.87 39.74 301.2 36.31 287.58 31.8 284.63 34.21 301.87 39.74"/></g><g id="bulb-8" data-name="bulb"><polygon class="cls-2" points="690.23 56.1 690.6 47.14 684.37 45.26 680.28 52.54 690.23 56.1"/><ellipse class="cls-3" cx="682.92" cy="61.8" rx="7.61" ry="8.88" transform="translate(396.9 685.01) rotate(-70.52)"/><polygon class="cls-2" points="692.81 59.74 692.14 56.31 678.53 51.8 675.57 54.21 692.81 59.74"/></g><g id="bulb-9" data-name="bulb"><polygon class="cls-2" points="1254.64 83.8 1261.78 78.37 1259.25 72.37 1251.04 73.87 1254.64 83.8"/><ellipse class="cls-3" cx="1245.58" cy="81.8" rx="7.61" ry="8.88" transform="matrix(0.94, -0.34, 0.34, 0.94, 48.03, 434)"/><polygon class="cls-2" points="1253.48 88.11 1255.7 85.4 1250.49 72.05 1246.75 71.3 1253.48 88.11"/></g><g id="bulb-10" data-name="bulb"><polygon class="cls-2" points="1237.86 312.2 1245 306.77 1242.47 300.77 1234.25 302.27 1237.86 312.2"/><ellipse class="cls-3" cx="1228.8" cy="310.21" rx="7.61" ry="8.88" transform="matrix(0.94, -0.34, 0.34, 0.94, -31.66, 442.19)"/><polygon class="cls-2" points="1236.7 316.51 1238.92 313.8 1233.7 300.45 1229.97 299.7 1236.7 316.51"/></g><g id="bulb-11" data-name="bulb"><polygon class="cls-2" points="33.49 145.5 42.18 147.73 45.31 142.03 39.03 136.51 33.49 145.5"/><ellipse class="cls-3" cx="29.43" cy="137.16" rx="8.88" ry="7.61" transform="matrix(0.52, -0.85, 0.85, 0.52, -102.9, 90.6)"/><polygon class="cls-2" points="29.39 147.27 32.88 147.33 40.12 134.95 38.39 131.56 29.39 147.27"/></g><g id="bulb-12" data-name="bulb"><polygon class="cls-2" points="1210.98 194.81 1219.66 197.04 1222.8 191.34 1216.52 185.82 1210.98 194.81"/><ellipse class="cls-3" cx="1206.92" cy="186.47" rx="8.88" ry="7.61" transform="matrix(0.52, -0.85, 0.85, 0.52, 417.38, 1118.17)"/><polygon class="cls-2" points="1206.88 196.57 1210.37 196.64 1217.61 184.26 1215.88 180.87 1206.88 196.57"/></g><g id="bulb-13" data-name="bulb"><polygon class="cls-2" points="129.12 33.6 126.62 42.21 132.22 45.52 137.93 39.43 129.12 33.6"/><ellipse class="cls-3" cx="137.58" cy="29.8" rx="7.61" ry="8.88" transform="translate(37.14 128.43) rotate(-56.7)"/><polygon class="cls-2" points="127.49 29.45 127.31 32.94 139.46 40.56 142.9 38.94 127.49 29.45"/></g><g id="bulb-14" data-name="bulb"><polygon class="cls-2" points="567.78 17.6 565.28 26.21 570.89 29.52 576.6 23.43 567.78 17.6"/><ellipse class="cls-3" cx="576.25" cy="13.8" rx="7.61" ry="8.88" transform="translate(248.34 487.86) rotate(-56.7)"/><polygon class="cls-2" points="566.15 13.45 565.98 16.94 578.13 24.56 581.57 22.94 566.15 13.45"/></g><g id="bulb-15" data-name="bulb"><polygon class="cls-2" points="967.91 22.93 973.59 29.87 979.49 27.13 977.71 18.97 967.91 22.93"/><ellipse class="cls-3" cx="969.58" cy="13.8" rx="8.88" ry="7.61" transform="translate(66.46 366.86) rotate(-22.17)"/><polygon class="cls-2" points="963.57 21.92 966.35 24.04 979.51 18.36 980.12 14.6 963.57 21.92"/></g><g id="bulb-16" data-name="bulb"><polygon class="cls-2" points="61.24 28.93 66.92 35.87 72.83 33.13 71.04 24.97 61.24 28.93"/><ellipse class="cls-3" cx="62.92" cy="19.8" rx="8.88" ry="7.61" transform="translate(-2.82 25.2) rotate(-22.17)"/><polygon class="cls-2" points="56.9 27.92 59.68 30.04 72.84 24.36 73.46 20.6 56.9 27.92"/></g><g id="bulb-17" data-name="bulb"><polygon class="cls-2" points="378.58 39.6 384.26 46.54 390.16 43.8 388.37 35.64 378.58 39.6"/><ellipse class="cls-3" cx="380.25" cy="30.47" rx="8.88" ry="7.61" transform="translate(16.61 145.73) rotate(-22.17)"/><polygon class="cls-2" points="374.23 38.59 377.01 40.71 390.18 35.03 390.79 31.27 374.23 38.59"/></g><g id="bulb-18" data-name="bulb"><polygon class="cls-2" points="784.58 16.93 790.26 23.87 796.16 21.13 794.37 12.97 784.58 16.93"/><ellipse class="cls-3" cx="786.25" cy="7.8" rx="8.88" ry="7.61" transform="translate(55.17 297.24) rotate(-22.17)"/><polygon class="cls-2" points="780.23 15.92 783.01 18.04 796.18 12.36 796.79 8.6 780.23 15.92"/></g><g id="bulb-19" data-name="bulb"><polygon class="cls-2" points="1235.78 34.93 1233.29 43.55 1238.89 46.86 1244.6 40.76 1235.78 34.93"/><ellipse class="cls-3" cx="1244.25" cy="31.14" rx="7.61" ry="8.88" transform="translate(535.1 1053.99) rotate(-56.7)"/><polygon class="cls-2" points="1234.15 30.78 1233.98 34.27 1246.13 41.9 1249.57 40.27 1234.15 30.78"/></g><g id="bulb-20" data-name="bulb"><polygon class="cls-2" points="1108.31 21.52 1102.79 28.58 1106.77 33.74 1114.33 30.2 1108.31 21.52"/><ellipse class="cls-3" cx="1117.58" cy="21.14" rx="7.61" ry="8.88" transform="translate(188.74 642.99) rotate(-34.89)"/><polygon class="cls-2" points="1108.34 17.05 1106.88 20.23 1115.33 31.82 1119.13 31.59 1108.34 17.05"/></g><g id="bulb-21" data-name="bulb"><polygon class="cls-2" points="1214.98 228.18 1209.46 235.25 1213.43 240.41 1221 236.87 1214.98 228.18"/><ellipse class="cls-3" cx="1224.25" cy="227.8" rx="7.61" ry="8.88" transform="translate(89.71 741.13) rotate(-34.89)"/><polygon class="cls-2" points="1215.01 223.72 1213.55 226.9 1221.99 238.49 1225.8 238.26 1215.01 223.72"/></g><g id="bulb-22" data-name="bulb"><polygon class="cls-2" points="45.63 346.44 36.7 345.61 34.5 351.74 41.57 356.2 45.63 346.44"/><ellipse class="cls-3" cx="50.95" cy="354.04" rx="8.88" ry="7.61" transform="translate(-295.72 265.93) rotate(-67.55)"/><polygon class="cls-2" points="49.4 344.06 45.94 344.55 40.74 357.91 42.98 360.99 49.4 344.06"/></g><g id="bulb-23" data-name="bulb"><polygon class="cls-2" points="54.63 202.44 45.7 201.61 43.5 207.74 50.57 212.2 54.63 202.44"/><ellipse class="cls-3" cx="59.95" cy="210.04" rx="8.88" ry="7.61" transform="translate(-157.07 185.24) rotate(-67.55)"/><polygon class="cls-2" points="58.4 200.06 54.94 200.55 49.74 213.91 51.98 216.99 58.4 200.06"/></g><g id="bulb-24" data-name="bulb"><polygon class="cls-2" points="27.54 60.94 18.61 60.1 16.41 66.23 23.48 70.69 27.54 60.94"/><ellipse class="cls-3" cx="32.86" cy="68.54" rx="8.88" ry="7.61" transform="translate(-43.03 72.74) rotate(-67.55)"/><polygon class="cls-2" points="31.31 58.55 27.85 59.04 22.65 72.4 24.89 75.48 31.31 58.55"/></g><g id="bulb-25" data-name="bulb"><polygon class="cls-2" points="1270.93 137.54 1262 136.7 1259.8 142.83 1266.87 147.29 1270.93 137.54"/><ellipse class="cls-3" cx="1276.25" cy="145.14" rx="8.88" ry="7.61" transform="translate(654.73 1269.24) rotate(-67.55)"/><polygon class="cls-2" points="1274.7 135.15 1271.24 135.64 1266.04 149 1268.28 152.08 1274.7 135.15"/></g></g></g></g></svg>