<svg xmlns="http://www.w3.org/2000/svg" viewBox="0 0 208.02 87.83"><defs><style>.cls-1{fill:#147732;}.cls-2{fill:#b51412;}.cls-3{fill:#0b702b;}.cls-4{fill:#ac0703;}.cls-5{fill:#b20604;}.cls-6{fill:#167838;}.cls-7{fill:#197937;}.cls-8{fill:#1e7b3d;}.cls-9{fill:#167535;}.cls-10{fill:#40913d;}.cls-11{fill:#185c29;}.cls-12{fill:#248039;}.cls-13{fill:#308b3e;}.cls-14{fill:#076d27;}.cls-15{fill:#2a8336;}.cls-16{fill:#386224;}.cls-17{fill:#d7221f;}.cls-18{fill:#b00604;}.cls-19{fill:#c91c1b;}.cls-20{fill:#b01a18;}.cls-21{fill:#e56d4e;}.cls-22{fill:#e34f3e;}.cls-23{fill:#db4334;}.cls-24{fill:#e66d4e;}</style></defs><title>Mistletoe</title><g id="Layer_2" data-name="Layer 2"><g id="Layer_1-2" data-name="Layer 1"><g id="Mistletoe"><path class="cls-1" d="M101.18,71.83l-.45,5.33c-.1.11-.31-.1-.27,0a2.06,2.06,0,0,1,.1,1.52l0,.7c-.41.47,0,1.14-.38,1.61-1.89-.8-3.75-1.66-5.67-2.41-5.12-2-10.38-3-15.89-2a21,21,0,0,0-9.88,4.76,28.06,28.06,0,0,0-5.49,6.22.57.57,0,0,1-.45.32c-.27,0-.18-.21-.2-.34-1-4.63-4.15-7.27-8.27-9-4.8-2-9.89-2.54-15-2.69a139.34,139.34,0,0,0-26,2.12c-4,.64-8,1.39-12,2.08-.25,0-.58.28-.68-.2,6-2.43,11.94-4.89,17.66-7.9A55.87,55.87,0,0,0,29.9,64.17c2.2-2,4.38-4.1,5.09-7.19.18-.17.2-.44.35-.63a10.29,10.29,0,0,0,0-4c-.16-.19-.17-.46-.36-.64A10.4,10.4,0,0,0,31.82,47,11.39,11.39,0,0,1,31,46c.06-.5.4-.24.64-.23A59.63,59.63,0,0,0,42.39,46c3.09-.32,6.11-.87,8.71-2.76a7,7,0,0,0,3.09-4.6c.16-.19.19-.45.35-.64a17.84,17.84,0,0,0,0-5.16c-.22-.23-.11-.61-.35-.84a39.3,39.3,0,0,0-4.31-11c9.13,3.71,18.23,6.93,27.5,9.66,0,1-.79,1.53-1.47,2.09A8.39,8.39,0,0,1,72.84,32c-5-1.57-9.92-3.64-14.83-5.59-.72-.29-1.47-.72-2.26-.13-.58.51-.32,1.05,0,1.58a42.65,42.65,0,0,1,.87,6.92c.1,3-.24,6-2.37,8.43a12.5,12.5,0,0,1-6.72,3.86,38.78,38.78,0,0,1-10,.77c-1.75,0-2,.41-1.15,2,.22.41.46.81.69,1.22,1.77,3.18,1.26,6.2-.65,9.12a30.74,30.74,0,0,1-7.26,7.18c-3.05,2.36-6.55,4-9.69,6.14-.18.13-.45.16-.48.57,2.19-.24,4.14-1.21,6.19-1.82a7.76,7.76,0,0,0,2.69-.62c3.77-1.11,7.54-2.21,11.25-3.48,6.83-2.33,13.58-4.87,20.24-7.67,6.33-2.65,12.49-5.63,18.6-8.75A5.1,5.1,0,0,1,79.84,51a3.44,3.44,0,0,1,1.32.67,21.91,21.91,0,0,0,11.59,3.47A24,24,0,0,0,102,53.45a1.53,1.53,0,0,1,1.15-.18,12.91,12.91,0,0,1-.23,2.7c-.23.55,0,1.14-.17,1.69l-.05,1.68c-.31.36,0,.88-.33,1.25l-.65,7.18c-.22.54,0,1.12-.16,1.66l0,.93C101.17,70.79,101.5,71.39,101.18,71.83Z"/><path class="cls-1" d="M123.7,76.23a49.41,49.41,0,0,0-.75-6.54,33,33,0,0,0-3.61-9.07,28.68,28.68,0,0,0-5.83-6.82A38.75,38.75,0,0,0,108,50a1.14,1.14,0,0,1,.45-1.05,13.57,13.57,0,0,0,3.83-10.71,1.51,1.51,0,0,1,0-.3c0-.28.09-.56.41-.66.65.06,1,.57,1.46,1a18,18,0,0,0,9.18,4.47,20.46,20.46,0,0,0,7.72,0,3.18,3.18,0,0,1,1.37-.14c1.64.89,3.15,2,4.72,3,3.36,2.15,6.75,4.26,10.23,6.21,3.28,1.83,6.57,3.64,9.94,5.31,4,2,8.07,3.92,12.18,5.74s8.38,3.57,12.61,5.25c3.3,1.32,6.68,2.46,10,3.77A2.55,2.55,0,0,0,193,72c1,.26,1.95.87,3,1.12a2.42,2.42,0,0,0,1.24.16,12.23,12.23,0,0,0-3-2.36,51,51,0,0,1-8.5-6.08,22.91,22.91,0,0,1-6.57-9,14.77,14.77,0,0,1-1.1-8.08,1.87,1.87,0,0,0,.25-1.28,14.84,14.84,0,0,1,.56-3c.41-1.71.11-2.1-1.62-2.19a25.61,25.61,0,0,1-9-2c-3-1.33-5.26-3.36-6-6.82a8.21,8.21,0,0,1,0-4.09c.4-1.47.43-3,.79-4.52a1.64,1.64,0,0,0-.05-2,2.2,2.2,0,0,0-2-.27c-3.64.75-7.25,1.62-10.88,2.41a35.9,35.9,0,0,1-5.64,1.14,1.08,1.08,0,0,1-.72-1.49c7.89-1.8,15.81-3.47,23.87-5.1-.68,1.42-1.28,2.73-1.93,4-1.67,3.25-2.54,6.65-1.38,10.21a8.14,8.14,0,0,0,4.47,4.6c4.07,2,8.47,2.35,12.9,2.57l.76.06c-.44,1.32-1.34,2.36-1.82,3.62-.19.51-.39,1-.54,1.56a12.15,12.15,0,0,0-.57,3.1,13.42,13.42,0,0,0,1.2,6.08c.43.92.82,1.85,1.31,2.75a28.55,28.55,0,0,0,4.85,6.13,51.46,51.46,0,0,0,4.71,4.14,88.5,88.5,0,0,0,7.25,5.11c2.91,1.87,5.91,3.59,9,5.22a.47.47,0,0,1,.31.42c-2.25-.59-4.47-1.22-6.71-1.74-6.78-1.55-13.6-2.58-20.58-1.61a22.41,22.41,0,0,0-9.94,3.7,13.37,13.37,0,0,0-3.92,3.83c-.33.54-.55.73-1.12.11a58.16,58.16,0,0,0-7.13-6.82c-5-3.85-10.33-6.57-16.86-6a20.71,20.71,0,0,0-8.93,3.07,42.18,42.18,0,0,0-8.42,7.17c-.6,0-.44-.49-.45-.79-.06-1.19,0-2.39,0-3.55C123.9,75.69,124,76,123.7,76.23Z"/><path class="cls-2" d="M143.67,23.64a2,2,0,0,0,.65,1.35,6.44,6.44,0,0,1,.77,3.94,11.46,11.46,0,0,1-.93,4.86,15.73,15.73,0,0,1-5.88,6.73,20.77,20.77,0,0,1-4.69,2.1,1.69,1.69,0,0,1-1.06.15,34.3,34.3,0,0,1-5.44.6,20.16,20.16,0,0,1-12-3.89,31.08,31.08,0,0,1-2.35-2.11c-.6,0-.24.4-.24.65a15,15,0,0,1-.16,4.18,13.89,13.89,0,0,1-3.43,6.65A13.26,13.26,0,0,0,108,50c-.71.55-1.4,1.14-2.15,1.64s-1.79,1.08-2.68,1.61a23.55,23.55,0,0,1-16.82,1.12,18.53,18.53,0,0,1-6.08-3.06,1.79,1.79,0,0,0-.45-.19,12.64,12.64,0,0,1-3.14-2.92,13.54,13.54,0,0,1-2.44-12.49,20.27,20.27,0,0,1,1.06-2.46,1.31,1.31,0,0,1,.72-.65c.34-.73,1.07-1.19,1.37-1.95a21,21,0,0,1,12.88-6.44,6.56,6.56,0,0,1,.89,0c1.4,0,2.8,0,4.2,0l.58,0,0,0,0,0c-.87-.78-2-1-3-1.58a14,14,0,0,1-5.11-5.15,7.6,7.6,0,0,1-1-3.44c0-1.06,0-2.13,0-3.19a8.53,8.53,0,0,1,2.67-5.66C93.59.79,98.82-.57,104.65.21a15.46,15.46,0,0,1,9.71,5,10.51,10.51,0,0,1,2.79,6.38,1.71,1.71,0,0,1,0,1.6,8.68,8.68,0,0,1-1.52,4.55c.93.06,1.42-.56,2-.85a20.7,20.7,0,0,1,19.67.36A15.47,15.47,0,0,1,143.67,23.64Z"/><path class="cls-3" d="M123.7,76.23l.09-2c.5.2.33.55.33.8,0,1.45.07,2.9.08,4.35a.37.37,0,0,0,.21.4c-.19.16-.28.5-.6.38s-.14-.4-.14-.6C123.67,78.45,123.69,77.34,123.7,76.23Z"/><path class="cls-4" d="M95.35,24.19a9.6,9.6,0,0,1-4.2,0A12.87,12.87,0,0,1,95.35,24.19Z"/><path class="cls-5" d="M86.77,10.8a5.68,5.68,0,0,1,0,3.19A7.16,7.16,0,0,1,86.77,10.8Z"/><path class="cls-6" d="M100.56,78.66c-.09-.46.15-1-.3-1.39a.31.31,0,0,1,.06-.51c.35-.15.16.36.41.4A3.48,3.48,0,0,1,100.56,78.66Z"/><path class="cls-7" d="M.6,79.78c.18.23.45.16.68.2l-1,.23c-.21.06-.28,0-.25-.23C.2,79.89.36,79.73.6,79.78Z"/><path class="cls-8" d="M101.57,69.43c0-.55-.2-1.14.16-1.66A4.24,4.24,0,0,1,101.57,69.43Z"/><path class="cls-9" d="M102.76,57.66c0-.56-.2-1.16.17-1.69A4.21,4.21,0,0,1,102.76,57.66Z"/><path class="cls-10" d="M76,32.62A13.3,13.3,0,0,0,77,48.2c0,.5-.45.63-.78.82-6.43,3.71-13,7.1-19.76,10.24C51.22,61.69,46,64,40.66,66.28q-7.29,3.14-14.7,6a1.36,1.36,0,0,1-.77.11,30.45,30.45,0,0,1-5.73,1.94c-.07,0-.13,0-.2,0-.33,0-.84.23-1-.21s.37-.57.69-.76c2.87-1.74,5.82-3.38,8.59-5.26a31.66,31.66,0,0,0,7.6-6.77c1.56-2.05,2.81-4.21,2.61-7a10.41,10.41,0,0,0-1.53-4.14s-.12-.08-.14-.14c-.32-.68-.82-1.45-.54-2.15s1.19-.38,1.82-.38a37.89,37.89,0,0,0,10.19-.81c3.19-.85,5.92-2.32,7.54-5.44,1.2-2.32,1.21-4.74,1.11-7.23-.08-2.12-.59-4.19-.69-6.31a1.65,1.65,0,0,1,0-1.61c.61-.88,1.4-.43,2.06-.19,2.32.88,4.61,1.86,6.92,2.78,3.51,1.38,7.08,2.6,10.69,3.73A5.06,5.06,0,0,0,76,32.62Z"/><path class="cls-11" d="M25.19,72.37c4.73-1.93,9.48-3.79,14.18-5.8s9.52-4.15,14.25-6.3S62.73,56,67.2,53.69C70.51,52,73.84,50.25,77,48.2c.76,1.16,2,1.89,2.83,2.94-2.25,1-4.36,2.19-6.57,3.24-3.38,1.61-6.75,3.25-10.17,4.77S56,62.23,52.36,63.61Q46.62,65.8,40.78,67.8c-3,1-6.11,2-9.17,2.94-1.95.63-3.92,1.21-5.89,1.8A.45.45,0,0,1,25.19,72.37Z"/><path class="cls-12" d="M55.56,26.18v1.61A.92.92,0,0,1,55.56,26.18Z"/><path class="cls-10" d="M138.11,40.39a23.18,23.18,0,0,0,3.52-3.11,12.5,12.5,0,0,0,2.82-11.61c-.06-.22-.09-.45-.13-.68l13.42-3c1.1-.24,2.18-.56,3.29-.71.71-.1,1.6-.49,2.08.51a2.33,2.33,0,0,1,0,2,34.46,34.46,0,0,1-.91,5.42,3.36,3.36,0,0,0,.15,2.61,1.88,1.88,0,0,1,.16.66,7.73,7.73,0,0,0,4,5.63A22.41,22.41,0,0,0,177.29,41c1.92.09,2.26.5,1.82,2.39a15.29,15.29,0,0,0-.61,3.21c-.36.33,0,.88-.39,1.21,0,.26,0,.53,0,.79a16.41,16.41,0,0,0,1,6.49,20.61,20.61,0,0,0,3.85,6.6,36.86,36.86,0,0,0,6.4,5.83c2,1.51,4.18,2.75,6.29,4.1a16.93,16.93,0,0,1,1.72,1.47c.17.15.45.26.27.54s-.41.14-.64.09a17.6,17.6,0,0,1-4.08-1.52,20.43,20.43,0,0,1-3.83-1.61c-6.11-3-12.18-6.13-18.17-9.39-3.83-2.08-7.64-4.2-11.4-6.39-4.37-2.56-8.68-5.2-12.91-8-2.7-1.76-5.39-3.54-7.91-5.56C138.4,41,138,40.85,138.11,40.39Z"/><path class="cls-11" d="M138.11,40.39a20.8,20.8,0,0,0,3.84,3c2.57,1.79,5.2,3.5,7.84,5.19,2.4,1.54,4.83,3,7.27,4.48,3.06,1.83,6.1,3.7,9.24,5.37,4.06,2.16,8,4.44,12.17,6.48,3.74,1.84,7.42,3.79,11.13,5.69,1.09.55,2.19,1.08,3.29,1.61-.46.3-.81-.07-1.18-.21-3.78-1.4-7.58-2.71-11.31-4.24-3.51-1.44-7.05-2.8-10.48-4.43-2.66-1.26-5.4-2.32-8-3.59q-4.35-2.07-8.58-4.36c-3.85-2.09-7.68-4.23-11.45-6.45-2.57-1.52-5-3.23-7.54-4.86a8.49,8.49,0,0,1-1.77-1.26A35.59,35.59,0,0,0,138.11,40.39Z"/><path class="cls-13" d="M163.12,23.79v-2A1.38,1.38,0,0,1,163.12,23.79Z"/><path class="cls-14" d="M144.63,69.32h-2.27v-.1h2.35Z"/><path class="cls-15" d="M178.11,47.78c.12-.41-.32-1,.39-1.21C178.38,47,178.82,47.56,178.11,47.78Z"/><path class="cls-16" d="M112.51,38a1.84,1.84,0,0,1-.17-1.09c.3.07.34.26.41.44C112.49,37.52,112.57,37.79,112.51,38Z"/><path class="cls-17" d="M93.05,53c-3.81-.3-7.6-.76-10.85-3A12.62,12.62,0,0,1,77,43.38a8.8,8.8,0,0,1-.37-4.64A12.61,12.61,0,0,1,80,32.11a28.57,28.57,0,0,1,2.63-2.53c3-2.18,6.26-3.73,10.09-3.37a8,8,0,0,1,3.88,1.65A16.17,16.17,0,0,1,101,32.78a21.15,21.15,0,0,1,2.48,6.6,12.77,12.77,0,0,1,.28,5.35,10.66,10.66,0,0,1-2.21,5.08,8.36,8.36,0,0,1-4.9,2.74A13.65,13.65,0,0,1,93.05,53Z"/><path class="cls-17" d="M136.53,34.18c-.43,4.23-4.33,6.65-7.93,6.8a20.69,20.69,0,0,1-7.47-.79c-3.16-1-5.93-2.64-7.73-5.62-1.26-2.11-2.12-4.28-1.44-6.73a11.24,11.24,0,0,1,2.27-4.75,26.91,26.91,0,0,1,2.38-2.62,15.43,15.43,0,0,1,7.12-3.69c4.25-.81,7.13,1.19,9.54,4.41A21.92,21.92,0,0,1,135.91,26a22.26,22.26,0,0,1,.53,2.21,12.18,12.18,0,0,1,.49,4.37C136.49,33,137,33.72,136.53,34.18Z"/><path class="cls-17" d="M110.33,15.14c-.27,3.87-1.88,6.43-5.69,7.54A13.79,13.79,0,0,1,98,22.56a12.94,12.94,0,0,1-7.34-4.13,7.62,7.62,0,0,1-2.06-4.82,10.27,10.27,0,0,1,3.36-7.79,16.59,16.59,0,0,1,5.52-3.57,7.42,7.42,0,0,1,8.63,2.15,16.06,16.06,0,0,1,3.67,6.77A12.93,12.93,0,0,1,110.33,15.14Z"/><path class="cls-10" d="M109.39,31.14a18.57,18.57,0,0,0-8.1-5.67l-.74-.29c.28-.72.9-.26,1.35-.39.61.1,1.23-.19,1.84,0a19.15,19.15,0,0,0,7.61-2.33,9.71,9.71,0,0,0-1.22,3.3c-.31.28-.06.77-.4,1l0,0,0,.06c-.21.55,0,1.14-.17,1.69l0,2C109.59,30.78,109.83,31.06,109.39,31.14Z"/><path class="cls-18" d="M103.74,24.78,102,25c-.66-.29-1.39.24-2-.2A8.23,8.23,0,0,1,103.74,24.78Z"/><path class="cls-19" d="M136.53,34.18c.16-.52-.4-1.23.4-1.6C136.76,33.11,137.32,33.81,136.53,34.18Z"/><path class="cls-20" d="M109.73,26.79c0-.39-.11-.84.4-1C110.06,26.12,110.39,26.64,109.73,26.79Z"/><path class="cls-20" d="M109.55,28.58a3.59,3.59,0,0,1,.17-1.69C109.68,27.45,109.92,28.05,109.55,28.58Z"/><path class="cls-21" d="M85.55,45.38c.46,1.79.24,2.54-.92,3A2.82,2.82,0,0,1,82,48a7,7,0,0,1-2.51-2.87,9.31,9.31,0,0,1-.31-8A14.91,14.91,0,0,1,88,28.67a1.39,1.39,0,0,1,1.33-.09.81.81,0,0,1,0,1,12.91,12.91,0,0,1-1.67,3.13,31.73,31.73,0,0,0-1.55,3.49,15.12,15.12,0,0,0-1,8.54C85.35,44.94,85.35,45.22,85.55,45.38Z"/><path class="cls-22" d="M89.36,29.6v-1C90,28.91,90,29.25,89.36,29.6Z"/><path class="cls-23" d="M85.55,45.38c-.4,0-.41-.32-.38-.62C85.56,44.81,85.56,45.09,85.55,45.38Z"/><path class="cls-21" d="M113.56,29.7a12.4,12.4,0,0,1,1.94-5.32,13.2,13.2,0,0,1,6.64-5.4c.06,0,.11-.08.18-.08.43-.06.92-.48,1.28-.06s.08.89-.14,1.31c-.87,1.66-1.81,3.27-2.54,5a14.69,14.69,0,0,0-.84,8.94c.19.91.57,1.85-.36,2.58s-1.81.54-3-.26a5.3,5.3,0,0,1-1.94-2.2A9.46,9.46,0,0,1,113.56,29.7Z"/><path class="cls-24" d="M94.7,19.51a3.84,3.84,0,0,1-3.32-1.93,7.52,7.52,0,0,1-.46-7.7A12.2,12.2,0,0,1,96.77,4a3.71,3.71,0,0,1,.46-.19c.53-.13,1.2-.57,1.57-.12s-.12,1.22-.44,1.71C96,9,94.65,12.8,95.7,17.17,96,18.61,95.49,19.49,94.7,19.51Z"/></g></g></g></svg>