<svg xmlns="http://www.w3.org/2000/svg" viewBox="0 0 78.69 48.54"><defs><style>.cls-1{fill:red;stroke:#231f20;stroke-width:1.49px;}</style></defs><title>nextpage</title><g id="Layer_2" data-name="Layer 2"><g id="Layer_1-2" data-name="Layer 1"><path id="nextpage" class="cls-1" d="M48.07,5.12h0A4.37,4.37,0,0,1,43.7,9.49H5.11A4.37,4.37,0,0,0,.75,13.86v20.5a4.36,4.36,0,0,0,4.36,4.37H42.9a4.37,4.37,0,0,1,4.37,4.37v.32a4.37,4.37,0,0,0,7.23,3.3l21.94-19a4.37,4.37,0,0,0,.08-6.53L55.38,1.89A4.37,4.37,0,0,0,48.07,5.12Z"/></g></g></svg>