<svg xmlns="http://www.w3.org/2000/svg" viewBox="0 0 62.88 68.6"><defs><style>.cls-1{fill:#fff;}.cls-2{fill:#c1272d;}</style></defs><title>open</title><g id="Layer_2" data-name="Layer 2"><g id="Layer_1-2" data-name="Layer 1"><g id="open"><polygon class="cls-1" points="33.47 25.92 24.04 36.94 33.54 25.99 33.47 25.92"/><rect class="cls-2" x="31.01" y="11.44" width="34.4" height="9" transform="translate(4.58 41.92) rotate(-49.07)"/><rect class="cls-2" x="-0.78" y="48.27" width="34.1" height="9" transform="translate(-34.26 30.49) rotate(-49.07)"/><rect class="cls-1" x="24.94" y="29.91" width="14.5" height="9" transform="translate(-14.9 36.19) rotate(-49.07)"/><path class="cls-1" d="M21,3.56c-6.5,5.88.92,20,.92,20S12,20.71,9.3,21.12A11.53,11.53,0,0,0,.15,30C-.93,35.67,4,37.59,6.05,39.08s17.17.33,17.17.33S37.05,26.12,37.23,22s-.66-9.31-1-14.11S27.49-2.29,21,3.56ZM5.78,29.31c1.92-6.8,17.93,1.52,17.93,1.52C18,35.17,3.86,36.25,5.78,29.31ZM29.7,24.77S19.37,10.13,25.52,6.85,33.32,18.92,29.7,24.77Z"/></g></g></g></svg>