<?xml version="1.0" encoding="utf-8"?>
<!-- Generator: Adobe Illustrator 22.0.1, SVG Export Plug-In . SVG Version: 6.00 Build 0)  -->
<svg version="1.1" id="page2_1_" xmlns="http://www.w3.org/2000/svg" xmlns:xlink="http://www.w3.org/1999/xlink" x="0px" y="0px"
	 viewBox="0 0 1280 1024" style="enable-background:new 0 0 1280 1024;" xml:space="preserve">
<style type="text/css">
	.st0{fill:url(#SVGID_1_);}
	.st1{fill:#00002A;}
	.st2{fill:#762900;}
	.st3{fill:#A6592F;}
	.st4{fill:#C1754B;}
	.st5{fill:#E0EBEF;}
	.st6{fill:#332D44;}
	.st7{fill:#6F6062;}
	.st8{fill:#5A5768;}
	.st9{fill:#8B8084;}
	.st10{fill:#FFFF00;}
	.st11{fill:#FFFFFF;}
	.st12{opacity:0.74;}
</style>
<g id="page2">
	
		<linearGradient id="SVGID_1_" gradientUnits="userSpaceOnUse" x1="700.0698" y1="1498.3906" x2="718.0714" y2="10.2421" gradientTransform="matrix(1 0 0 -1 0 1436)">
		<stop  offset="0" style="stop-color:#1B1464"/>
		<stop  offset="0.2061" style="stop-color:#1E1565"/>
		<stop  offset="0.3857" style="stop-color:#291669"/>
		<stop  offset="0.5555" style="stop-color:#3B196F"/>
		<stop  offset="0.7192" style="stop-color:#541D79"/>
		<stop  offset="0.8771" style="stop-color:#742284"/>
		<stop  offset="1" style="stop-color:#93278F"/>
	</linearGradient>
	<rect x="-35.2" y="-47.1" class="st0" width="1485.1" height="1173.1"/>
	<g>
		<path class="st1" d="M1431.2,1030c0,0-80.3-85.1-77.5-99c2.9-13.9,48.5-27.4,34.1-34c-14.3-6.6-67.4-63-78-73.9
			s41.3-38.6,31.6-44.2c-9.8-2-67.4-48.8-57.7-58.4c9.8-9.6,24.7-23.1,17.2-27.7c-21.8-10.2-49-79.7-49.2-79.7
			c-2.3-0.1-24.7,68.3-46.1,78.4c-7.5,4.6,7.5,18.1,17.2,27.7c9.8,9.6-47.9,56.4-57.7,58.4c-9.8,5.6,42.2,33.3,31.6,44.2
			s-63.7,67.3-78,73.9c-14.3,6.6,31.3,20.1,34.1,34c2.9,13.9-77.5,99-77.5,99l164.4-2.3v84.3h46.9v-82.9L1431.2,1030z"/>
		<path class="st1" d="M455.2,982c0,0-80.3-85.1-77.5-99c2.9-13.9,48.5-27.4,34.1-34c-14.3-6.6-67.4-63-78-73.9s41.3-38.6,31.6-44.2
			c-9.8-2-67.4-48.8-57.7-58.4c9.8-9.6,24.7-23.1,17.2-27.7c-21.8-10.2-49-79.7-49.2-79.7c-2.3-0.1-24.7,68.3-46.1,78.4
			c-7.5,4.6,7.5,18.1,17.2,27.7c9.8,9.6-47.9,56.4-57.7,58.4c-9.8,5.6,42.2,33.3,31.6,44.2c-10.6,10.9-63.7,67.3-78,73.9
			c-14.3,6.6,31.3,20.1,34.1,34c2.9,13.9-77.5,99-77.5,99l164.4-2.3v84.3h46.9v-82.9L455.2,982z"/>
		<path class="st1" d="M1271.2,1052c0,0-80.3-85.1-77.5-99c2.9-13.9,48.5-27.4,34.1-34c-14.3-6.6-67.4-63-78-73.9
			s41.3-38.6,31.6-44.2c-9.8-2-67.4-48.8-57.7-58.4c9.8-9.6,24.7-23.1,17.2-27.7c-21.8-10.2-49-79.7-49.2-79.7
			c-2.3-0.1-24.7,68.3-46.1,78.4c-7.5,4.6,7.5,18.1,17.2,27.7c9.8,9.6-47.9,56.4-57.7,58.4c-9.8,5.6,42.2,33.3,31.6,44.2
			s-63.7,67.3-78,73.9c-14.3,6.6,31.3,20.1,34.1,34c2.9,13.9-77.5,99-77.5,99l164.4-2.3v84.3h46.9v-82.9L1271.2,1052z"/>
		<path class="st1" d="M1180.1,1024.2c0,0-80.3-85.1-77.5-99s48.5-27.4,34.1-34c-14.3-6.6-67.4-63-78-73.9s41.3-38.6,31.6-44.2
			c-9.8-2-67.4-48.8-57.7-58.4c9.8-9.6,24.7-23.1,17.2-27.7c-21.8-10.2-49-79.7-49.2-79.7c-2.3-0.1-24.7,68.3-46.1,78.4
			c-7.5,4.6,7.5,18.1,17.2,27.7c9.8,9.6-47.9,56.4-57.7,58.4c-9.8,5.6,42.2,33.3,31.6,44.2s-63.7,67.3-78,73.9
			c-14.3,6.6,31.3,20.1,34.1,34c2.9,13.9-77.5,99-77.5,99l164.4-2.3v84.3h46.9V1022L1180.1,1024.2z"/>
		<path class="st1" d="M406.3,989.9c0,0-96.4-102.1-92.9-118.8c3.4-16.6,58.2-32.9,41-40.8c-17.2-7.9-80.9-75.6-93.6-88.7
			c-12.7-13.1,49.6-46.3,37.9-53c-11.7-2.4-80.9-58.6-69.2-70.1s29.6-27.7,20.7-33.3c-26.2-12.3-58.8-95.6-59-95.6
			c-2.8-0.1-29.6,82-55.3,94c-9,5.5,9,21.8,20.7,33.3S99.1,684.6,87.4,687c-11.7,6.7,50.6,40,37.9,53s-76.4,80.8-93.6,88.7
			s37.5,24.1,41,40.8c3.4,16.6-92.9,118.8-92.9,118.8l197.3-2.8v101.2H233v-99.4L406.3,989.9z"/>
		<path class="st1" d="M583.2,1010c0,0-80.3-85.1-77.5-99c2.9-13.9,48.5-27.4,34.1-34c-14.3-6.6-67.4-63-78-73.9
			s41.3-38.6,31.6-44.2c-9.8-2-67.4-48.8-57.7-58.4c9.8-9.6,24.7-23.1,17.2-27.7c-21.8-10.2-49-79.7-49.2-79.7
			c-2.3-0.1-24.7,68.3-46.1,78.4c-7.5,4.6,7.5,18.1,17.2,27.7c9.8,9.6-47.9,56.4-57.7,58.4c-9.8,5.6,42.2,33.3,31.6,44.2
			s-63.7,67.3-78,73.9c-14.3,6.6,31.3,20.1,34.1,34c2.9,13.9-77.5,99-77.5,99l164.4-2.3v84.3h46.9v-82.9L583.2,1010z"/>
		<path class="st1" d="M1357.2,1080c0,0-80.3-85.1-77.5-99c2.9-13.9,48.5-27.4,34.1-34c-14.3-6.6-67.4-63-78-73.9
			s41.3-38.6,31.6-44.2c-9.8-2-67.4-48.8-57.7-58.4c9.8-9.6,24.7-23.1,17.2-27.7c-21.8-10.2-49-79.7-49.2-79.7
			c-2.3-0.1-24.7,68.3-46.1,78.4c-7.5,4.6,7.5,18.1,17.2,27.7c9.8,9.6-47.9,56.4-57.7,58.4c-9.8,5.6,42.2,33.3,31.6,44.2
			s-63.7,67.3-78,73.9c-14.3,6.6,31.3,20.1,34.1,34c2.9,13.9-77.5,99-77.5,99l164.4-2.3v84.3h46.9v-82.9L1357.2,1080z"/>
		<path class="st1" d="M161.7,927c2.9-13.9,48.5-27.4,34.1-34c-14.3-6.6-67.4-63-78-73.9s41.3-38.6,31.6-44.2
			c-9.8-2-67.4-48.8-57.7-58.4c9.8-9.6,24.7-23.1,17.2-27.7c-21.8-10.2-49-79.7-49.2-79.7c-2.3-0.1-24.7,68.3-46.1,78.4
			c-7.5,4.6,7.5,18.1,17.2,27.7c9.8,9.6-47.9,56.4-57.7,58.4c-9.8,5.6,42.2,33.3,31.6,44.2c-5.5,5.7-22.6,23.7-39.7,40.7v165.1
			l82.8-1.2v84.3h46.9v-82.9l144.5,2.2C239.2,1026,158.9,940.9,161.7,927z"/>
	</g>
	<g>
		<polygon class="st2" points="1011.8,742.4 872.2,659.2 872.2,588.4 1011.4,589.4 		"/>
		<g>
			<path class="st3" d="M879.7,619l32-0.4c0.1,0,0.1,0,0.2,0L879.7,619c-0.9,0-1.6-1.9-1.6-2.8l-0.5-24.3l36.3-0.5l-37.4,0.5
				l0.5,24.3C877.1,617.7,878.3,619,879.7,619z"/>
			<path class="st4" d="M878.1,616.1c0,1,0.8,2.8,1.6,2.8l32.2-0.4c0.7-0.1,1.3-0.4,1.7-0.9c0.5-0.6,0.8-1.4,0.8-2
				c0-0.1,0-0.1,0-0.2l-0.5-24l-36.3,0.5L878.1,616.1z"/>
		</g>
		<g>
			<path class="st4" d="M920.5,618.5l42.9-0.5c0.6,0,1.1-0.2,1.6-0.5c0.9-0.7,1.3-2,1.3-2.8l-0.5-23.7l-43.3,0.4l-4.5,0.1l0.6,23.3
				C918.7,616.7,919.4,618.2,920.5,618.5z"/>
			<path class="st3" d="M919.9,618.5h0.6c-1.2-0.3-1.8-1.8-1.9-3.8l-0.6-23.3h-1.2l0.5,24.3C917.3,617.3,918.5,618.5,919.9,618.5z"
				/>
		</g>
		<g>
			<path class="st3" d="M971.9,618.2l31.7-0.4l-30.5,0.3c-1.8,0-2.2-3.1-2.2-4.2l-0.5-23.4h-2L969,615
				C969,616.8,970.4,618.2,971.9,618.2z"/>
			<path class="st4" d="M973.2,618.1l30.5-0.3c1.3,0,2.5-0.9,3-2.2c0.2-0.7,0.3-1.5,0.2-2.6l-0.5-22.9l-35.8,0.4l0.5,23.4
				C971,615,971.3,618.1,973.2,618.1z"/>
		</g>
		<g>
			<path class="st3" d="M882,676.3c-0.9,0-2.8-1.2-3.1-3.8l-0.4-20.3c0-0.9,0.7-1.7,1.6-1.7H880c-1.5,0-2.6,1.3-2.6,2.8l0.4,20.3
				c0,1.6,1.3,2.8,2.8,2.8l43.3-0.5c0.2,0,0.4,0,0.6-0.1l0,0L882,676.3z"/>
			<path class="st4" d="M924,649.8L924,649.8L924,649.8C924.1,649.9,924.1,649.9,924,649.8z"/>
			<path class="st4" d="M924.3,649.9L924.3,649.9L924.3,649.9z"/>
			<path class="st4" d="M924.3,649.9L924.3,649.9c-0.1,0-0.1,0-0.2,0c-0.1,0-0.2,0-0.2,0l-43.8,0.5c-0.9,0-1.6,0.8-1.6,1.7l0.4,20.3
				c0.2,2.6,2.1,3.8,3.1,3.8l42.4-0.5l0,0c0.4-0.1,0.7-0.2,1.1-0.4c1.1-0.7,1.8-2.2,1.8-3.3l-0.4-19.2c0-0.6-0.2-1.2-0.5-1.7
				C925.9,650.6,925.2,650,924.3,649.9z"/>
		</g>
		<g>
			<path class="st3" d="M931.2,672.1l-0.4-20.8c0-0.7,0.5-1.2,1.1-1.2h-0.1c-1.2,0-2.2,1-2.1,2.3l0.4,20.8c0,1.3,1,2.3,2.2,2.3h0.8
				C932,675.4,931.2,674.5,931.2,672.1z"/>
			<path class="st4" d="M954.2,651.1c0-0.1-0.1-0.1-0.1-0.2c0-0.1-0.1-0.1-0.1-0.2c-0.4-0.6-1.1-0.9-1.8-0.9l-20.3,0.2
				c-0.6,0-1.2,0.6-1.1,1.2l0.4,20.8c0.1,2.4,0.8,3.3,2,3.3l19.6-0.2c0.1,0,0.3,0,0.4,0c0.1,0,0.1,0,0.2-0.1c0.1,0,0.1,0,0.2-0.1
				c0.9-0.4,1.3-1.2,1.4-1.9c0-0.1,0-0.2,0-0.3l-0.4-20.8c0-0.3-0.1-0.6-0.2-0.8C954.2,651.2,954.2,651.1,954.2,651.1z"/>
		</g>
		<g>
			<path class="st3" d="M958.2,671.2l-0.4-19.1c0-1.1,0.7-2,1.7-2.3c-1.5,0.3-2.6,1.7-2.5,3.4l0.4,19.1c0,1.9,1.5,3.4,3.3,3.4h0.4
				C959.9,675.4,958.4,674,958.2,671.2z"/>
			<path class="st4" d="M1003,649.2l-42.9,0.5c-0.1,0-0.2,0-0.3,0s-0.1,0-0.2,0c-0.1,0-0.1,0-0.2,0c-1,0.3-1.7,1.2-1.7,2.3l0.4,19.1
				c0.2,2.9,1.6,4.2,2.8,4.4l21.7-0.3l21.3-0.3c0.1,0,0.2,0,0.3,0c0.7-0.2,1.3-0.5,1.7-1.1c0.5-0.6,0.8-1.4,0.8-2.1
				c0-0.1,0-0.2,0-0.3l-0.4-19.1c0-0.1,0-0.2,0-0.3C1006.3,651,1005.3,649.2,1003,649.2z"/>
		</g>
		<g>
			<path class="st3" d="M880.2,735.6c-0.9,0-2.8-1.2-3.1-3.8l-0.4-20.3c0-0.9,0.7-1.7,1.6-1.7h-0.1c-1.5,0-2.6,1.3-2.6,2.8l0.4,20.3
				c0,1.6,1.3,2.8,2.8,2.8l43.3-0.5c0.2,0,0.4,0,0.6-0.1l0,0L880.2,735.6z"/>
			<path class="st4" d="M922.3,709.2L922.3,709.2L922.3,709.2L922.3,709.2z"/>
			<path class="st4" d="M922.5,709.2L922.5,709.2L922.5,709.2z"/>
			<path class="st4" d="M922.6,709.2C922.5,709.2,922.5,709.2,922.6,709.2c-0.1,0-0.1,0-0.2,0c-0.1,0-0.2,0-0.2,0l-43.8,0.5
				c-0.9,0-1.6,0.8-1.6,1.7l0.4,20.3c0.2,2.6,2.1,3.8,3.1,3.8l42.4-0.5l0,0c0.4-0.1,0.7-0.2,1.1-0.4c1.1-0.7,1.8-2.2,1.8-3.3
				l-0.4-19.2c0-0.6-0.2-1.2-0.5-1.7C924.1,709.9,923.4,709.4,922.6,709.2z"/>
		</g>
		<g>
			<path class="st3" d="M929.4,731.4l-0.4-20.8c0-0.7,0.5-1.2,1.1-1.2H930c-1.2,0-2.2,1-2.1,2.3l0.4,20.8c0,1.3,1,2.3,2.2,2.3h0.8
				C930.2,734.7,929.5,733.8,929.4,731.4z"/>
			<path class="st4" d="M952.4,710.4c0-0.1-0.1-0.1-0.1-0.2c0-0.1-0.1-0.1-0.1-0.2c-0.4-0.6-1.1-0.9-1.8-0.9l-20.3,0.2
				c-0.6,0-1.2,0.6-1.1,1.2l0.4,20.8c0.1,2.4,0.8,3.3,2,3.3l19.6-0.2c0.1,0,0.3,0,0.4,0c0.1,0,0.1,0,0.2-0.1c0.1,0,0.1,0,0.2-0.1
				c0.9-0.4,1.3-1.2,1.4-1.9c0-0.1,0-0.2,0-0.3l-0.4-20.8c0-0.3-0.1-0.6-0.2-0.8C952.4,710.5,952.4,710.4,952.4,710.4z"/>
		</g>
		<g>
			<path class="st3" d="M956.5,730.5l-0.4-19.1c0-1.1,0.7-2,1.7-2.3c-1.5,0.3-2.6,1.7-2.5,3.4l0.4,19.1c0,1.9,1.5,3.4,3.3,3.4h0.4
				C958.1,734.7,956.6,733.4,956.5,730.5z"/>
			<path class="st4" d="M1001.2,708.5l-42.9,0.5c-0.1,0-0.2,0-0.3,0s-0.1,0-0.2,0c-0.1,0-0.1,0-0.2,0c-1,0.3-1.7,1.2-1.7,2.3
				l0.4,19.1c0.2,2.9,1.6,4.2,2.8,4.4l21.7-0.3l21.3-0.3c0.1,0,0.2,0,0.3,0c0.7-0.2,1.3-0.5,1.7-1.1c0.5-0.6,0.8-1.4,0.8-2.1
				c0-0.1,0-0.2,0-0.3l-0.4-19.1c0-0.1,0-0.2,0-0.3C1004.5,710.3,1003.5,708.5,1001.2,708.5z"/>
		</g>
		<g>
			<path class="st3" d="M880.8,646.8c-0.9,0-2.8-1.2-3-3.8l-0.4-20.6c0-1,0.7-1.7,1.6-1.8h-0.1c-1.4,0-2.6,1.3-2.5,2.8l0.4,20.6
				c0,1.6,1.2,2.8,2.7,2.8l42.7-0.5c0.2,0,0.4,0,0.5-0.1l0,0L880.8,646.8z"/>
			<path class="st4" d="M922.3,620.1L922.3,620.1L922.3,620.1L922.3,620.1z"/>
			<path class="st4" d="M922.5,620.1L922.5,620.1L922.5,620.1z"/>
			<path class="st4" d="M922.5,620.1L922.5,620.1c-0.1,0-0.1,0-0.2,0c-0.1,0-0.2,0-0.2,0l-43.2,0.5c-0.9,0-1.6,0.8-1.6,1.8l0.4,20.6
				c0.2,2.6,2.1,3.9,3,3.8l41.8-0.5l0,0c0.4-0.1,0.7-0.2,1-0.4c1.1-0.7,1.8-2.2,1.8-3.3l-0.4-19.5c0-0.6-0.2-1.2-0.5-1.7
				C924.1,620.8,923.4,620.3,922.5,620.1z"/>
		</g>
		<g>
			<path class="st3" d="M984,642l-0.5-21.1c0-0.7,0.5-1.2,1.1-1.3h-0.1c-1.2,0-2.1,1.1-2.1,2.3l0.5,21.1c0,1.3,1,2.3,2.2,2.3h0.8
				C984.8,645.4,984,644.4,984,642z"/>
			<path class="st4" d="M1006.6,620.8c0-0.1-0.1-0.1-0.1-0.2c0-0.1-0.1-0.1-0.1-0.2c-0.4-0.6-1-0.9-1.7-0.9l-20,0.2
				c-0.6,0-1.1,0.6-1.1,1.3l0.4,21c0.1,2.4,0.8,3.3,1.9,3.4l19.3-0.2c0.1,0,0.3,0,0.4,0c0.1,0,0.1,0,0.2-0.1c0.1,0,0.1,0,0.2-0.1
				c0.8-0.4,1.2-1.3,1.3-1.9c0-0.1,0-0.2,0-0.3l-0.5-21.1c0-0.3-0.1-0.6-0.2-0.8C1006.7,620.8,1006.7,620.8,1006.6,620.8z"/>
		</g>
		<g>
			<path class="st3" d="M931.2,641.4l-0.4-19.4c0-1.1,0.7-2.1,1.7-2.3c-1.5,0.3-2.5,1.7-2.5,3.4l0.4,19.4c0,1.9,1.5,3.4,3.3,3.4h0.4
				C932.8,645.7,931.3,644.3,931.2,641.4z"/>
			<path class="st4" d="M975.3,619.1l-42.3,0.5c-0.1,0-0.2,0-0.2,0c-0.1,0-0.1,0-0.2,0c-0.1,0-0.1,0-0.2,0c-1,0.3-1.7,1.2-1.7,2.3
				l0.4,19.4c0.2,2.9,1.6,4.2,2.8,4.5l21.4-0.3l21-0.3c0.1,0,0.2,0,0.3,0c0.7-0.2,1.2-0.5,1.7-1.1s0.7-1.4,0.8-2.1
				c0-0.1,0-0.2,0-0.3l-0.4-19.4c0-0.1,0-0.2,0-0.3C978.5,620.9,977.5,619.1,975.3,619.1z"/>
		</g>
		<g>
			<path class="st3" d="M878.6,707.2c-0.9,0-2.8-1.2-3-3.8l-0.4-20.6c0-1,0.7-1.7,1.6-1.8h-0.1c-1.4,0-2.6,1.3-2.5,2.8l0.4,20.6
				c0,1.6,1.2,2.8,2.7,2.8l42.7-0.5c0.2,0,0.4,0,0.5-0.1l0,0L878.6,707.2z"/>
			<path class="st4" d="M920,680.4L920,680.4L920,680.4C920.1,680.4,920.1,680.4,920,680.4z"/>
			<path class="st4" d="M920.3,680.5L920.3,680.5L920.3,680.5z"/>
			<path class="st4" d="M920.3,680.5L920.3,680.5c-0.1,0-0.1,0-0.2,0c-0.1,0-0.2,0-0.2,0l-43.2,0.5c-0.9,0-1.6,0.8-1.6,1.8l0.4,20.6
				c0.2,2.6,2.1,3.9,3,3.8l41.8-0.5l0,0c0.4-0.1,0.7-0.2,1-0.4c1.1-0.7,1.8-2.2,1.8-3.3l-0.4-19.5c0-0.6-0.2-1.2-0.5-1.7
				C921.9,681.2,921.2,680.6,920.3,680.5z"/>
		</g>
		<g>
			<path class="st3" d="M981.8,702.4l-0.5-21.1c0-0.7,0.5-1.2,1.1-1.3h-0.1c-1.2,0-2.1,1.1-2.1,2.3l0.5,21.1c0,1.3,1,2.3,2.2,2.3
				h0.8C982.6,705.7,981.8,704.8,981.8,702.4z"/>
			<path class="st4" d="M1004.4,681.1c0-0.1-0.1-0.1-0.1-0.2c0-0.1-0.1-0.1-0.1-0.2c-0.4-0.6-1-0.9-1.7-0.9l-20,0.2
				c-0.6,0-1.1,0.6-1.1,1.3l0.5,21.1c0.1,2.4,0.8,3.3,1.9,3.4l19.3-0.2c0.1,0,0.3,0,0.4,0c0.1,0,0.1,0,0.2-0.1c0.1,0,0.1,0,0.2-0.1
				c0.8-0.4,1.2-1.3,1.3-1.9c0-0.1,0-0.2,0-0.3l-0.5-21.1c0-0.3-0.1-0.6-0.2-0.8C1004.5,681.2,1004.4,681.1,1004.4,681.1z"/>
		</g>
		<g>
			<path class="st3" d="M928.9,701.7l-0.4-19.4c0-1.1,0.7-2.1,1.7-2.3c-1.5,0.3-2.5,1.7-2.5,3.4l0.4,19.4c0,1.9,1.5,3.4,3.3,3.4h0.4
				C930.6,706,929.1,704.6,928.9,701.7z"/>
			<path class="st4" d="M973.1,679.4l-42.3,0.5c-0.1,0-0.2,0-0.2,0c-0.1,0-0.1,0-0.2,0c-0.1,0-0.1,0-0.2,0c-1,0.3-1.7,1.2-1.7,2.3
				l0.4,19.4c0.2,2.9,1.6,4.2,2.8,4.5l21.4-0.3l21-0.3c0.1,0,0.2,0,0.3,0c0.7-0.2,1.2-0.5,1.7-1.1s0.7-1.4,0.8-2.1
				c0-0.1,0-0.2,0-0.3l-0.4-19.4c0-0.1,0-0.2,0-0.3C976.3,681.3,975.3,679.5,973.1,679.4z"/>
		</g>
		<g>
			<path class="st5" d="M856.5,586.6c0,0,1.1-15.8,21.6-16s12.8,1.7,36.4-2.9s26.2,4,47.9,1.9c21.6-2.1,30.3-13.1,55.1,1.2
				c24.8,14.2,12.8,39.5,8.7,42c-4.1,2.5-16.6,4.5-22-13.7c-4.3-4.9-17-1-22,10.8s-13.7,10.4-23.7-2.8c-9.1-9.2-16.2-2.3-28.8-7.1
				c-6.1-0.2-9.1,3.8-11.7,11.9c-2.6,8.1-8.1-4.2-8.1-4.2s-8.1-10.9-21.6-5s-13.2,17.1-16,18.9c-2.8,1.8-13.7,1.9-16.2-14.4
				C856,589.8,856.5,586.6,856.5,586.6z"/>
			<path class="st5" d="M868.8,620.9c-2.2,0-10.1,4.2-12.9-13.4c-0.7-25.3-0.8-34.3,22.1-35.9c5.9-0.4,9.6,0,12.2,0.1
				c1.6,0,2.8,0.1,4.1,0.1c3.8,0,7.2-0.6,20.3-3.1c4.4-0.9,8.4-1.3,12-1.4c5.6-0.1,9.6,0.8,13.9,1.7c4.5,1,9.2,2,15.8,1.9
				c1.9,0,3.9-0.1,6-0.3c6.4-0.6,11.8-2.1,16.6-3.3c5.1-1.3,9.9-2.6,15.1-2.7c7-0.1,14.1,2.6,22.8,7.1c7.4,3.8,15.8,11.7,16,23.4
				c0.2,8.9-2.7,20.7-12.1,20.8c-15.8,0.2-14.1-17.8-20.1-17.7c-5.9,0.1-15.9,2.2-19.6,11c-2.1,4.8-4.7,7.3-7.9,7.3
				c-3.9,0-8.7-3.6-13.9-10.4V606l-0.1-0.1c-5.2-5.2-9.6-5.6-15.4-5.5h-1.2c-3.9,0-7.9-0.1-12.6-1.9l-0.2-0.1h-0.2
				c-0.2,0-0.5,0-0.7,0c-6.6,0.1-9.6,5.1-12.1,12.7c-0.4,1.2-0.9,1.9-1.3,1.9c-1.2,0-3.4-3.2-4.7-6.3l-0.1-0.1l-0.1-0.1
				c-0.2-0.3-5.5-7.3-14.8-7.2c-2.6,0-5.4,0.7-8.1,1.9c-9.8,4.3-12.7,11.4-14.4,15.7c-0.6,1.6-1.2,2.9-1.7,3.3
				C871.1,620.5,870.1,620.8,868.8,620.9z"/>
		</g>
	</g>
	<g id="roof">
		<rect x="131.1" y="986" class="st6" width="1089.3" height="21.5"/>
		<rect x="130.1" y="1002" class="st7" width="1089.3" height="33.2"/>
		<polygon class="st8" points="680,511.7 971.9,749.3 1263.8,986.9 680,986.9 96.2,986.9 388.1,749.3 		"/>
		<polygon class="st9" points="134.9,974.9 680.1,537.3 1225.3,974.9 		"/>
		<g id="lights">
			<ellipse class="st10" cx="236.6" cy="970.8" rx="14.1" ry="13.2"/>
			<ellipse class="st10" cx="273.1" cy="970.8" rx="14.1" ry="13.2"/>
			<ellipse class="st10" cx="419.2" cy="970.8" rx="14.1" ry="13.2"/>
			<ellipse class="st10" cx="820.9" cy="970.8" rx="14.1" ry="13.2"/>
			<ellipse class="st10" cx="528.8" cy="970.8" rx="14.1" ry="13.2"/>
			<ellipse class="st10" cx="565.3" cy="970.8" rx="14.1" ry="13.2"/>
			<ellipse class="st10" cx="638.3" cy="970.8" rx="14.1" ry="13.2"/>
			<ellipse class="st10" cx="711.3" cy="970.8" rx="14.1" ry="13.2"/>
			<ellipse class="st10" cx="747.9" cy="970.8" rx="14.1" ry="13.2"/>
			<ellipse class="st10" cx="784.4" cy="970.8" rx="14.1" ry="13.2"/>
			<ellipse class="st10" cx="893.9" cy="970.8" rx="14.1" ry="13.2"/>
			<ellipse class="st10" cx="930.5" cy="970.8" rx="14.1" ry="13.2"/>
			<ellipse class="st10" cx="857.4" cy="970.8" rx="14.1" ry="13.2"/>
			<ellipse class="st10" cx="674.8" cy="970.8" rx="14.1" ry="13.2"/>
			<ellipse class="st10" cx="1113.1" cy="970.8" rx="14.1" ry="13.2"/>
			<ellipse class="st10" cx="967" cy="970.8" rx="14.1" ry="13.2"/>
			<ellipse class="st10" cx="1040" cy="970.8" rx="14.1" ry="13.2"/>
			<ellipse class="st10" cx="1076.5" cy="970.8" rx="14.1" ry="13.2"/>
			<ellipse class="st10" cx="1186.1" cy="970.8" rx="14.1" ry="13.2"/>
			<ellipse class="st10" cx="1222.6" cy="970.8" rx="14.1" ry="13.2"/>
			<ellipse class="st10" cx="1149.6" cy="970.8" rx="14.1" ry="13.2"/>
			<ellipse class="st10" cx="1003.5" cy="970.8" rx="14.1" ry="13.2"/>
			<ellipse class="st10" cx="492.2" cy="970.8" rx="14.1" ry="13.2"/>
			<ellipse class="st10" cx="601.8" cy="970.8" rx="14.1" ry="13.2"/>
			<ellipse class="st10" cx="382.7" cy="970.8" rx="14.1" ry="13.2"/>
			<ellipse class="st10" cx="309.6" cy="970.8" rx="14.1" ry="13.2"/>
			<ellipse class="st10" cx="164.3" cy="969.7" rx="14.1" ry="13.2"/>
			<ellipse class="st10" cx="200.8" cy="969.7" rx="14.1" ry="13.2"/>
			<ellipse class="st10" cx="346.2" cy="970.8" rx="14.1" ry="13.2"/>
			<ellipse class="st10" cx="455.7" cy="970.8" rx="14.1" ry="13.2"/>
			
				<ellipse transform="matrix(0.7786 -0.6275 0.6275 0.7786 -506.4032 346.8096)" class="st10" cx="238.3" cy="891.1" rx="14.1" ry="13.2"/>
			
				<ellipse transform="matrix(0.7786 -0.6275 0.6275 0.7786 -485.7296 359.6356)" class="st10" cx="266.8" cy="868.2" rx="14.1" ry="13.2"/>
			
				<ellipse transform="matrix(0.7786 -0.6275 0.6275 0.7786 -403.0887 410.6939)" class="st10" cx="380.5" cy="776.6" rx="14.1" ry="13.2"/>
			
				<ellipse transform="matrix(0.7786 -0.6275 0.6275 0.7786 -341.0218 448.9902)" class="st10" cx="465.8" cy="707.8" rx="14.1" ry="13.2"/>
			
				<ellipse transform="matrix(0.7786 -0.6275 0.6275 0.7786 -320.3661 461.7343)" class="st10" cx="494.2" cy="684.9" rx="14.1" ry="13.2"/>
			
				<ellipse transform="matrix(0.7786 -0.6275 0.6275 0.7786 -279.0367 487.3043)" class="st10" cx="551.1" cy="639.1" rx="14.1" ry="13.2"/>
			
				<ellipse transform="matrix(0.7786 -0.6275 0.6275 0.7786 -237.6254 512.8565)" class="st10" cx="608" cy="593.2" rx="14.1" ry="13.2"/>
			
				<ellipse transform="matrix(0.7786 -0.6275 0.6275 0.7786 -216.9698 525.6007)" class="st10" cx="636.4" cy="570.3" rx="14.1" ry="13.2"/>
			
				<ellipse transform="matrix(0.7786 -0.6275 0.6275 0.7786 -196.3141 538.3447)" class="st10" cx="664.8" cy="547.4" rx="14.1" ry="13.2"/>
			
				<ellipse transform="matrix(0.7786 -0.6275 0.6275 0.7786 -258.2991 500.0305)" class="st10" cx="579.5" cy="616.1" rx="14.1" ry="13.2"/>
			
				<ellipse transform="matrix(0.7786 -0.6275 0.6275 0.7786 -361.6775 436.2461)" class="st10" cx="437.4" cy="730.7" rx="14.1" ry="13.2"/>
			
				<ellipse transform="matrix(0.7786 -0.6275 0.6275 0.7786 -299.6961 474.5626)" class="st10" cx="522.7" cy="662" rx="14.1" ry="13.2"/>
			
				<ellipse transform="matrix(0.7786 -0.6275 0.6275 0.7786 -423.7445 397.9498)" class="st10" cx="352.1" cy="799.5" rx="14.1" ry="13.2"/>
			
				<ellipse transform="matrix(0.7786 -0.6275 0.6275 0.7786 -465.0738 372.3797)" class="st10" cx="295.2" cy="845.3" rx="14.1" ry="13.2"/>
			
				<ellipse transform="matrix(0.7786 -0.6275 0.6275 0.7786 -546.9446 320.8973)" class="st10" cx="181.3" cy="935.6" rx="14.1" ry="13.2"/>
			
				<ellipse transform="matrix(0.7786 -0.6275 0.6275 0.7786 -526.2889 333.6414)" class="st10" cx="209.7" cy="912.7" rx="14.1" ry="13.2"/>
			
				<ellipse transform="matrix(0.7786 -0.6275 0.6275 0.7786 -444.4182 385.1238)" class="st10" cx="323.6" cy="822.4" rx="14.1" ry="13.2"/>
			
				<ellipse transform="matrix(0.7786 -0.6275 0.6275 0.7786 -382.3511 423.4201)" class="st10" cx="408.9" cy="753.6" rx="14.1" ry="13.2"/>
			
				<ellipse transform="matrix(0.624 -0.7815 0.7815 0.624 -182.6657 815.5617)" class="st10" cx="756.1" cy="597.6" rx="13.2" ry="14.1"/>
			
				<ellipse transform="matrix(0.624 -0.7815 0.7815 0.624 -189.7457 846.4508)" class="st10" cx="784.6" cy="620.4" rx="13.2" ry="14.1"/>
			
				<ellipse transform="matrix(0.624 -0.7815 0.7815 0.624 -218.0476 969.993)" class="st10" cx="898.9" cy="711.6" rx="13.2" ry="14.1"/>
			
				<ellipse transform="matrix(0.624 -0.7815 0.7815 0.624 -239.2888 1062.5441)" class="st10" cx="984.4" cy="779.9" rx="13.2" ry="14.1"/>
			
				<ellipse transform="matrix(0.624 -0.7814 0.7814 0.624 -246.3703 1093.3208)" class="st10" cx="1013" cy="802.7" rx="13.2" ry="14.1"/>
			
				<ellipse transform="matrix(0.624 -0.7815 0.7815 0.624 -260.4358 1155.1967)" class="st10" cx="1070.1" cy="848.2" rx="13.2" ry="14.1"/>
			
				<ellipse transform="matrix(0.624 -0.7815 0.7815 0.624 -274.6219 1216.9059)" class="st10" cx="1127.1" cy="893.8" rx="13.2" ry="14.1"/>
			
				<ellipse transform="matrix(0.624 -0.7815 0.7815 0.624 -281.7017 1247.7948)" class="st10" cx="1155.7" cy="916.6" rx="13.2" ry="14.1"/>
			
				<ellipse transform="matrix(0.624 -0.7815 0.7815 0.624 -288.7139 1278.7166)" class="st10" cx="1184.3" cy="939.4" rx="13.2" ry="14.1"/>
			
				<ellipse transform="matrix(0.624 -0.7815 0.7815 0.624 -267.5573 1186.1462)" class="st10" cx="1098.7" cy="871.1" rx="13.2" ry="14.1"/>
			
				<ellipse transform="matrix(0.624 -0.7815 0.7815 0.624 -232.0715 1031.6498)" class="st10" cx="955.9" cy="757" rx="13.2" ry="14.1"/>
			
				<ellipse transform="matrix(0.624 -0.7815 0.7815 0.624 -253.3808 1124.3549)" class="st10" cx="1041.6" cy="825.5" rx="13.2" ry="14.1"/>
			
				<ellipse transform="matrix(0.624 -0.7815 0.7815 0.624 -210.9343 939.1639)" class="st10" cx="870.4" cy="688.8" rx="13.2" ry="14.1"/>
			
				<ellipse transform="matrix(0.624 -0.7815 0.7815 0.624 -196.8423 877.3533)" class="st10" cx="813.2" cy="643.2" rx="13.2" ry="14.1"/>
			
				<ellipse transform="matrix(0.624 -0.7815 0.7815 0.624 -167.7157 754.5909)" class="st10" cx="700.2" cy="551.6" rx="13.2" ry="14.1"/>
			
				<ellipse transform="matrix(0.624 -0.7815 0.7815 0.624 -174.779 785.5533)" class="st10" cx="728.9" cy="574.4" rx="13.2" ry="14.1"/>
			
				<ellipse transform="matrix(0.624 -0.7815 0.7815 0.624 -203.8128 908.2145)" class="st10" cx="841.8" cy="665.9" rx="13.2" ry="14.1"/>
			
				<ellipse transform="matrix(0.624 -0.7815 0.7815 0.624 -225.0788 1000.8126)" class="st10" cx="927.4" cy="734.3" rx="13.2" ry="14.1"/>
		</g>
		<path class="st11" d="M1294.6,989.9L1294.6,989.9c-5.7,7.1-16,8.3-23.2,2.7l-207.3-164.7l2.2,58c0.3,5.7-11.1,6.9-11.3,0.3
			l-2.4-67.4l-151-120.1l1.1,22.6c0.3,9.4-13.9,8.3-14.3,0.4l-1.8-34.4l-10.5-8.8l1.2,44.5c0.5,12.2-25,13.5-26.2-0.7l-2.6-65.5
			L657.9,505.4l20.5-25.8l613.5,487.2C1299.1,972.4,1300.2,982.8,1294.6,989.9z"/>
		<path class="st11" d="M65.8,990.6L65.8,990.6c5.7,7.1,16.1,8.2,23.2,2.5l423.4-339.5l-1.5,30c0.1,1.3,2,1.4,2.2,0l3.9-34.1
			l44.3-35.4l1,19.8c0.1,0.4,0.6,0.3,0.6-0.1l-0.3-20.9l1.5-1.2l0.6,28.9c0.4,1,2,0.7,1.9-0.4l-0.5-30.4l4-3.3l0.9,40.3
			c0.1,6,13.1,5.9,12.9-1.1l-1.6-48.8l115.5-92.7l-20.7-25.7L68,967.5C61.2,973.1,60.1,983.4,65.8,990.6z"/>
	</g>
	<g id="Cloud">
		<path class="st5" d="M395.3,236.1H212.8c-10.6,0-19.2-8.6-19.2-19.2l0,0c0-10.6,8.6-19.2,19.2-19.2h182.5
			c10.6,0,19.2,8.6,19.2,19.2l0,0C414.5,227.5,405.9,236.1,395.3,236.1z"/>
		<circle class="st5" cx="362.6" cy="174.7" r="47.2"/>
		<circle class="st5" cx="300" cy="181.7" r="28.2"/>
	</g>
	<g id="Cloud_2_">
		<path class="st5" d="M1285.3,590.1h-182.5c-10.6,0-19.2-8.6-19.2-19.2l0,0c0-10.6,8.6-19.2,19.2-19.2h182.5
			c10.6,0,19.2,8.6,19.2,19.2l0,0C1304.5,581.5,1295.9,590.1,1285.3,590.1z"/>
		<circle class="st5" cx="1150.6" cy="536.7" r="47.2"/>
		<circle class="st5" cx="1210" cy="551.7" r="28.2"/>
	</g>
	<g>
		<path class="st5" d="M283,572.9H100.6c-10.6,0-19.2-8.6-19.2-19.2l0,0c0-10.6,8.6-19.2,19.2-19.2H283c10.6,0,19.2,8.6,19.2,19.2
			l0,0C302.3,564.3,293.7,572.9,283,572.9z"/>
		<circle class="st5" cx="194.7" cy="564.9" r="28.2"/>
		<circle class="st5" cx="202.7" cy="530.9" r="28.2"/>
		<ellipse class="st5" cx="156.7" cy="524.3" rx="41.1" ry="43.3"/>
	</g>
</g>
<g class="st12">
	<polygon class="st11" points="1021,88 1018.8,71.7 1002.5,69.4 1018.9,66.8 1021.6,50.4 1023.8,66.8 1040.1,69.1 1023.7,71.6 	"/>
</g>
<g class="st12">
	<polygon class="st11" points="83.2,103.3 81,87 64.7,84.7 81.1,82.1 83.8,65.8 86,82.1 102.3,84.4 85.9,87 	"/>
</g>
<g class="st12">
	<polygon class="st11" points="438.2,216.2 436,199.9 419.7,197.6 436.1,195 438.8,178.7 441,195 457.3,197.3 440.9,199.9 	"/>
</g>
<g class="st12">
	<polygon class="st11" points="513.1,558.2 510.9,541.9 494.6,539.6 511,537 513.7,520.6 515.9,537 532.2,539.3 515.8,541.8 	"/>
</g>
<g class="st12">
	<polygon class="st11" points="1180.9,132.9 1180.3,128.3 1175.8,127.7 1180.3,127 1181.1,122.5 1181.7,127 1186.2,127.6 
		1181.7,128.3 	"/>
</g>
<g class="st12">
	<polygon class="st11" points="1015.2,284.2 1013,267.9 996.7,265.6 1013.1,263 1015.8,246.7 1018,263 1034.3,265.3 1017.9,267.9 	
		"/>
</g>
<g class="st12">
	<polygon class="st11" points="1225.2,275.3 1223,259 1206.7,256.7 1223.1,254.1 1225.8,237.8 1228,254.1 1244.3,256.4 1227.9,259 	
		"/>
</g>
<g class="st12">
	<polygon class="st11" points="20.1,421.2 17.9,404.9 1.6,402.6 18,400 20.7,383.6 22.9,400 39.2,402.3 22.8,404.8 	"/>
</g>
<g class="st12">
	<polygon class="st11" points="255.5,349.5 254.4,341.3 246.3,340.1 254.5,338.9 255.8,330.7 256.9,338.8 265.1,340 256.9,341.3 	
		"/>
</g>
<g class="st12">
	<polygon class="st11" points="1044,466 1042.2,454.5 1030.7,452.6 1042.2,451.1 1043.8,439.7 1045.6,451.2 1057.1,453 
		1045.6,454.6 	"/>
</g>
<g class="st12">
	<polygon class="st11" points="625.9,132.5 625.2,128 620.7,127.4 625.3,126.7 626,122.1 626.6,126.6 631.1,127.3 626.6,128 	"/>
</g>
<g class="st12">
	<polygon class="st11" points="833.1,98.9 832.5,94.3 828,93.7 832.5,93 833.2,88.5 833.8,93 838.4,93.6 833.8,94.3 	"/>
</g>
<g class="st12">
	<polygon class="st11" points="816.3,231.3 815.7,226.8 811.1,226.1 815.7,225.4 816.4,220.9 817,225.4 821.5,226 817,226.8 	"/>
</g>
<g class="st12">
	<polygon class="st11" points="244.6,85.2 244,80.7 239.5,80 244,79.3 244.8,74.8 245.4,79.3 249.9,79.9 245.3,80.7 	"/>
</g>
<g class="st12">
	<polygon class="st11" points="793.9,406.2 793.3,401.7 788.8,401 793.3,400.3 794.1,395.8 794.7,400.3 799.2,401 794.7,401.7 	"/>
</g>
<g class="st12">
	<polygon class="st11" points="525.6,378.9 525,374.3 520.5,373.7 525,373 525.7,368.5 526.3,373 530.9,373.6 526.3,374.3 	"/>
</g>
<g class="st12">
	<polygon class="st11" points="808.6,529.2 808,524.7 803.5,524 808,523.3 808.7,518.8 809.3,523.3 813.9,524 809.3,524.7 	"/>
</g>
<g class="st12">
	<polygon class="st11" points="422.6,500.2 422,495.7 417.5,495 422,494.3 422.7,489.8 423.3,494.3 427.9,495 423.3,495.7 	"/>
</g>
<g class="st12">
	<polygon class="st11" points="248.3,446.5 247.6,442 243.1,441.4 247.7,440.7 248.4,436.1 249,440.7 253.5,441.3 249,442 	"/>
</g>
</svg>
