<svg xmlns="http://www.w3.org/2000/svg" xmlns:xlink="http://www.w3.org/1999/xlink" viewBox="0 0 1450.5 1094.7"><defs><style>.cls-1{fill:#9ebfc8;}.cls-2{fill:#86aeb5;}.cls-3{fill:url(#linear-gradient);}.cls-4{fill:url(#linear-gradient-2);}.cls-5{fill:red;}.cls-6{fill:#58483c;}.cls-7{fill:#ffdecc;}.cls-8{fill:#fff;}.cls-9{fill:#635140;}.cls-10{fill:#debaad;}.cls-11{fill:#ffcfc4;}.cls-12{fill:#ffe5d3;}.cls-13,.cls-16{fill:none;stroke-miterlimit:10;}.cls-13{stroke:#daa9a2;stroke-width:4.49px;}.cls-14{fill:#ffcd3b;}.cls-15{fill:#f0fcff;}.cls-16{stroke:#00aa2c;stroke-linecap:round;stroke-width:42px;}</style><linearGradient id="linear-gradient" x1="824.08" y1="568.54" x2="898.43" y2="497.73" gradientUnits="userSpaceOnUse"><stop offset="0.94" stop-color="red"/><stop offset="0.95" stop-color="#ff0303"/><stop offset="0.96" stop-color="#ff0b0b"/><stop offset="0.97" stop-color="#ff1a1a"/><stop offset="0.97" stop-color="#ff2f2f"/><stop offset="0.98" stop-color="#ff4a4a"/><stop offset="0.99" stop-color="#ff6c6c"/><stop offset="0.99" stop-color="#ff9494"/><stop offset="0.99" stop-color="#ffc2c2"/><stop offset="1" stop-color="#fff4f4"/><stop offset="1" stop-color="#fff"/></linearGradient><linearGradient id="linear-gradient-2" x1="628.73" y1="568.88" x2="561.47" y2="493.82" xlink:href="#linear-gradient"/></defs><title>page4</title><g id="Layer_2" data-name="Layer 2"><g id="Layer_3" data-name="Layer 3"><g id="page4"><rect class="cls-1" width="1450.5" height="1094.7"/><rect class="cls-2" x="44.19" y="1.11" width="103.57" height="1093.59"/><rect class="cls-2" x="356.8" y="1.11" width="103.57" height="1093.59"/><rect class="cls-2" x="513.19" y="1.11" width="103.57" height="1093.59"/><rect class="cls-2" x="669.41" y="1.11" width="103.57" height="1093.59"/><rect class="cls-2" x="825.8" y="1.11" width="103.57" height="1093.59"/><rect class="cls-2" x="982.19" y="1.11" width="103.57" height="1093.59"/><rect class="cls-2" x="1138.41" y="1.11" width="103.57" height="1093.59"/><rect class="cls-2" x="1294.8" y="1.11" width="103.57" height="1093.59"/><rect class="cls-2" x="200.58" y="1.11" width="103.57" height="1093.59"/><path class="cls-3" d="M842.8,496.68l41.91-31.16s25.63,19.55,32.43,28.89c-8.64,21.38-57.35,97.15-69.67,105.64-13-19.12-16.43-45.74-22-50.69C833.59,539.3,857.81,525.57,842.8,496.68Z"/><path class="cls-4" d="M574.17,464.67,608.72,492l23.79,49.85L609.57,602s-62.31-86.94-68-108.47C558.73,479.4,574.17,464.67,574.17,464.67Z"/><path class="cls-5" d="M825.66,549.64a101.19,101.19,0,0,1-23.79,10.62c4.53,6.37,3.12,17.28,0,18.41,12.46,1.7,22.66,23.36,4.53,33.7,2.13,12.75-3.11,27.19-16.28,26.62.28,15.58-5.67,23.37-27.62,18.13-3.11,22.66-17,19.82-25.2,17.7-9.21,12.46-22.66,18.69-35.4,2.12-9.21,9.63-27.62.71-27.62-14.86-17.27,2.54-24.78-13.46-22.94-20.54-14.44.71-16.28-22.37-12-25.2-20.54.7-13.88-29.74-5.67-32.57-13.45-2.84-4-25.49,3.54-26.91a27.57,27.57,0,0,1-10-3c-4.53,9.63-21.81,46.44-22.52,60.32-1,16-2.55,88.93-2.55,88.93s74,1.39,253.94,1.39C854.5,696,864,598.07,825.66,549.64Z"/><path class="cls-6" d="M574.17,464.67s-6.66-7.08-6.66-16.14-12.18-13.45-14.73-.85c-10.48-12-21.52-5.52-17,2.83-7.79-6.23-15.44,3-9.06,9.77-9.63.57-16.15,10.2-2.55,15.58,5.1,1.13,16.42,11.05,17.42,17.84C556,481.81,574.17,464.67,574.17,464.67Z"/><path class="cls-6" d="M884.71,465.67s6.66-7.08,6.66-16.15,12.18-13.45,14.72-.85c10.48-12,21.53-5.52,17,2.83,7.79-6.23,15.43,3,9.06,9.78,9.63.56,16.14,10.19,2.55,15.57-5.1,1.14-16.71,9.92-17.42,17.85C903.69,482.66,884.71,465.67,884.71,465.67Z"/><g id="Face"><path class="cls-7" d="M639.16,455s-10.33,52.12,3.12,66.28,55.93,49.56,79.3,47.44,60.18-11.33,72.93-24.08,27.61-53.81,26.2-62.3-8.78-24.08-8.78-24.08S740.13,385.8,639.16,455Z"/><path class="cls-8" d="M822.83,471.11c1.33-11.16-6.2-12.77-9.46-13a5,5,0,0,1-2.82-1.08c-85.5-67.15-160.9-10.67-170.38-3a4.67,4.67,0,0,1-2,1c-5.7,1.15-13.18,8.07-10.84,14.63a5.07,5.07,0,0,1-2.65,6.17c-28.61,14.07-21.31,66.42,5.06,77.9a5,5,0,0,1,2.11,7.44c-3.77,5.76-6,14.64-1.93,19.11a5,5,0,0,1,.58,6.13c-5,7.7-6.84,24.49,4.12,28.2a5.16,5.16,0,0,1,3.63,5.42c-.73,6.59,1.92,17.62,10,20a5.15,5.15,0,0,1,3.77,4.25,19.66,19.66,0,0,0,18.87,17,5,5,0,0,1,4.67,3.93c2.54,11.34,15.17,17.67,23.86,13.17a5.21,5.21,0,0,1,6.21,1c11,11.36,22.18,6.7,30.53-3.08a5.17,5.17,0,0,1,5-1.74c7.5,1.57,17.41,1.62,21.25-13.7a5.09,5.09,0,0,1,5.83-3.69c16,2.72,21.83-3.25,22.62-14.75a5.12,5.12,0,0,1,4-4.69c9.26-2,13.46-12.8,12.69-23.31a5.15,5.15,0,0,1,2-4.57c12.61-9.14,7.14-24.92-2.06-30.37a5.21,5.21,0,0,1-2.46-5.75,20.46,20.46,0,0,0-.35-10.1,5.07,5.07,0,0,1,3.24-6.14c63-22.72,39.48-71.35,17.83-81.28A5,5,0,0,1,822.83,471.11Zm-24.17,52.41L776.5,523a5.16,5.16,0,0,1-4.76-3.64c-2.94-9.13-17.12-16.94-24.07-12.37a5.39,5.39,0,0,0-2,2.8c-2.92,8.26-29.59,9.25-34.41.77a5,5,0,0,0-4.89-2.32c-19.89,2.09-21.74,8.59-25.77,13.79a5.22,5.22,0,0,1-2.16,1.64c-29.68,11.67-44.37-14.92-41.56-28.67a5,5,0,0,1,3.49-3.7c21.6-6.62,14-13.21,3-13.64a5.06,5.06,0,0,1-4.87-5.36c.45-6.55,2.82-10.56,5.41-13a5.08,5.08,0,0,1,8.43,2.7c1.08,5.49,3.68,11.26,9.87,3.13,7.76-10.21,25.53-17.9,32.86-20.75a5.09,5.09,0,0,0,3.25-4.75h0a5.1,5.1,0,0,1,5.22-5.1l46.73,1.16a5.1,5.1,0,0,1,5,5.1v2.08a5.1,5.1,0,0,0,3.75,4.92c6.74,1.83,21,6.5,29.11,14.93,7.15,7.44,11.62,9.69,13.65,5.75,2.18-4.22,8.32-3.78,9.44.84.29,1.22.57,2.54.82,4a5.16,5.16,0,0,1-2.65,5.42c-7.89,4.24-7.21,8,.88,8.19a5.12,5.12,0,0,1,5.08,4.81c.38,9.23-8.57,23.84-12.31,29.53A5.11,5.11,0,0,1,798.66,523.52Z"/><path class="cls-9" d="M681.65,487.05h12.74C694.11,464.25,682.78,462.13,681.65,487.05Z"/><path class="cls-9" d="M756.7,486.91h12.74C769.16,464,757.83,461.84,756.7,486.91Z"/><ellipse class="cls-10" cx="728.09" cy="502.63" rx="23.08" ry="18.13"/><ellipse class="cls-11" cx="762.5" cy="508.15" rx="19.68" ry="17.28"/><ellipse class="cls-11" cx="688.87" cy="507.86" rx="19.68" ry="17.28"/><ellipse class="cls-12" cx="727.53" cy="500.93" rx="23.08" ry="18.13"/><path class="cls-13" d="M704.3,537.6l3.26,6.8c7.93,16.71,25.77,17.56,34.69,1.56l4.54-8.36"/></g><path class="cls-8" d="M638.1,455s80.22-66.83,172.76,3.26c4.25-35.4-9.91-42.91-9.91-42.91s-64.15-40.07-144.44-6.08C630,424.74,638.1,455,638.1,455Z"/><rect x="601.97" y="696.2" width="254.04" height="8.33"/><polygon class="cls-14" points="703.58 689.12 703.58 704.7 709.65 704.7 709.65 694.08 740.72 694.08 740.72 704.7 747.05 704.7 747.05 689.12 703.58 689.12"/><path class="cls-15" d="M654.74,301.4a13.88,13.88,0,1,1-13.88,13.88,13.9,13.9,0,0,1,13.88-13.88"/><path class="cls-5" d="M656.86,409.87S729.51,375.46,801.3,416c-9.91-41.07-55.22-52.82-74.06-51.4s-99.55,17.42-99.12-5.24,26.48-35.83,26.48-35.83L646.1,314s-38.66,18.84-35.4,53.81S657.29,391.46,656.86,409.87Z"/><line class="cls-16" x1="486.5" y1="698.7" x2="956.5" y2="698.7"/></g></g></g></svg>