<?xml version="1.0" encoding="utf-8"?>
<!-- Generator: Adobe Illustrator 22.0.1, SVG Export Plug-In . SVG Version: 6.00 Build 0)  -->
<svg version="1.1" id="Layer_1" xmlns="http://www.w3.org/2000/svg" xmlns:xlink="http://www.w3.org/1999/xlink" x="0px" y="0px"
	 viewBox="0 0 1607 612" style="enable-background:new 0 0 1607 612;" xml:space="preserve">
<style type="text/css">
	.st0{fill:#9EBFC8;}
	.st1{fill:#86AEB5;}
	.st2{fill:#FDD866;}
	.st3{fill:#FF0000;stroke:#C1272D;stroke-width:11.1659;stroke-linecap:round;stroke-miterlimit:10;}
	.st4{fill:#58483C;}
	.st5{fill:#72BC67;}
	.st6{fill:#039F68;}
	.st7{fill:url(#SVGID_1_);}
	.st8{fill:#22B573;}
	.st9{fill:#0071BC;}
	.st10{fill:#006837;}
	.st11{fill:#E24444;}
	.st12{fill:#DA2E2C;}
	.st13{fill:#452C1A;}
	.st14{fill:#432A18;}
	.st15{fill:#5B3319;}
	.st16{display:none;}
	.st17{display:inline;}
	.st18{fill:#998675;}
	.st19{fill:#F0FCFF;}
	.st20{fill:#C7B299;}
	.st21{fill:#FFDECC;}
	.st22{fill:#FFFFFF;}
	.st23{fill:#635140;}
	.st24{fill:#DEBAAD;}
	.st25{fill:#FFCFC4;}
	.st26{fill:#FFE5D3;}
	.st27{fill:none;stroke:#DAA9A2;stroke-width:3.5204;stroke-miterlimit:10;}
	.st28{fill:none;}
	.st29{fill:none;stroke:#FFFFFF;stroke-width:1.2468;stroke-miterlimit:10;}
	.st30{fill:#F7931E;}
	.st31{display:inline;fill:#432A18;}
	.st32{fill:#EC232B;}
	.st33{fill:none;stroke:#D45F00;stroke-width:2.8387;stroke-linecap:round;stroke-miterlimit:10;}
	.st34{fill:#36B54C;}
	.st35{fill:#D1A14E;}
	.st36{fill:#F0BE5C;}
	.st37{fill:#FFFFFF;stroke:#FEE098;stroke-width:4.23;stroke-miterlimit:10;}
	.st38{fill:#AB0054;}
	.st39{fill:#ED0874;}
	.st40{fill:#FFFFFF;stroke:#B63866;stroke-width:4.23;stroke-miterlimit:10;}
	.st41{fill:#FBB03B;}
	.st42{fill:#2E3192;}
	.st43{fill:#C5342F;}
	.st44{fill:#052460;}
	.st45{fill:#C01823;}
	.st46{fill:#BFC94A;}
	.st47{fill:#590056;}
	.st48{fill:#BAB930;}
	.st49{display:inline;fill:#FFEBCD;}
	.st50{fill:#603713;}
	.st51{fill:#FFEBCD;}
	.st52{fill:#231F20;}
	.st53{fill:none;stroke:#231F20;stroke-width:0.6193;stroke-miterlimit:10;}
	.st54{opacity:0.57;fill:#CCCCCC;}
	.st55{fill:#EF509C;}
	.st56{fill:#E3D3B9;}
	.st57{display:inline;fill:#FFFFFF;stroke:#FFFFFF;stroke-width:0.6766;stroke-miterlimit:10;}
	.st58{display:inline;fill:#EC1C2B;}
	.st59{display:inline;fill:#FFFFFF;}
	.st60{fill:#0D0D1F;}
	.st61{display:inline;fill:#006838;}
	.st62{display:none;fill:#FFEBCD;}
</style>
<g id="Background">
	<g>
		<g>
			<rect x="3" y="-1.2" class="st0" width="817" height="494"/>
			<rect x="27.9" y="-0.7" class="st1" width="58.3" height="493.5"/>
			<rect x="204" y="-0.7" class="st1" width="58.3" height="493.5"/>
			<rect x="292" y="-0.7" class="st1" width="58.3" height="493.5"/>
			<rect x="380" y="-0.7" class="st1" width="58.3" height="493.5"/>
			<rect x="468.1" y="-0.7" class="st1" width="58.3" height="493.5"/>
			<rect x="556.2" y="-0.7" class="st1" width="58.3" height="493.5"/>
			<rect x="644.2" y="-0.7" class="st1" width="58.3" height="493.5"/>
			<rect x="732.3" y="-0.7" class="st1" width="58.3" height="493.5"/>
			<rect x="116" y="-0.7" class="st1" width="58.3" height="493.5"/>
		</g>
		<g>
			<rect x="790.5" y="-1.2" class="st0" width="817" height="494"/>
			<rect x="815.3" y="-0.7" class="st1" width="58.3" height="493.5"/>
			<rect x="991.4" y="-0.7" class="st1" width="58.3" height="493.5"/>
			<rect x="1079.5" y="-0.7" class="st1" width="58.3" height="493.5"/>
			<rect x="1167.5" y="-0.7" class="st1" width="58.3" height="493.5"/>
			<rect x="1255.6" y="-0.7" class="st1" width="58.3" height="493.5"/>
			<rect x="1343.7" y="-0.7" class="st1" width="58.3" height="493.5"/>
			<rect x="1431.7" y="-0.7" class="st1" width="58.3" height="493.5"/>
			<rect x="1519.7" y="-0.7" class="st1" width="58.3" height="493.5"/>
			<rect x="903.4" y="-0.7" class="st1" width="58.3" height="493.5"/>
		</g>
		<rect x="0.6" y="494.3" class="st2" width="1604.9" height="118.3"/>
		<ellipse class="st3" cx="375.4" cy="543.7" rx="182.6" ry="28.6"/>
	</g>
	<g id="Christmas_tree">
		<rect x="493.3" y="425.7" class="st4" width="39.3" height="67.3"/>
		<polygon class="st5" points="520.1,207.7 577.8,276.3 540.1,276.3 601.1,349 549.3,349 625.1,435 408.6,434.3 484.4,347.7 
			437.8,348.3 497.4,275 456,275.7 		"/>
		<polygon class="st6" points="495.6,433.5 553,427 521.9,355 487.8,348.5 538.9,346.5 520.4,282 501.5,276.5 527.2,275 
			520.1,207.7 577.8,276.3 540.1,276.3 601.1,349 549.3,349 625.1,435 		"/>
		
			<linearGradient id="SVGID_1_" gradientUnits="userSpaceOnUse" x1="519.3481" y1="1062.5" x2="586.6481" y2="1062.5" gradientTransform="matrix(1 0 0 1 0 -878)">
			<stop  offset="0" style="stop-color:#FCEE21"/>
			<stop  offset="1.136452e-02" style="stop-color:#FCE921"/>
			<stop  offset="8.222647e-02" style="stop-color:#FACE20"/>
			<stop  offset="0.1637" style="stop-color:#F9B81F"/>
			<stop  offset="0.2589" style="stop-color:#F8A71F"/>
			<stop  offset="0.3766" style="stop-color:#F79C1E"/>
			<stop  offset="0.5417" style="stop-color:#F7951E"/>
			<stop  offset="1" style="stop-color:#F7931E"/>
		</linearGradient>
		<polygon class="st7" points="541.3,216.8 520.3,209.2 499.7,217.6 500.2,194.8 486.1,177.2 507.3,170.7 519.1,151.4 531.8,170.1 
			553.4,175.8 539.9,194 		"/>
	</g>
	<g>
		<rect x="443.3" y="422" class="st8" width="72.6" height="71.5"/>
		<path class="st9" d="M494.2,389.7c-8.5-1.1-14.1,13.8-14.1,13.8s-4.2-9.3-6.2-11.1c-2-1.9-7.5-4-12.3-1.1
			c-4.8,2.8-3.1,7.9-2.9,10.4s10.7,13.2,10.7,13.2s18.6,1.7,21.7-0.8s6.4-6.6,9.7-10C503.9,400.6,502.6,390.8,494.2,389.7z
			 M465.5,395.2c6.2-3,10.3,14.5,10.3,14.5C469,408.2,459.3,398.2,465.5,395.2z M484.1,410.3c0,0,4.2-17.4,10.5-14.9
			C500.8,397.8,490.7,409.1,484.1,410.3z"/>
		<rect x="443.3" y="418" class="st10" width="73.1" height="7.8"/>
		<rect x="439.4" y="414" class="st8" width="80.7" height="9"/>
		<polygon class="st9" points="472.6,412.8 472.6,493 486.7,493 486.7,412.5 		"/>
	</g>
	<g>
		<g>
			<path d="M118.6,560.7l1.2,8.5c0.1,1,1.1,1.7,2,1.6l2.1-0.3c1-0.1,1.7-1.1,1.6-2.1l-1.2-8.5c-0.1-1-1.1-1.7-2-1.6l-2.1,0.3
				C119.2,558.7,118.5,559.7,118.6,560.7z M122.2,560.7l1.1,7.5l-1.4,0.2l-1.1-7.5L122.2,560.7z"/>
			<path d="M112,573.5c2.3-2.6,7.8-3.7,7.8-3.7l-0.4-2.6c0,0-6.3,1.6-7.1,3.1c-0.8-5.6-0.6-4.3-0.8-5.6c-0.2-1.3-2.5-1.5-2.4,0.3
				c0.2,1.7,1.1,6.9,1.1,6.9s-3.1,3.4-6.9,3.9s-7.4,1.3-15-0.7c-3.5,2.5-8.4,4.2-9.4,2.6c-0.8-4.7-2-13.6-2-13.6s1.2-3.2,9.7-0.2
				c6.5-5.2,17.8-6.7,22-3.4c4.3,2.6,10.1,1.7,10.1,1.7l-0.3-2.3c-1.9,0.3-7.3-0.1-9.7-2s-12.5-3-22.4,3.1
				c-11.5-3.1-11.7,2.8-11.7,2.8s1.2,12.1,2,14.7c0.9,2.6,5.3,3.5,12.1-0.6C104.6,580.9,109.7,576.1,112,573.5z"/>
		</g>
	</g>
	<g>
		<g>
			<path d="M730.6,536.9l1.2,8.5c0.1,1,1.1,1.7,2,1.6l2.1-0.3c1-0.1,1.7-1.1,1.6-2.1l-1.2-8.5c-0.1-1-1.1-1.7-2-1.6l-2.1,0.3
				C731.1,535,730.4,535.9,730.6,536.9z M734.1,536.9l1.1,7.5l-1.4,0.2l-1.1-7.5L734.1,536.9z"/>
			<path d="M724,549.7c2.3-2.6,7.8-3.7,7.8-3.7l-0.4-2.6c0,0-6.3,1.6-7.1,3.1c-0.8-5.6-0.6-4.3-0.8-5.6s-2.5-1.5-2.4,0.3
				c0.2,1.7,1.1,6.9,1.1,6.9s-3.1,3.4-6.9,3.9c-3.8,0.5-7.4,1.3-15-0.7c-3.5,2.5-8.4,4.2-9.4,2.6c-0.8-4.7-2-13.6-2-13.6
				s1.2-3.2,9.7-0.2c6.5-5.2,17.8-6.7,22-3.4c4.3,2.6,10.1,1.7,10.1,1.7l-0.3-2.3c-1.9,0.3-7.3-0.1-9.7-2s-12.5-3-22.4,3.1
				c-11.5-3.1-11.7,2.8-11.7,2.8s1.2,12.1,2,14.7c0.9,2.6,5.3,3.5,12.1-0.6C716.5,557.1,721.7,552.3,724,549.7z"/>
		</g>
	</g>
	<g>
		<g>
			<path d="M12.2,512l4.5-7.2c0.6-0.9,0.3-2-0.6-2.6l-1.8-1.2c-0.9-0.6-1.9-0.3-2.5,0.6l-4.5,7.2c-0.6,0.9-0.3,2,0.6,2.6l1.8,1.2
				C10.6,513.1,11.6,512.8,12.2,512z M9.5,509.6l4-6.4l1.2,0.8l-4,6.4L9.5,509.6z"/>
			<path d="M25.3,506.7c-3.4,0.4-8.3-2.5-8.3-2.5l-1.4,2.2c0,0,5.8,3,7.3,2.4c-2.9,4.7-2.2,3.6-2.9,4.7c-0.7,1.1,1,2.8,1.9,1.4
				c1-1.4,3.6-5.9,3.6-5.9s4.6-0.5,7.7,1.7c3.1,2.2,6.4,4,10.9,10.6c4.3,0.4,8.9,2.5,8.8,4.4c-2.4,4.1-7.1,11.6-7.1,11.6
				s-2.9,1.7-7.5-6.4c-8.3-0.4-17.7-6.8-18.8-12.2c-1.6-4.9-6.5-8.1-6.5-8.1l-1.3,2c1.7,1.1,5.4,5,6.1,8c0.6,3,7.6,10.8,19,12.7
				c6.7,10.1,10.6,5.8,10.6,5.8s6.8-9.9,7.8-12.5s-1.8-6.3-9.5-7.6C35.7,506.2,28.7,506.3,25.3,506.7z"/>
		</g>
	</g>
	<g>
		<polygon class="st11" points="159.2,471.3 171.9,471.5 175,480.1 173,495.3 174.2,504.8 173.1,507.4 158.1,507.1 156.6,501.3 
			157.8,494.7 156.1,490.6 155.2,483.2 		"/>
		<path class="st12" d="M161.9,506.4c0,0-2.2-1.7,0.4-10.4c-3.1-7.4-4.6-14.8-2.1-21.8c1.2-3.1,1.1-2.8,1.1-2.8l9.8-0.1l2.8,4.4
			l1.1,8.4l-1.8,9.3l0.2,5.4l0.9,6.1l-1.4,2.2l-10.8,0.2L161.9,506.4z"/>
		<g>
			<path d="M161.4,462.7h8.6c1,0,1.8-0.9,1.8-1.9v-2.3c0-1-0.9-1.9-1.8-1.9h-8.6c-1,0-1.8,0.9-1.8,1.9v2.3
				C159.5,461.8,160.3,462.7,161.4,462.7z M161.9,458.9h7.6v1.4h-7.6V458.9z"/>
			<path d="M173,471.4c-2.2-2.8-2.5-8.7-2.5-8.7h-2.6c0,0,0.7,6.9,2,7.8c-5.6,0-4.3,0-5.6,0c-1.4,0-1.8,2.5-0.1,2.5
				c1.8,0.1,6.9-0.1,6.9-0.1s2.9,3.8,2.8,7.8s0.2,7.9-2.8,15.5c1.9,4,2.9,9.3,1.2,10.2c-4.8,0.1-13.7,0.1-13.7,0.1s-3-1.7,1.3-10.2
				c-4.2-7.5-4.1-19.5-0.2-23.4c3.2-4.1,3.1-10.3,3.1-10.3h-2.3c0,2-1.1,7.6-3.3,9.8c-2.2,2.2-4.8,12.7-0.1,23.8
				c-4.7,11.5,1.1,12.6,1.1,12.6s12.1,0.6,14.8,0s4.3-5.1,1.1-12.7C179.2,480.2,175.3,474.1,173,471.4z"/>
		</g>
	</g>
	<g>
		<polygon class="st11" points="84.6,506.5 97.2,506.7 100.4,515.3 98.4,530.4 99.5,540 98.6,542.5 83.4,542.3 82,536.5 83.1,529.9 
			81.5,525.8 80.6,518.4 		"/>
		<path class="st12" d="M87.3,541.5c0,0-2.2-1.7,0.4-10.4c-3.1-7.4-4.6-14.8-2.1-21.8c1.2-3.1,1.1-2.8,1.1-2.8l9.8-0.1l2.8,4.4
			l1.1,8.4l-1.8,9.3l0.2,5.4l0.9,6.1l-1.4,2.2l-10.8,0.2L87.3,541.5z"/>
		<g>
			<path d="M86.7,497.8h8.6c1,0,1.8-0.9,1.8-1.9v-2.3c0-1-0.9-1.9-1.8-1.9h-8.6c-1,0-1.8,0.9-1.8,1.9v2.3
				C84.8,497,85.7,497.8,86.7,497.8z M87.2,494.1h7.6v1.4h-7.6V494.1z"/>
			<path d="M98.4,506.5c-2.2-2.8-2.5-8.7-2.5-8.7h-2.6c0,0,0.7,6.9,2,7.8c-5.6,0-4.3,0-5.6,0s-1.8,2.5-0.1,2.5
				c1.8,0.1,6.9-0.1,6.9-0.1s2.9,3.8,2.8,7.8c-0.1,4,0.2,7.9-2.8,15.5c1.9,4,2.9,9.3,1.2,10.2c-4.8,0.1-13.7,0.1-13.7,0.1
				s-3-1.7,1.3-10.2c-4.2-7.5-4.1-19.5-0.2-23.4c3.2-4.1,3.1-10.3,3.1-10.3h-2.3c0,2-1.1,7.6-3.3,9.8c-2.2,2.2-4.8,12.7-0.1,23.8
				c-4.7,11.5,1.1,12.6,1.1,12.6s12.1,0.6,14.8,0s4.3-5.1,1.1-12.7C104.6,515.4,100.6,509.3,98.4,506.5z"/>
		</g>
	</g>
	<g>
		<polygon class="st11" points="576.9,561.7 589.6,561.9 592.7,570.5 590.8,585.6 592,595.2 590.9,597.7 575.8,597.5 574.4,591.7 
			575.4,585.1 573.9,581 572.9,573.6 		"/>
		<path class="st12" d="M579.7,596.7c0,0-2.2-1.7,0.4-10.4c-3.1-7.4-4.6-14.8-2.1-21.8c1.2-3.1,1.1-2.8,1.1-2.8l9.8-0.1l2.8,4.4
			l1.1,8.4l-1.8,9.3l0.2,5.4l0.9,6.1l-1.4,2.2l-10.8,0.2L579.7,596.7z"/>
		<g>
			<path d="M579,553h8.6c1,0,1.8-0.9,1.8-1.9v-2.3c0-1-0.9-1.9-1.8-1.9H579c-1,0-1.8,0.9-1.8,1.9v2.3C577.2,552.2,578.1,553,579,553
				z M579.5,549.3h7.6v1.4h-7.6V549.3z"/>
			<path d="M590.7,561.7c-2.2-2.8-2.5-8.7-2.5-8.7h-2.6c0,0,0.7,6.9,2,7.8c-5.6,0-4.3,0-5.6,0c-1.4,0-1.8,2.5-0.1,2.5
				c1.8,0.1,6.9-0.1,6.9-0.1s2.9,3.8,2.8,7.8c-0.1,4,0.2,7.9-2.8,15.5c1.9,4,2.9,9.3,1.2,10.2c-4.8,0.1-13.7,0.1-13.7,0.1
				s-3-1.7,1.3-10.2c-4.2-7.5-4.1-19.5-0.2-23.4c3.2-4.1,3.1-10.3,3.1-10.3h-2.3c0,2-1.1,7.6-3.3,9.8s-4.8,12.7-0.1,23.8
				c-4.7,11.5,1.1,12.6,1.1,12.6s12.1,0.6,14.8,0s4.3-5.1,1.1-12.7C596.9,570.6,592.9,564.5,590.7,561.7z"/>
		</g>
	</g>
	<g>
		<polygon class="st11" points="667.3,468.1 679.9,468.3 683,476.9 681.1,492 682.2,501.6 681.2,504.2 666.1,503.9 664.6,498.1 
			665.8,491.5 664.1,487.4 663.3,480 		"/>
		<path class="st12" d="M670,503.1c0,0-2.2-1.7,0.4-10.4c-3.1-7.4-4.6-14.8-2.1-21.8c1.2-3.1,1.1-2.8,1.1-2.8l9.8-0.1l2.8,4.4
			l1.1,8.4l-1.8,9.3l0.2,5.4l0.9,6.1l-1.4,2.2l-10.8,0.2L670,503.1z"/>
		<g>
			<path d="M669.4,459.5h8.6c1,0,1.8-0.9,1.8-1.9v-2.3c0-1-0.9-1.9-1.8-1.9h-8.6c-1,0-1.8,0.9-1.8,1.9v2.3
				C667.6,458.6,668.3,459.5,669.4,459.5z M669.9,455.7h7.6v1.4h-7.6V455.7z"/>
			<path d="M681.1,468.2c-2.2-2.8-2.5-8.7-2.5-8.7H676c0,0,0.7,6.9,2,7.8c-5.6,0-4.3,0-5.6,0c-1.4,0-1.8,2.5-0.1,2.5
				c1.8,0.1,6.9-0.1,6.9-0.1s2.9,3.8,2.8,7.8c-0.1,4,0.2,7.9-2.8,15.5c1.9,4,2.9,9.3,1.2,10.2c-4.8,0.1-13.7,0.1-13.7,0.1
				s-3-1.7,1.3-10.2c-4.2-7.5-4.1-19.5-0.2-23.4c3.2-4.1,3.1-10.3,3.1-10.3h-2.2c0,2-1.1,7.6-3.3,9.8s-4.8,12.7-0.1,23.8
				c-4.7,11.5,1.1,12.6,1.1,12.6s12.1,0.6,14.8,0s4.3-5.1,1.1-12.7C687.2,477,683.3,470.9,681.1,468.2z"/>
		</g>
	</g>
	<g id="Table">
		<path class="st13" d="M1234.3,378.5H938.6c-6.6,0-12-5.4-12-12v-1.3c0-6.6,5.4-12,12-12h295.6c6.6,0,12,5.4,12,12v1.3
			C1246.3,373.1,1240.9,378.5,1234.3,378.5z"/>
		<path class="st14" d="M1086.3,527.2L1086.3,527.2c-12.6,0-22.8-10.2-22.8-22.8V379.3c0-12.6,10.2-22.8,22.8-22.8l0,0
			c12.6,0,22.8,10.2,22.8,22.8v125.1C1109,517,1098.8,527.2,1086.3,527.2z"/>
		<path class="st15" d="M1252.7,369.9H920.3c-2.9,0-5.3-2.4-5.3-5.3l0,0c0-2.9,2.4-5.3,5.3-5.3h332.4c2.9,0,5.3,2.4,5.3,5.3l0,0
			C1258,367.5,1255.6,369.9,1252.7,369.9z"/>
		<path class="st14" d="M1139.2,499.9h-107.4c-4.8,0-8.6-3.9-8.6-8.6l0,0c0-4.8,3.9-8.6,8.6-8.6h107.4c4.8,0,8.6,3.9,8.6,8.6l0,0
			C1147.8,496.1,1143.9,499.9,1139.2,499.9z"/>
		<path class="st15" d="M1191.3,509.1c0-6.6-7.3-12-16.2-12c-4.2,0-8,1.2-10.9,3.1c-6-2.9-15.6-10.1-18-26.9
			c-0.9-6.7-1.5-11.5-2.9-15c-3-10.4-11.1-17.3-23.9-17.3s-23.2,7.7-23.2,17.2s10.4,17.2,23.2,17.2c6.1,0,11.6-1.7,15.8-4.6
			c0,11.1,1.9,31.3,13.6,42.9c16.8,16.6,34.4,5.7,34.4,5.7l0,0C1188,517.4,1191.3,513.5,1191.3,509.1z"/>
		<path class="st15" d="M982.5,508.7c0-6.6,7.3-12,16.2-12c4.2,0,8,1.2,10.9,3.1c6-2.9,15.6-10.1,18-26.9c0.9-6.7,1.5-11.5,2.9-15
			c3-10.4,11.1-17.3,23.9-17.3s23.2,7.7,23.2,17.2s-10.4,17.2-23.2,17.2c-6.1,0-11.6-1.7-15.8-4.6c0,11.1-1.9,31.3-13.6,42.9
			c-16.8,16.6-34.4,5.7-34.4,5.7l0,0C985.7,517.1,982.5,513.2,982.5,508.7z"/>
		<path class="st14" d="M1157.7,386.2c0,3.5-4.8,6.4-10.7,6.4c-2.8,0-5.3-0.6-7.2-1.7c-3.9,1.5-10.3,5.3-11.9,14.3
			c-0.6,3.6-1,6.1-1.9,8c-2,5.5-7.3,9.2-15.8,9.2c-8.4,0-15.3-4.1-15.3-9.2s6.9-9.1,15.3-9.1c4,0,7.6,0.9,10.4,2.5
			c0-5.9,1.3-16.6,9.1-22.8c11.1-8.8,22.7-3,22.7-3l0,0C1155.6,381.8,1157.7,383.9,1157.7,386.2z"/>
		<path class="st14" d="M1016.7,385.9c0,3.5,4.8,6.4,10.7,6.4c2.8,0,5.3-0.6,7.2-1.7c3.9,1.5,10.3,5.3,11.9,14.3
			c0.6,3.6,1,6.1,1.9,8c2,5.5,7.3,9.2,15.8,9.2c8.4,0,15.3-4.1,15.3-9.2s-6.9-9.1-15.3-9.1c-4,0-7.6,0.9-10.4,2.5
			c0-5.9-1.3-16.6-9.1-22.8c-11.1-8.8-22.7-3-22.7-3l0,0C1018.8,381.5,1016.6,383.6,1016.7,385.9z"/>
	</g>
	<g>
		<g>
			<g>
				<path d="M1041.2,294.6h12.1c1.4,0.1,2.6-1.2,2.6-2.5v-3c0.1-1.4-1.2-2.5-2.6-2.6h-12.1c-1.4-0.1-2.6,1.2-2.6,2.5v3
					C1038.6,293.5,1039.7,294.7,1041.2,294.6z M1041.9,289.7h10.7v1.9h-10.7V289.7z"/>
				<path d="M1057.7,306.3c-3.2-3.8-3.6-11.6-3.6-11.6h-3.7c0,0,1,9.1,2.9,10.5c-8,0-6.1,0-8,0s-2.6,3.2-0.1,3.4
					c2.4,0.1,9.8-0.1,9.8-0.1s4.1,5,4.1,10.4s0.4,10.5-3.9,20.7c2.8,5.4,4.2,12.5,1.8,13.6c-6.7,0.2-19.3,0.2-19.3,0.2
					s-4.2-2.3,1.6-13.6c-6-10.1-5.8-26.1-0.4-31.3c4.5-5.4,4.3-13.7,4.3-13.7h-3.3c0,2.8-1.6,10.1-4.7,13.1s-6.6,16.9-0.1,31.7
					c-6.6,15.4,1.6,16.8,1.6,16.8s17.1,0.7,20.9,0s5.9-6.8,1.5-16.9C1066.5,318.2,1060.9,310.1,1057.7,306.3z"/>
			</g>
		</g>
		<g>
			<g>
				<path d="M1002.1,293.7h12.1c1.4,0.1,2.6-1.2,2.6-2.5v-3c0.1-1.4-1.2-2.5-2.6-2.6h-12.1c-1.4-0.1-2.6,1.2-2.6,2.5v3
					C999.6,292.6,1000.7,293.7,1002.1,293.7z M1002.8,288.8h10.7v1.9h-10.7V288.8z"/>
				<path d="M1018.7,305.4c-3.2-3.8-3.6-11.6-3.6-11.6h-3.7c0,0,1,9.1,2.9,10.5c-8,0-6.1,0-8,0c-1.8,0-2.6,3.2-0.1,3.4
					c2.4,0.1,9.8-0.1,9.8-0.1s4.1,5,4.1,10.4s0.4,10.5-3.9,20.7c2.8,5.4,4.2,12.5,1.8,13.6c-6.7,0.2-19.3,0.2-19.3,0.2
					s-4.2-2.3,1.6-13.6c-6-10.1-5.8-26.1-0.4-31.3c4.5-5.4,4.3-13.7,4.3-13.7h-3.3c0,2.8-1.6,10.1-4.7,13.1s-6.6,16.9-0.1,31.7
					c-6.6,15.4,1.6,16.8,1.6,16.8s17.1,0.7,20.9,0s5.9-6.8,1.5-16.9C1027.5,317.2,1021.8,309.1,1018.7,305.4z"/>
			</g>
		</g>
		<g>
			<g>
				<path d="M1057.2,293.9h12.1c1.4,0.1,2.6-1.2,2.6-2.5v-3c0.1-1.4-1.2-2.5-2.6-2.6h-12.1c-1.4-0.1-2.6,1.2-2.6,2.5v3
					C1054.6,292.9,1055.7,294,1057.2,293.9z M1057.9,289.1h10.7v1.9h-10.7V289.1z"/>
				<path d="M1073.7,305.6c-3.2-3.8-3.6-11.6-3.6-11.6h-3.7c0,0,1,9.1,2.9,10.5c-8,0-6.1,0-8,0s-2.6,3.2-0.1,3.4
					c2.4,0.1,9.8-0.1,9.8-0.1s4.1,5,4.1,10.4s0.4,10.5-3.9,20.7c2.8,5.4,4.2,12.5,1.8,13.6c-6.7,0.2-19.3,0.2-19.3,0.2
					s-4.2-2.3,1.6-13.6c-6-10.1-5.8-26.1-0.4-31.3c4.5-5.4,4.3-13.7,4.3-13.7h-3.3c0,2.8-1.6,10.1-4.7,13.1s-6.6,16.9-0.1,31.7
					c-6.6,15.4,1.6,16.8,1.6,16.8s17.1,0.7,20.9,0s5.9-6.8,1.5-16.9C1082.5,317.5,1076.9,309.4,1073.7,305.6z"/>
			</g>
		</g>
		<g>
			<polygon class="st11" points="1020.3,304.5 1037.9,304.8 1042.3,316.8 1039.6,337.9 1041.2,351.2 1039.7,354.9 1018.7,354.5 
				1016.6,346.4 1018.3,337.2 1016,331.4 1014.7,321.1 			"/>
			<path class="st12" d="M1024.1,353.3c0,0-3.1-2.4,0.5-14.5c-4.3-10.3-6.4-20.6-3-30.4c1.6-4.3,1.5-3.9,1.5-3.9l13.7-0.1l3.9,6.1
				l1.5,11.7l-2.6,13l0.3,7.5l1.2,8.5l-1.9,3.1l-15.1,0.3V353.3z"/>
			<g>
				<path d="M1023.3,292.5h11.9c1.4,0,2.6-1.3,2.6-2.7v-3.2c0-1.4-1.2-2.7-2.6-2.7h-11.9c-1.4,0-2.6,1.3-2.6,2.7v3.2
					C1020.7,291.3,1021.8,292.5,1023.3,292.5z M1024,287.2h10.6v2H1024V287.2z"/>
				<path d="M1039.6,304.6c-3.1-3.9-3.5-12.1-3.5-12.1h-3.7c0,0,0.9,9.6,2.8,10.9c-7.9,0-6,0-7.9,0s-2.6,3.5-0.1,3.5
					c2.4,0.1,9.6-0.1,9.6-0.1s4.1,5.3,3.9,10.9c-0.1,5.6,0.3,11-3.9,21.6c2.7,5.6,4.1,13,1.6,14.2c-6.6,0.1-19.1,0.1-19.1,0.1
					s-4.2-2.4,1.8-14.2c-5.8-10.5-5.7-27.2-0.3-32.6c4.5-5.7,4.3-14.4,4.3-14.4h-3.1c0,2.8-1.5,10.6-4.6,13.7s-6.6,17.7-0.1,33.2
					c-6.5,16,1.5,17.6,1.5,17.6s16.8,0.8,20.6,0c3.8-0.8,6-7.1,1.5-17.7C1048.1,316.9,1042.7,308.4,1039.6,304.6z"/>
			</g>
		</g>
	</g>
	<g id="Clothes" class="st16">
		<g id="BG_2_" class="st17">
			<path class="st18" d="M314,231.9c0,0,59.6-25.7,118.5,4.6c-8.1-30.7-45.3-39.5-60.8-38.4s-81.7,13-81.4-3.9s21.7-26.8,21.7-26.8
				l-7-7.1c0,0-31.7,14.1-29.1,40.2C278.7,226.6,314.3,218.2,314,231.9z"/>
			<path class="st19" d="M312.2,150.8c6.3,0,11.4,4.7,11.4,10.4s-5.1,10.4-11.4,10.4s-11.4-4.7-11.4-10.4
				C300.9,155.5,305.9,150.8,312.2,150.8"/>
			<path class="st20" d="M298.9,266.2c0,0,67.1-52.2,141.8,2.4c3.5-26.5-8.1-32.1-8.1-32.1s-52.6-30-118.5-4.6
				C292.3,243.6,298.9,266.2,298.9,266.2z"/>
			<path class="st21" d="M246.1,272.9c0,0-5.5-5.3-5.5-12.1c0-6.8-10-10.1-12.1-0.6c-8.6-9-17.7-4.1-13.9,2.1
				c-6.4-4.7-12.7,2.2-7.4,7.3c-7.9,0.4-13.2,7.6-2.1,11.6c4.2,0.8,13.5,8.3,14.3,13.3C231.2,285.7,246.1,272.9,246.1,272.9z"/>
			<g id="Face_3_">
				<path class="st21" d="M299.5,265.7c0,0-8.5,39,2.6,49.6c11,10.6,45.9,37.1,65.1,35.5s49.4-8.5,59.9-18s22.7-40.2,21.5-46.6
					s-7.2-18-7.2-18S382.3,213.9,299.5,265.7z"/>
				<path class="st22" d="M449.6,280.5c3.7-13.6-8.4-12.5-8.4-12.5c-75.5-55.1-141.8-2.4-141.8-2.4c-5.7,0.4-14.6,8.3-7.3,14.1
					c-31.4,7.9-22.1,59.1,6.4,61.4c-6,1.1-13.9,18-2.9,20.1c-6.7,2.1-12.2,24.9,4.6,24.4c-3.5,2.1-2.1,19.3,9.9,18.8
					c-1.4,5.3,4.6,17.2,18.8,15.4c0,11.6,15.1,18.2,22.7,11.1c10.5,12.5,21.5,7.6,29.1-1.6c6.7,1.6,18,3.7,20.7-13.2
					c18,4,23-1.9,22.7-13.6c10.7,0.5,15.1-10.4,13.4-19.9c14.9-7.6,6.4-23.8-3.7-25.2c2.6-0.8,3.7-9,0-13.8
					C494,326.4,468.4,284.8,449.6,280.5z M432.6,317l-23.9-0.5c0.2-8.5-16.2-17-21.6-10.7c-0.6,7.6-28.8,8.3-29.1-0.5
					c-20.9,1.3-21.2,7.2-25.3,11.4c-27,10.4-39.3-14-34.3-23.3c23-5.8,11.6-11.9,0.6-10.6c-1.4-15.7,10.7-16.7,10.7-16.7
					s0.6,16.9,8.7,7.2c8.1-9.7,29.6-16.4,29.6-16.4v-6.6l46.7,1.1v8.3c0,0,18,3.4,27,11.9c8.9,8.5,12.8,7.9,12.2-4.2
					c3.5,0.8,6.4,4.4,7.9,15c-10.2,4-9.3,7.9,0.9,7.2C448.7,296.4,432.6,317,432.6,317z"/>
				<path class="st23" d="M334.3,289.6h10.5C344.6,272.6,335.3,271,334.3,289.6z"/>
				<path class="st23" d="M395.9,289.5h10.5C406.1,272.4,396.8,270.8,395.9,289.5z"/>
				<ellipse class="st24" cx="372.4" cy="301.3" rx="18.9" ry="13.6"/>
				<ellipse class="st25" cx="400.7" cy="305.4" rx="16.2" ry="12.9"/>
				<ellipse class="st25" cx="340.3" cy="305.2" rx="16.2" ry="12.9"/>
				<ellipse class="st26" cx="372" cy="300" rx="18.9" ry="13.6"/>
				<path class="st27" d="M352.9,327.4l2.7,5.1c6.5,12.5,21.2,13.1,28.5,1.2l3.7-6.2"/>
			</g>
		</g>
		<g id="green_and_blue_1_" class="st17">
			<path class="st21" d="M467,296.7l25.6-17.6c0,0,21.6,17.9,29.5,23.4c-7.1,16-41.1,65.2-51.2,71.5c-10.8-14.3-13.5-34.2-18-37.9
				C459.4,328.6,479.3,318.3,467,296.7z"/>
			<path class="st21" d="M255.4,280.3l19.4,12.9l19.6,37.2l-18.8,45c0,0-44.2-56.1-48.8-72.2C240.7,292.7,255.4,280.3,255.4,280.3z"
				/>
			<path class="st28" d="M314.3,231.8c0,0,59.7-25.8,118.6,4.6c-8.1-30.7-45.3-39.5-60.9-38.5s-81.8,13.1-81.4-3.9
				c0.4-16.9,21.7-26.8,21.7-26.8l-7-7.1c0,0-31.8,14.1-29.1,40.2S314.7,218,314.3,231.8z"/>
			<ellipse class="st28" cx="312.6" cy="161" rx="11.4" ry="10.4"/>
			<path class="st28" d="M299.2,266c0,0,67.1-52.2,141.9,2.5c3.5-26.5-8.1-32.1-8.1-32.1s-52.7-30-118.6-4.6
				C292.6,243.5,299.2,266,299.2,266z"/>
			<path class="st10" d="M452.9,336.2c-5.2,3-11.6,5.7-19.6,8c3.8,4.8,2.6,13,0,13.8c10.2,1.3,18.6,17.5,3.8,25.1
				c1.7,9.5-2.6,20.4-13.4,19.9c0.3,11.6-4.7,17.5-22.7,13.5c-2.6,16.9-14,14.8-20.6,13.2c-7.6,9.3-18.6,14-29.1,1.6
				c-7.6,7.1-22.7,0.5-22.7-11.1c-14.2,1.9-20.3-10.1-18.9-15.4c-11.9,0.5-13.4-16.7-9.9-18.8c-16.9,0.5-11.3-22.2-4.7-24.4
				c-11-2.1-3.2-19.1,2.9-20.1c-2.9-0.2-5.7-1-8.2-2.2c-3.8,7.2-17.9,34.7-18.5,45.1c-0.8,12-2.1,66.5-2.1,66.5s68.2,31.1,209.3,0.7
				C475.5,445.9,484.4,372.4,452.9,336.2z"/>
			<path class="st22" d="M246.4,272.8l-26.6,21.6c-2.2,1.8-2.4,4.9-0.4,6.9l1,1.1c2,2,5.4,2.2,7.6,0.4l26.6-21.6
				c2.2-1.8,2.4-4.9,0.4-6.9l-1-1.1C252,271.1,248.6,271,246.4,272.8z"/>
			<path class="st21" d="M246.4,272.8c0,0-5.5-5.3-5.5-12.1c0-6.7-10-10.1-12.1-0.7c-8.6-9-17.7-4.1-14,2.1
				c-6.4-4.6-12.6,2.2-7.4,7.3c-7.8,0.4-13.2,7.7-2,11.6c4.2,0.8,15.1,7.6,14.3,13.3C230.8,285.4,246.4,272.8,246.4,272.8z"/>
			<path class="st21" d="M501.4,273.5c0,0,5.5-5.3,5.5-12.1c0-6.7,10-10.1,12.1-0.7c8.6-9,17.7-4.1,14,2.1c6.4-4.6,12.6,2.2,7.4,7.3
				c7.8,0.4,13.2,7.7,2,11.6c-4.2,0.8-15.1,7.6-14.3,13.3C517.1,286.2,501.4,273.5,501.4,273.5z"/>
			<path class="st22" d="M528.6,293.4l-27.2-21c-2.3-1.7-5.7-1.5-7.6,0.6l-1,1.1c-1.9,2.1-1.6,5.2,0.6,6.9l27.2,21
				c2.3,1.7,5.7,1.5,7.6-0.6l1-1.1C531.2,298.3,530.9,295.2,528.6,293.4z"/>
			<path class="st29" d="M483.1,451.1"/>
			<path class="st29" d="M375.5,466.2"/>
			<path class="st30" d="M299.4,471.8l4.1,25.4c0,0,25.6,9,57,3.2c9.3-19.1,9.3-19.1,9.3-19.1L299.4,471.8z"/>
			<path class="st30" d="M386.6,478.7l18,22.2c0,0,39.5-10.1,51.7-21.7c-0.6-17.5-0.6-17.5-0.6-17.5L386.6,478.7z"/>
			<path class="st22" d="M269.3,451c0,0,78.1,30.9,209.3,0.7c12.3-2.9,12.6,9.8,8.8,11.4c-3.8,1.6-100.9,38.4-225.9,1.3
				C251.5,459.3,257.5,448,269.3,451z"/>
			<path class="st4" d="M358.7,513.6l0.9,31.8c0,0-6.4,4.2-22.7,1.3c-18.6,3.7-42.4,7.9-57-4.8c-14.5-13.5,8.4-26.5,25.3-22.5
				c0.3-12.2,0.3-12.2,0.3-12.2l53.2,1.1L358.7,513.6L358.7,513.6z"/>
			<path class="st22" d="M404.6,500.9c0,0,42.4-11.4,51.7-21.7c8.1-5.6,14.2,6.6,10.5,8.7c-3.8,2.1-35.2,21.4-58.1,24.1
				C400.5,513.1,398.8,503.3,404.6,500.9z"/>
			<path class="st22" d="M303.4,497.2c0,0,31.1,10.1,57,3.2c9.6-2.4,11.3,10.6,4.9,12.2c-6.4,1.6-51.7,3.2-66.3-4.5
				C291.8,503.3,297.9,496.4,303.4,497.2z"/>
			<path class="st4" d="M459.8,491.4l2.1,9.9c0,0,3.5,0.5,8.3-5.3s37,1.1,27.5,15.4c-9.5,14.3-17.6,15.9-48.1,23.3
				c-23.6,8.5-26.7,7.9-26.7,7.9l-11.2-31.2L459.8,491.4z"/>
		</g>
	</g>
</g>
<g id="sweater" class="st16">
	<rect x="1969.3" y="567.3" class="st31" width="104.7" height="15.3"/>
	<g id="Shirt" class="st17">
		<path class="st32" d="M1990.3,289.5c0,0,12,11.3,24.7,12.7c12.7,1.4,22.9-0.9,37.8-12.5c17.7,9.5,26.7,15.8,26.7,15.8l-1.6,90.1
			c0,0-1.1,21.3-7,42.3c-98.2,0.9-98.2,0.9-98.2,0.9l0,0c0,0-5.2-18.1-6.3-29.4c-1.1-11.3-2.9-103.7-2.9-103.7L1990.3,289.5z"/>
		<path class="st33" d="M2016.5,261.5c2.7-6.3,3-6.4,5.6-5.2c2.8,1.3,4.5,4.2,4.5,7.4c0,2.5,0,6.3,0.1,11.2
			c5.1,3.8,39.2,27,29.7,27.6c-9.5,0.5-64.7,2.9-71.9,0.1c-3.2-0.9,6.7-7.8,13-13.2c6.4-5.4,18-13.8,18-13.8"/>
		<path class="st34" d="M1988.3,290.6c0,0,18.6,26.3,28.7,28.7c10.2,2.5,18.8-2.3,37.6-28.5c9.1,5.1,9.1,5.1,9.1,5.1
			s-21.2,29.4-31.7,32.4c-10.5,3.1-23,4.9-52.6-32.3C1988.3,290.6,1988.3,290.6,1988.3,290.6z"/>
		<path class="st34" d="M2071.9,444.5h-100.5c-1.6,0-2.8-1.3-2.8-2.8v-2c0-1.6,1.3-2.8,2.8-2.8h100.5c1.6,0,2.8,1.3,2.8,2.8v2
			C2074.7,443.2,2073.5,444.5,2071.9,444.5z"/>
		<g>
			<g>
				<path class="st34" d="M1924.2,369.4l34.9,16.9c1.4-3.6,2.6-6.8,3.5-9.4l-34.3-16.7C1926.8,363.3,1925.5,366.4,1924.2,369.4z"/>
				<path class="st34" d="M1911.7,413.9c0,0,6.3,2.7,24.4,12.4c3.6-2.8,7.2-7.7,10.5-13.5l-31.8-15.4
					C1912.4,407.5,1911.7,413.9,1911.7,413.9z"/>
				<path class="st34" d="M1932.8,351.3l31.8,15.5l-0.2-11.5l-27-13.1C1935.9,345,1934.4,348,1932.8,351.3z"/>
				<path class="st34" d="M1917.7,387.5l33.8,16.4c1.4-2.8,2.6-5.6,3.8-8.4l-34.7-16.9C1919.5,381.8,1918.5,384.7,1917.7,387.5z"/>
				<path class="st34" d="M1963.4,306.1c-3.9,1.9-7.3,5-10.7,9.5l11,5.4L1963.4,306.1z"/>
				<path class="st34" d="M1947.1,323.9c-1.6,2.8-3.3,5.9-5.1,9.3l22.2,10.8l-0.2-11.9L1947.1,323.9z"/>
				<path class="st32" d="M1914.9,397.3l31.8,15.4c1.6-2.8,3.2-5.8,4.7-8.9l-33.8-16.4C1916.6,391.1,1915.7,394.4,1914.9,397.3z"/>
				<path class="st32" d="M1963.7,320.9l-11-5.4c-1.8,2.4-3.7,5.2-5.6,8.4l16.8,8.2L1963.7,320.9z"/>
				<path class="st32" d="M1937.4,342.1l27,13.1l-0.2-11.2l-22.2-10.8C1940.5,336,1939,338.9,1937.4,342.1z"/>
				<path class="st32" d="M1929.5,357.7c-0.4,0.8-0.8,1.7-1.2,2.5l34.3,16.7c1.3-3.7,2.1-6.1,2.1-6.1l-0.1-4.1l-31.8-15.5
					C1931.7,353.3,1930.7,355.5,1929.5,357.7z"/>
				<path class="st32" d="M1920.6,378.7l34.7,16.9c1.4-3.2,2.7-6.4,3.8-9.3l-34.9-16.9C1922.9,372.6,1921.7,375.7,1920.6,378.7z"/>
			</g>
			<path class="st32" d="M1931.6,432.2l-23-11.5c-1.4-0.7-2-2.4-1.3-3.8l0.9-1.8c0.7-1.4,2.4-2,3.8-1.3l23,11.5
				c1.4,0.7,2,2.4,1.3,3.8l-0.9,1.8C1934.7,432.3,1933,432.9,1931.6,432.2z"/>
		</g>
		<g>
			<g>
				<path class="st34" d="M2118.7,368.6l-34.9,16.9c-1.4-3.6-2.6-6.8-3.5-9.4l34.3-16.7C2116.1,362.6,2117.5,365.6,2118.7,368.6z"/>
				<path class="st34" d="M2131.2,413.2c0,0-6.3,2.7-24.4,12.4c-3.6-2.8-7.2-7.7-10.5-13.5l31.8-15.4
					C2130.5,406.7,2131.2,413.2,2131.2,413.2z"/>
				<path class="st34" d="M2110.1,350.5l-31.8,15.5l0.2-11.5l27-13.1C2107,344.2,2108.5,347.3,2110.1,350.5z"/>
				<path class="st34" d="M2125.3,386.8l-33.8,16.4c-1.4-2.8-2.6-5.6-3.8-8.4l34.7-16.9C2123.5,381,2124.4,384,2125.3,386.8z"/>
				<path class="st34" d="M2079.5,305.3c3.9,1.9,7.3,5,10.7,9.5l-11,5.4L2079.5,305.3z"/>
				<path class="st34" d="M2095.9,323.2c1.6,2.8,3.3,5.9,5.1,9.3l-22.2,10.8l0.2-11.9L2095.9,323.2z"/>
				<path class="st32" d="M2128,396.6l-31.8,15.4c-1.6-2.8-3.2-5.8-4.7-8.9l33.8-16.4C2126.4,390.3,2127.3,393.6,2128,396.6z"/>
				<path class="st32" d="M2079.3,320.1l11-5.4c1.8,2.4,3.7,5.2,5.6,8.4l-16.8,8.2L2079.3,320.1z"/>
				<path class="st32" d="M2105.6,341.4l-27,13.1l0.2-11.2l22.2-10.8C2102.4,335.2,2104,338.2,2105.6,341.4z"/>
				<path class="st32" d="M2113.4,357c0.4,0.8,0.8,1.7,1.2,2.5l-34.3,16.7c-1.3-3.7-2.1-6.1-2.1-6.1l0.1-4.1l31.8-15.5
					C2111.2,352.6,2112.3,354.7,2113.4,357z"/>
				<path class="st32" d="M2122.4,378l-34.7,16.9c-1.4-3.2-2.7-6.4-3.8-9.3l34.9-16.9C2120.1,371.8,2121.3,374.9,2122.4,378z"/>
			</g>
			<path class="st32" d="M2111.3,431.4l23-11.5c1.4-0.7,2-2.4,1.3-3.8l-0.9-1.8c-0.7-1.4-2.4-2-3.8-1.3l-23,11.5
				c-1.4,0.7-2,2.4-1.3,3.8l0.9,1.8C2108.2,431.6,2109.9,432.1,2111.3,431.4z"/>
		</g>
	</g>
	<path class="st31" d="M2020.7,576L2020.7,576c-4.4,0-8-3.6-8-8V260c0-4.4,3.6-8,8-8l0,0c4.4,0,8,3.6,8,8v308
		C2028.7,572.4,2025.1,576,2020.7,576z"/>
</g>
<g id="Layer_2_1_">
	<g id="Layer_1-2">
		<g id="Frame">
			<path class="st35" d="M50.4,88.8c0,0-21.4-25.7,4.1-37.2c19.6-4.3,15.6,9.1,37.2,1.2c11.9-3.9,23.7,7.4,28,7.6
				c4.3,0.2,8.2-10.1,18.3-10.9c10.1-0.8,9.9,14.8,14.4,13.2c4.5-1.6,16.9-13.4,33.7-7.9c5.9,3.6,8.6,5.6,15.6-0.4
				s24.3-6.8,29.4,9.5c3.1,10.1-5.1,18.9-5.5,20.6s-3.1,5.6,2.3,12.6s-2.3,23.7-8,30.5c-2.5,4.9,9.1,9.7,9.5,11.9s3.7,11-9.1,18.1
				c0,0-3.5,2,4.3,12.1s3.1,24.1,0.6,29.2s16.5,19.8,0.6,35.6s-26.1-3.5-32.3-2.9s-16.4,14.2-38.5-3.1c-8.9-0.8-5.8,9.7-16.9,10.5
				s-9.9-10.9-15.6-11.7c-5.6-0.8-11.1,10.1-23.1,9.5s-14.4-4.7-20.2-4.5c-5.8,0.2-7.6,9.5-19.6,8s-26.5-15.9-8.9-38.9
				c-12.4-17.7,4.3-40.1,4.3-40.1s-12.3-7.8-11.1-15.4c1.2-7.6,8.6-10.7,10.3-13.4s-8-13.8-9.1-22C43.6,102.4,50.4,88.8,50.4,88.8z"
				/>
			<path class="st36" d="M147.9,141.6c-8.3-15.5-26.2-19-40.6-29.8C86.8,97.5,65.9,58,50.7,67.8c-1.2,0.7-2.1,1.9-2.6,3.2
				c-0.9,3.8,2.8,10.9,5.7,14.5l5,6l-3.5,6.9c-2.7,5.5-5,12.9-4.6,15.2c0.3,2,2.9,6.5,4.4,9.2c3.7,6.5,7.9,13.8,3.1,21.3
				c-1.5,2.1-3.3,4-5.4,5.6c-1,0.8-2,1.6-2.9,2.6c1.6,1.8,3.4,3.4,5.4,4.7l10.9,6.9l-7.7,10.3c-2.2,3.2-4,6.7-5.2,10.3
				c-3.4,10.2-0.1,15,1,16.6l5,7.1l-5.3,6.9c-4.8,6.5-6.8,12.2-5.3,15.9c1.3,2.6,3.7,4.3,6.5,4.7c0.4,0,0.8,0.1,1.1,0.1
				c1.1,0,1.3-0.1,3.6-2.1c2.6-2.2,6.8-6,13.4-6.2h0.8c3.7,0.1,7.4,0.9,10.8,2.4c3.2,1.4,6.6,2.1,10,2.2h0.4c2.6,0,4.7-1.5,8-3.9
				c3.6-2.6,8-5.9,14.2-5.9c0.7,0,1.5,0.1,2.2,0.2c8.2,1.1,11.8,7.6,13.6,10.7c0.1,0.1,0.1,0.3,0.2,0.4l0.1-0.1c2-3,6.5-10,16.7-10
				c0.6,0,1.3,0,2,0.1l3.5,0.3l2.8,2.2c3.8,2.9,9.2,6.4,13.9,6.4c2.7,0,5-1.2,7.7-2.5c2.9-1.7,6.1-2.8,9.4-3.2
				c0.5,0,0.9-0.1,1.4-0.1c5.8,0,10,3.1,13.7,5.8c2,1.4,4.9,3.6,6.3,3.6c0.7,0,2.2-0.8,4.4-2.9s3.1-3.7,3-5.9
				c-0.6-7.7-4.2-7.4-4.4-7.7C186.6,193.5,167,174.9,147.9,141.6z"/>
			<rect x="62.7" y="72.5" class="st37" width="149.3" height="145.4"/>
		</g>
	</g>
</g>
<g id="Layer_2_2_">
	<g id="Layer_1-2_1_">
		<g id="Frame_1_">
			<path class="st38" d="M1188.4,90.8c0,0-21.4-25.7,4.1-37.2c19.6-4.3,15.6,9.1,37.2,1.2c11.9-3.9,23.7,7.4,28,7.6
				c4.3,0.2,8.2-10.1,18.3-10.9c10.1-0.8,9.9,14.8,14.4,13.2c4.5-1.6,16.9-13.4,33.7-7.9c5.9,3.6,8.6,5.6,15.6-0.4
				s24.3-6.8,29.4,9.5c3.1,10.1-5.1,18.9-5.5,20.6s-3.1,5.6,2.3,12.6s-2.3,23.7-8,30.5c-2.5,4.9,9.1,9.7,9.5,11.9s3.7,11-9.1,18.1
				c0,0-3.5,2,4.3,12.1s3.1,24.1,0.6,29.2s16.5,19.8,0.6,35.6s-26.1-3.5-32.3-2.9s-16.4,14.2-38.5-3.1c-8.9-0.8-5.8,9.7-16.9,10.5
				s-9.9-10.9-15.6-11.7c-5.6-0.8-11.1,10.1-23.1,9.5s-14.4-4.7-20.2-4.5c-5.8,0.2-7.6,9.5-19.6,8s-26.5-15.9-8.9-38.9
				c-12.4-17.7,4.3-40.1,4.3-40.1s-12.3-7.8-11.1-15.4c1.2-7.6,8.6-10.7,10.3-13.4c1.7-2.7-8-13.8-9.1-22
				C1181.6,104.4,1188.4,90.8,1188.4,90.8z"/>
			<path class="st39" d="M1285.9,143.6c-8.3-15.5-26.2-19-40.6-29.8c-20.5-14.3-41.4-53.8-56.6-44c-1.2,0.7-2.1,1.9-2.6,3.2
				c-0.9,3.8,2.8,10.9,5.7,14.5l5,6l-3.5,6.9c-2.7,5.5-5,12.9-4.6,15.2c0.3,2,2.9,6.5,4.4,9.2c3.7,6.5,7.9,13.8,3.1,21.3
				c-1.5,2.1-3.3,4-5.4,5.6c-1,0.8-2,1.6-2.9,2.6c1.6,1.8,3.4,3.4,5.4,4.7l10.9,6.9l-7.7,10.3c-2.2,3.2-4,6.7-5.2,10.3
				c-3.4,10.2-0.1,15,1,16.6l5,7.1l-5.3,6.9c-4.8,6.5-6.8,12.2-5.3,15.9c1.3,2.6,3.7,4.3,6.5,4.7c0.4,0,0.8,0.1,1.1,0.1
				c1.1,0,1.3-0.1,3.6-2.1c2.6-2.2,6.8-6,13.4-6.2h0.8c3.7,0.1,7.4,0.9,10.8,2.4c3.2,1.4,6.6,2.1,10,2.2h0.4c2.6,0,4.7-1.5,8-3.9
				c3.6-2.6,8-5.9,14.2-5.9c0.7,0,1.5,0.1,2.2,0.2c8.2,1.1,11.8,7.6,13.6,10.7c0.1,0.1,0.1,0.3,0.2,0.4l0.1-0.1c2-3,6.5-10,16.7-10
				c0.6,0,1.3,0,2,0.1l3.5,0.3l2.8,2.2c3.8,2.9,9.2,6.4,13.9,6.4c2.7,0,5-1.2,7.7-2.5c2.9-1.7,6.1-2.8,9.4-3.2
				c0.5,0,0.9-0.1,1.4-0.1c5.8,0,10,3.1,13.7,5.8c2,1.4,4.9,3.6,6.3,3.6c0.7,0,2.2-0.8,4.4-2.9c2.2-2.1,3.1-3.7,3-5.9
				c-0.6-7.7-4.2-7.4-4.4-7.7C1324.6,195.5,1305,176.9,1285.9,143.6z"/>
			<rect x="1200.7" y="74.5" class="st40" width="149.3" height="145.4"/>
		</g>
	</g>
</g>
<g id="Layer_2_3_">
	<g id="Layer_1-2_2_">
		<g id="bluebox">
			<rect x="888.5" y="450.3" class="st9" width="105.3" height="71.5"/>
			<path class="st41" d="M956.3,417.6c-8.7-1.1-14.5,13.8-14.5,13.8s-4.3-9.3-6.4-11.1c-3.6-2.9-8.6-3.3-12.7-1.1
				c-5,2.9-3.2,7.9-3,10.4s11,13.2,11,13.2s19.1,1.7,22.3-0.8s6.6-6.6,10-10C966.4,428.6,965,418.7,956.3,417.6z M926.8,423
				c6.4-3,10.6,14.5,10.6,14.5C930.4,436.1,920.4,426.1,926.8,423z M945.9,438.1c0,0,4.3-17.4,10.8-14.9S952.7,437,945.9,438.1z"/>
			<rect x="888.5" y="446.3" class="st42" width="105.9" height="7.3"/>
			<rect x="882.5" y="442.3" class="st9" width="117" height="8.6"/>
			<polygon class="st41" points="934.1,441.6 934.1,521.8 948.6,521.8 948.6,441.3 			"/>
		</g>
	</g>
</g>
<g id="Layer_2_4_">
	<g id="Layer_1-2_3_">
		<g id="bluebox_1_">
			<rect x="951.1" y="507.6" class="st43" width="63.1" height="42.9"/>
			<path class="st44" d="M991.7,488c-5.2-0.6-8.7,8.3-8.7,8.3s-2.6-5.6-3.8-6.7c-2.2-1.7-5.2-2-7.6-0.7c-3,1.7-1.9,4.7-1.8,6.2
				c0.1,1.5,6.6,7.9,6.6,7.9s11.4,1,13.4-0.5c1.9-1.5,4-4,6-6S997,488.7,991.7,488z M974.1,491.3c3.8-1.8,6.4,8.7,6.4,8.7
				C976.2,499.1,970.2,493.1,974.1,491.3z M985.5,500.3c0,0,2.6-10.4,6.5-8.9S989.6,499.7,985.5,500.3z"/>
			<rect x="951.1" y="505.2" class="st45" width="63.5" height="4.4"/>
			<rect x="947.5" y="502.8" class="st43" width="70.1" height="5.2"/>
			<polygon class="st44" points="978.4,502.4 978.4,550.5 987.1,550.5 987.1,502.2 			"/>
		</g>
	</g>
</g>
<g id="Layer_2_5_">
	<g id="Layer_1-2_4_">
		<g id="bluebox_2_">
			<rect x="901.6" y="495.6" class="st46" width="63.1" height="54.9"/>
			<path class="st47" d="M942.2,470.5c-5.2-0.8-8.7,10.6-8.7,10.6s-2.6-7.1-3.8-8.5c-2.2-2.2-5.2-2.5-7.6-0.8c-3,2.2-1.9,6.1-1.8,8
				c0.1,1.9,6.6,10.1,6.6,10.1s11.4,1.3,13.4-0.6c1.9-1.9,4-5.1,6-7.7S947.5,471.4,942.2,470.5z M924.6,474.7
				c3.8-2.3,6.4,11.2,6.4,11.2C926.7,484.7,920.7,477.1,924.6,474.7z M936,486.3c0,0,2.6-13.4,6.5-11.4
				C946.4,476.8,940.1,485.4,936,486.3z"/>
			<rect x="901.6" y="492.6" class="st48" width="63.5" height="5.6"/>
			<rect x="898" y="489.5" class="st46" width="70.1" height="6.6"/>
			<polygon class="st47" points="928.9,489 928.9,550.5 937.6,550.5 937.6,488.7 			"/>
		</g>
	</g>
</g>
<g id="Layer_2_7_">
	<g id="Layer_1-2_6_">
		<g id="bluebox_4_">
			<rect x="1246.6" y="456.1" class="st43" width="77.8" height="61.3"/>
			<path class="st44" d="M1296.7,428.1c-6.4-0.9-10.7,11.8-10.7,11.8s-3.2-8-4.7-9.5c-2.7-2.5-6.4-2.8-9.4-0.9
				c-3.7,2.5-2.4,6.8-2.2,8.9s8.1,11.3,8.1,11.3s14.1,1.5,16.5-0.7c2.4-2.1,4.9-5.7,7.4-8.6C1304.2,437.5,1303.2,429,1296.7,428.1z
				 M1274.9,432.7c4.7-2.6,7.8,12.5,7.8,12.5C1277.6,443.9,1270.2,435.3,1274.9,432.7z M1289,445.6c0,0,3.2-14.9,8-12.8
				C1301.8,435,1294.1,444.7,1289,445.6z"/>
			<rect x="1246.6" y="452.6" class="st45" width="78.3" height="6.3"/>
			<rect x="1242.2" y="449.2" class="st43" width="86.5" height="7.4"/>
			<polygon class="st44" points="1280.3,448.6 1280.3,517.3 1291,517.3 1291,448.4 			"/>
		</g>
	</g>
</g>
<g id="Layer_2_6_">
	<g id="Layer_1-2_5_">
		<g id="bluebox_3_">
			<rect x="1301.1" y="473.8" class="st46" width="38.3" height="44"/>
			<path class="st47" d="M1356.8,502.2c0.6-3.6-7.4-6.1-7.4-6.1s5-1.8,5.9-2.7c1.5-1.5,1.8-3.6,0.6-5.3c-1.6-2.1-4.2-1.3-5.6-1.3
				c-1.3,0.1-7.1,4.6-7.1,4.6s-0.9,8,0.4,9.3s3.5,2.8,5.4,4.2C1350.9,506.4,1356.2,505.8,1356.8,502.2z M1353.9,489.8
				c1.6,2.7-7.8,4.4-7.8,4.4C1346.9,491.4,1352.3,487.2,1353.9,489.8z M1345.9,497.8c0,0,9.3,1.8,8,4.5
				C1352.5,505.1,1346.4,500.7,1345.9,497.8z"/>
			<rect x="1337.6" y="473.8" class="st48" width="3.9" height="44.3"/>
			<rect x="1339" y="471.3" class="st46" width="4.6" height="48.9"/>
			<polygon class="st47" points="1344,492.9 1301.1,492.9 1301.1,499 1344.1,499 			"/>
		</g>
	</g>
</g>
<g id="henry_1_" class="st16">
	<polygon class="st49" points="117.5,435.2 119.7,451.5 147.9,478.6 164.2,443.9 162.6,426.7 	"/>
	<g class="st17">
		<polygon class="st50" points="105.9,440.5 113.1,443.6 114.7,441.6 119.7,444.3 119.1,440.6 122.7,443.8 126.2,439.7 132.7,442.3 
			137.4,438.4 143.3,440.4 147.8,436.9 154.6,439.5 158.9,435.3 163.5,437.5 166.2,433.2 171.1,433.8 175.4,427.1 		"/>
		<g>
			<path class="st51" d="M191.5,355.4c0,0-2.4-17.5-13.2-24.3c0,0,0,19.1,4.5,24.8c-18.9-17.6-25.7-30.1-25.7-30.1
				s-10.1,16-5.8,22.8c-14-18.1-11.9-21.1-11.9-21.1s-14.7,13.7-11.1,20.7L113,334c0,0-16.4,16.1-13.4,27c0,0-9-6.3-7.5-18.8
				c-8.5,32.9-9.7,26.2-9.7,26.2S74,355.9,77,345c-8.1,32.8-12,28.5-12,28.5l-1.4-0.9l6.1,33.6c4.1,22.6,26,37.7,48.5,33.6l46.5-8.5
				c22.6-4.1,37.7-26,33.6-48.5l-5.4-29.8L191.5,355.4z"/>
			<path class="st50" d="M77,345c-3,10.9,5.4,23.4,5.4,23.4s1.2,6.7,9.7-26.2c-1.5,12.5,7.5,18.8,7.5,18.8c-3-11,13.4-27,13.4-27
				l17.8,21.3c-3.6-7,8.7-27.8,8.7-27.8s-2.1,3.1,11.9,21.1c-4.3-6.9,5.8-22.8,5.8-22.8s6.9,12.5,25.7,30.1
				c-4.5-5.7-4.5-24.8-4.5-24.8c10.8,6.8,13.2,24.3,13.2,24.3l1.3-2.5l-3.9-21.2c-4.1-22.6-26-37.7-48.5-33.6L94,306.6
				c-22.6,4.1-37.7,26-33.6,48.5l3.2,17.4l1.4,0.9C65,373.5,68.9,377.8,77,345z"/>
		</g>
		
			<ellipse transform="matrix(0.9838 -0.1794 0.1794 0.9838 -66.5987 24.8533)" class="st52" cx="104.1" cy="380.7" rx="10.9" ry="7.3"/>
		
			<ellipse transform="matrix(0.9838 -0.1794 0.1794 0.9838 -63.6485 34.9862)" class="st52" cx="161.7" cy="369.5" rx="10.9" ry="7.3"/>
		<path class="st53" d="M112.9,390L97,392.9c-5.6,1-11-2.7-12-8.3l-0.4-2.2c-1-5.6,2.7-11,8.3-12l15.9-2.9c5.6-1,11,2.7,12,8.3
			l0.4,2.2C122.3,383.6,118.5,389,112.9,390z"/>
		<g>
			<path class="st28" d="M172.1,355.9l-23.7,4.3c-3.5,0.6-5.8,4-5.1,7.4l1.8,10c0.6,3.5,4,5.8,7.4,5.1l6.1-1.1l16.3-25.6
				C174,355.8,173.1,355.7,172.1,355.9z"/>
			<path class="st54" d="M181.3,371l-1.8-10c-0.5-2.5-2.3-4.4-4.6-5l-16.3,25.6l17.5-3.2C179.7,377.8,182,374.5,181.3,371z"/>
		</g>
		<path class="st53" d="M172,379.2l-15.9,2.9c-5.6,1-11-2.7-12-8.3l-0.4-2.2c-1-5.6,2.7-11,8.3-12l15.9-2.9c5.6-1,11,2.7,12,8.3
			l0.4,2.2C181.4,372.8,177.6,378.2,172,379.2z"/>
		<g>
			<path class="st50" d="M164,408.8c-0.3-1.5-0.9-2.8-1.8-4.1c-1.9,5-11.1,10.1-22.8,12.3c-11.5,2.1-21.8,0.6-25.5-3.2
				c-0.4,1.4-0.4,2.8-0.2,4.2c1,5.6,7.1,9.6,15.3,10.8c0.2-3.1,4.7-6.3,10.8-7.4c6.2-1.1,11.7,0.4,12.8,3.4
				C160.3,420.8,165.1,414.7,164,408.8z"/>
			<path class="st55" d="M139.8,421.4c-6,1.1-10.5,4.3-10.8,7.4c3.8,0.5,8.1,0.5,12.6-0.3c4.1-0.7,7.8-2,11-3.7
				C151.5,421.8,146,420.2,139.8,421.4z"/>
		</g>
		<g>
			<path class="st56" d="M109.3,409.8c-2.4,1.5-3.9,4-3.4,6.5c0.4,2.2,2.2,3.9,4.5,4.7c-1.3-1.2-2.3-2.8-2.6-4.7
				C107.4,413.9,108,411.5,109.3,409.8z"/>
		</g>
		
			<rect x="121" y="374.1" transform="matrix(0.9838 -0.1794 0.1794 0.9838 -65.1256 29.8699)" class="st52" width="23.2" height="2"/>
	</g>
	<path class="st57" d="M60.9,350.2c0,0,120.5-24.5,127.8-20.9c-4.3-36.4-64.7-18.5-100.5-12.3C47.9,323.8,60.9,350.2,60.9,350.2z"/>
	<path class="st58" d="M59.1,340.1c0,0-6.7-118.9,78-93.1s93.1,105.7,93.1,105.7l-48.2-35.5C181.9,317.2,100.5,305.1,59.1,340.1z"/>
	<circle class="st59" cx="236.5" cy="347.9" r="16"/>
	<g class="st17">
		<path class="st60" d="M181.9,317.2c-1.6-2.4-3-4.8-4.4-7.3c-0.7-1.2-1.3-2.5-2.1-3.6c-0.7-1.1-1.6-2.2-2.6-3.1c-1-1-2-1.8-3.2-2.5
			c-1.2-0.7-2.5-1.4-3.7-2.1c-2.4-1.4-4.9-2.9-7.2-4.6c2.6,1.1,5.2,2.3,7.8,3.5c1.3,0.6,2.5,1.2,3.8,1.9c1.3,0.7,2.5,1.6,3.5,2.6
			c1,1,2,2.2,2.7,3.5c0.8,1.3,1.3,2.6,1.9,3.9C179.8,312,180.9,314.6,181.9,317.2z"/>
	</g>
	<g class="st17">
		<path class="st60" d="M163.1,300.8c1.5,0.2,2.9,0.7,4.2,1.4c1.3,0.6,2.6,1.5,3.8,2.4c1.1,1,2.2,2.1,3,3.3c0.8,1.2,1.4,2.7,1.8,4.1
			c-0.4-0.6-0.6-1.3-1-1.9c-0.2-0.3-0.4-0.6-0.6-0.9l-0.6-0.9c-0.9-1.1-1.9-2.2-3-3.1c-1.1-0.9-2.3-1.7-3.6-2.5
			c-0.6-0.4-1.3-0.7-1.9-1C164.5,301.3,163.8,301,163.1,300.8z"/>
	</g>
	<path class="st49" d="M224.3,500.2l17.6,47.7l-13.3,15.3l-19,14.7l17.2,23c0,0,15.6-14.6,27.7-36.6s20.7-17.9-9.2-65.8
		S224.3,500.2,224.3,500.2z"/>
	<path class="st61" d="M119.7,451.5c0,0,25.1,16,44.5-7.6c61.3-13.7,94.7,61.6,94.7,61.6l-41,12.1l-21.8-43.3l55.7,137.6l-182.2,2.8
		l44-121.1l-21.2,48l-45.5-36.4l27.3-33.3c4.5-5.5,10.6-9.6,17.4-11.7L119.7,451.5z"/>
</g>
<path id="hand_1_" class="st62" d="M4.5,483.8c-0.2-0.5-11.1-27.1-17.7-46.8c-18.7-7.1-19.4-24-19.4-24s-18-1.1-22.6-1.8
	c-4.7-0.7-6.6-5.8-1.8-5.9c9.8-1.7,26.2-2.8,25.4-4.1s-16.5-7.4-23.2-14.5s0.7-9.6,3.9-7.8c3.3,1.8,32.5,17.7,29.7,11.1
	c-17.8-20.9-18.2-28.1-18.3-30.8c-0.1-2.7,6.7-10.2,9.9-1.2s18,29.6,22.8,28.1c-6.1-25.7-5.4-32.5-4.8-36.4
	c0.6-3.8,8.6-9.7,10.2-4.6c0.7,6.6,3.1,22.2,9,45.4c9.7-20.6,19.4-17.3,22.6-16.5s6.6,3.3,1.8,6.6S24.2,384.1,19,395
	c-3.2,32.8-21.5,38.8-21.5,38.8l43.3,65c0,0,10.7,22.2,21.7,13.4c10.9-8.8,21.5-1.2,21.5-1.2l0.3,10.7c0,0-17,15.6-34.7,31.1
	S20.5,526.7,4.5,483.8z"/>
</svg>
