<?xml version="1.0" encoding="utf-8"?>
<!-- Generator: Adobe Illustrator 22.0.1, SVG Export Plug-In . SVG Version: 6.00 Build 0)  -->
<svg version="1.1" id="Layer_1" xmlns="http://www.w3.org/2000/svg" xmlns:xlink="http://www.w3.org/1999/xlink" x="0px" y="0px"
	 viewBox="0 0 1280 1024" style="enable-background:new 0 0 1280 1024;" xml:space="preserve">
<style type="text/css">
	.st0{fill:url(#SVGID_1_);}
	.st1{fill:#FFFFFF;}
	.st2{fill:#332D44;}
	.st3{fill:#00002A;}
	.st4{fill:#6F6062;}
	.st5{fill:#5A5768;}
	.st6{fill:#8B8084;}
	.st7{fill:#BCBEC0;}
	.st8{fill:#E9FF4B;}
	.st9{fill:#E5E6E8;}
	.st10{fill:#FFF3A0;}
	.st11{fill:#560009;}
	.st12{fill:#6F6062;stroke:#332D44;stroke-width:4.4953;stroke-linejoin:round;stroke-miterlimit:10;}
	.st13{fill:#FF38FC;}
	.st14{fill:#F5FF6C;}
	.st15{fill:#000BD0;}
	.st16{fill:#F4005B;}
	.st17{fill:#2BFF96;}
	.st18{fill:#0015CE;}
	.st19{fill:#FFA71D;}
	.st20{fill:#762900;}
	.st21{fill:#A6592F;}
	.st22{fill:#C1754B;}
	.st23{fill:#E0EBEF;}
	.st24{fill:#FFFB00;}
	.st25{display:none;}
	.st26{display:inline;fill:#332D44;}
	.st27{display:inline;}
	.st28{fill:#E6C9C8;}
	.st29{fill:#A7413D;}
	.st30{fill:#A8504D;}
	.st31{fill:#BF7572;}
	.st32{fill:#E1CBCA;}
	.st33{fill:#CA8D8B;}
	.st34{fill:#E8CCCB;}
	.st35{fill:#EFDCDB;}
	.st36{fill:#B15956;}
	.st37{fill:#ECD0CF;}
	.st38{fill:#C78380;}
	.st39{fill:#B87E7C;}
	.st40{fill:#D9ABAB;}
	.st41{fill:#F0F6E8;}
	.st42{fill:#CEE0D3;}
	.st43{fill:#971F1B;}
	.st44{fill:#7E1814;}
	.st45{fill:#231F20;}
	.st46{fill:#B6CDB5;}
	.st47{fill:#77B033;}
	.st48{fill:#94CB38;}
	.st49{fill:#9FBBA8;}
	.st50{fill:#A9D472;}
	.st51{fill:#AA2E2A;}
	.st52{fill:#C06C66;}
	.st53{fill:#E1C1BD;}
	.st54{fill:#B7CCB5;}
	.st55{fill:#C8EBDE;}
	.st56{fill:#C5E2DB;}
	.st57{fill:#B9DC8E;}
	.st58{fill:#A6CE69;}
	.st59{fill:#EDFAF2;}
	.st60{fill:#F9A724;}
	.st61{fill:#242021;}
	.st62{fill:#241F20;}
	.st63{fill:#F5B64B;}
	.st64{fill:#FCFCFC;}
	.st65{fill:#FDFDFD;}
</style>
<g id="Layer_1_1_">
	<g id="firstpagebg">
		
			<linearGradient id="SVGID_1_" gradientUnits="userSpaceOnUse" x1="639.8356" y1="1092.9735" x2="638.6044" y2="216.3235" gradientTransform="matrix(1 0 0 -1 0 1024)">
			<stop  offset="0" style="stop-color:#1B1464"/>
			<stop  offset="0.2061" style="stop-color:#1E1565"/>
			<stop  offset="0.3857" style="stop-color:#291669"/>
			<stop  offset="0.5555" style="stop-color:#3B196F"/>
			<stop  offset="0.7192" style="stop-color:#541D79"/>
			<stop  offset="0.8771" style="stop-color:#742284"/>
			<stop  offset="1" style="stop-color:#93278F"/>
		</linearGradient>
		<rect x="-41" y="-41" class="st0" width="1360" height="1134"/>
		<rect x="-363" y="711" class="st1" width="1998" height="480"/>
		<ellipse class="st2" cx="1032.7" cy="771" rx="296.2" ry="74.5"/>
		<path class="st3" d="M779.1,675.9c0,0-34.7-36.7-33.4-42.7c1.2-6,20.9-11.8,14.7-14.7c-6.2-2.8-29.1-27.2-33.7-31.9
			c-4.6-4.7,17.8-16.7,13.6-19.1c-4.2-0.9-29.1-21.1-24.9-25.2c4.2-4.1,10.6-10,7.4-12c-9.4-4.4-21.2-34.4-21.2-34.4
			c-1,0-10.6,29.5-19.9,33.8c-3.2,2,3.2,7.8,7.4,12c4.2,4.1-20.7,24.3-24.9,25.2c-4.2,2.4,18.2,14.4,13.6,19.1s-27.5,29-33.7,31.9
			c-6.2,2.8,13.5,8.7,14.7,14.7s-33.4,42.7-33.4,42.7l70.9-1v36.4h20.2V675L779.1,675.9z"/>
		<path class="st3" d="M687.8,675.3c0,0-34.7-36.7-33.4-42.7c1.2-6,20.9-11.8,14.7-14.7c-6.2-2.8-29.1-27.2-33.7-31.9
			c-4.6-4.7,17.8-16.7,13.6-19.1c-4.2-0.9-29.1-21.1-24.9-25.2c4.2-4.1,10.6-10,7.4-12c-9.4-4.4-21.2-34.4-21.2-34.4
			c-1,0-10.6,29.5-19.9,33.8c-3.2,2,3.2,7.8,7.4,12c4.2,4.1-20.7,24.3-24.9,25.2c-4.2,2.4,18.2,14.4,13.6,19.1s-27.5,29-33.7,31.9
			c-6.2,2.8,13.5,8.7,14.7,14.7s-33.4,42.7-33.4,42.7l70.9-1v36.4h20.2v-35.7L687.8,675.3z"/>
		<path class="st3" d="M627.3,670.2c0,0-39.7-42-38.3-48.9c1.4-6.8,23.9-13.5,16.9-16.8c-7.1-3.3-33.3-31.1-38.5-36.5
			s20.4-19.1,15.6-21.8c-4.8-1-33.3-24.1-28.5-28.8s12.2-11.4,8.5-13.7c-10.8-5.1-24.2-39.3-24.3-39.4c-1.1,0-12.2,33.7-22.8,38.7
			c-3.7,2.3,3.7,9,8.5,13.7s-23.7,27.9-28.5,28.8c-4.8,2.8,20.8,16.5,15.6,21.8S480,600.5,473,603.8c-7.1,3.3,15.4,9.9,16.9,16.8
			c1.4,6.8-38.3,48.9-38.3,48.9l81.2-1.2V710H556v-40.9L627.3,670.2z"/>
		<path class="st3" d="M517.7,675.1c0,0-34.2-36.2-33-42.1c1.2-5.9,20.6-11.7,14.5-14.5S470.5,591.7,466,587
			c-4.5-4.6,17.6-16.4,13.4-18.8c-4.2-0.8-28.7-20.8-24.5-24.9c4.2-4.1,10.5-9.8,7.3-11.8c-9.3-4.4-20.9-33.9-20.9-33.9
			c-1,0-10.5,29.1-19.6,33.3c-3.2,2,3.2,7.7,7.3,11.8c4.2,4.1-20.4,24-24.5,24.9c-4.2,2.4,17.9,14.2,13.4,18.8s-27.1,28.6-33.2,31.5
			c-6.1,2.8,13.3,8.6,14.5,14.5s-33,42.1-33,42.1l70-1v35.9h20v-35.3L517.7,675.1z"/>
		<path class="st3" d="M425.1,681.5c0,0-28.5-30.2-27.5-35.1s17.2-9.7,12.1-12s-23.9-22.3-27.7-26.2c-3.8-3.9,14.6-13.7,11.2-15.7
			c-3.5-0.7-23.9-17.3-20.4-20.7s8.7-8.2,6.1-9.8c-7.7-3.6-17.4-28.2-17.4-28.3c-0.8,0-8.7,24.2-16.3,27.8c-2.6,1.6,2.6,6.4,6.1,9.8
			c3.5,3.4-17,20-20.4,20.7c-3.5,2,15,11.8,11.2,15.7s-22.6,23.9-27.7,26.2s11.1,7.1,12.1,12S299,681,299,681l58.3-0.8v29.9h16.6
			v-29.4L425.1,681.5z"/>
		<path class="st3" d="M1303.1,675.3c0,0-34.7-36.7-33.4-42.7c1.2-6,20.9-11.8,14.7-14.7c-6.2-2.8-29.1-27.2-33.7-31.9
			s17.8-16.7,13.6-19.1c-4.2-0.9-29.1-21.1-24.9-25.2c4.2-4.1,10.6-10,7.4-12c-9.4-4.4-21.2-34.4-21.2-34.4
			c-1,0-10.6,29.5-19.9,33.8c-3.2,2,3.2,7.8,7.4,12c4.2,4.1-20.7,24.3-24.9,25.2c-4.2,2.4,18.2,14.4,13.6,19.1
			c-4.6,4.7-27.5,29-33.7,31.9c-6.2,2.8,13.5,8.7,14.7,14.7s-33.4,42.7-33.4,42.7l70.9-1v36.4h20.2v-35.7L1303.1,675.3z"/>
		<g>
			<rect x="738.3" y="546.7" class="st4" width="307.7" height="180.3"/>
			<rect x="738.3" y="534.3" class="st2" width="307" height="13.2"/>
			<polygon class="st5" points="887,398.9 735.5,540 1038.5,540 			"/>
			<polygon class="st6" points="753.6,533 887,408.8 1020.4,533 			"/>
			<polygon class="st2" points="1228.4,511.2 1045.2,547.5 1045.4,534.2 1228.4,497.9 			"/>
			<path class="st7" d="M1228.3,502.8L1038,539.5L887.7,387l210.8-29l137.1,121.4C1244.1,487.1,1239.9,500.5,1228.3,502.8z"/>
			<polygon class="st5" points="738.3,736.5 1048,736.5 1227.2,688.7 1226.8,732 1050.8,777.5 737.4,776 			"/>
			<polygon class="st4" points="1227.9,678 1046.7,726 1047.1,546.5 1228.4,510.2 			"/>
			<ellipse class="st8" cx="1143.5" cy="526.7" rx="4.6" ry="4.3"/>
			<rect x="1043.9" y="545.3" class="st2" width="4.9" height="181"/>
			<path class="st1" d="M735.2,545.2L891.5,399c2.5-2.3,2.5-6.1,0-8.5l0,0c-2.5-2.3-6.6-2.3-9.1,0L726,536.6c-2.5,2.3-2.5,6.1,0,8.5
				l0,0C728.6,547.5,732.7,547.5,735.2,545.2z"/>
			<path class="st9" d="M1188.2,510.3l-42.1,8.2l0.4,10.4c0.2,2.3-3.1,3.2-4.3,1.2l-0.2-10.6l-2,0.4l-0.3,9.2c0,1.1-1.6,1.6-2.3,0.7
				l0.1-9.3l-32.8,6.2l-0.6,5c-0.2,0.9-1.6,0.9-1.8,0v-4.6l-8.3,1.6l-42,7.9l-162.6-150l159.4-22L1192,498
				C1196.4,502.1,1194.2,509.1,1188.2,510.3z"/>
			<polygon class="st2" points="1227.2,688.7 1047.7,736.5 1047.9,723.2 1228.3,676.3 			"/>
			<g>
				<polygon class="st2" points="1175.8,603.2 1116.7,619.5 1116.7,575.8 1176.1,561.3 				"/>
				<polygon class="st10" points="1119.9,578.1 1172.9,565.2 1172.7,600.9 1119.9,615.5 				"/>
			</g>
			<polygon class="st2" points="1149.7,608.4 1144.8,610.2 1144.7,570.6 1149.3,569.4 			"/>
			<polygon class="st2" points="1127.8,596.4 1127.7,592.2 1165.6,583 1165.4,587.8 			"/>
			<g>
				<g>
					<rect x="772.5" y="587.7" class="st2" width="62.9" height="43.7"/>
					<rect x="776.3" y="590.3" class="st10" width="54.7" height="38"/>
				</g>
				<rect x="801.8" y="589.9" class="st2" width="3.9" height="39.2"/>
				<rect x="783.7" y="607.4" class="st2" width="40.5" height="3.8"/>
			</g>
			<g>
				<g>
					<rect x="957.1" y="586.7" class="st2" width="62.9" height="43.7"/>
					<rect x="960.9" y="589.3" class="st10" width="54.7" height="38"/>
				</g>
				<rect x="986.3" y="588.9" class="st2" width="3.9" height="39.2"/>
				<rect x="968.3" y="606.4" class="st2" width="40.5" height="3.8"/>
			</g>
			<path class="st1" d="M998.9,725.6h-0.3c-1.1,0-2-0.9-2-2v-41.4c0-1.1,0.9-2,2-2h0.3c1.1,0,2,0.9,2,2v41.4
				C1000.9,724.7,1000,725.6,998.9,725.6z"/>
			<path class="st1" d="M1016,725.6h-0.3c-1.1,0-2-0.9-2-2v-41.4c0-1.1,0.9-2,2-2h0.3c1.1,0,2,0.9,2,2v41.4
				C1018,724.7,1017.1,725.6,1016,725.6z"/>
			<path class="st1" d="M1033.2,725.6h-0.3c-1.1,0-2-0.9-2-2v-41.4c0-1.1,0.9-2,2-2h0.3c1.1,0,2,0.9,2,2v41.4
				C1035.2,724.7,1034.3,725.6,1033.2,725.6z"/>
			<path class="st1" d="M981.8,725.6h-0.3c-1.1,0-2-0.9-2-2v-41.4c0-1.1,0.9-2,2-2h0.3c1.1,0,2,0.9,2,2v41.4
				C983.8,724.7,982.9,725.6,981.8,725.6z"/>
			<path class="st1" d="M964.7,725.6h-0.3c-1.1,0-2-0.9-2-2v-41.4c0-1.1,0.9-2,2-2h0.3c1.1,0,2,0.9,2,2v41.4
				C966.7,724.7,965.8,725.6,964.7,725.6z"/>
			<path class="st1" d="M947.6,725.6h-0.3c-1.1,0-2-0.9-2-2v-41.4c0-1.1,0.9-2,2-2h0.3c1.1,0,2,0.9,2,2v41.4
				C949.6,724.7,948.7,725.6,947.6,725.6z"/>
			<path class="st1" d="M933.3,730.6H933c-1.1,0-2-0.9-2-2v-42.1c0-1.1,0.9-2,2-2h0.3c1.1,0,2,0.9,2,2v42.1
				C935.3,729.7,934.4,730.6,933.3,730.6z"/>
			<path class="st1" d="M850.6,726.3h-0.3c-1.1,0-2-0.9-2-2v-41.4c0-1.1,0.9-2,2-2h0.3c1.1,0,2,0.9,2,2v41.4
				C852.6,725.4,851.7,726.3,850.6,726.3z"/>
			<path class="st11" d="M1045.2,681.8H936.5c-1.2,0-2.1-0.9-2.1-2.1l0,0c0-1.2,0.9-2.1,2.1-2.1h108.7c1.2,0,2.1,0.9,2.1,2.1l0,0
				C1047.3,680.9,1046.3,681.8,1045.2,681.8z"/>
			<path class="st1" d="M802.1,726.3h-0.3c-1.1,0-2-0.9-2-2v-41.4c0-1.1,0.9-2,2-2h0.3c1.1,0,2,0.9,2,2v41.4
				C804.1,725.4,803.2,726.3,802.1,726.3z"/>
			<path class="st1" d="M819.2,726.3h-0.3c-1.1,0-2-0.9-2-2v-41.4c0-1.1,0.9-2,2-2h0.3c1.1,0,2,0.9,2,2v41.4
				C821.2,725.4,820.3,726.3,819.2,726.3z"/>
			<path class="st1" d="M836.3,726.3H836c-1.1,0-2-0.9-2-2v-41.4c0-1.1,0.9-2,2-2h0.3c1.1,0,2,0.9,2,2v41.4
				C838.3,725.4,837.4,726.3,836.3,726.3z"/>
			<path class="st1" d="M784.9,726.3h-0.3c-1.1,0-2-0.9-2-2v-41.4c0-1.1,0.9-2,2-2h0.3c1.1,0,2,0.9,2,2v41.4
				C786.9,725.4,786,726.3,784.9,726.3z"/>
			<path class="st1" d="M767.8,726.3h-0.3c-1.1,0-2-0.9-2-2v-41.4c0-1.1,0.9-2,2-2h0.3c1.1,0,2,0.9,2,2v41.4
				C769.8,725.4,768.9,726.3,767.8,726.3z"/>
			<path class="st1" d="M750.7,726.3h-0.3c-1.1,0-2-0.9-2-2v-41.4c0-1.1,0.9-2,2-2h0.3c1.1,0,2,0.9,2,2v41.4
				C752.7,725.4,751.8,726.3,750.7,726.3z"/>
			<g>
				<path class="st12" d="M857.6,723.2V618.6c0-15.4,12.5-27.9,27.9-27.9h18.1c12.8,0,23.2,10.4,23.2,23.2v109.4L857.6,723.2
					L857.6,723.2z"/>
				<ellipse class="st2" cx="912.6" cy="659.6" rx="4.6" ry="4.3"/>
			</g>
			<path class="st11" d="M855.4,682.5H739.6c-1.2,0-2.1-0.9-2.1-2.1l0,0c0-1.2,0.9-2.1,2.1-2.1h115.8c1.2,0,2.1,0.9,2.1,2.1l0,0
				C857.5,681.6,856.6,682.5,855.4,682.5z"/>
			<polygon class="st2" points="1048,736.5 738.3,736.5 738.3,723.3 1048.7,723.3 			"/>
			<ellipse class="st13" cx="860.2" cy="606.3" rx="4.6" ry="4.3"/>
			<ellipse class="st14" cx="868.1" cy="597.2" rx="4.6" ry="4.3"/>
			<ellipse class="st15" cx="878.9" cy="591.8" rx="4.6" ry="4.3"/>
			<ellipse class="st16" cx="890.7" cy="590.5" rx="4.6" ry="4.3"/>
			<ellipse class="st8" cx="901.8" cy="591" rx="4.6" ry="4.3"/>
			<ellipse class="st17" cx="912.5" cy="593.7" rx="4.6" ry="4.3"/>
			<ellipse class="st18" cx="921.2" cy="600.7" rx="4.6" ry="4.3"/>
			<ellipse class="st19" cx="925.5" cy="609" rx="4.6" ry="4.3"/>
			<rect x="852.6" y="724.3" class="st2" width="71.9" height="50.5"/>
			<g>
				<rect x="851.2" y="723.2" class="st6" width="73.6" height="14.2"/>
			</g>
			<path class="st1" d="M922.8,737h-0.3c-1.1,0-2-0.9-2-2v-35.5c0-1.1,0.9-2,2-2h0.3c1.1,0,2,0.9,2,2V735
				C924.8,736.1,923.9,737,922.8,737z"/>
			<path class="st1" d="M855.6,735.1h-0.3c-1.1,0-2-0.9-2-2v-49.3c0-1.1,0.9-2,2-2h0.3c1.1,0,2,0.9,2,2v49.3
				C857.6,734.2,856.7,735.1,855.6,735.1z"/>
			<rect x="851.2" y="733.2" class="st4" width="73.6" height="4.1"/>
			<g>
				<rect x="841.6" y="735.8" class="st6" width="73.6" height="14.2"/>
			</g>
			<path class="st1" d="M913.1,750h-0.3c-1.1,0-2-0.9-2-2v-36c0-1.1,0.9-2,2-2h0.3c1.1,0,2,0.9,2,2v36
				C915.1,749.1,914.3,750,913.1,750z"/>
			<path class="st1" d="M843.8,747.6h-0.3c-1.1,0-2-0.9-2-2V699c0-1.1,0.9-2,2-2h0.3c1.1,0,2,0.9,2,2v46.6
				C845.8,746.7,844.9,747.6,843.8,747.6z"/>
			<rect x="841.6" y="745.8" class="st4" width="73.6" height="4.3"/>
			<g>
				<rect x="835" y="748.2" class="st6" width="72.3" height="14.2"/>
			</g>
			<path class="st1" d="M905.3,760.7H905c-1.1,0-2-0.9-2-2v-35.4c0-1.1,0.9-2,2-2h0.3c1.1,0,2,0.9,2,2v35.4
				C907.3,759.8,906.4,760.7,905.3,760.7z"/>
			<g>
				<rect x="821.5" y="761.1" class="st6" width="73.6" height="14.2"/>
			</g>
			<path class="st1" d="M837.1,761.9h-0.3c-1.1,0-2-0.9-2-2v-50.6c0-1.1,0.9-2,2-2h0.3c1.1,0,2,0.9,2,2v50.6
				C839.1,761,838.3,761.9,837.1,761.9z"/>
			<rect x="834.7" y="758" class="st4" width="72.7" height="4.3"/>
			<rect x="891" y="736.6" class="st1" width="4.3" height="25.8"/>
			<polygon class="st1" points="825.9,761.1 821.6,761.1 821.6,724.7 826.4,722 			"/>
			<path class="st11" d="M938.3,680.1l-52.7,69.7c-0.4,0.5-1,0.7-1.6,0.3l-0.8-0.5c-0.8-0.5-1-1.8-0.4-2.6l53.5-69.2
				c0.3-0.4,0.9-0.6,1.3-0.4l0,0C938.7,677.7,939,679.2,938.3,680.1z"/>
			<path class="st11" d="M858,681.2L813.2,741c-0.3,0.5-0.9,0.6-1.3,0.3l-0.7-0.4c-0.7-0.4-0.8-1.6-0.3-2.3l45.5-59.3
				c0.3-0.4,0.7-0.5,1.1-0.4l0,0C858.3,679.1,858.6,680.4,858,681.2z"/>
			<ellipse class="st8" cx="743.5" cy="548.1" rx="4.6" ry="4.3"/>
			<ellipse class="st8" cx="755.5" cy="548.1" rx="4.6" ry="4.3"/>
			<ellipse class="st8" cx="767.5" cy="548.1" rx="4.6" ry="4.3"/>
			<ellipse class="st8" cx="779.4" cy="548.1" rx="4.6" ry="4.3"/>
			<ellipse class="st8" cx="791.4" cy="548.1" rx="4.6" ry="4.3"/>
			<ellipse class="st8" cx="827.3" cy="548.1" rx="4.6" ry="4.3"/>
			<ellipse class="st8" cx="851.2" cy="548.1" rx="4.6" ry="4.3"/>
			<ellipse class="st8" cx="887.1" cy="548.1" rx="4.6" ry="4.3"/>
			<ellipse class="st8" cx="899" cy="548.1" rx="4.6" ry="4.3"/>
			<ellipse class="st8" cx="911" cy="548.1" rx="4.6" ry="4.3"/>
			<ellipse class="st8" cx="803.3" cy="548.1" rx="4.6" ry="4.3"/>
			<ellipse class="st8" cx="815.3" cy="548.1" rx="4.6" ry="4.3"/>
			<ellipse class="st8" cx="839.2" cy="548.1" rx="4.6" ry="4.3"/>
			<ellipse class="st8" cx="863.1" cy="548.1" rx="4.6" ry="4.3"/>
			<ellipse class="st8" cx="875.1" cy="548.1" rx="4.6" ry="4.3"/>
			<ellipse class="st8" cx="937.3" cy="548.6" rx="4.6" ry="4.3"/>
			<ellipse class="st8" cx="973.2" cy="548.6" rx="4.6" ry="4.3"/>
			<ellipse class="st8" cx="985.1" cy="548.6" rx="4.6" ry="4.3"/>
			<ellipse class="st8" cx="997.1" cy="548.6" rx="4.6" ry="4.3"/>
			<ellipse class="st8" cx="925.3" cy="548.6" rx="4.6" ry="4.3"/>
			<ellipse class="st8" cx="949.3" cy="548.6" rx="4.6" ry="4.3"/>
			<ellipse class="st8" cx="961.2" cy="548.6" rx="4.6" ry="4.3"/>
			<ellipse class="st8" cx="1021" cy="549" rx="4.6" ry="4.3"/>
			<ellipse class="st8" cx="1058.5" cy="545.8" rx="4.6" ry="4.3"/>
			<ellipse class="st8" cx="1071" cy="543" rx="4.6" ry="4.3"/>
			<ellipse class="st8" cx="1083.1" cy="540" rx="4.6" ry="4.3"/>
			<ellipse class="st8" cx="1094.7" cy="537.1" rx="4.6" ry="4.3"/>
			<ellipse class="st8" cx="1107.2" cy="534.2" rx="4.6" ry="4.3"/>
			<ellipse class="st8" cx="1119.3" cy="531.2" rx="4.6" ry="4.3"/>
			<ellipse class="st8" cx="1131" cy="529.6" rx="4.6" ry="4.3"/>
			<ellipse class="st8" cx="1155.6" cy="523.7" rx="4.6" ry="4.3"/>
			<ellipse class="st8" cx="1178.6" cy="518.6" rx="4.6" ry="4.3"/>
			<ellipse class="st8" cx="1166.2" cy="521.5" rx="4.6" ry="4.3"/>
			<ellipse class="st8" cx="1009" cy="549" rx="4.6" ry="4.3"/>
			<ellipse class="st8" cx="1033" cy="549" rx="4.6" ry="4.3"/>
			<ellipse class="st8" cx="1044.9" cy="549" rx="4.6" ry="4.3"/>
			<ellipse class="st8" cx="1015.1" cy="528" rx="4.6" ry="4.3"/>
			<ellipse class="st8" cx="1007.9" cy="521" rx="4.6" ry="4.3"/>
			<ellipse class="st8" cx="1000.6" cy="513.8" rx="4.6" ry="4.3"/>
			<ellipse class="st8" cx="992.8" cy="506.8" rx="4.6" ry="4.3"/>
			<ellipse class="st8" cx="985.6" cy="499.8" rx="4.6" ry="4.3"/>
			<ellipse class="st8" cx="978.3" cy="492.7" rx="4.6" ry="4.3"/>
			<ellipse class="st8" cx="970.3" cy="485.8" rx="4.6" ry="4.3"/>
			<ellipse class="st8" cx="963.2" cy="478.8" rx="4.6" ry="4.3"/>
			<ellipse class="st8" cx="955.9" cy="471.7" rx="4.6" ry="4.3"/>
			<ellipse class="st8" cx="947.7" cy="464.2" rx="4.6" ry="4.3"/>
			<ellipse class="st8" cx="940.5" cy="457.2" rx="4.6" ry="4.3"/>
			<ellipse class="st8" cx="933.2" cy="450" rx="4.6" ry="4.3"/>
			<ellipse class="st8" cx="925" cy="443.5" rx="4.6" ry="4.3"/>
			<ellipse class="st8" cx="917.9" cy="436.5" rx="4.6" ry="4.3"/>
			<ellipse class="st8" cx="910.6" cy="429.3" rx="4.6" ry="4.3"/>
			<ellipse class="st8" cx="902.5" cy="423.7" rx="4.6" ry="4.3"/>
			<ellipse class="st8" cx="895.4" cy="416.7" rx="4.6" ry="4.3"/>
			<ellipse class="st8" cx="888.1" cy="409.5" rx="4.6" ry="4.3"/>
			<ellipse class="st8" cx="880.1" cy="417.4" rx="4.6" ry="4.3"/>
			<ellipse class="st8" cx="872.6" cy="424" rx="4.6" ry="4.3"/>
			<ellipse class="st8" cx="864.9" cy="430.8" rx="4.6" ry="4.3"/>
			<ellipse class="st8" cx="857.5" cy="438.6" rx="4.6" ry="4.3"/>
			<ellipse class="st8" cx="849.9" cy="445.2" rx="4.6" ry="4.3"/>
			<ellipse class="st8" cx="842.2" cy="451.9" rx="4.6" ry="4.3"/>
			<ellipse class="st8" cx="833.8" cy="460.1" rx="4.6" ry="4.3"/>
			<ellipse class="st8" cx="826.2" cy="466.7" rx="4.6" ry="4.3"/>
			<ellipse class="st8" cx="818.5" cy="473.4" rx="4.6" ry="4.3"/>
			<ellipse class="st8" cx="810.8" cy="482.1" rx="4.6" ry="4.3"/>
			<ellipse class="st8" cx="803.2" cy="488.7" rx="4.6" ry="4.3"/>
			<ellipse class="st8" cx="795.5" cy="495.4" rx="4.6" ry="4.3"/>
			<ellipse class="st8" cx="786.9" cy="504.1" rx="4.6" ry="4.3"/>
			<ellipse class="st8" cx="779.3" cy="510.7" rx="4.6" ry="4.3"/>
			<ellipse class="st8" cx="771.6" cy="517.4" rx="4.6" ry="4.3"/>
			<ellipse class="st8" cx="762" cy="525.8" rx="4.6" ry="4.3"/>
			<ellipse class="st8" cx="804.8" cy="530.7" rx="4.6" ry="4.3"/>
			<ellipse class="st8" cx="794.5" cy="530.7" rx="4.6" ry="4.3"/>
			<ellipse class="st8" cx="782.8" cy="530.7" rx="4.6" ry="4.3"/>
			<ellipse class="st8" cx="771.8" cy="530.6" rx="4.6" ry="4.3"/>
			<ellipse class="st8" cx="848.4" cy="531.2" rx="4.6" ry="4.3"/>
			<ellipse class="st8" cx="838.1" cy="531.2" rx="4.6" ry="4.3"/>
			<ellipse class="st8" cx="826.4" cy="531.2" rx="4.6" ry="4.3"/>
			<ellipse class="st8" cx="815.4" cy="531.1" rx="4.6" ry="4.3"/>
			<ellipse class="st8" cx="892.3" cy="531.2" rx="4.6" ry="4.3"/>
			<ellipse class="st8" cx="881.9" cy="531.2" rx="4.6" ry="4.3"/>
			<ellipse class="st8" cx="870.3" cy="531.2" rx="4.6" ry="4.3"/>
			<ellipse class="st8" cx="859.3" cy="531.1" rx="4.6" ry="4.3"/>
			<ellipse class="st8" cx="936.7" cy="531.7" rx="4.6" ry="4.3"/>
			<ellipse class="st8" cx="926.4" cy="531.7" rx="4.6" ry="4.3"/>
			<ellipse class="st8" cx="914.7" cy="531.7" rx="4.6" ry="4.3"/>
			<ellipse class="st8" cx="903.7" cy="531.6" rx="4.6" ry="4.3"/>
			<ellipse class="st8" cx="981.4" cy="531.7" rx="4.6" ry="4.3"/>
			<ellipse class="st8" cx="971" cy="531.7" rx="4.6" ry="4.3"/>
			<ellipse class="st8" cx="1004" cy="532.2" rx="4.6" ry="4.3"/>
			<ellipse class="st8" cx="959.4" cy="531.7" rx="4.6" ry="4.3"/>
			<ellipse class="st8" cx="948.4" cy="531.6" rx="4.6" ry="4.3"/>
			<path class="st1" d="M1043.2,545.2l-88.1-82.6l-1.2,14.6c-0.6,1.1-2.3,0.7-2.4-0.6l-0.6-18l-0.9-0.9l-2.8-2.7l-3.2-3.2l-0.3,11.9
				c-0.3,4-7.5,2.1-7.6-0.3l-1-19.4l-50.9-47.2c-2.5-2.3-2.5-6.1,0-8.5l0,0c2.5-2.3,6.2-2.5,8.7-0.1l159.3,148.6
				c2.5,2.3,2.5,6.1,0,8.5l0,0C1049.8,547.5,1045.7,547.5,1043.2,545.2z"/>
			<ellipse class="st8" cx="1190.7" cy="515.6" rx="4.6" ry="4.3"/>
			<ellipse class="st8" cx="1213.8" cy="511.1" rx="4.6" ry="4.3"/>
			<ellipse class="st8" cx="1201.3" cy="514" rx="4.6" ry="4.3"/>
		</g>
		<g>
			<path class="st20" d="M976.2,363.3h-52.4V399h1v-1.8c0-0.9,0.5-1.6,1.1-1.6h0.1h12.4h0.1c0.1,0,0.2,0,0.3,0.1
				c0.2,0.1,0.4,0.3,0.5,0.6c0.1,0.2,0.2,0.5,0.2,0.9v1.8h1v-1.5c0-1.2,0.7-2.2,1.5-2.2h16.3c0.7,0,1.2,0.6,1.4,1.5l0,0
				c0.1,0.2,0.1,0.5,0.1,0.8v1.5h1v-1.5c0-1.2,0.7-2.2,1.5-2.2h0.2h11.3h0.2c0.2,0,0.5,0.2,0.7,0.5c0.4,0.4,0.6,1.1,0.6,1.8v1.5h0.9
				L976.2,363.3L976.2,363.3z M960.5,363.7h0.8l0,0h14l0,0l0,0v12.6c0,0.3,0,0.5-0.1,0.8c-0.2,1-0.8,1.1-1.2,1.1h-12.4
				c-0.6,0-1.1-0.7-1.1-1.7V363.7z M940.3,363.8h0.5l0,0h1.8h16.9v12.4c0,0.6-0.2,1.2-0.6,1.5c-0.2,0.2-0.3,0.3-0.5,0.3h-16.7h-0.1
				h-0.2c-0.6,0-1-0.7-1-1.5v-12.7H940.3z M924.7,363.8h14.6v12.5v0.1c0,0.4-0.1,0.8-0.3,1.1c-0.2,0.2-0.4,0.4-0.6,0.4l0,0h-0.1
				h-12.4c-0.6,0-1-0.7-1-1.5v-12.6H924.7z M944.1,381.1v10.7c0,0.8-0.3,1.5-0.7,1.8c-0.1,0.1-0.3,0.2-0.4,0.2c-0.1,0-0.1,0-0.2,0
				h-17.1c-0.6,0-1.1-0.7-1.1-1.6v-11.3c0-0.9,0.5-1.5,1-1.5l0,0H943l0,0l0,0c0,0,0,0,0.1,0l0,0c0.3,0.1,0.6,0.3,0.8,0.7
				c0.1,0.2,0.2,0.5,0.2,0.7V381.1z M955,380.8v11.6c0,0,0,0.1,0,0.2c0,0.5-0.3,0.9-0.5,1c0,0,0,0-0.1,0c0,0,0,0-0.1,0
				c0,0,0,0-0.1,0h-0.1h-7.7h-0.3c-0.5,0-0.9-0.6-0.9-1.3v-11.6c0-0.7,0.4-1.3,0.9-1.3l0,0h8l0,0c0.3,0,0.5,0.2,0.7,0.5v0.1v0.1
				c0,0,0,0,0,0.1C955,380.5,955,380.6,955,380.8L955,380.8z M975.5,392.1v0.1c0,0.4-0.1,0.8-0.3,1.1c-0.2,0.3-0.4,0.5-0.7,0.6
				c-0.1,0-0.2,0-0.3,0H966h-8.4c0,0-0.1,0-0.2,0h-0.1c-0.7,0-1.3-0.8-1.3-1.9v-10.7c0-0.9,0.4-1.7,1-1.9h0.1c0,0,0,0,0.1,0l0,0l0,0
				h16.9l0,0c0.7,0,1.2,0.8,1.3,1.7c0,0.1,0,0.1,0,0.1v10.9H975.5z"/>
			<path class="st21" d="M939.2,376.5c0,0.3-0.1,0.7-0.3,1.1C939.1,377.3,939.2,376.9,939.2,376.5z"/>
			<path class="st21" d="M925.7,378h12.4h0.1H925.7c-0.3,0-0.6-1-0.6-1.5v-12.7h14.2h-14.6v12.7C924.7,377.3,925.1,378,925.7,378z"
				/>
			<path class="st22" d="M939.2,376.4v0.1C939.2,376.4,939.2,376.4,939.2,376.4z"/>
			<path class="st22" d="M938.3,378c0.3,0,0.5-0.2,0.6-0.4C938.7,377.8,938.5,377.9,938.3,378L938.3,378z"/>
			<path class="st22" d="M925.1,376.5c0,0.5,0.3,1.5,0.6,1.5h12.5c0.3,0,0.5-0.2,0.7-0.4c0.2-0.3,0.3-0.7,0.3-1.1v-0.1v-12.5H925
				v12.6H925.1z"/>
			<path class="st21" d="M941.3,378h0.2c-0.4-0.1-0.7-0.9-0.7-2v-12.1h-0.5v12.7C940.3,377.3,940.8,378,941.3,378z"/>
			<path class="st21" d="M959.4,376.3c0,0.4-0.2,1.1-0.5,1.5C959.3,377.4,959.5,376.9,959.4,376.3v-12.4h-16.9l16.9,0.1V376.3z"/>
			<polygon class="st22" points="940.8,363.8 940.8,363.8 942.6,363.8 			"/>
			<path class="st22" d="M941.6,378L941.6,378h16.8c0.2,0,0.4-0.1,0.5-0.3c-0.2,0.2-0.4,0.3-0.6,0.3H941.6z"/>
			<path class="st22" d="M941.6,378h16.7c0.2,0,0.4-0.1,0.6-0.3c0.3-0.4,0.5-1,0.5-1.5v-12.4l-16.9-0.1h-1.8v12.1
				C940.9,377,941.1,377.8,941.6,378z"/>
			<path class="st21" d="M961.6,378.1H974h-11.9c-0.7,0-0.8-1.6-0.8-2.2v-12.2h-0.8v12.8C960.5,377.4,961,378.1,961.6,378.1z"/>
			<path class="st21" d="M975.1,377c0.1-0.2,0.1-0.5,0.1-0.8v-12.6l0,0v12C975.2,376.2,975.2,376.7,975.1,377z"/>
			<path class="st22" d="M973.9,378.1c0.4,0,0.9-0.1,1.2-1.1C974.9,377.7,974.5,378.1,973.9,378.1z"/>
			<polygon class="st22" points="961.3,363.7 975.3,363.7 975.3,363.7 			"/>
			<path class="st22" d="M962.1,378.1H974c0.5,0,1-0.5,1.2-1.1c0.1-0.3,0.1-0.8,0.1-1.4v-12h-14v12.2
				C961.3,376.5,961.4,378.1,962.1,378.1z"/>
			<path class="st21" d="M943.9,380.1c-0.2-0.4-0.5-0.7-0.8-0.7C943.5,379.5,943.8,379.8,943.9,380.1z"/>
			<path class="st21" d="M943.4,393.6c0.4-0.3,0.7-1,0.7-1.8C944.1,392.4,943.8,393.2,943.4,393.6z"/>
			<path class="st21" d="M943.1,379.4L943.1,379.4L943.1,379.4z"/>
			<path class="st21" d="M926.2,393.8c-0.4,0-1.1-0.7-1.2-2.1v-11.3c0-0.5,0.3-1,0.6-1l0,0c-0.6,0-1,0.7-1,1.5v11.3
				c0,0.9,0.5,1.6,1.1,1.6h17.1c0.1,0,0.1,0,0.2,0l0,0H926.2z"/>
			<path class="st22" d="M943.4,393.6c-0.1,0.1-0.3,0.2-0.4,0.2C943.1,393.8,943.3,393.7,943.4,393.6z"/>
			<path class="st22" d="M943,379.4L943,379.4L943,379.4C943.1,379.4,943,379.4,943,379.4z"/>
			<path class="st22" d="M944.1,381.1v-0.2c0-0.2-0.1-0.5-0.2-0.7C944.1,380.4,944.1,380.7,944.1,381.1z"/>
			<path class="st22" d="M943.1,379.4L943.1,379.4L943.1,379.4z"/>
			<path class="st22" d="M943.1,379.4L943.1,379.4L943.1,379.4c-0.1,0-0.1,0-0.2,0h-17.3c-0.4,0-0.6,0.4-0.6,1v11.3
				c0.1,1.4,0.8,2.1,1.2,2.1h16.7l0,0c0.2,0,0.3-0.1,0.4-0.2c0.4-0.4,0.7-1.2,0.7-1.8v-10.7c0-0.3-0.1-0.7-0.2-0.9
				C943.8,379.8,943.5,379.5,943.1,379.4z"/>
			<path class="st21" d="M954.4,393.6c0.3-0.2,0.5-0.6,0.5-1C954.9,392.9,954.8,393.4,954.4,393.6z"/>
			<path class="st21" d="M945.7,391.8v-11.6c0-0.4,0.2-0.7,0.5-0.7l0,0c-0.5,0-0.9,0.6-0.9,1.3v11.6c0,0.7,0.4,1.3,0.9,1.3h0.3
				C946,393.6,945.7,393.1,945.7,391.8z"/>
			<path class="st21" d="M954.4,393.6C954.3,393.6,954.3,393.6,954.4,393.6C954.3,393.6,954.3,393.6,954.4,393.6z"/>
			<path class="st21" d="M954.9,380.2C954.9,380.3,954.9,380.3,954.9,380.2C954.9,380.3,954.9,380.3,954.9,380.2z"/>
			<path class="st21" d="M954.8,380C954.8,380.1,954.9,380.1,954.8,380C954.9,380.1,954.8,380.1,954.8,380z"/>
			<path class="st22" d="M954.4,393.6L954.4,393.6L954.4,393.6z"/>
			<path class="st22" d="M955,380.8L955,380.8c0-0.2,0-0.3-0.1-0.5C955,380.5,955,380.6,955,380.8z"/>
			<path class="st22" d="M954.8,380c-0.1-0.3-0.3-0.5-0.7-0.5l0,0C954.4,379.5,954.7,379.7,954.8,380z"/>
			<path class="st22" d="M955,392.4c0,0.1,0,0.1,0,0.2C955,392.5,955,392.4,955,392.4z"/>
			<path class="st22" d="M954.2,393.7C954.3,393.7,954.3,393.7,954.2,393.7C954.2,393.7,954.2,393.7,954.2,393.7L954.2,393.7z"/>
			<path class="st22" d="M954.9,380.1v0.1C954.9,380.2,954.9,380.2,954.9,380.1z"/>
			<path class="st22" d="M954.9,380.2v-0.1V380c-0.2-0.3-0.4-0.5-0.7-0.5h-8c-0.3,0-0.5,0.3-0.5,0.7v11.6c0,1.3,0.3,1.8,0.8,1.9h7.7
				c0.1,0,0.1,0,0.2,0h0.1c0,0,0,0,0.1,0c0.3-0.2,0.5-0.7,0.5-1c0-0.1,0-0.1,0-0.2v-11.6C955,380.6,955,380.5,954.9,380.2
				C954.9,380.3,954.9,380.3,954.9,380.2z"/>
			<path class="st21" d="M956.3,391.5v-10.7c0-0.6,0.3-1.1,0.7-1.3c-0.6,0.2-1,0.9-1,1.9v10.7c0,1,0.6,1.9,1.3,1.9h0.1
				C956.9,393.8,956.4,393.1,956.3,391.5z"/>
			<path class="st21" d="M966,394h8.3c0.1,0,0.2,0,0.3,0h-0.1H966z"/>
			<path class="st21" d="M957.1,379.5L957.1,379.5L957.1,379.5z"/>
			<path class="st21" d="M975.5,392.2c0,0.4-0.1,0.8-0.3,1.1C975.4,393,975.5,392.6,975.5,392.2z"/>
			<path class="st22" d="M975.5,381.4v-0.1V381.4z"/>
			<path class="st22" d="M957.2,379.5L957.2,379.5L957.2,379.5L957.2,379.5z"/>
			<path class="st22" d="M974.2,379.5h-16.9h-0.1c0,0,0,0-0.1,0H957c-0.4,0.1-0.7,0.6-0.7,1.3v10.7c0,1.6,0.6,2.3,1.1,2.5h8.6h8.4
				h0.1c0.3-0.1,0.5-0.3,0.7-0.6c0.2-0.3,0.3-0.8,0.3-1.1v-0.1v-10.7v-0.1C975.5,380.5,975.1,379.5,974.2,379.5z"/>
			<path class="st21" d="M925.3,396.6c0-0.5,0.3-1,0.7-1h-0.1c-0.6,0-1.1,0.7-1.1,1.6v1.8h0.5L925.3,396.6L925.3,396.6z"/>
			<path class="st22" d="M925.3,396.6v2.4h14v-1.8c0-0.3-0.1-0.6-0.2-0.9c-0.1-0.3-0.3-0.5-0.5-0.6c-0.1-0.1-0.3-0.1-0.4-0.1h-12.4
				C925.6,395.6,925.3,396,925.3,396.6z"/>
			<path class="st21" d="M940.8,397c0-0.9,0.5-1.6,1.1-1.6h16.3c0.5,0,1.1,0.6,1.3,1.4c-0.2-0.9-0.8-1.5-1.4-1.5h-16.3
				c-0.8,0-1.5,1-1.5,2.2v1.5h0.5L940.8,397L940.8,397z"/>
			<path class="st22" d="M958.3,395.3H942c-0.6,0-1.1,0.7-1.1,1.6v2h18.8v-1.6c0-0.2,0-0.4-0.1-0.6l0,0
				C959.4,395.9,958.8,395.3,958.3,395.3z"/>
			<path class="st21" d="M961.3,396.9c0-0.9,0.5-1.6,1.1-1.6h-0.2c-0.8,0-1.5,1-1.5,2.2v1.5h0.6L961.3,396.9L961.3,396.9z"/>
			<path class="st22" d="M961.3,396.9v2h13.9v-1.6c0-0.5-0.2-1.2-0.6-1.6c-0.3-0.3-0.6-0.5-0.9-0.5h-11.3
				C961.8,395.3,961.3,396,961.3,396.9z"/>
			<g>
				<path class="st23" d="M918.5,361.7c0,0,0.5-7.5,7.9-7.5s4.6,0.9,13.1-1.2s9.4,2.1,17.1,1.2c7.8-0.9,11-6,19.7,0.9
					c8.8,6.9,4.3,18.9,2.8,20.1s-6,2.1-7.8-6.6c-1.5-2.4-6.1-0.6-8,5s-5,4.9-8.5-1.5c-3.2-4.4-5.8-1.2-10.3-3.5
					c-2.2-0.1-3.3,1.8-4.3,5.6s-2.9-2.1-2.9-2.1s-2.8-5.3-7.7-2.5s-4.9,8.1-5.9,8.9s-4.9,0.8-5.7-6.9
					C918.3,363.2,918.5,361.7,918.5,361.7z"/>
				<path class="st23" d="M922.7,378.1c-0.8,0-3.6,1.9-4.5-6.5c-0.1-12.1,0-16.4,8.2-17c2.1-0.2,3.4,0.1,4.4,0.1
					c0.6,0,1,0.1,1.5,0.1c1.4,0,2.6-0.2,7.3-1.4c1.6-0.4,3-0.6,4.3-0.6c2,0,3.4,0.4,5,0.9s3.3,1,5.7,1c0.7,0,1.4,0,2.2-0.1
					c2.3-0.3,4.3-0.9,6-1.5c1.8-0.6,3.6-1.2,5.4-1.2c2.5,0,5,1.3,8.1,3.5c2.6,1.8,5.6,5.7,5.6,11.2c0,4.2-1.1,9.8-4.5,9.8
					c-5.7,0-4.9-8.6-7.1-8.6c-2.1,0-5.7,0.9-7.1,5.1c-0.8,2.3-1.7,3.5-2.9,3.5c-1.4,0-3.1-1.7-4.9-5l0,0l0,0
					c-1.8-2.5-3.4-2.7-5.5-2.7h-0.4c-1.4,0-2.8-0.1-4.5-1h-0.1h-0.1c-0.1,0-0.2,0-0.2,0c-2.4,0-3.5,2.4-4.4,6
					c-0.1,0.6-0.3,0.9-0.5,0.9c-0.4,0-1.2-1.6-1.6-3v-0.1v-0.1c-0.1-0.1-1.9-3.5-5.3-3.5c-0.9,0-1.9,0.3-2.9,0.8
					c-3.6,2-4.6,5.4-5.3,7.4c-0.2,0.7-0.4,1.4-0.6,1.5C923.5,378,923.1,378.1,922.7,378.1z"/>
			</g>
			<path class="st1" d="M980.8,400.8c1.3-1,2.1-2.3,2.2-3.9c0.3-3.3-2.8-6.3-6.9-6.6c-3.1-0.2-5.8,1.1-7.1,3.2
				c-0.8-0.3-1.6-0.5-2.5-0.6c-2.6-0.2-4.9,0.7-6.4,2.2c-0.8-2.5-3.4-4.5-6.7-4.7c-1.5-0.1-2.8,0.1-4,0.6c-1.1-2-3.5-3.5-6.3-3.7
				c-2.5-0.2-4.8,0.7-6.3,2.1c-1.2-1.1-3-1.9-5-2.1c-3.5-0.3-6.6,1.5-7.6,4.1c-0.3-0.1-0.6-0.1-1-0.1c-4.1-0.3-7.6,1.4-7.7,3.8
				c0,0.1,0,0.2,0,0.4c-4.7,0.3-7.4,1-7.5,1.9c-0.2,2.3,17.3,5.6,39.1,7.2s39.5,1.2,39.7-1.1C987,402.8,984.7,401.8,980.8,400.8z"/>
		</g>
		<g>
			<circle class="st24" cx="151" cy="143" r="92"/>
		</g>
	</g>
	<g id="Snowman" class="st25">
		
			<ellipse transform="matrix(0.2344 -0.9721 0.9721 0.2344 -643.4786 897.639)" class="st26" cx="248.2" cy="857.4" rx="37" ry="86.9"/>
		<g class="st27">
			<path class="st28" d="M78.1,751.7c0.3-0.2,0.1-0.7,0.4-0.9c0.6,1.5,0.6,3,0,4.5c-0.2-0.1-0.1-0.5-0.4-0.7
				C78.1,753.7,78.1,752.7,78.1,751.7z"/>
			<path class="st29" d="M172.9,630.2c0.8,0,1.6,0,2.4,0c0.1,0.1,0,0.2-0.1,0.3c-0.7,0.3-1.5,0.3-2.2,0
				C172.8,630.4,172.8,630.3,172.9,630.2z"/>
			<path class="st30" d="M339,715.3c0,0.7,0,1.4,0,2.1c-0.1,0.1-0.2,0.1-0.3-0.1c-0.3-0.4-0.2-0.9-0.2-1.4c0-0.2,0-0.5,0.2-0.7
				C338.8,715.2,338.9,715.2,339,715.3z"/>
			<path class="st31" d="M172.9,630.2c0,0.1,0,0.1,0,0.2c-0.2,0.3-0.5,0.2-0.8,0.1c-0.1-0.1-0.1-0.2,0-0.3
				C172.3,630.2,172.6,630.2,172.9,630.2z"/>
			<path class="st32" d="M339,718.9L339,718.9h-0.2c-0.3-0.2-0.3-0.5-0.1-0.8c0.1-0.1,0.2-0.1,0.3-0.1
				C339,718.4,339,718.6,339,718.9z"/>
			<path class="st33" d="M175.9,630.2c0.3,0,0.6,0,0.9,0c0.1,0.1,0.1,0.2,0,0.3c-0.3,0.2-0.5,0.2-0.8,0
				C175.8,630.4,175.8,630.3,175.9,630.2z"/>
			<path class="st34" d="M176.7,630.4c0-0.1,0-0.1,0-0.2c0.3,0,0.6,0,0.9,0c0,0.1,0,0.1,0,0.2C177.3,630.7,177,630.7,176.7,630.4z"
				/>
			<path class="st35" d="M170.9,630.4c0-0.1,0-0.1,0-0.2c0.2,0,0.4,0,0.6,0c0.1,0.1,0.1,0.2,0,0.3
				C171.3,630.6,171.1,630.6,170.9,630.4z"/>
			<path class="st36" d="M175.9,630.2c0,0.1,0,0.1,0,0.2c-0.2,0.2-0.4,0.2-0.7,0c0-0.1,0-0.1,0-0.2
				C175.4,630.2,175.7,630.2,175.9,630.2z"/>
			<path class="st37" d="M338.8,714c0.1,0,0.1,0,0.2,0c0,0.2,0,0.4,0,0.6c-0.1,0.1-0.2,0.1-0.3,0C338.6,714.4,338.6,714.2,338.8,714
				z"/>
			<path class="st38" d="M338.8,714.6c0.1,0,0.1,0,0.2,0c0,0.2,0,0.4,0,0.6c-0.1,0-0.1,0-0.2,0C338.6,715.1,338.6,714.8,338.8,714.6
				z"/>
			<path class="st39" d="M339,718.1L339,718.1h-0.2c-0.2-0.2-0.2-0.4,0-0.6c0.1,0,0.1,0,0.2,0C339,717.6,339,717.9,339,718.1z"/>
			<path class="st40" d="M171.6,630.4c0-0.1,0-0.1,0-0.2c0.1,0,0.3,0,0.4,0c0,0.1,0,0.1,0,0.2C171.9,630.5,171.7,630.5,171.6,630.4z
				"/>
			<path class="st41" d="M272.3,739.9c0.2,0.5,0.8,0.7,1.2,1c2.8,2,5.5,4.2,8,6.5c1.1,1,2.2,1.9,3.1,3c0.1,0.1,0.3,0,0.4,0
				c1.2,1.5,2.6,2.9,3.8,4.4c0.2,0.3,0.5,0.5,0.6,0.9c0.2,0.8,0.8,1.4,1.3,2c1.7,2.2,3.2,4.5,4.6,6.9c2.7,4.6,4.9,9.5,6.4,14.7
				c0.9,3.1,1.7,6.2,2.1,9.4c0.3,2,0.5,4,0.7,6c0.2,2.5,0.2,4.9,0.1,7.4c0,1.4-0.2,2.8-0.3,4.2c-0.2,1.6-0.4,3.2-0.7,4.8
				c-0.9,5-2.4,9.9-4.3,14.6c-1.9,4.7-4.4,9.1-7.3,13.3c-1.3,1.9-2.7,3.7-4.2,5.4c-1.9,2.3-4,4.5-6.2,6.5c-1.6,1.6-3.4,3-5.2,4.4
				c-1.8,1.5-3.7,2.8-5.7,4.1c-3.4,2.2-6.9,4.2-10.5,5.9c-1.7,0.8-3.5,1.5-5.3,2.2c-0.9,0.4-2,0.2-3,0.1c-0.7-0.1-1.5-0.1-2.2-0.2
				c0.2-0.7,0.8-0.7,1.2-0.8c6.4-2.6,12.5-5.8,18.2-9.7c8.4-5.7,15.6-12.6,21.3-21c5.4-8,9-16.8,10.6-26.3c0.1-0.8,0.1-1.5,0.3-2.2
				c-1.4,2.7-3.2,5.3-5,7.9c-3.7,5.2-8,9.8-12.6,14.1c-3.9,3.6-8.1,6.8-12.6,9.6c-0.3,0.2-0.6,0.5-1.1,0.3c-0.3-0.2-0.4-0.6-0.5-0.9
				c-0.9-2.1-2.5-3.3-4.8-3.3s-3.7,1.3-4.7,3.3c-0.2,0.4-0.3,0.9-0.5,1.3c-0.7,1.3-0.6,2.6-0.3,3.9c0.1,0.4,0.3,0.9,0.2,1.3
				c-0.2,0.4-0.7,0.5-1.1,0.7c-7.2,3-14.7,4.8-22.5,5.6c-3.6,0.4-7.2,0.7-10.8,0.6c-10.1-0.3-20-1.6-29.7-4.5
				c-8.8-2.6-17-6.5-24.3-12.1c-11.6-8.9-19.1-20.4-22.3-34.7c-0.2-0.9-0.4-1.8-0.3-2.7c0-0.2-0.2,0-0.1-0.1c0,0,0.1,0,0,0.1
				c-0.2,2.3-0.6,4.7-0.8,7c-0.2,2.5-0.1,5-0.2,7.5c-0.1,3.1,0,6.3,0.4,9.4c0.1,0.5,0.1,1-0.3,1.4c-0.2-0.1-0.3-0.3-0.4-0.5
				c-1.2-3.6-2.2-7.2-2.9-10.9c-0.3-1.7-0.6-3.5-0.8-5.2c-0.1-1.2-0.4-2.4-0.3-3.6c0.1-1,0-1.9,0-2.9c0-3.1,0-6.2,0.4-9.2
				c0.3-0.3,0.7-0.3,1-0.2c1.5,0.2,3,0.1,4.5,0.3c0.5,0.1,1,0,1.4-0.2c1.5-0.9,3-1.9,4.4-3.1c2-1.6,2.8-3.6,2.5-6.1c0-0.3,0-0.6,0-1
				c-0.2-2.1-0.9-3.7-3.2-4.3c-1.8-0.5-3.5-1.4-5.3-2.1c-0.4-0.2-0.9-0.2-0.9-0.7c0.8-1,1.1-2.2,1.6-3.3c0.7-1.7,1.6-3.2,2.5-4.8
				c0.5-0.9,1-1.8,1.6-2.7c0.1-0.2,0.1-0.4,0.1-0.6c0.1,0,0.2,0,0.3,0.1c0.7,1.5,1.8,2.8,2.4,4.3c1.1,4.2,2.4,8.5,4.1,12.5
				c1.3,3.2,1.9,6.5,1.9,9.9c0,3.2-0.1,6.4,0,9.6c0.2,7.8,1,15.6,2.8,23.2c0.4,1.7,0.4,1.7,2.1,1.1c5-1.8,10-3.8,14.9-6
				c2.3-1,4.8-1.5,7.3-1.6c3.6-0.1,7.2,0.3,10.8,1.3c-0.8-1.5-1.7-2.8-2.4-4.2c-0.2-0.4-0.6-0.9-0.1-1.3c1.2-0.6,2.5-0.6,3.7-1
				c1.1-0.4,1.2-0.4,0.8-1.5c-1.2-3-2.8-5.8-4.4-8.5c-3.2-5.3-7.1-10.2-10.9-15.1c-3.9-5.1-7.7-10.3-11.1-15.7
				c-0.2-0.4-0.6-0.7-0.4-1.3c0.4-0.3,0.8-0.2,1.2-0.1c4.4,0.5,8.8,1,13.2,1.4c3.5,0.4,7,0.7,10.5,0.9c7.8,0.6,15.4-0.9,22.9-2.4
				c7.4-1.5,14.7-3.4,21.9-5.9c4.6-1.6,9.1-3.2,13.3-5.7c4.3-2.5,7.7-5.9,10.2-10.2c0.9-1.6,1.6-3.3,2.1-5
				C271.5,740.4,271.7,739.9,272.3,739.9z"/>
			<path class="st42" d="M147.8,823.3c0-1.7-0.2-3.3-0.4-5c0-0.3,0-0.6,0-1c0-2.6,0-5.2,0-7.8c0-2.3,0.2-4.5,0.4-6.8
				c0.2-1.9,0.5-3.7,0.7-5.6c0.4,0.7,0.4,1.4,0.5,2.1c0.7,3.9,1.9,7.7,3.4,11.3c1.1,2.8,2.6,5.5,4.1,8.1c1.4,2.3,2.9,4.4,4.5,6.4
				c1.6,1.9,3.2,3.8,5,5.5c3.7,3.4,7.7,6.4,12,9c5.1,3,10.4,5.3,16,7.1c3.7,1.2,7.5,2.1,11.4,2.9c2.4,0.5,4.9,0.9,7.3,1.2
				c1.8,0.2,3.5,0.3,5.3,0.5s3.7,0.1,5.5,0.3s3.6,0.2,5.4-0.1c0.4-0.1,0.9,0,1.3,0c1.7,0,3.5-0.2,5.2-0.4c1.9-0.2,3.7-0.5,5.6-0.7
				c1.2-0.1,2.3-0.4,3.5-0.7c5.1-1.1,10-2.6,14.8-4.7c0.2,0,0.3,0.1,0.4,0.2c1.1,1.4,2.4,2.3,4.3,2.4c2.1,0,3.4-0.9,4.4-2.6
				c0-0.1,0.1-0.2,0.1-0.3c0.1-0.1,0.1-0.3,0.2-0.4c0.8-1.3,1.3-2.8,1.1-4.4c0-0.2,0-0.4,0.2-0.5c1.4-0.7,2.8-1.6,4.1-2.5
				c1.9-1.4,3.8-2.7,5.6-4.2c1.2-1,2.5-2,3.6-3.1c2.2-2.1,4.3-4.2,6.4-6.4c2.1-2.3,4.1-4.8,6-7.4c2-2.8,3.9-5.6,5.5-8.6
				c0-0.1,0.1-0.1,0.2-0.2c0.2,0.9-0.1,1.8-0.2,2.7c-0.6,3.7-1.5,7.4-2.8,10.9c-1.6,4.5-3.6,8.7-6.1,12.8c-2,3.3-4.3,6.4-6.8,9.4
				c-2.1,2.5-4.4,4.9-6.9,7.1c-4.4,4-9.2,7.5-14.3,10.4c-2.3,1.4-4.7,2.7-7.1,3.9c-2.4,1.1-4.9,2.2-7.3,3.2
				c-0.1,0.1-0.2,0.1-0.4,0.2c-0.2,0-0.4,0-0.6,0c-0.3-0.2-0.6,0-0.9-0.2c-1.6-0.1-3.3-0.3-4.8-0.9c-0.3-0.1-0.7-0.3-0.9-0.5
				c-0.8-0.8-1.9-0.9-2.9-0.8c-1.8,0.3-3.6,0.6-5.4,0.9c-2.5,0.4-4.8,0.1-6.9-1.2c-1.8-1.1-3.8-1.8-5.8-2.2
				c-2.6-0.6-5.3-0.8-7.9-1.1c-3.1-0.4-6.2-0.8-9.2-1.7c-1.1-0.3-2.1-0.8-3.2-1.1c-2.2-0.5-4.3-0.7-6.5-0.5c-2.4,0.3-4.8,0.7-7,1.6
				c-0.3,0.1-0.6,0.1-0.9,0.1c-1.4,0-2.9,0-4.3,0c-0.9,0-1.8,0.1-2.6,0.5c-0.5,0.3-1,0.2-1.5-0.2c-3.1-1.9-5.9-4.1-8.7-6.4
				c-2.8-2.3-5.4-4.9-7.9-7.6c-3.1-3.4-5.8-7.1-8.2-11c-1.7-2.9-3.3-5.8-4.6-8.9c-0.3-0.8-0.7-1.6-1-2.5c-0.2-0.2,0-0.5-0.2-0.6
				C147.8,823.5,147.8,823.4,147.8,823.3z"/>
			<path class="st43" d="M78.5,755.4c-0.1-1.5-0.1-3,0-4.5c0.7-4.5,2.7-8.4,5.4-12c1-1.4,2.3-2.5,3.8-3.5c3.6-2.2,7.2-2.1,10.9-0.5
				c1.3,0.6,2.5,1.3,3.7,2.2c0-0.7,0-1.3,0.1-1.9c0.2-1.7,0.9-3.1,2-4.4c0.9-1.1,2-1.9,3.2-2.6c1.3-0.8,2.7-0.9,4.1-0.4
				c1,0.3,1.9,0.8,2.7,1.4c2.3,1.7,4.2,3.8,5.9,6.2c1.4,3,2.3,6.1,2.6,9.4c0.2,1.7,0,3.4-0.8,4.9c-1.1,2.3-3.1,3.2-5.5,3.3
				c-1,0-1.9,0-2.9,0c-1.5,0.1-2.7,0.6-3.5,1.9c-1.4,2.1-2.4,4.4-2.7,6.9c-0.1,1.1-0.6,1.8-1.6,2.4c-2,1.2-4.1,2-6.4,2.3
				c-3.9,0.4-6.6-1.6-9-4.3c-2.7-3.1-4.5-6.8-5.9-10.6c-0.1-0.3-0.1-0.8-0.5-0.9c-0.3,0-0.5,0.4-0.7,0.6c-1.9,2.4-3,5.1-3.2,8.1
				c0,0.4,0.1,0.8-0.3,1.1C79.2,758.9,78.8,757.2,78.5,755.4z"/>
			<path class="st44" d="M338.8,717.5c0,0.2,0,0.4,0,0.6c0,0.3,0,0.6,0,0.8c-0.2,2.9-1.1,5.6-2.4,8.2c-2.1,4.5-5.2,8.2-9.1,11.2
				c-2.3,1.7-4.8,2.8-7.6,3.6c-0.4,0.3-0.9,0.3-1.4,0.5c-1,0.1-1.9,0.1-2.9,0c-5.9-1.3-11.3-3.8-16.1-7.4c-2.3-1.7-4.2-3.8-5.7-6.3
				c-0.8-1.2-1.3-2.5-1.5-3.9c-0.9-3.1-1.2-6.2-1.1-9.4c0.1-2.2,0.5-4.4,1.1-6.5c0.6,0.1,0.4,0.6,0.5,0.9c0.1,1.5,0.2,3.1,0.5,4.6
				c0.3,2,0.7,3.9,1.7,5.7c1.7,3.2,4.2,4.2,7.6,2.8c0.3-0.1,0.6-0.2,0.9-0.4c2.9-1.7,5.5-0.9,7.8,1.3c1.4,1.4,2.9,2.8,3.8,4.6
				c0.2,0.4,0.6,0.7,1.1,0.8c2.5,0.5,4.9,0.6,7.3-0.2c3-1,4.7-3.3,5.8-6.2c1.2-3.2,1.7-6.6,1.6-10c0-1.2,0-2.4,0-3.6
				c0-0.7,0.4-1,1.1-0.7c3.3,1.6,6,3.8,7.1,7.4C338.8,716.4,338.8,716.9,338.8,717.5z"/>
			<path class="st44" d="M80,760.6c0-1.8,0.2-3.5,0.9-5.2c0.6-1.7,2-4.1,3.5-5.2c0.3,0.1,0.3,0.4,0.4,0.6c1,3.1,2.3,6,4.1,8.7
				c1.4,2.2,3,4.1,5.2,5.6c2,1.3,4.2,1.6,6.4,1.2c2.2-0.4,4.2-1.3,6-2.6c0.3-0.2,0.5-0.4,0.5-0.8c0.3-2.3,1-4.4,2.1-6.5
				c0.4-0.7,0.8-1.4,1.3-2c0.8-1.1,1.9-1.4,3.2-1.5c0.9,0,1.8,0,2.7,0c0.8,0,1.6-0.1,2.3-0.3c2.2-0.5,3.7-2.7,3.9-4.8
				c0.1-0.7,0.3-1.4,0.2-2.1c-0.2-1.2-0.3-2.3-0.5-3.5c-0.4-2.1-1.1-4.2-1.9-6.2c-0.1-0.2-0.1-0.3,0-0.5c3,3.7,4.9,8,5.8,12.7
				c0.1,0.4,0.2,0.8,0.2,1.3c0.1,0.1,0.1,0.3,0.1,0.5c0.2,2.1,0.3,4.1-0.2,6.2c-1,4.4-3.3,8.1-6.2,11.5c-2,2.3-4.1,4.5-6.4,6.4
				c-1.8,1.5-3.7,2.6-6.2,2.7c-0.8,0.1-1.6,0.2-2.3,0.2c-4.2,0.2-8.1-0.9-11.8-2.7c-5.2-2.6-9.4-6.2-12.2-11.3
				C80.6,762.1,80.2,761.4,80,760.6z"/>
			<path class="st45" d="M148.4,773.4c2.5,1.2,5,2.1,7.6,3.1c0.8,0.3,1.2,0.8,1.5,1.5c0.4,1.1,0.6,2.3,0.6,3.4
				c-0.1,1.8-0.9,3-2.5,3.7c-0.7,0.3-1.3,0.3-2,0c-1-0.5-2.1-1-3.1-1.6c-1.2-0.7-2.4-1.2-3.6-1.9c-0.4-0.2-0.7-0.4-1-0.8
				c-0.3-0.3-0.7-0.4-1-0.6c-4.3-2.3-8.5-4.6-12.8-6.8c-0.3-0.1-0.5-0.3-0.8-0.5c-0.2-0.5,0.3-0.7,0.5-1c0.9-1,1.8-2,2.5-3.1
				c0.2-0.3,0.4-0.7,0.8-0.7c4.2,1.7,8.4,3.4,12.6,5.1C148,773.3,148.2,773.3,148.4,773.4z"/>
			<path class="st42" d="M132,772.1c-0.1,0.3-0.5,0.5-0.6,0.8c-0.7,0.7-1.3,1.5-2.1,2.1c-2.1,1.9-4.2,3.9-6.6,5.4
				c-0.8,0.5-1.5,0.9-2.4,1.1c-1,0.2-2,0-2.9-0.2c-2.5-0.5-4.8-1.8-7-3c-1-0.5-2-1-2.8-1.8c0.3-0.2,0.6-0.2,0.9-0.3
				c2.1-0.6,4-1.5,5.6-3c3-2.7,5.8-5.5,8.1-8.8c2.1-3,3.6-6.2,4.2-9.9c0.2-1.6,0.2-3.2,0.1-4.8c0.1-0.1,0.1-0.1,0.2,0
				c0,0.3,0,0.7,0.1,1c0.5,1.2,0.3,2.6,0.2,3.8c-0.4,4.2-1.2,8.4-2.7,12.4c-0.4,1.1-0.9,2.2-1.6,3.1c-0.4,0.6-0.4,0.9,0.3,1.2
				c2.1,0.8,4.3,1.1,6.6,0.8C130.2,772,131.1,771.5,132,772.1z"/>
			<path class="st42" d="M293.8,728.6c0.7,1,1.4,2,2.2,2.9c1.6,1.8,3.4,3.3,5.3,4.6c3.9,2.5,8.1,4.4,12.6,5.7c0.4,0.1,0.9,0,1.3,0.3
				c1.1,0.3,2.1,0.3,3.2,0c0.4-0.2,0.9-0.2,1.3-0.2c-0.7,1.3-1.6,2.3-2.5,3.5s-2,2.3-3.1,3.4c-0.6,0.6-1.3,1.1-2,1.6
				c-1.4,1.1-3.1,1.2-4.8,0.9c-3.6-0.6-7.1-1.9-10.4-3.4c-0.3-0.1-0.5-0.2-0.8-0.2c-0.4,0-0.9-0.1-0.9-0.7c0.4-0.5,1-0.5,1.6-0.6
				c2.5-0.7,4.9-1.7,6.8-3.6c0.5-0.5,0.5-0.7-0.1-1.1c-2.6-1.5-4.3-3.9-6-6.3c-1.3-1.7-2.4-3.6-3.5-5.5
				C293.7,729.4,293.4,729,293.8,728.6z"/>
			<path class="st46" d="M150.6,783.3c0.9,0.5,1.9,0.9,2.7,1.4c1.2,0.7,2.2,0.4,3.1-0.3c0.7-0.5,1.2-1.3,1.4-2.2
				c0.1-0.2,0-0.5,0.2-0.7c0.1,1.5,0,2.9-0.7,4.3c-0.5,0.9-1.3,1.6-2.1,2.3c-1.4,1.2-2.9,2.2-4.5,3.1c-0.4,0.2-0.7,0.3-1.1,0.2
				c-0.5-0.2-1.1-0.2-1.6-0.1c-1.4,0.1-2.8-0.3-4.2-0.3c0-0.1,0-0.3,0-0.4c0.2-0.3,0-0.8,0.2-1.1c0-0.6,0.3-1.1,0.2-1.7
				c0.2-0.4,0.5-0.5,0.9-0.5c1.8-0.1,2.9-1,3.9-2.4C149.6,784.3,149.9,783.7,150.6,783.3z"/>
			<path class="st45" d="M295.3,747c0.2,0.3,0.7,0.2,0.9,0.6c-2.2,2.6-4.3,5.1-6.5,7.7c-0.1,0.1-0.1,0.2-0.2,0.4
				c-0.2,0-0.4-0.2-0.5-0.3c-1.2-1.5-2.4-2.9-3.7-4.2c-0.2-0.2-0.4-0.4-0.3-0.7c2-1.9,3.9-3.8,5.8-5.8c0.2-0.2,0.4-0.2,0.6-0.1
				C292.6,745.5,294.1,746,295.3,747z"/>
			<path class="st41" d="M150.6,783.3c-0.7,1.3-1.6,2.5-2.8,3.4c-0.7,0.6-1.5,0.7-2.4,0.8c-0.4,0-0.7,0-1,0.2
				c0.4-2.1,0.9-4.1,1.4-6.1c0.1-0.2,0.1-0.5,0.1-0.7C147.5,781.6,149,782.5,150.6,783.3z"/>
			<path class="st41" d="M144.1,789.5c0,0.4,0.1,0.8-0.2,1.1C144,790.2,143.8,789.8,144.1,789.5z"/>
			<path class="st41" d="M248.3,867.5c0.3,0,0.6-0.1,0.9,0.2C248.9,867.7,248.6,867.8,248.3,867.5z"/>
			<path class="st41" d="M147.8,823.5c0.2,0.2,0.2,0.4,0.2,0.6C147.8,824,147.8,823.8,147.8,823.5z"/>
			<path class="st47" d="M272.3,739.9c-0.3,0.2-0.5,0.5-0.6,0.9c-3.2,5.4-7.2,9.9-13,12.7c-6.4,3-13,5.4-19.8,7.3
				c-5.8,1.6-11.6,2.8-17.5,3.6c-4.1,0.6-8.3,1.1-12.4,1.2c-0.8,0-1.5,0.3-2.2,0.2c-2.7,0-5.3,0-8,0c-3.4-0.3-6.8-0.4-10.2-0.8
				c-5.5-0.7-10.9-1.7-16.2-3.5c-0.6-0.2-0.9-0.7-1.1-1.2c-0.8-1.6-1.5-3.2-1.8-4.9c-0.8-3.7-1.9-7.2-3.4-10.7
				c-0.1-0.2-0.2-0.4-0.2-0.6c-0.1-0.2-0.1-0.5-0.1-0.7c-0.1-0.3-0.2-0.6-0.4-0.8c-0.1-0.1-0.1-0.3-0.2-0.4c0-0.1-0.1-0.2-0.1-0.2
				c0-0.1,0-0.2-0.1-0.3c-0.3-0.4-0.6-0.8-0.8-1.2c-0.7-1.2-0.4-2.2,0.9-2.8c0.4-0.2,0.9-0.3,1.4-0.5c0.3-0.1,0.6-0.1,0.9-0.3
				c-0.6-1.2-1.3-2.4-1.8-3.7c-0.1-0.9,0.5-0.6,0.8-0.3c0.6,0.4,1.2,1,1.7,1.6c2,2.8,4.8,4.4,7.9,5.6c5.9,2.3,12.1,3.6,18.3,4.6
				c4.2,0.6,8.3,1.1,12.5,1.3c3.5,0.2,6.9,0.5,10.4,0.4c8.6-0.2,17.2-1.1,25.4-3.8c6.2-2.1,12.1-4.9,17.4-8.8c1-0.7,1.9-1.5,2.8-2.2
				c0.4-0.3,0.7-0.8,1.3-0.7c0.7,0.2,1.5,0.5,2.2,0.9c1.1,0.7,1.9,1.7,2.1,3.1c0.1,1.1,0.4,1.3,1.5,1.2c0.7,0,1.3-0.2,2-0.4
				c0.5-0.1,1-0.3,1.6-0.3c0.8,0,1.1,0.4,0.8,1.2c-0.2,0.6-0.5,1.2-0.8,1.7C273.1,738.5,272.7,739.2,272.3,739.9z"/>
			<path class="st43" d="M171.6,630.4c0.1,0,0.3,0,0.4,0c0.3,0,0.6,0,0.8,0c0.8,0,1.6,0,2.4,0c0.2,0,0.4,0,0.7,0s0.6,0,0.8,0
				c0.3,0,0.6,0,0.9,0c4.5,0.4,8.9,1.4,13.2,2.5c5.4,1.3,10.7,2.9,16.2,4.1c3.5,0.8,7.1,1.4,10.7,1.7c4.1,0.4,8.1,1.5,12,2.8
				c7.8,2.7,15.2,6.2,22.5,10.1c2.5,1.3,5,2.7,7.5,4.2c0.1,0.1,0,0.2-0.1,0.3c-0.5,0.1-0.9-0.1-1.3-0.2c-5.7-2-11.5-3.1-17.5-3.4
				c-0.4,0-0.8,0-1-0.5c0.1-0.1,0.2-0.1,0.3-0.2c0.2-0.1,0-0.1,0-0.1c-2.7-0.4-5.3-1.2-8-1.7c-3.5-0.7-7.1-1.4-10.7-1.7
				c-3.5-0.3-6.9,0.1-10.3,0.7c-5.4,1-10.7,2.4-15.9,3.8c-2.7,0.7-5.5,1.1-8.2,1.7c-2.8,0.5-5.6,1.1-8.4,1.6c-0.3,0-0.6,0.1-0.8,0.1
				c-0.3,0-0.6,0.1-0.8-0.2s0.1-0.6,0.3-0.8c2.2-2.1,4.2-4.3,6.6-6c0,0,0.1,0,0.1-0.1c0.1-0.1,0.2-0.1,0.2-0.2c0-0.1,0-0.1,0,0
				s-0.1,0.1-0.1,0.1c-2.2,1.2-4.5,2.1-6.7,3c-3.5,1.6-7.1,3-10.6,4.6c-0.5,0.2-1.2,0.8-1.7,0.4c-0.5-0.4,0.2-1,0.4-1.5
				c0.7-1.7,1.5-3.4,2.2-5.2c-3.2,1.3-6.1,2.9-8.9,4.7c-2.6,1.6-5,3.5-7.3,5.5c-0.8,0.7-1.7,1.4-2.7,1.8c-1.9,0.8-3.1,0-3.2-2
				c0-0.2,0-0.4,0-0.7c-1.7,2.2-3.3,4.4-4.8,6.5c-2.4,3.3-4.7,6.5-7.2,9.7c-1.6,2.1-2.2,4.6-3.2,7c-0.9,2.1-1.7,4.2-2.4,6.3
				c-0.1,0.2-0.2,0.5-0.4,0.6c-0.6,0.1-1.1,0.1-1-0.7c0.4-3.9,0.7-7.8,1.3-11.7c0.4-2.8,0.9-5.5,1.6-8.2c0.6-2.2,1.5-4.2,2.6-6.2
				c2.5-4.3,5.5-8.1,8.8-11.8c5-5.6,10.5-10.6,16.7-14.9c2.4-1.7,4.9-3.2,7.6-4.3c1.9-0.8,3.9-1.4,6-1.6
				C171.2,630.4,171.4,630.4,171.6,630.4z"/>
			<path class="st48" d="M166,743.8c0.8,2.1,1.6,4.2,2.3,6.3c0.4,1.5,0.9,3,1.2,4.5c0.4,2.1,1.2,4.1,2.2,6c0.1,0.2,0.3,0.4,0.5,0.5
				c1,1.8,2,3.6,3.1,5.3c0.3,0.5,0.7,1,0.8,1.6c1.5,2.5,3.2,4.9,4.8,7.3c4.1,6,8.7,11.7,13,17.5c2.9,4,5.6,8.1,7.8,12.5
				c0.6,1.2,1.2,2.5,1.6,3.8c0.2,0.5,0.1,0.7-0.4,0.8c-1.4,0.4-2.9,0.7-4.4,1.1c-1.5,0.8-3.3,0.8-4.9,0.9c-3.7,0.2-7.3-0.2-10.8-1.8
				c-2.6-1.2-5.3-1-7.9-0.2c-3.2,1-6,2.7-8.7,4.8c-0.3,0.3-0.7,0.8-1.2,0.5c-0.4-0.3-0.3-0.8-0.2-1.3c0.3-2.5,0.4-5,0.5-7.5
				c0.2-5.6,0.6-11.2,0.4-16.8c-0.1-4.2-0.4-8.4-2.1-12.4c-1.3-3-3.3-5.6-5.3-8.2c-0.7-0.9-1.5-1.8-1.9-3c-0.8-1.4-1.7-2.8-2.4-4.3
				c-0.7-2-1-4.1-0.9-6.2c0.1-1.6,0.5-3.1,0.9-4.6c0.3-1.1,0.7-2.3,1-3.4c1-3.6,3.7-5.7,7.7-6.2c0.6-0.1,1.3-0.1,1.9-0.1
				c0.1,0.1,0.2,0.2,0.2,0.3l0,0c0.2,0.2,0,0.5,0.2,0.6c0.1,0.2,0.2,0.4,0.3,0.6C165.8,743.3,165.9,743.6,166,743.8z"/>
			<path class="st42" d="M260.3,733.5c-1.6,1.4-3.4,2.4-5.2,3.4c-6.8,3.9-14.1,6.5-21.9,8c-2.9,0.5-5.9,0.9-8.9,1.1
				c-3.2,0.2-6.3,0.4-9.5,0.3c-3.6-0.1-7.1-0.2-10.7-0.5c-3.8-0.3-7.6-0.7-11.3-1.4c-5.9-1-11.7-2.2-17.2-4.5
				c-1.2-0.5-2.3-1-3.4-1.6c-1.6-0.9-2.9-2-4-3.5c-0.6-0.8-1.3-1.6-2.1-2.3c-0.4-0.3-0.5,0-0.5,0.3c-0.2-0.5-0.6-0.9-1-1.4
				c-2.5-2.6-4.5-5.5-6.3-8.6c-1.5-2.6-2.7-5.4-3.7-8.2c0-0.1-0.1-0.3-0.1-0.4c0.2-2.4,0.9-4.6,1.8-6.8c1.8-4.2,4.3-7.9,7.4-11.3
				c6.3-6.9,13.9-12.1,22.1-16.4c7.3-3.8,14.8-6.9,22.7-9.2c5.2-1.5,10.6-2.4,16-2.9c5.2-0.5,10.4-0.7,15.6-0.6
				c0.3,0.1,0.6,0.1,0.6,0.5c-0.1,0.2-0.3,0.2-0.6,0.3c-5.5,0.5-10.8,2.2-16.1,3.5c-7,1.7-14,3.8-20.9,6.1c-7.7,2.6-15,6-21.7,10.5
				c-3.5,2.4-7.1,4.7-10.3,7.5c-1.1,1-2.2,2.1-3.2,3.2c-0.6,0.7-1,1.5-0.9,2.4c0.2,3,0.6,6,1.5,8.9c1.6,4.9,4.1,9.3,7.7,13.1
				c5,5.3,11.3,8.5,18,11c7.3,2.6,14.8,4.4,22.5,5.4c4.7,0.6,9.5,0.9,14.2,0.7c8.4-0.3,16.7-1.7,24.6-4.8c1.2-0.5,2.4-1,3.5-1.6
				C259.4,733.4,259.8,733.2,260.3,733.5z"/>
			<path class="st44" d="M184,649.1c-0.3,0.4-0.6,0.8-1,1.1c-0.2,0.1-0.4,0.2-0.5,0.4c-1.5,1.7-3.4,3.1-4.9,4.7
				c-0.2,0.2-0.5,0.4-0.7,0.9c1.4-0.2,2.7-0.5,4-0.7c3.2-0.6,6.3-1.3,9.5-1.9c3.1-0.6,6.1-1.4,9.1-2.2s6.1-1.5,9.2-2.1
				c1.8-0.4,3.6-0.7,5.4-1c1-0.1,2-0.2,3-0.3c3.3-0.1,6.6,0.3,9.9,0.8c4.3,0.7,8.5,1.7,12.7,2.6c0.3,0.1,0.6,0.2,1.1,0.3
				c-0.5,0.1-0.8,0.1-1.1,0.1c-0.6,0.4-1.3,0.3-2,0.3c-3,0-6.1,0-9.1,0c-5.7,0.2-11.4,0.8-17,1.7c-9.9,1.5-19.6,3.8-29.1,6.9
				c-6.8,2.2-13.1,5.2-19,9.3c-2.5,1.7-4.8,3.5-7.1,5.5c-3.4,2.9-6.5,6.1-9.2,9.7c-0.5,0.7-1.3,0.3-1.8,0.6
				c-4.9,0.7-9.2,2.5-12.6,6.2c-0.3,0.1-0.5,0-0.7-0.1c-1.3-0.7-2.7-1.4-4.2-1.7c-0.2,0-0.4-0.1-0.5-0.3c0-0.6,0.3-1.1,0.5-1.6
				c1.3-3.4,2.6-6.8,3.9-10.2c0.4-0.9,1-1.6,1.6-2.4c2.5-3.4,5-6.8,7.5-10.2c1.5-2,3-4,4.6-6.2c0.2,0.5,0.1,0.8,0.1,1.2
				c0,0.5,0.1,0.9,0.3,1.3c0.4,0.7,0.9,1,1.8,0.8c1.3-0.3,2.3-1.1,3.3-2c3.2-2.8,6.6-5.2,10.2-7.3c1.9-1.1,3.9-2.1,5.9-3
				c0.2-0.1,0.4-0.1,0.8-0.2c-1.1,2.4-2.1,4.7-3.2,7.2c1.4-0.4,2.6-1.1,3.8-1.6c2.8-1.2,5.6-2.4,8.4-3.6c1.9-0.8,3.7-1.6,5.6-2.4
				C183,649.4,183.5,649.2,184,649.1L184,649.1z"/>
			<path class="st42" d="M145.4,685.7c1-0.1,1.6-0.8,2.2-1.5c4.4-5.6,9.6-10.2,15.4-14.3c0.1,0,0.1,0,0.2-0.1
				c0.6,0.3,0.5,0.8,0.5,1.3c0,1.4,0,2.7,0,4.1c0,1.1,0.1,1.2,1.1,0.7c2.8-1.4,5.5-2.9,8.2-4.4c0.6-0.3,1.2-0.7,1.8-0.9
				c0.3-0.1,0.7-0.4,1-0.1c0.2,0.3-0.1,0.6-0.3,0.8c-0.2,0.3-0.5,0.6-0.7,0.9c-0.2,0.3-0.5,0.6-0.7,1c-0.3,0.6-0.7,1.2-0.2,1.8
				c0.4,0.6,1.1,0.5,1.8,0.3c1.6-0.4,3.2-1.1,4.7-1.8c4.2-2,8.4-4.2,12.5-6.4c4.2-2.2,8.7-3.5,13.4-4.3c5.2-0.9,10.5-1.4,15.7-1.8
				c6.4-0.5,12.8-0.5,19.2-0.3c3.8,0.1,7.6,0.4,11.4,1.2c5.3,1.1,10.6,1.4,16,1c0.4,0,1-0.2,0.9,0.6c-0.4,1.1-1.2,1.8-2.2,2.4
				c-0.9,0.5-1.8,0.9-2.7,1.3c-1.2,0.5-2.4,0.5-3.6,0.1c-0.3-0.1-0.6-0.2-0.9,0.1c-1.8,0-3.6-0.5-5.4-0.6c-2.8-0.3-5.6-0.6-8.4-0.7
				c-5.3-0.5-10.6-0.4-15.9-0.2c-8.9,0.4-17.8,1.7-26.3,4.4c-7.3,2.3-14,5.7-20.7,9.2c-4.9,2.6-9.7,5.5-14.3,8.6
				c-5,3.3-9.7,7-14.2,10.9c-1.2,1.1-2.1,2.2-1.8,3.9c0.1,0.4,0.1,0.8-0.3,1.1c-0.3-0.5-0.1-1.1-0.2-1.6c0-0.5,0-1.1,0-1.6
				c-3.1-1.4-5.6-3.7-7.7-6.4c-0.6-0.7-1.3-1.4-1.5-2.4c0.7-2.1,1.9-3.9,3.1-5.8c0.1-0.1,0.2-0.2,0.2-0.4
				C146,685.7,145.7,685.7,145.4,685.7z"/>
			<path class="st49" d="M152.5,704c0-0.8,0-1.6,0-2.5c0-0.6,0.2-1.1,0.6-1.5c1.8-1.8,3.7-3.4,5.6-4.9c3.8-3.1,7.8-5.9,12-8.6
				c3.2-2,6.4-4,9.7-5.8c3.5-2,7.2-3.8,10.8-5.6c3.6-1.7,7.2-3.3,11-4.6c4.3-1.4,8.7-2.5,13.1-3.2c2.6-0.4,5.2-0.8,7.8-1.1
				c1.7-0.2,3.4-0.3,5.1-0.4c5.1-0.4,10.3-0.1,15.4-0.2c0.8,0,1.5,0.3,2.2,0.2c-0.1,0.6-0.6,0.5-1,0.6c-1.7,0.4-3.3,0.8-5,0.9
				c-0.9,0-1.8,0-2.7,0c-2.9-0.1-5.8,0.1-8.7,0.3c-2.6,0.1-5.2,0.4-7.8,0.7c-3.8,0.5-7.6,1.2-11.4,2.2c-3,0.8-6,1.9-8.9,2.9
				c-4.1,1.5-8.1,3.3-12.1,5.2c-3,1.5-5.9,3.1-8.7,4.8s-5.4,3.6-8,5.5c-1.2,0.9-2.4,1.9-3.5,3c-0.6,0.6-1.2,1.1-1.8,1.6
				c-2.9,2.9-5.6,6-7.7,9.7c-1.8,3.1-3.3,6.3-3.8,9.9c-0.1,0.4-0.1,0.8-0.4,1.1C153.4,710.9,152.7,707.5,152.5,704z"/>
			<path class="st42" d="M127.4,689.7c2,0.3,3.7,1.1,5.4,2.2c0.8,0.8,1.8,1.5,2.4,2.5c1,1.6,1.8,3.2,2.1,5.1c0.4,2.4,0,4.7-1,6.9
				s-2.6,3.9-4.7,5.1c-1.8,1-3.7,1.6-5.7,1.6c-2.6,0-5.1-0.7-7.3-2.4c-1.8-1.4-3.1-3.2-3.9-5.3c-0.4-1-0.6-2-0.6-3.1
				c0-1.7,0-3.4,0.6-5c1.8-4.2,4.9-6.8,9.5-7.5c0.7-0.1,1.5,0.1,2.1-0.6C126.4,689.9,127,689.7,127.4,689.7z"/>
			<path class="st41" d="M132,772.1c-0.9-0.1-1.8,0.2-2.6,0.3c-2.7,0.3-5.3-0.2-7.7-1.3c0-0.5,0.3-0.6,0.5-0.9
				c1.4-2,2.1-4.2,2.8-6.5c0.8-2.8,1.3-5.8,1.7-8.7c0.2-1.4,0.1-2.8,0.1-4.2c3,1.1,5.7,2.7,8.2,4.7c1.7,1.4,2.8,3.2,3.1,5.4
				c0.1,0.6-0.2,1.2-0.3,1.8c-0.3,1.6-1.1,2.9-1.9,4.3c-0.2,0.3-0.4,0.7-0.6,1C134.1,769.5,133.2,770.9,132,772.1z"/>
			<path class="st41" d="M143.1,691.9c0.9,1.4,1.9,2.8,3,4c1.5,1.6,3.3,3.1,5.2,4.2c0.3,0.2,0.8,0.2,0.9,0.7c-0.3,0.2-0.6,0.4-1,0.4
				c-2.3-0.2-4.5-0.3-6.5-1.7c-1.3-0.9-1.9-2.1-2.2-3.6C142.4,694.5,142.6,693.2,143.1,691.9z"/>
			<path class="st50" d="M165.2,741.9c-0.1-0.1-0.2-0.2-0.2-0.3v-0.1C165.1,741.5,165.2,741.7,165.2,741.9z"/>
			<path class="st41" d="M126.6,749.8L126.6,749.8c-0.1,0-0.2,0-0.2,0c0-0.1,0-0.3,0-0.4C126.5,749.5,126.6,749.6,126.6,749.8z"/>
			<path class="st41" d="M260.3,733.5c-0.4,0-0.8,0.2-1.1,0.4c-4.9,2.4-10.1,3.9-15.4,5c-2.1,0.4-4.3,0.8-6.4,1
				c-1.3,0.1-2.6,0.2-3.9,0.3c-2.8,0.2-5.6,0.2-8.3,0.1c-1.6-0.1-3.2-0.1-4.8-0.3c-0.9-0.1-1.8-0.1-2.7-0.2
				c-3.1-0.3-6.1-0.9-9.1-1.4c-4.9-0.9-9.6-2.3-14.3-4c-4.4-1.6-8.7-3.4-12.5-6.1c-4.9-3.4-8.8-7.7-11.4-13
				c-1.6-3.1-2.6-6.4-3.2-9.8c-0.2-0.9-0.4-1.9-0.3-2.9c0-0.3,0-0.6-0.1-1c-0.3-1.2,0-2.3,0.9-3.2c2.3-2.4,4.8-4.5,7.5-6.5
				c4.2-3,8.6-5.8,13-8.4c2.5-1.5,5.1-2.6,7.8-3.7c3.7-1.5,7.5-2.8,11.3-4s7.6-2.3,11.5-3.4c3.9-1,7.8-2.1,11.8-3
				c2.5-0.6,4.9-1.1,7.4-1.7c0.9-0.2,1.8-0.1,2.8-0.2c1-0.6,2-0.3,3-0.3c5.3,0.4,10.6,0.8,15.9,1.7c0.8,0.1,1.7,0.2,2.5,0.6
				c2.4,2.4,4.5,5.1,6.3,7.9c2.8,4.2,4.8,8.8,5.9,13.7c0.6,2.6,1.1,5.3,1.1,8c0,0.6,0.3,1.2,0.2,1.9c-0.2,4-0.6,8-1.8,11.9
				c-0.7,2.5-1.7,5-2.9,7.4c-1.3,2.7-2.9,5.2-4.7,7.5c-0.6,0.8-1.1,1.6-1.9,2.3c-0.1,0.1-0.2,0.3-0.2,0.5c-0.9,0.7-1.8,1.5-2.8,2.2
				C261.1,733,260.7,733.2,260.3,733.5z"/>
			<path class="st43" d="M338.8,715.9c-0.4-0.4-0.5-1-0.8-1.5c-1.6-2.7-3.9-4.6-6.8-5.8c-0.1,0-0.1,0-0.2,0
				c-0.2,0.2-0.1,0.5-0.1,0.8c0,1.6,0,3.2,0,4.8c-0.1,3.7-0.8,7.3-2.5,10.6c-1.4,2.6-3.5,4.2-6.4,4.8c-2.2,0.4-4.4,0.2-6.6-0.2
				c-0.4-0.1-0.5-0.3-0.7-0.6c-1.2-2.4-3.1-4.1-5.2-5.8c-1.8-1.4-3.7-1.4-5.7-0.5c-0.7,0.3-1.5,0.6-2.3,0.9c-2.7,1-5-0.1-6.5-2.3
				c-1.2-1.7-1.7-3.6-2.1-5.5c-0.4-2-0.6-4.1-0.7-6.1c0-0.2,0-0.5-0.2-0.7c0.6-2.9,1.6-5.7,3.2-8.2c0.6-1,1.3-1.9,2.3-2.5
				c1.1-0.8,2.3-1.1,3.6-0.9c1.1,0.2,2.1,0.4,3.1,0.8c2.5,1,4.2,2.7,5,5.4c0.3-0.1,0.4-0.5,0.6-0.7c0.8-1.3,1.8-2.4,2.9-3.4
				c3.6-3.2,7.6-4,12.1-2.3c0.6,0.2,1.1,0.5,1.7,0.8c3.5,1.8,6.4,4.3,8.8,7.4c2,2.6,3.2,5.6,3.5,8.9c0,0.2,0,0.4,0,0.6
				c0,0.2,0,0.4,0,0.6C338.8,715.5,338.8,715.7,338.8,715.9z"/>
			<path class="st41" d="M269.3,663.6c0-0.4-0.3-0.4-0.6-0.4c-2.6,0.4-5.3,0.3-7.9,0.1c-3.3-0.2-6.6-0.6-9.9-1.4
				c-1.4-0.3-3-0.3-4.4-0.6c-1.5-0.2-3.1,0.1-4.6-0.4c-0.3-0.1-0.6,0-0.9,0c-3.6,0-7.3,0-10.9,0c-2.2,0-4.5,0.2-6.7,0.3
				c-1.9,0-3.8,0.2-5.7,0.4c-2.8,0.3-5.6,0.6-8.3,1s-5.5,0.9-8.2,1.5c-2.2,0.6-4.4,1.3-6.4,2.3c-2,1.1-4.1,2-6.1,3.1
				c-2.8,1.6-5.8,3-8.7,4.4c-1.4,0.7-2.8,1.3-4.3,1.6h-0.1c-0.7,0.1-1.5,0.3-2.1-0.4c-0.5-0.7-0.1-1.4,0.2-2
				c0.4-0.9,1.1-1.5,1.7-2.3c0.1-0.1,0.3-0.2,0.3-0.6c-4.1,2.2-8.1,4.3-12,6.4c-0.3-0.3-0.2-0.6-0.2-0.8c0-1.6,0-3.3,0-4.9
				c0-0.4,0-0.9-0.2-1.2c4.6-3.3,9.5-5.9,14.7-7.9c7.7-2.9,15.7-5,23.7-6.7c4.4-0.9,8.9-1.7,13.4-2.3c4.2-0.6,8.4-0.9,12.7-1.1
				c0.2,0,0.4,0,0.6,0c3.1,0.1,6.3,0.1,9.4,0c0.6,0,1.3,0,1.9,0c1.1,0.3,2.3,0.2,3.4,0.3c5.4,0.5,10.7,1.6,15.8,3.5
				c0.3,0.1,0.5,0.3,0.8,0.2c0.1,0,0.3,0.1,0.4,0.2c0.1,0.1,0.3,0.2,0.4,0.2s0.1,0,0.2,0.1l0,0c0.1,0.1,0.1,0.1,0.2,0
				c1.2,0.8,2.6,1.3,3.9,1.9c1.5,0.8,2.8,1.7,3.9,2.9C269.4,661.9,269.6,662.7,269.3,663.6z"/>
			<path class="st41" d="M295.3,747c-1.3-0.5-2.4-1.2-3.6-1.9c-0.3-0.2-0.5-0.5-0.9-0.4c-0.1-0.3-0.4-0.5-0.7-0.7
				c-1.3-0.8-2.3-1.9-3.3-3c-1.6-1.8-1.7-3.9-1.1-6c0.6-2.2,1.7-4,3.1-5.8c0.9-1.2,1.8-2.4,2.9-3.4c0.3-0.3,0.3-0.7,0.3-1.1
				c0.5,1.3,1.1,2.6,1.7,3.8c0,1,0.7,1.8,1.2,2.6c1.3,2.2,2.7,4.3,4.3,6.2c1.5,1.8,3.1,3.6,5.4,4.6c-1,1.2-2,2.2-3.3,2.9
				C299.5,745.9,297.4,746.5,295.3,747z"/>
			<path class="st46" d="M262,669.4c-0.5,0.3-1,0-1.4-0.1c-2.3-0.3-4.6-0.7-6.9-1c-1.9-0.2-3.8-0.4-5.7-0.5
				c-2.4-0.2-4.9-0.4-7.3-0.4c-0.2-0.2-0.4-0.2-0.7-0.2c1.1-0.5,2.3-0.5,3.5-0.9c0.8-0.3,1.7-0.2,2.5-0.6c1.7,0.1,3.3,0.2,5,0.4
				c1.5,0.2,3,0.3,4.5,0.5c1.5,0.2,3,0.2,4.5,0.8C260.6,668.1,261.3,668.8,262,669.4z"/>
			<path class="st51" d="M260.1,656.1c-0.2,0-0.3,0-0.4-0.2c0-0.1,0-0.1,0-0.2c0.1,0.1,0.3,0.1,0.4,0.2S260.2,656,260.1,656.1
				C260.2,656.1,260.1,656.1,260.1,656.1z"/>
			<path class="st52" d="M260.1,656.1c0-0.1,0-0.1,0-0.2c0.1,0.1,0.3,0.1,0.4,0.2c0.1,0,0.1,0.1,0.1,0.1s0,0.1-0.1,0.1
				C260.4,656.3,260.2,656.3,260.1,656.1z"/>
			<path class="st53" d="M260.5,656.3c0-0.1,0-0.1,0-0.2c0.1,0,0.2,0.1,0.2,0.2C260.7,656.3,260.6,656.3,260.5,656.3z"/>
			<path class="st53" d="M261,656.3c-0.1,0.2-0.1,0.2-0.2,0C260.8,656.3,260.9,656.3,261,656.3z"/>
			<path class="st42" d="M176.1,768c-1.4-2.1-2.7-4.3-3.9-6.5c-0.1-0.2-0.2-0.3,0-0.5c4.4,1.5,8.9,2.5,13.5,3.1
				c3.9,0.6,7.8,1,11.7,1.1c0.4,0,0.8,0.1,1.2,0.2c1.1,0.3,2.3,0.1,3.4,0.1c1.7,0,3.3,0.2,5-0.1s3.5-0.2,5.2-0.4
				c2.6-0.3,5.2-0.5,7.7-0.9c3.5-0.5,7-1.1,10.4-1.8c7.6-1.6,15.1-3.7,22.4-6.6c3-1.2,6-2.6,8.8-4.3c2.4-1.5,4.6-3.3,6.2-5.6
				c1.2-1.7,2.6-3.4,3.9-5.1c-0.5,2.3-1.5,4.4-2.7,6.3c-2.5,3.9-5.8,7-9.8,9.3c-2.8,1.7-5.9,2.9-8.9,4.1c-2.1,0.8-4.2,1.6-6.3,2.2
				c-5.4,1.7-10.9,3.2-16.5,4.4c-2.1,0.5-4.2,1-6.4,1.4c-2,0.4-3.9,0.7-5.9,1s-3.9,0.4-5.9,0.8c-0.1,0-0.1,0-0.2,0
				c-1.9-0.1-3.8,0.4-5.7,0.2c-1.3-0.2-2.7-0.1-4-0.4c-0.9-0.2-1.8-0.1-2.8-0.2c-1.2-0.1-2.3-0.2-3.5-0.3c-1-0.1-2-0.1-3.1-0.3
				c-0.9-0.2-1.8-0.2-2.6-0.3c-2.4-0.3-4.7-0.4-7.1-0.7C178.9,768.3,177.5,768,176.1,768z"/>
			<path class="st42" d="M156.6,766.3c2.2,2.8,4.5,5.6,6.3,8.7c1.7,2.9,2.5,6,2.9,9.2c0.4,3.8,0.4,7.6,0.4,11.3
				c-0.1,3.7-0.2,7.5-0.4,11.2c-0.2,2.5-0.2,5.1-0.5,7.6c0,0.2,0,0.5,0,0.8c0.3,0.1,0.4-0.2,0.6-0.3c2.7-2.2,5.6-4.1,9-5.1
				c3.1-1,6.1-1,9,0.5c2.1,1,4.4,1.4,6.7,1.5c2.7,0.2,5.4-0.2,8.1-0.6c-0.4,0.3-0.3,0.6-0.1,0.9c1,1.6,2,3.3,3,5.1
				c-1.8-0.6-3.5-0.9-5.2-1.1c-1.1-0.2-2.2-0.4-3.3-0.4c-1.8,0-3.6-0.1-5.4,0.2c-1.6,0.3-3.1,0.6-4.6,1.3c-4.6,2-9.2,3.9-14,5.6
				c-0.8,0.3-1.7,0.6-2.5,0.9c-0.4,0.2-0.6,0.2-0.8-0.4c-0.6-2.3-1.1-4.6-1.5-7c-0.3-1.7-0.6-3.4-0.8-5.1c-0.2-1.7-0.3-3.3-0.5-5
				c-0.3-2.1,0.1-4.1-0.4-6.2c-0.1-0.3,0-0.6,0-0.9c0-3.6,0-7.2,0-10.8c0-3.2-0.6-6.3-1.9-9.2c-1.5-3.6-2.7-7.3-3.7-11.1
				C156.9,767.4,156.5,766.9,156.6,766.3z"/>
			<path class="st43" d="M270.2,839.4c0.3,1.9-0.1,3.5-1.1,5.1c0,0.1-0.1,0.2-0.2,0.3l0,0c-1.1,2-4.7,2.9-7.3,0.9
				c-0.5-0.4-0.9-0.8-1.3-1.3c-1-1.5-1.5-3-0.9-4.8c0.1-0.4,0.3-0.8,0.4-1.2c0.9-2.1,2.9-3.5,5-3.5c2.2,0,4.2,1.5,5,3.6
				C270,838.8,270.1,839.1,270.2,839.4z"/>
			<path class="st43" d="M252,768c-0.1-1,0-1.9,0.4-2.8c0.7-2.1,2.6-3.7,5.2-3.7c2.4,0,4.5,1.8,5.1,4.1c0.2,0.9,0.2,1.8,0.2,2.6
				c-0.4,2.5-1.9,4.4-4,4.9c-2.2,0.5-4.5-0.4-5.9-2.2C252.3,770,252.1,769,252,768z"/>
			<path class="st43" d="M263.8,816c0.1-0.7,0.2-1.5,0.4-2.2c1-2.8,3.5-4,5.6-3.7c2.7,0.3,4.7,2.5,4.9,5.2c0.1,1.1-0.1,2-0.5,3
				c-1,2.5-3.4,4-6,3.4C265.6,821.3,263.4,818.7,263.8,816z"/>
			<path class="st43" d="M263.7,790.5c0.1-0.6,0.3-1.1,0.5-1.6c1.1-2.3,3.4-3.5,5.9-3.1c2.2,0.4,4.1,2.4,4.4,4.8
				c0.2,1.2,0,2.4-0.5,3.6c-1,2.5-2.8,3.5-5.7,3.3c-2.1-0.2-4.2-2.1-4.7-4.3C263.4,792.3,263.7,791.4,263.7,790.5z"/>
			<path class="st46" d="M252,768c0,0.1,0.1,0.3,0.1,0.4c0.2,2,2.3,4.5,5,4.6c2.9,0.1,5.1-2.1,5.5-4.3c0-0.2,0.1-0.3,0.2-0.5
				c0.2,1.9-0.2,3.6-1.6,4.9c-1.5,1.5-3.2,2.1-5.3,1.5c-2-0.6-3.3-2-3.8-4.1C252,769.7,251.9,768.9,252,768z"/>
			<path class="st46" d="M263.7,790.5c0,0.9-0.1,1.7,0.2,2.5c0.7,2.1,2,3.6,4.2,4.1c2.4,0.4,4.3-0.5,5.6-2.6
				c0.1-0.1,0.2-0.3,0.3-0.4c-0.3,2.5-2.1,4-3.8,4.5c-2.3,0.7-4.5-0.3-5.7-2c-1-1.4-1.4-3-1-4.6C263.6,791.5,263.4,791,263.7,790.5z
				"/>
			<path class="st46" d="M263.8,816c0.1,0.3,0.1,0.6,0.2,0.8c0.4,2.4,2.2,4.3,4.5,4.7c2.2,0.4,4.3-0.7,5.6-2.9
				c0.1-0.1,0.2-0.2,0.2-0.3c-0.3,2.2-1.5,3.8-3.5,4.5c-2.7,1-5.6-0.2-6.8-3.1C263.5,818.5,263.3,817.3,263.8,816z"/>
			<path class="st54" d="M259.5,839.6c0,0.7,0,1.4,0.1,2.1c0.1,1,0.6,1.8,1,2.6c0,0.6-0.5,0.6-0.9,0.9c-0.1-0.1-0.1-0.2-0.2-0.2
				c-0.7-1.5-0.9-3-0.4-4.6C259.1,840.1,259.2,839.8,259.5,839.6z"/>
			<path class="st49" d="M259.7,845.2c0-0.6,0.7-0.5,0.9-0.9c0.2,0.2,0.4,0.4,0.6,0.6c1.9,1.9,4.7,2.1,6.9,0.5
				c0.3-0.2,0.6-0.4,0.8-0.7c-0.5,1.7-1.8,2.6-3.4,2.9c-1.9,0.4-3.7,0-5.2-1.5C260.1,845.9,259.9,845.5,259.7,845.2z"/>
			<path class="st49" d="M268.9,844.8c0-0.1,0.1-0.2,0.2-0.3C269.1,844.6,269,844.7,268.9,844.8z"/>
			<path class="st55" d="M318.4,742c-0.1,0.2-0.3,0.3-0.5,0.3c-0.7,0-1.4,0-2.1,0c-0.2,0-0.4,0-0.5-0.3
				C316.3,742,317.3,742,318.4,742z"/>
			<path class="st56" d="M207,765.4c-0.2,0.3-0.5,0.2-0.8,0.2c-2.3,0-4.5,0-6.8,0c-0.3,0-0.6,0-0.8-0.2
				C201.4,765.4,204.2,765.4,207,765.4z"/>
			<path class="st57" d="M165.6,743.2c-0.1-0.2-0.2-0.4-0.2-0.6c-0.1-0.1-0.1-0.2,0-0.3c0.3,0.3,0.4,0.6,0.4,0.9
				C165.7,743.2,165.7,743.2,165.6,743.2z"/>
			<path class="st58" d="M165.6,743.2c0.1,0,0.2,0,0.2,0c0.2,0.2,0.2,0.4,0.2,0.6C165.8,743.6,165.7,743.4,165.6,743.2z"/>
			<path class="st50" d="M165.4,742.2c0,0.1,0,0.2,0,0.3c-0.2-0.2-0.2-0.4-0.2-0.7C165.3,741.9,165.4,742.1,165.4,742.2z"/>
			<path class="st44" d="M184,649.1C184,649,184.1,649,184,649.1C184.1,649,184.1,649,184,649.1L184,649.1z"/>
			<path class="st59" d="M237.8,651.9c-0.2,0.2-0.5,0.2-0.7,0.2c-2.7,0-5.3,0-8,0c-0.2,0-0.5,0-0.7-0.2
				C231.5,651.7,234.7,651.7,237.8,651.9z"/>
			<path class="st41" d="M133.6,698.7c-0.4,4.4-3.1,7.3-7.4,7.3c-4.3,0-7.3-3.1-7.3-7.3c0-4.4,3.2-7.3,7.3-7.3
				C130.6,691.4,133.3,694.3,133.6,698.7z"/>
			<path class="st60" d="M258.4,698.8c-4.8,2.6-9.5,5.2-14.3,7.7c-3.1,1.7-6.2,3.3-9.3,5c-0.3,0.2-0.6,0.4-1,0.1
				c-1.7-1.5-3.3-3-4.5-5c-0.9-1.5-0.7-2.7,0.9-3.9c1.3-1,2.9-1.2,4.4-1.4c2.7-0.3,5.4-0.7,8.1-1c2.5-0.3,5.1-0.6,7.6-0.9
				c2-0.3,4-0.5,6-0.8c0.5-0.1,1-0.1,1.5-0.1C258,698.5,258.3,698.2,258.4,698.8z"/>
			<path class="st45" d="M243.2,697.3c-3.3,0-5.9-3.3-5.3-6.7c0.2-1.3,0.8-2.4,1.8-3.4c2-1.9,5-2,7-0.2c1.8,1.6,2.5,3.6,1.9,6
				c-0.6,2.2-2,3.7-4.2,4.2c-0.1,0-0.3,0.1-0.4,0.1C243.7,697.3,243.4,697.3,243.2,697.3z"/>
			<path class="st45" d="M205.5,700.8c-3.1,0.1-5.9-2.9-5.4-6.7c0.2-1.6,1-2.9,2.4-3.9c2-1.4,4.5-1.3,6.3,0.3c1.8,1.5,2.4,3.5,2,5.8
				c-0.5,2.2-1.8,3.7-3.9,4.4C206.5,700.7,206,700.7,205.5,700.8z"/>
			<path class="st61" d="M248.1,716.7c0,1.3-1.1,2.5-2.4,2.5c-1.3,0-2.5-1.1-2.5-2.4c0-1.4,1.1-2.5,2.5-2.5
				C247.1,714.2,248.1,715.3,248.1,716.7z"/>
			<path class="st61" d="M247.9,712.2c0-1.4,1-2.5,2.4-2.5s2.5,1,2.5,2.4c0,1.3-1.1,2.5-2.4,2.5C249,714.7,247.9,713.6,247.9,712.2z
				"/>
			<path class="st61" d="M208.1,718.7c-1.4,0-2.4-1.1-2.4-2.4c0-1.3,1.1-2.5,2.5-2.5c1.3,0,2.5,1.2,2.4,2.5
				C210.5,717.7,209.4,718.7,208.1,718.7z"/>
			<path class="st61" d="M230.8,725.8c-1.4,0-2.4-1.1-2.4-2.4c0-1.3,1.2-2.5,2.5-2.5s2.5,1.2,2.4,2.5
				C233.3,724.7,232.2,725.8,230.8,725.8z"/>
			<path class="st62" d="M235.6,721.6c0-1.4,1.1-2.4,2.4-2.4c1.3,0,2.4,1.1,2.4,2.5c0,1.3-1.1,2.4-2.5,2.4
				C236.7,724.1,235.6,723,235.6,721.6z"/>
			<path class="st62" d="M215.2,717.9c1.3,0,2.4,1.2,2.4,2.5s-1.2,2.4-2.5,2.4s-2.4-1.1-2.4-2.5S213.8,717.8,215.2,717.9z"/>
			<path class="st45" d="M222.8,725.6c-1.4,0-2.5-1.1-2.5-2.4c0-1.3,1.1-2.4,2.5-2.4s2.4,1.1,2.4,2.4
				C225.2,724.6,224.2,725.6,222.8,725.6z"/>
			<path class="st63" d="M258.4,698.8c-0.2-0.2-0.4-0.1-0.7-0.2c0.5-0.2,0.5-0.2,1.2-0.1C258.8,698.7,258.6,698.7,258.4,698.8z"/>
			<path class="st64" d="M244.2,690.4c-0.9,0-1.7-0.8-1.7-1.8s0.8-1.7,1.7-1.8c0.9,0,1.7,0.8,1.7,1.7
				C245.9,689.5,245.1,690.4,244.2,690.4z"/>
			<path class="st65" d="M208,692.1c0,1-0.7,1.7-1.6,1.8c-1,0-1.7-0.7-1.8-1.7c0-0.9,0.7-1.7,1.6-1.8
				C207.2,690.3,208,691.1,208,692.1z"/>
		</g>
	</g>
	<g id="Cloud1">
		<path class="st23" d="M1223.9,206.5h-182.5c-10.6,0-19.2-8.6-19.2-19.2l0,0c0-10.6,8.6-19.2,19.2-19.2h182.5
			c10.6,0,19.2,8.6,19.2,19.2l0,0C1243.1,197.9,1234.5,206.5,1223.9,206.5z"/>
		<circle class="st23" cx="1149" cy="159" r="47.2"/>
		<circle class="st23" cx="1083.7" cy="164.3" r="28.2"/>
	</g>
	<g id="Cloud_1_">
		<path class="st23" d="M628.9,293.8H446.4c-10.6,0-19.2-8.6-19.2-19.2l0,0c0-10.6,8.6-19.2,19.2-19.2h182.5
			c10.6,0,19.2,8.6,19.2,19.2l0,0C648.2,285.2,639.5,293.8,628.9,293.8z"/>
		<circle class="st23" cx="494.3" cy="240.3" r="47.2"/>
		<circle class="st23" cx="553.7" cy="255.3" r="28.2"/>
	</g>
</g>
<g id="Layer_2_1_">
</g>
<g id="Layer_3">
</g>
</svg>
