<?xml version="1.0" encoding="utf-8"?>
<!-- Generator: Adobe Illustrator 22.0.1, SVG Export Plug-In . SVG Version: 6.00 Build 0)  -->
<svg version="1.1" id="Layer_1" xmlns="http://www.w3.org/2000/svg" xmlns:xlink="http://www.w3.org/1999/xlink" x="0px" y="0px"
	 viewBox="0 0 1607 612" style="enable-background:new 0 0 1607 612;" xml:space="preserve">
<style type="text/css">
	.st0{fill:#9EBFC8;}
	.st1{fill:#86AEB5;}
	.st2{fill:#FDD866;}
	.st3{fill:#FF0000;stroke:#C1272D;stroke-width:11.1659;stroke-linecap:round;stroke-miterlimit:10;}
	.st4{fill:#58483C;}
	.st5{fill:#72BC67;}
	.st6{fill:#039F68;}
	.st7{fill:url(#SVGID_1_);}
	.st8{fill:#22B573;}
	.st9{fill:#0071BC;}
	.st10{fill:#006837;}
	.st11{fill:#E24444;}
	.st12{fill:#DA2E2C;}
	.st13{fill:#FBB03B;}
	.st14{fill:#2E3192;}
	.st15{fill:#BFC94A;}
	.st16{fill:#590056;}
	.st17{fill:#BAB930;}
	.st18{fill:#452C1A;}
	.st19{fill:#432A18;}
	.st20{fill:#5B3319;}
	.st21{display:none;}
	.st22{display:inline;}
	.st23{fill:#998675;}
	.st24{fill:#F0FCFF;}
	.st25{fill:#C7B299;}
	.st26{fill:#FFDECC;}
	.st27{fill:#FFFFFF;}
	.st28{fill:#635140;}
	.st29{fill:#DEBAAD;}
	.st30{fill:#FFCFC4;}
	.st31{fill:#FFE5D3;}
	.st32{fill:none;stroke:#DAA9A2;stroke-width:3.5204;stroke-miterlimit:10;}
	.st33{fill:none;}
	.st34{fill:none;stroke:#FFFFFF;stroke-width:1.2468;stroke-miterlimit:10;}
	.st35{fill:#F7931E;}
	.st36{display:inline;fill:#432A18;}
	.st37{fill:#EC232B;}
	.st38{fill:none;stroke:#D45F00;stroke-width:2.8387;stroke-linecap:round;stroke-miterlimit:10;}
	.st39{fill:#36B54C;}
	.st40{fill:#D1A14E;}
	.st41{fill:#F0BE5C;}
	.st42{fill:#FFFFFF;stroke:#FEE098;stroke-width:4.23;stroke-miterlimit:10;}
	.st43{fill:#AB0054;}
	.st44{fill:#ED0874;}
	.st45{fill:#FFFFFF;stroke:#B63866;stroke-width:4.23;stroke-miterlimit:10;}
	.st46{fill:#C5342F;}
	.st47{fill:#052460;}
	.st48{fill:#C01823;}
	.st49{display:inline;fill:#FFEBCD;}
	.st50{fill:#603713;}
	.st51{fill:#FFEBCD;}
	.st52{fill:#231F20;}
	.st53{fill:none;stroke:#231F20;stroke-width:0.6193;stroke-miterlimit:10;}
	.st54{opacity:0.57;fill:#CCCCCC;enable-background:new    ;}
	.st55{fill:#EF509C;}
	.st56{fill:#E3D3B9;}
	.st57{display:inline;fill:#FFFFFF;stroke:#FFFFFF;stroke-width:0.6766;stroke-miterlimit:10;}
	.st58{display:inline;fill:#EC1C2B;}
	.st59{display:inline;fill:#FFFFFF;}
	.st60{fill:#0D0D1F;}
	.st61{display:inline;fill:#006838;}
	.st62{display:none;fill:#FFEBCD;}
	.st63{fill:none;stroke:#DAA9A2;stroke-width:0.6636;stroke-miterlimit:10;}
	.st64{fill:#009245;}
	.st65{fill:url(#SVGID_2_);}
	.st66{fill:url(#SVGID_3_);}
	.st67{fill:url(#SVGID_4_);}
	.st68{fill:url(#SVGID_5_);}
	.st69{fill:url(#SVGID_6_);}
	.st70{fill:url(#SVGID_7_);}
	.st71{fill:url(#SVGID_8_);}
	.st72{fill:url(#SVGID_9_);}
	.st73{fill:url(#SVGID_10_);}
	.st74{fill:url(#SVGID_11_);}
	.st75{fill:url(#SVGID_12_);}
	.st76{fill:url(#SVGID_13_);}
	.st77{fill:url(#SVGID_14_);}
	.st78{fill:url(#SVGID_15_);}
	.st79{fill:url(#SVGID_16_);}
	.st80{fill:url(#SVGID_17_);}
	.st81{fill:url(#SVGID_18_);}
	.st82{fill:url(#SVGID_19_);}
	.st83{fill:#C1272D;}
	.st84{fill:#ED1C24;}
</style>
<g id="Background">
	<g>
		<g>
			<rect x="3" y="-1.2" class="st0" width="817" height="494"/>
			<rect x="27.9" y="-0.7" class="st1" width="58.3" height="493.5"/>
			<rect x="204" y="-0.7" class="st1" width="58.3" height="493.5"/>
			<rect x="292" y="-0.7" class="st1" width="58.3" height="493.5"/>
			<rect x="380" y="-0.7" class="st1" width="58.3" height="493.5"/>
			<rect x="468.1" y="-0.7" class="st1" width="58.3" height="493.5"/>
			<rect x="556.2" y="-0.7" class="st1" width="58.3" height="493.5"/>
			<rect x="644.2" y="-0.7" class="st1" width="58.3" height="493.5"/>
			<rect x="732.3" y="-0.7" class="st1" width="58.3" height="493.5"/>
			<rect x="116" y="-0.7" class="st1" width="58.3" height="493.5"/>
		</g>
		<g>
			<rect x="790.5" y="-1.2" class="st0" width="817" height="494"/>
			<rect x="815.3" y="-0.7" class="st1" width="58.3" height="493.5"/>
			<rect x="991.4" y="-0.7" class="st1" width="58.3" height="493.5"/>
			<rect x="1079.5" y="-0.7" class="st1" width="58.3" height="493.5"/>
			<rect x="1167.5" y="-0.7" class="st1" width="58.3" height="493.5"/>
			<rect x="1255.6" y="-0.7" class="st1" width="58.3" height="493.5"/>
			<rect x="1343.7" y="-0.7" class="st1" width="58.3" height="493.5"/>
			<rect x="1431.7" y="-0.7" class="st1" width="58.3" height="493.5"/>
			<rect x="1519.7" y="-0.7" class="st1" width="58.3" height="493.5"/>
			<rect x="903.4" y="-0.7" class="st1" width="58.3" height="493.5"/>
		</g>
		<rect x="0.6" y="494.3" class="st2" width="1604.9" height="118.3"/>
		<ellipse class="st3" cx="462.4" cy="542.6" rx="182.6" ry="28.6"/>
	</g>
	<g id="Christmas_tree">
		<rect x="626.3" y="426.7" class="st4" width="39.3" height="67.3"/>
		<polygon class="st5" points="653.1,208.7 710.8,277.3 673.1,277.3 734.1,350 682.3,350 758.1,436 541.6,435.3 617.4,348.7 
			570.8,349.3 630.4,276 589,276.7 		"/>
		<polygon class="st6" points="628.6,434.5 686,428 654.9,356 620.8,349.5 671.9,347.5 653.4,283 634.5,277.5 660.2,276 
			653.1,208.7 710.8,277.3 673.1,277.3 734.1,350 682.3,350 758.1,436 		"/>
		
			<linearGradient id="SVGID_1_" gradientUnits="userSpaceOnUse" x1="652.3481" y1="1061.5" x2="719.6481" y2="1061.5" gradientTransform="matrix(1 0 0 1 0 -876)">
			<stop  offset="0" style="stop-color:#FCEE21"/>
			<stop  offset="1.136452e-02" style="stop-color:#FCE921"/>
			<stop  offset="8.222647e-02" style="stop-color:#FACE20"/>
			<stop  offset="0.1637" style="stop-color:#F9B81F"/>
			<stop  offset="0.2589" style="stop-color:#F8A71F"/>
			<stop  offset="0.3766" style="stop-color:#F79C1E"/>
			<stop  offset="0.5417" style="stop-color:#F7951E"/>
			<stop  offset="1" style="stop-color:#F7931E"/>
		</linearGradient>
		<polygon class="st7" points="674.3,217.8 653.3,210.2 632.7,218.6 633.2,195.8 619.1,178.2 640.3,171.7 652.1,152.4 664.8,171.1 
			686.4,176.8 672.9,195 		"/>
	</g>
	<g>
		<rect x="584.3" y="422" class="st8" width="72.6" height="71.5"/>
		<path class="st9" d="M635.2,389.7c-8.5-1.1-14.1,13.8-14.1,13.8s-4.2-9.3-6.2-11.1c-2-1.9-7.5-4-12.3-1.1
			c-4.8,2.8-3.1,7.9-2.9,10.4s10.7,13.2,10.7,13.2s18.6,1.7,21.7-0.8s6.4-6.6,9.7-10C644.9,400.6,643.6,390.8,635.2,389.7z
			 M606.5,395.2c6.2-3,10.3,14.5,10.3,14.5C610,408.2,600.3,398.2,606.5,395.2z M625.1,410.3c0,0,4.2-17.4,10.5-14.9
			C641.8,397.8,631.7,409.1,625.1,410.3z"/>
		<rect x="584.3" y="418" class="st10" width="73.1" height="7.8"/>
		<rect x="580.4" y="414" class="st8" width="80.7" height="9"/>
		<polygon class="st9" points="613.6,412.8 613.6,493 627.7,493 627.7,412.5 		"/>
	</g>
	<g>
		<g>
			<path d="M118.6,560.7l1.2,8.5c0.1,1,1.1,1.7,2,1.6l2.1-0.3c1-0.1,1.7-1.1,1.6-2.1l-1.2-8.5c-0.1-1-1.1-1.7-2-1.6l-2.1,0.3
				C119.2,558.7,118.5,559.7,118.6,560.7z M122.2,560.7l1.1,7.5l-1.4,0.2l-1.1-7.5L122.2,560.7z"/>
			<path d="M112,573.5c2.3-2.6,7.8-3.7,7.8-3.7l-0.4-2.6c0,0-6.3,1.6-7.1,3.1c-0.8-5.6-0.6-4.3-0.8-5.6c-0.2-1.3-2.5-1.5-2.4,0.3
				c0.2,1.7,1.1,6.9,1.1,6.9s-3.1,3.4-6.9,3.9s-7.4,1.3-15-0.7c-3.5,2.5-8.4,4.2-9.4,2.6c-0.8-4.7-2-13.6-2-13.6s1.2-3.2,9.7-0.2
				c6.5-5.2,17.8-6.7,22-3.4c4.3,2.6,10.1,1.7,10.1,1.7l-0.3-2.3c-1.9,0.3-7.3-0.1-9.7-2s-12.5-3-22.4,3.1
				c-11.5-3.1-11.7,2.8-11.7,2.8s1.2,12.1,2,14.7c0.9,2.6,5.3,3.5,12.1-0.6C104.6,580.9,109.7,576.1,112,573.5z"/>
		</g>
	</g>
	<g>
		<g>
			<path d="M730.6,536.9l1.2,8.5c0.1,1,1.1,1.7,2,1.6l2.1-0.3c1-0.1,1.7-1.1,1.6-2.1l-1.2-8.5c-0.1-1-1.1-1.7-2-1.6l-2.1,0.3
				C731.1,535,730.4,535.9,730.6,536.9z M734.1,536.9l1.1,7.5l-1.4,0.2l-1.1-7.5L734.1,536.9z"/>
			<path d="M724,549.7c2.3-2.6,7.8-3.7,7.8-3.7l-0.4-2.6c0,0-6.3,1.6-7.1,3.1c-0.8-5.6-0.6-4.3-0.8-5.6s-2.5-1.5-2.4,0.3
				c0.2,1.7,1.1,6.9,1.1,6.9s-3.1,3.4-6.9,3.9c-3.8,0.5-7.4,1.3-15-0.7c-3.5,2.5-8.4,4.2-9.4,2.6c-0.8-4.7-2-13.6-2-13.6
				s1.2-3.2,9.7-0.2c6.5-5.2,17.8-6.7,22-3.4c4.3,2.6,10.1,1.7,10.1,1.7l-0.3-2.3c-1.9,0.3-7.3-0.1-9.7-2s-12.5-3-22.4,3.1
				c-11.5-3.1-11.7,2.8-11.7,2.8s1.2,12.1,2,14.7c0.9,2.6,5.3,3.5,12.1-0.6C716.5,557.1,721.7,552.3,724,549.7z"/>
		</g>
	</g>
	<g>
		<g>
			<path d="M12.2,512l4.5-7.2c0.6-0.9,0.3-2-0.6-2.6l-1.8-1.2c-0.9-0.6-1.9-0.3-2.5,0.6l-4.5,7.2c-0.6,0.9-0.3,2,0.6,2.6l1.8,1.2
				C10.6,513.1,11.6,512.8,12.2,512z M9.5,509.6l4-6.4l1.2,0.8l-4,6.4L9.5,509.6z"/>
			<path d="M25.3,506.7c-3.4,0.4-8.3-2.5-8.3-2.5l-1.4,2.2c0,0,5.8,3,7.3,2.4c-2.9,4.7-2.2,3.6-2.9,4.7c-0.7,1.1,1,2.8,1.9,1.4
				c1-1.4,3.6-5.9,3.6-5.9s4.6-0.5,7.7,1.7c3.1,2.2,6.4,4,10.9,10.6c4.3,0.4,8.9,2.5,8.8,4.4c-2.4,4.1-7.1,11.6-7.1,11.6
				s-2.9,1.7-7.5-6.4c-8.3-0.4-17.7-6.8-18.8-12.2c-1.6-4.9-6.5-8.1-6.5-8.1l-1.3,2c1.7,1.1,5.4,5,6.1,8c0.6,3,7.6,10.8,19,12.7
				c6.7,10.1,10.6,5.8,10.6,5.8s6.8-9.9,7.8-12.5s-1.8-6.3-9.5-7.6C35.7,506.2,28.7,506.3,25.3,506.7z"/>
		</g>
	</g>
	<g>
		<polygon class="st11" points="159.2,471.3 171.9,471.5 175,480.1 173,495.3 174.2,504.8 173.1,507.4 158.1,507.1 156.6,501.3 
			157.8,494.7 156.1,490.6 155.2,483.2 		"/>
		<path class="st12" d="M161.9,506.4c0,0-2.2-1.7,0.4-10.4c-3.1-7.4-4.6-14.8-2.1-21.8c1.2-3.1,1.1-2.8,1.1-2.8l9.8-0.1l2.8,4.4
			l1.1,8.4l-1.8,9.3l0.2,5.4l0.9,6.1l-1.4,2.2l-10.8,0.2L161.9,506.4z"/>
		<g>
			<path d="M161.4,462.7h8.6c1,0,1.8-0.9,1.8-1.9v-2.3c0-1-0.9-1.9-1.8-1.9h-8.6c-1,0-1.8,0.9-1.8,1.9v2.3
				C159.5,461.8,160.3,462.7,161.4,462.7z M161.9,458.9h7.6v1.4h-7.6V458.9z"/>
			<path d="M173,471.4c-2.2-2.8-2.5-8.7-2.5-8.7h-2.6c0,0,0.7,6.9,2,7.8c-5.6,0-4.3,0-5.6,0c-1.4,0-1.8,2.5-0.1,2.5
				c1.8,0.1,6.9-0.1,6.9-0.1s2.9,3.8,2.8,7.8s0.2,7.9-2.8,15.5c1.9,4,2.9,9.3,1.2,10.2c-4.8,0.1-13.7,0.1-13.7,0.1s-3-1.7,1.3-10.2
				c-4.2-7.5-4.1-19.5-0.2-23.4c3.2-4.1,3.1-10.3,3.1-10.3h-2.3c0,2-1.1,7.6-3.3,9.8c-2.2,2.2-4.8,12.7-0.1,23.8
				c-4.7,11.5,1.1,12.6,1.1,12.6s12.1,0.6,14.8,0s4.3-5.1,1.1-12.7C179.2,480.2,175.3,474.1,173,471.4z"/>
		</g>
	</g>
	<g>
		<polygon class="st11" points="84.6,506.5 97.2,506.7 100.4,515.3 98.4,530.4 99.5,540 98.6,542.5 83.4,542.3 82,536.5 83.1,529.9 
			81.5,525.8 80.6,518.4 		"/>
		<path class="st12" d="M87.3,541.5c0,0-2.2-1.7,0.4-10.4c-3.1-7.4-4.6-14.8-2.1-21.8c1.2-3.1,1.1-2.8,1.1-2.8l9.8-0.1l2.8,4.4
			l1.1,8.4l-1.8,9.3l0.2,5.4l0.9,6.1l-1.4,2.2l-10.8,0.2L87.3,541.5z"/>
		<g>
			<path d="M86.7,497.8h8.6c1,0,1.8-0.9,1.8-1.9v-2.3c0-1-0.9-1.9-1.8-1.9h-8.6c-1,0-1.8,0.9-1.8,1.9v2.3
				C84.8,497,85.7,497.8,86.7,497.8z M87.2,494.1h7.6v1.4h-7.6V494.1z"/>
			<path d="M98.4,506.5c-2.2-2.8-2.5-8.7-2.5-8.7h-2.6c0,0,0.7,6.9,2,7.8c-5.6,0-4.3,0-5.6,0s-1.8,2.5-0.1,2.5
				c1.8,0.1,6.9-0.1,6.9-0.1s2.9,3.8,2.8,7.8c-0.1,4,0.2,7.9-2.8,15.5c1.9,4,2.9,9.3,1.2,10.2c-4.8,0.1-13.7,0.1-13.7,0.1
				s-3-1.7,1.3-10.2c-4.2-7.5-4.1-19.5-0.2-23.4c3.2-4.1,3.1-10.3,3.1-10.3h-2.3c0,2-1.1,7.6-3.3,9.8c-2.2,2.2-4.8,12.7-0.1,23.8
				c-4.7,11.5,1.1,12.6,1.1,12.6s12.1,0.6,14.8,0s4.3-5.1,1.1-12.7C104.6,515.4,100.6,509.3,98.4,506.5z"/>
		</g>
	</g>
	<g id="Layer_2_3_">
		<g id="Layer_1-2_2_">
			<g id="bluebox">
				<rect x="888.5" y="450.3" class="st9" width="105.3" height="71.5"/>
				<path class="st13" d="M956.3,417.6c-8.7-1.1-14.5,13.8-14.5,13.8s-4.3-9.3-6.4-11.1c-3.6-2.9-8.6-3.3-12.7-1.1
					c-5,2.9-3.2,7.9-3,10.4s11,13.2,11,13.2s19.1,1.7,22.3-0.8s6.6-6.6,10-10C966.4,428.6,965,418.7,956.3,417.6z M926.8,423
					c6.4-3,10.6,14.5,10.6,14.5C930.4,436.1,920.4,426.1,926.8,423z M945.9,438.1c0,0,4.3-17.4,10.8-14.9S952.7,437,945.9,438.1z"/>
				<rect x="888.5" y="446.3" class="st14" width="105.9" height="7.3"/>
				<rect x="882.5" y="442.3" class="st9" width="117" height="8.6"/>
				<polygon class="st13" points="934.1,441.6 934.1,521.8 948.6,521.8 948.6,441.3 				"/>
			</g>
		</g>
	</g>
	<g id="Layer_2_5_">
		<g id="Layer_1-2_4_">
			<g id="bluebox_2_">
				<rect x="901.6" y="495.6" class="st15" width="63.1" height="54.9"/>
				<path class="st16" d="M942.2,470.5c-5.2-0.8-8.7,10.6-8.7,10.6s-2.6-7.1-3.8-8.5c-2.2-2.2-5.2-2.5-7.6-0.8c-3,2.2-1.9,6.1-1.8,8
					c0.1,1.9,6.6,10.1,6.6,10.1s11.4,1.3,13.4-0.6c1.9-1.9,4-5.1,6-7.7S947.5,471.4,942.2,470.5z M924.6,474.7
					c3.8-2.3,6.4,11.2,6.4,11.2C926.7,484.7,920.7,477.1,924.6,474.7z M936,486.3c0,0,2.6-13.4,6.5-11.4
					C946.4,476.8,940.1,485.4,936,486.3z"/>
				<rect x="901.6" y="492.6" class="st17" width="63.5" height="5.6"/>
				<rect x="898" y="489.5" class="st15" width="70.1" height="6.6"/>
				<polygon class="st16" points="928.9,489 928.9,550.5 937.6,550.5 937.6,488.7 				"/>
			</g>
		</g>
	</g>
	<g>
		<polygon class="st11" points="887.9,520.7 899.7,525.4 899.6,534.6 892.4,548 890.2,557.4 888.3,559.4 874.2,553.8 874.9,547.9 
			878.2,542.1 878.3,537.7 879.9,530.5 		"/>
		<path class="st12" d="M878.1,554.5c0,0-1.5-2.4,4.1-9.6c-0.3-8,0.9-15.5,5.7-21.1c2.2-2.5,2-2.2,2-2.2l9.2,3.4l1.1,5.1l-1.9,8.2
			l-5,8.1l-1.7,5.1l-1.3,6l-2.1,1.6l-10.2-3.6L878.1,554.5z"/>
		<g>
			<path d="M892.9,513.3l8,3c0.9,0.4,2-0.2,2.4-1.1l0.8-2.2c0.4-0.9-0.2-2.1-1-2.4l-8-3c-0.9-0.4-2,0.2-2.4,1.1l-0.8,2.2
				C891.5,512,892.1,513,892.9,513.3z M894.7,510.1l7.1,2.7l-0.5,1.3l-7.1-2.7L894.7,510.1z"/>
			<path d="M900.8,525.6c-1.1-3.4,0.7-9,0.7-9l-2.4-0.9c0,0-1.8,6.7-0.9,8c-5.2-2-4-1.5-5.2-2c-1.3-0.5-2.6,1.7-1,2.3
				c1.6,0.7,6.5,2.3,6.5,2.3s1.4,4.6-0.1,8.3c-1.5,3.7-2.6,7.5-8.1,13.5c0.4,4.4-0.6,9.7-2.5,10c-4.5-1.6-12.8-4.8-12.8-4.8
				s-2.2-2.7,4.8-9.1c-1.3-8.5,3.1-19.7,8.1-22c4.4-2.7,6.5-8.5,6.5-8.5l-2.2-0.8c-0.7,1.9-3.7,6.7-6.6,8s-9,10.2-8.5,22.2
				c-8.5,9.1-3.4,12.2-3.4,12.2s11.1,4.8,13.8,5.2c2.7,0.4,5.8-3.2,5.5-11.5C903.4,536.1,901.9,529,900.8,525.6z"/>
		</g>
	</g>
	<g>
		<polygon class="st11" points="761.3,458.1 773.9,458.3 777,466.9 775.1,482 776.2,491.6 775.2,494.2 760.1,493.9 758.6,488.1 
			759.8,481.5 758.1,477.4 757.3,470 		"/>
		<path class="st12" d="M764,493.1c0,0-2.2-1.7,0.4-10.4c-3.1-7.4-4.6-14.8-2.1-21.8c1.2-3.1,1.1-2.8,1.1-2.8l9.8-0.1l2.8,4.4
			l1.1,8.4l-1.8,9.3l0.2,5.4l0.9,6.1l-1.4,2.2l-10.8,0.2L764,493.1z"/>
		<g>
			<path d="M763.4,449.5h8.6c1,0,1.8-0.9,1.8-1.9v-2.3c0-1-0.9-1.9-1.8-1.9h-8.6c-1,0-1.8,0.9-1.8,1.9v2.3
				C761.6,448.6,762.3,449.5,763.4,449.5z M763.9,445.7h7.6v1.4h-7.6V445.7z"/>
			<path d="M775.1,458.2c-2.2-2.8-2.5-8.7-2.5-8.7H770c0,0,0.7,6.9,2,7.8c-5.6,0-4.3,0-5.6,0c-1.4,0-1.8,2.5-0.1,2.5
				c1.8,0.1,6.9-0.1,6.9-0.1s2.9,3.8,2.8,7.8c-0.1,4,0.2,7.9-2.8,15.5c1.9,4,2.9,9.3,1.2,10.2c-4.8,0.1-13.7,0.1-13.7,0.1
				s-3-1.7,1.3-10.2c-4.2-7.5-4.1-19.5-0.2-23.4c3.2-4.1,3.1-10.3,3.1-10.3h-2.2c0,2-1.1,7.6-3.3,9.8s-4.8,12.7-0.1,23.8
				c-4.7,11.5,1.1,12.6,1.1,12.6s12.1,0.6,14.8,0s4.3-5.1,1.1-12.7C781.2,467,777.3,460.9,775.1,458.2z"/>
		</g>
	</g>
	<g id="Table">
		<path class="st18" d="M1234.3,378.5H938.6c-6.6,0-12-5.4-12-12v-1.3c0-6.6,5.4-12,12-12h295.6c6.6,0,12,5.4,12,12v1.3
			C1246.3,373.1,1240.9,378.5,1234.3,378.5z"/>
		<path class="st19" d="M1086.3,527.2L1086.3,527.2c-12.6,0-22.8-10.2-22.8-22.8V379.3c0-12.6,10.2-22.8,22.8-22.8l0,0
			c12.6,0,22.8,10.2,22.8,22.8v125.1C1109,517,1098.8,527.2,1086.3,527.2z"/>
		<path class="st20" d="M1252.7,369.9H920.3c-2.9,0-5.3-2.4-5.3-5.3l0,0c0-2.9,2.4-5.3,5.3-5.3h332.4c2.9,0,5.3,2.4,5.3,5.3l0,0
			C1258,367.5,1255.6,369.9,1252.7,369.9z"/>
		<path class="st19" d="M1139.2,499.9h-107.4c-4.8,0-8.6-3.9-8.6-8.6l0,0c0-4.8,3.9-8.6,8.6-8.6h107.4c4.8,0,8.6,3.9,8.6,8.6l0,0
			C1147.8,496.1,1143.9,499.9,1139.2,499.9z"/>
		<path class="st20" d="M1191.3,509.1c0-6.6-7.3-12-16.2-12c-4.2,0-8,1.2-10.9,3.1c-6-2.9-15.6-10.1-18-26.9
			c-0.9-6.7-1.5-11.5-2.9-15c-3-10.4-11.1-17.3-23.9-17.3s-23.2,7.7-23.2,17.2s10.4,17.2,23.2,17.2c6.1,0,11.6-1.7,15.8-4.6
			c0,11.1,1.9,31.3,13.6,42.9c16.8,16.6,34.4,5.7,34.4,5.7l0,0C1188,517.4,1191.3,513.5,1191.3,509.1z"/>
		<path class="st20" d="M982.5,508.7c0-6.6,7.3-12,16.2-12c4.2,0,8,1.2,10.9,3.1c6-2.9,15.6-10.1,18-26.9c0.9-6.7,1.5-11.5,2.9-15
			c3-10.4,11.1-17.3,23.9-17.3s23.2,7.7,23.2,17.2s-10.4,17.2-23.2,17.2c-6.1,0-11.6-1.7-15.8-4.6c0,11.1-1.9,31.3-13.6,42.9
			c-16.8,16.6-34.4,5.7-34.4,5.7l0,0C985.7,517.1,982.5,513.2,982.5,508.7z"/>
		<path class="st19" d="M1157.7,386.2c0,3.5-4.8,6.4-10.7,6.4c-2.8,0-5.3-0.6-7.2-1.7c-3.9,1.5-10.3,5.3-11.9,14.3
			c-0.6,3.6-1,6.1-1.9,8c-2,5.5-7.3,9.2-15.8,9.2c-8.4,0-15.3-4.1-15.3-9.2s6.9-9.1,15.3-9.1c4,0,7.6,0.9,10.4,2.5
			c0-5.9,1.3-16.6,9.1-22.8c11.1-8.8,22.7-3,22.7-3l0,0C1155.6,381.8,1157.7,383.9,1157.7,386.2z"/>
		<path class="st19" d="M1016.7,385.9c0,3.5,4.8,6.4,10.7,6.4c2.8,0,5.3-0.6,7.2-1.7c3.9,1.5,10.3,5.3,11.9,14.3
			c0.6,3.6,1,6.1,1.9,8c2,5.5,7.3,9.2,15.8,9.2c8.4,0,15.3-4.1,15.3-9.2s-6.9-9.1-15.3-9.1c-4,0-7.6,0.9-10.4,2.5
			c0-5.9-1.3-16.6-9.1-22.8c-11.1-8.8-22.7-3-22.7-3l0,0C1018.8,381.5,1016.6,383.6,1016.7,385.9z"/>
	</g>
	<g>
		<g>
			<g>
				<path d="M1041.2,294.6h12.1c1.4,0.1,2.6-1.2,2.6-2.5v-3c0.1-1.4-1.2-2.5-2.6-2.6h-12.1c-1.4-0.1-2.6,1.2-2.6,2.5v3
					C1038.6,293.5,1039.7,294.7,1041.2,294.6z M1041.9,289.7h10.7v1.9h-10.7V289.7z"/>
				<path d="M1057.7,306.3c-3.2-3.8-3.6-11.6-3.6-11.6h-3.7c0,0,1,9.1,2.9,10.5c-8,0-6.1,0-8,0s-2.6,3.2-0.1,3.4
					c2.4,0.1,9.8-0.1,9.8-0.1s4.1,5,4.1,10.4s0.4,10.5-3.9,20.7c2.8,5.4,4.2,12.5,1.8,13.6c-6.7,0.2-19.3,0.2-19.3,0.2
					s-4.2-2.3,1.6-13.6c-6-10.1-5.8-26.1-0.4-31.3c4.5-5.4,4.3-13.7,4.3-13.7h-3.3c0,2.8-1.6,10.1-4.7,13.1s-6.6,16.9-0.1,31.7
					c-6.6,15.4,1.6,16.8,1.6,16.8s17.1,0.7,20.9,0s5.9-6.8,1.5-16.9C1066.5,318.2,1060.9,310.1,1057.7,306.3z"/>
			</g>
		</g>
		<g>
			<g>
				<path d="M1002.1,293.7h12.1c1.4,0.1,2.6-1.2,2.6-2.5v-3c0.1-1.4-1.2-2.5-2.6-2.6h-12.1c-1.4-0.1-2.6,1.2-2.6,2.5v3
					C999.6,292.6,1000.7,293.7,1002.1,293.7z M1002.8,288.8h10.7v1.9h-10.7V288.8z"/>
				<path d="M1018.7,305.4c-3.2-3.8-3.6-11.6-3.6-11.6h-3.7c0,0,1,9.1,2.9,10.5c-8,0-6.1,0-8,0c-1.8,0-2.6,3.2-0.1,3.4
					c2.4,0.1,9.8-0.1,9.8-0.1s4.1,5,4.1,10.4s0.4,10.5-3.9,20.7c2.8,5.4,4.2,12.5,1.8,13.6c-6.7,0.2-19.3,0.2-19.3,0.2
					s-4.2-2.3,1.6-13.6c-6-10.1-5.8-26.1-0.4-31.3c4.5-5.4,4.3-13.7,4.3-13.7h-3.3c0,2.8-1.6,10.1-4.7,13.1s-6.6,16.9-0.1,31.7
					c-6.6,15.4,1.6,16.8,1.6,16.8s17.1,0.7,20.9,0s5.9-6.8,1.5-16.9C1027.5,317.2,1021.8,309.1,1018.7,305.4z"/>
			</g>
		</g>
		<g>
			<g>
				<path d="M1057.2,293.9h12.1c1.4,0.1,2.6-1.2,2.6-2.5v-3c0.1-1.4-1.2-2.5-2.6-2.6h-12.1c-1.4-0.1-2.6,1.2-2.6,2.5v3
					C1054.6,292.9,1055.7,294,1057.2,293.9z M1057.9,289.1h10.7v1.9h-10.7V289.1z"/>
				<path d="M1073.7,305.6c-3.2-3.8-3.6-11.6-3.6-11.6h-3.7c0,0,1,9.1,2.9,10.5c-8,0-6.1,0-8,0s-2.6,3.2-0.1,3.4
					c2.4,0.1,9.8-0.1,9.8-0.1s4.1,5,4.1,10.4s0.4,10.5-3.9,20.7c2.8,5.4,4.2,12.5,1.8,13.6c-6.7,0.2-19.3,0.2-19.3,0.2
					s-4.2-2.3,1.6-13.6c-6-10.1-5.8-26.1-0.4-31.3c4.5-5.4,4.3-13.7,4.3-13.7h-3.3c0,2.8-1.6,10.1-4.7,13.1s-6.6,16.9-0.1,31.7
					c-6.6,15.4,1.6,16.8,1.6,16.8s17.1,0.7,20.9,0s5.9-6.8,1.5-16.9C1082.5,317.5,1076.9,309.4,1073.7,305.6z"/>
			</g>
		</g>
		<g>
			<polygon class="st11" points="1020.3,304.5 1037.9,304.8 1042.3,316.8 1039.6,337.9 1041.2,351.2 1039.7,354.9 1018.7,354.5 
				1016.6,346.4 1018.3,337.2 1016,331.4 1014.7,321.1 			"/>
			<path class="st12" d="M1024.1,353.3c0,0-3.1-2.4,0.5-14.5c-4.3-10.3-6.4-20.6-3-30.4c1.6-4.3,1.5-3.9,1.5-3.9l13.7-0.1l3.9,6.1
				l1.5,11.7l-2.6,13l0.3,7.5l1.2,8.5l-1.9,3.1l-15.1,0.3V353.3z"/>
			<g>
				<path d="M1023.3,292.5h11.9c1.4,0,2.6-1.3,2.6-2.7v-3.2c0-1.4-1.2-2.7-2.6-2.7h-11.9c-1.4,0-2.6,1.3-2.6,2.7v3.2
					C1020.7,291.3,1021.8,292.5,1023.3,292.5z M1024,287.2h10.6v2H1024V287.2z"/>
				<path d="M1039.6,304.6c-3.1-3.9-3.5-12.1-3.5-12.1h-3.7c0,0,0.9,9.6,2.8,10.9c-7.9,0-6,0-7.9,0s-2.6,3.5-0.1,3.5
					c2.4,0.1,9.6-0.1,9.6-0.1s4.1,5.3,3.9,10.9c-0.1,5.6,0.3,11-3.9,21.6c2.7,5.6,4.1,13,1.6,14.2c-6.6,0.1-19.1,0.1-19.1,0.1
					s-4.2-2.4,1.8-14.2c-5.8-10.5-5.7-27.2-0.3-32.6c4.5-5.7,4.3-14.4,4.3-14.4h-3.1c0,2.8-1.5,10.6-4.6,13.7s-6.6,17.7-0.1,33.2
					c-6.5,16,1.5,17.6,1.5,17.6s16.8,0.8,20.6,0c3.8-0.8,6-7.1,1.5-17.7C1048.1,316.9,1042.7,308.4,1039.6,304.6z"/>
			</g>
		</g>
	</g>
	<g id="Clothes" class="st21">
		<g id="BG_2_" class="st22">
			<path class="st23" d="M385,229.9c0,0,59.6-25.7,118.5,4.6c-8.1-30.7-45.3-39.5-60.8-38.4s-81.7,13-81.4-3.9s21.7-26.8,21.7-26.8
				l-7-7.1c0,0-31.7,14.1-29.1,40.2C349.7,224.6,385.3,216.2,385,229.9z"/>
			<path class="st24" d="M383.2,148.8c6.3,0,11.4,4.7,11.4,10.4s-5.1,10.4-11.4,10.4s-11.4-4.7-11.4-10.4
				C371.9,153.5,376.9,148.8,383.2,148.8"/>
			<path class="st25" d="M369.9,264.2c0,0,67.1-52.2,141.8,2.4c3.5-26.5-8.1-32.1-8.1-32.1s-52.6-30-118.5-4.6
				C363.3,241.6,369.9,264.2,369.9,264.2z"/>
			<path class="st26" d="M317.1,270.9c0,0-5.5-5.3-5.5-12.1c0-6.8-10-10.1-12.1-0.6c-8.6-9-17.7-4.1-13.9,2.1
				c-6.4-4.7-12.7,2.2-7.4,7.3c-7.9,0.4-13.2,7.6-2.1,11.6c4.2,0.8,13.5,8.3,14.3,13.3C302.2,283.7,317.1,270.9,317.1,270.9z"/>
			<g id="Face_3_">
				<path class="st26" d="M370.5,263.7c0,0-8.5,39,2.6,49.6c11,10.6,45.9,37.1,65.1,35.5s49.4-8.5,59.9-18s22.7-40.2,21.5-46.6
					c-1.2-6.4-7.2-18-7.2-18S453.3,211.9,370.5,263.7z"/>
				<path class="st27" d="M520.6,278.5c3.7-13.6-8.4-12.5-8.4-12.5c-75.5-55.1-141.8-2.4-141.8-2.4c-5.7,0.4-14.6,8.3-7.3,14.1
					c-31.4,7.9-22.1,59.1,6.4,61.4c-6,1.1-13.9,18-2.9,20.1c-6.7,2.1-12.2,24.9,4.6,24.4c-3.5,2.1-2.1,19.3,9.9,18.8
					c-1.4,5.3,4.6,17.2,18.8,15.4c0,11.6,15.1,18.2,22.7,11.1c10.5,12.5,21.5,7.6,29.1-1.6c6.7,1.6,18,3.7,20.7-13.2
					c18,4,23-1.9,22.7-13.6c10.7,0.5,15.1-10.4,13.4-19.9c14.9-7.6,6.4-23.8-3.7-25.2c2.6-0.8,3.7-9,0-13.8
					C565,324.4,539.4,282.8,520.6,278.5z M503.6,315l-23.9-0.5c0.2-8.5-16.2-17-21.6-10.7c-0.6,7.6-28.8,8.3-29.1-0.5
					c-20.9,1.3-21.2,7.2-25.3,11.4c-27,10.4-39.3-14-34.3-23.3c23-5.8,11.6-11.9,0.6-10.6c-1.4-15.7,10.7-16.7,10.7-16.7
					s0.6,16.9,8.7,7.2c8.1-9.7,29.6-16.4,29.6-16.4v-6.6l46.7,1.1v8.3c0,0,18,3.4,27,11.9c8.9,8.5,12.8,7.9,12.2-4.2
					c3.5,0.8,6.4,4.4,7.9,15c-10.2,4-9.3,7.9,0.9,7.2C519.7,294.4,503.6,315,503.6,315z"/>
				<path class="st28" d="M405.3,287.6h10.5C415.6,270.6,406.3,269,405.3,287.6z"/>
				<path class="st28" d="M466.9,287.5h10.5C477.1,270.4,467.8,268.8,466.9,287.5z"/>
				<ellipse class="st29" cx="443.4" cy="299.3" rx="18.9" ry="13.6"/>
				<ellipse class="st30" cx="471.7" cy="303.4" rx="16.2" ry="12.9"/>
				<ellipse class="st30" cx="411.3" cy="303.2" rx="16.2" ry="12.9"/>
				<ellipse class="st31" cx="443" cy="298" rx="18.9" ry="13.6"/>
				<path class="st32" d="M423.9,325.4l2.7,5.1c6.5,12.5,21.2,13.1,28.5,1.2l3.7-6.2"/>
			</g>
		</g>
		<g id="green_and_blue_1_" class="st22">
			<path class="st26" d="M538,294.7l25.6-17.6c0,0,21.6,17.9,29.5,23.4c-7.1,16-41.1,65.2-51.2,71.5c-10.8-14.3-13.5-34.2-18-37.9
				C530.4,326.6,550.3,316.3,538,294.7z"/>
			<path class="st26" d="M326.4,278.3l19.4,12.9l19.6,37.2l-18.8,45c0,0-44.2-56.1-48.8-72.2C311.7,290.7,326.4,278.3,326.4,278.3z"
				/>
			<path class="st33" d="M385.3,229.8c0,0,59.7-25.8,118.6,4.6c-8.1-30.7-45.3-39.5-60.9-38.5s-81.8,13.1-81.4-3.9
				c0.4-16.9,21.7-26.8,21.7-26.8l-7-7.1c0,0-31.8,14.1-29.1,40.2S385.7,216,385.3,229.8z"/>
			<ellipse class="st33" cx="383.6" cy="159" rx="11.4" ry="10.4"/>
			<path class="st33" d="M370.2,264c0,0,67.1-52.2,141.9,2.5c3.5-26.5-8.1-32.1-8.1-32.1s-52.7-30-118.6-4.6
				C363.6,241.5,370.2,264,370.2,264z"/>
			<path class="st10" d="M523.9,334.2c-5.2,3-11.6,5.7-19.6,8c3.8,4.8,2.6,13,0,13.8c10.2,1.3,18.6,17.5,3.8,25.1
				c1.7,9.5-2.6,20.4-13.4,19.9c0.3,11.6-4.7,17.5-22.7,13.5c-2.6,16.9-14,14.8-20.6,13.2c-7.6,9.3-18.6,14-29.1,1.6
				c-7.6,7.1-22.7,0.5-22.7-11.1c-14.2,1.9-20.3-10.1-18.9-15.4c-11.9,0.5-13.4-16.7-9.9-18.8c-16.9,0.5-11.3-22.2-4.7-24.4
				c-11-2.1-3.2-19.1,2.9-20.1c-2.9-0.2-5.7-1-8.2-2.2c-3.8,7.2-17.9,34.7-18.5,45.1c-0.8,12-2.1,66.5-2.1,66.5s68.2,31.1,209.3,0.7
				C546.5,443.9,555.4,370.4,523.9,334.2z"/>
			<path class="st27" d="M317.4,270.8l-26.6,21.6c-2.2,1.8-2.4,4.9-0.4,6.9l1,1.1c2,2,5.4,2.2,7.6,0.4l26.6-21.6
				c2.2-1.8,2.4-4.9,0.4-6.9l-1-1.1C323,269.1,319.6,269,317.4,270.8z"/>
			<path class="st26" d="M317.4,270.8c0,0-5.5-5.3-5.5-12.1c0-6.7-10-10.1-12.1-0.7c-8.6-9-17.7-4.1-14,2.1
				c-6.4-4.6-12.6,2.2-7.4,7.3c-7.8,0.4-13.2,7.7-2,11.6c4.2,0.8,15.1,7.6,14.3,13.3C301.8,283.4,317.4,270.8,317.4,270.8z"/>
			<path class="st26" d="M572.4,271.5c0,0,5.5-5.3,5.5-12.1c0-6.7,10-10.1,12.1-0.7c8.6-9,17.7-4.1,14,2.1c6.4-4.6,12.6,2.2,7.4,7.3
				c7.8,0.4,13.2,7.7,2,11.6c-4.2,0.8-15.1,7.6-14.3,13.3C588.1,284.2,572.4,271.5,572.4,271.5z"/>
			<path class="st27" d="M599.6,291.4l-27.2-21c-2.3-1.7-5.7-1.5-7.6,0.6l-1,1.1c-1.9,2.1-1.6,5.2,0.6,6.9l27.2,21
				c2.3,1.7,5.7,1.5,7.6-0.6l1-1.1C602.2,296.3,601.9,293.2,599.6,291.4z"/>
			<path class="st34" d="M554.1,449.1"/>
			<path class="st34" d="M446.5,464.2"/>
			<path class="st35" d="M370.4,469.8l4.1,25.4c0,0,25.6,9,57,3.2c9.3-19.1,9.3-19.1,9.3-19.1L370.4,469.8z"/>
			<path class="st35" d="M457.6,476.7l18,22.2c0,0,39.5-10.1,51.7-21.7c-0.6-17.5-0.6-17.5-0.6-17.5L457.6,476.7z"/>
			<path class="st27" d="M340.3,449c0,0,78.1,30.9,209.3,0.7c12.3-2.9,12.6,9.8,8.8,11.4s-100.9,38.4-225.9,1.3
				C322.5,457.3,328.5,446,340.3,449z"/>
			<path class="st4" d="M429.7,511.6l0.9,31.8c0,0-6.4,4.2-22.7,1.3c-18.6,3.7-42.4,7.9-57-4.8c-14.5-13.5,8.4-26.5,25.3-22.5
				c0.3-12.2,0.3-12.2,0.3-12.2l53.2,1.1L429.7,511.6L429.7,511.6z"/>
			<path class="st27" d="M475.6,498.9c0,0,42.4-11.4,51.7-21.7c8.1-5.6,14.2,6.6,10.5,8.7c-3.8,2.1-35.2,21.4-58.1,24.1
				C471.5,511.1,469.8,501.3,475.6,498.9z"/>
			<path class="st27" d="M374.4,495.2c0,0,31.1,10.1,57,3.2c9.6-2.4,11.3,10.6,4.9,12.2c-6.4,1.6-51.7,3.2-66.3-4.5
				C362.8,501.3,368.9,494.4,374.4,495.2z"/>
			<path class="st4" d="M530.8,489.4l2.1,9.9c0,0,3.5,0.5,8.3-5.3c4.8-5.8,37,1.1,27.5,15.4c-9.5,14.3-17.6,15.9-48.1,23.3
				c-23.6,8.5-26.7,7.9-26.7,7.9l-11.2-31.2L530.8,489.4z"/>
		</g>
	</g>
</g>
<g id="sweater" class="st21">
	<rect x="1969.3" y="567.3" class="st36" width="104.7" height="15.3"/>
	<g id="Shirt" class="st22">
		<path class="st37" d="M1990.3,289.5c0,0,12,11.3,24.7,12.7c12.7,1.4,22.9-0.9,37.8-12.5c17.7,9.5,26.7,15.8,26.7,15.8l-1.6,90.1
			c0,0-1.1,21.3-7,42.3c-98.2,0.9-98.2,0.9-98.2,0.9l0,0c0,0-5.2-18.1-6.3-29.4c-1.1-11.3-2.9-103.7-2.9-103.7L1990.3,289.5z"/>
		<path class="st38" d="M2016.5,261.5c2.7-6.3,3-6.4,5.6-5.2c2.8,1.3,4.5,4.2,4.5,7.4c0,2.5,0,6.3,0.1,11.2
			c5.1,3.8,39.2,27,29.7,27.6c-9.5,0.5-64.7,2.9-71.9,0.1c-3.2-0.9,6.7-7.8,13-13.2c6.4-5.4,18-13.8,18-13.8"/>
		<path class="st39" d="M1988.3,290.6c0,0,18.6,26.3,28.7,28.7c10.2,2.5,18.8-2.3,37.6-28.5c9.1,5.1,9.1,5.1,9.1,5.1
			s-21.2,29.4-31.7,32.4c-10.5,3.1-23,4.9-52.6-32.3C1988.3,290.6,1988.3,290.6,1988.3,290.6z"/>
		<path class="st39" d="M2071.9,444.5h-100.5c-1.6,0-2.8-1.3-2.8-2.8v-2c0-1.6,1.3-2.8,2.8-2.8h100.5c1.6,0,2.8,1.3,2.8,2.8v2
			C2074.7,443.2,2073.5,444.5,2071.9,444.5z"/>
		<g>
			<g>
				<path class="st39" d="M1924.2,369.4l34.9,16.9c1.4-3.6,2.6-6.8,3.5-9.4l-34.3-16.7C1926.8,363.3,1925.5,366.4,1924.2,369.4z"/>
				<path class="st39" d="M1911.7,413.9c0,0,6.3,2.7,24.4,12.4c3.6-2.8,7.2-7.7,10.5-13.5l-31.8-15.4
					C1912.4,407.5,1911.7,413.9,1911.7,413.9z"/>
				<path class="st39" d="M1932.8,351.3l31.8,15.5l-0.2-11.5l-27-13.1C1935.9,345,1934.4,348,1932.8,351.3z"/>
				<path class="st39" d="M1917.7,387.5l33.8,16.4c1.4-2.8,2.6-5.6,3.8-8.4l-34.7-16.9C1919.5,381.8,1918.5,384.7,1917.7,387.5z"/>
				<path class="st39" d="M1963.4,306.1c-3.9,1.9-7.3,5-10.7,9.5l11,5.4L1963.4,306.1z"/>
				<path class="st39" d="M1947.1,323.9c-1.6,2.8-3.3,5.9-5.1,9.3l22.2,10.8l-0.2-11.9L1947.1,323.9z"/>
				<path class="st37" d="M1914.9,397.3l31.8,15.4c1.6-2.8,3.2-5.8,4.7-8.9l-33.8-16.4C1916.6,391.1,1915.7,394.4,1914.9,397.3z"/>
				<path class="st37" d="M1963.7,320.9l-11-5.4c-1.8,2.4-3.7,5.2-5.6,8.4l16.8,8.2L1963.7,320.9z"/>
				<path class="st37" d="M1937.4,342.1l27,13.1l-0.2-11.2l-22.2-10.8C1940.5,336,1939,338.9,1937.4,342.1z"/>
				<path class="st37" d="M1929.5,357.7c-0.4,0.8-0.8,1.7-1.2,2.5l34.3,16.7c1.3-3.7,2.1-6.1,2.1-6.1l-0.1-4.1l-31.8-15.5
					C1931.7,353.3,1930.7,355.5,1929.5,357.7z"/>
				<path class="st37" d="M1920.6,378.7l34.7,16.9c1.4-3.2,2.7-6.4,3.8-9.3l-34.9-16.9C1922.9,372.6,1921.7,375.7,1920.6,378.7z"/>
			</g>
			<path class="st37" d="M1931.6,432.2l-23-11.5c-1.4-0.7-2-2.4-1.3-3.8l0.9-1.8c0.7-1.4,2.4-2,3.8-1.3l23,11.5
				c1.4,0.7,2,2.4,1.3,3.8l-0.9,1.8C1934.7,432.3,1933,432.9,1931.6,432.2z"/>
		</g>
		<g>
			<g>
				<path class="st39" d="M2118.7,368.6l-34.9,16.9c-1.4-3.6-2.6-6.8-3.5-9.4l34.3-16.7C2116.1,362.6,2117.5,365.6,2118.7,368.6z"/>
				<path class="st39" d="M2131.2,413.2c0,0-6.3,2.7-24.4,12.4c-3.6-2.8-7.2-7.7-10.5-13.5l31.8-15.4
					C2130.5,406.7,2131.2,413.2,2131.2,413.2z"/>
				<path class="st39" d="M2110.1,350.5l-31.8,15.5l0.2-11.5l27-13.1C2107,344.2,2108.5,347.3,2110.1,350.5z"/>
				<path class="st39" d="M2125.3,386.8l-33.8,16.4c-1.4-2.8-2.6-5.6-3.8-8.4l34.7-16.9C2123.5,381,2124.4,384,2125.3,386.8z"/>
				<path class="st39" d="M2079.5,305.3c3.9,1.9,7.3,5,10.7,9.5l-11,5.4L2079.5,305.3z"/>
				<path class="st39" d="M2095.9,323.2c1.6,2.8,3.3,5.9,5.1,9.3l-22.2,10.8l0.2-11.9L2095.9,323.2z"/>
				<path class="st37" d="M2128,396.6l-31.8,15.4c-1.6-2.8-3.2-5.8-4.7-8.9l33.8-16.4C2126.4,390.3,2127.3,393.6,2128,396.6z"/>
				<path class="st37" d="M2079.3,320.1l11-5.4c1.8,2.4,3.7,5.2,5.6,8.4l-16.8,8.2L2079.3,320.1z"/>
				<path class="st37" d="M2105.6,341.4l-27,13.1l0.2-11.2l22.2-10.8C2102.4,335.2,2104,338.2,2105.6,341.4z"/>
				<path class="st37" d="M2113.4,357c0.4,0.8,0.8,1.7,1.2,2.5l-34.3,16.7c-1.3-3.7-2.1-6.1-2.1-6.1l0.1-4.1l31.8-15.5
					C2111.2,352.6,2112.3,354.7,2113.4,357z"/>
				<path class="st37" d="M2122.4,378l-34.7,16.9c-1.4-3.2-2.7-6.4-3.8-9.3l34.9-16.9C2120.1,371.8,2121.3,374.9,2122.4,378z"/>
			</g>
			<path class="st37" d="M2111.3,431.4l23-11.5c1.4-0.7,2-2.4,1.3-3.8l-0.9-1.8c-0.7-1.4-2.4-2-3.8-1.3l-23,11.5
				c-1.4,0.7-2,2.4-1.3,3.8l0.9,1.8C2108.2,431.6,2109.9,432.1,2111.3,431.4z"/>
		</g>
	</g>
	<path class="st36" d="M2020.7,576L2020.7,576c-4.4,0-8-3.6-8-8V260c0-4.4,3.6-8,8-8l0,0c4.4,0,8,3.6,8,8v308
		C2028.7,572.4,2025.1,576,2020.7,576z"/>
</g>
<g id="Layer_2_1_">
	<g id="Layer_1-2">
		<g id="Frame">
			<path class="st40" d="M63.4,130.8c0,0-21.4-25.7,4.1-37.2c19.6-4.3,15.6,9.1,37.2,1.2c11.9-3.9,23.7,7.4,28,7.6
				c4.3,0.2,8.2-10.1,18.3-10.9s9.9,14.8,14.4,13.2c4.5-1.6,16.9-13.4,33.7-7.9c5.9,3.6,8.6,5.6,15.6-0.4s24.3-6.8,29.4,9.5
				c3.1,10.1-5.1,18.9-5.5,20.6c-0.4,1.7-3.1,5.6,2.3,12.6s-2.3,23.7-8,30.5c-2.5,4.9,9.1,9.7,9.5,11.9s3.7,11-9.1,18.1
				c0,0-3.5,2,4.3,12.1s3.1,24.1,0.6,29.2s16.5,19.8,0.6,35.6s-26.1-3.5-32.3-2.9s-16.4,14.2-38.5-3.1c-8.9-0.8-5.8,9.7-16.9,10.5
				s-9.9-10.9-15.6-11.7c-5.6-0.8-11.1,10.1-23.1,9.5c-12-0.6-14.4-4.7-20.2-4.5c-5.8,0.2-7.6,9.5-19.6,8s-26.5-15.9-8.9-38.9
				c-12.4-17.7,4.3-40.1,4.3-40.1s-12.3-7.8-11.1-15.4c1.2-7.6,8.6-10.7,10.3-13.4c1.7-2.7-8-13.8-9.1-22
				C56.6,144.4,63.4,130.8,63.4,130.8z"/>
			<path class="st41" d="M160.9,183.6c-8.3-15.5-26.2-19-40.6-29.8c-20.5-14.3-41.4-53.8-56.6-44c-1.2,0.7-2.1,1.9-2.6,3.2
				c-0.9,3.8,2.8,10.9,5.7,14.5l5,6l-3.5,6.9c-2.7,5.5-5,12.9-4.6,15.2c0.3,2,2.9,6.5,4.4,9.2c3.7,6.5,7.9,13.8,3.1,21.3
				c-1.5,2.1-3.3,4-5.4,5.6c-1,0.8-2,1.6-2.9,2.6c1.6,1.8,3.4,3.4,5.4,4.7l10.9,6.9l-7.7,10.3c-2.2,3.2-4,6.7-5.2,10.3
				c-3.4,10.2-0.1,15,1,16.6l5,7.1l-5.3,6.9c-4.8,6.5-6.8,12.2-5.3,15.9c1.3,2.6,3.7,4.3,6.5,4.7c0.4,0,0.8,0.1,1.1,0.1
				c1.1,0,1.3-0.1,3.6-2.1c2.6-2.2,6.8-6,13.4-6.2h0.8c3.7,0.1,7.4,0.9,10.8,2.4c3.2,1.4,6.6,2.1,10,2.2h0.4c2.6,0,4.7-1.5,8-3.9
				c3.6-2.6,8-5.9,14.2-5.9c0.7,0,1.5,0.1,2.2,0.2c8.2,1.1,11.8,7.6,13.6,10.7c0.1,0.1,0.1,0.3,0.2,0.4l0.1-0.1c2-3,6.5-10,16.7-10
				c0.6,0,1.3,0,2,0.1l3.5,0.3l2.8,2.2c3.8,2.9,9.2,6.4,13.9,6.4c2.7,0,5-1.2,7.7-2.5c2.9-1.7,6.1-2.8,9.4-3.2
				c0.5,0,0.9-0.1,1.4-0.1c5.8,0,10,3.1,13.7,5.8c2,1.4,4.9,3.6,6.3,3.6c0.7,0,2.2-0.8,4.4-2.9c2.2-2.1,3.1-3.7,3-5.9
				c-0.6-7.7-4.2-7.4-4.4-7.7C199.6,235.5,180,216.9,160.9,183.6z"/>
			<rect x="75.7" y="114.5" class="st42" width="149.3" height="145.4"/>
		</g>
	</g>
</g>
<g id="Layer_2_2_">
	<g id="Layer_1-2_1_">
		<g id="Frame_1_">
			<path class="st43" d="M1188.4,90.8c0,0-21.4-25.7,4.1-37.2c19.6-4.3,15.6,9.1,37.2,1.2c11.9-3.9,23.7,7.4,28,7.6
				c4.3,0.2,8.2-10.1,18.3-10.9c10.1-0.8,9.9,14.8,14.4,13.2c4.5-1.6,16.9-13.4,33.7-7.9c5.9,3.6,8.6,5.6,15.6-0.4
				s24.3-6.8,29.4,9.5c3.1,10.1-5.1,18.9-5.5,20.6s-3.1,5.6,2.3,12.6s-2.3,23.7-8,30.5c-2.5,4.9,9.1,9.7,9.5,11.9s3.7,11-9.1,18.1
				c0,0-3.5,2,4.3,12.1s3.1,24.1,0.6,29.2s16.5,19.8,0.6,35.6s-26.1-3.5-32.3-2.9s-16.4,14.2-38.5-3.1c-8.9-0.8-5.8,9.7-16.9,10.5
				s-9.9-10.9-15.6-11.7c-5.6-0.8-11.1,10.1-23.1,9.5s-14.4-4.7-20.2-4.5c-5.8,0.2-7.6,9.5-19.6,8s-26.5-15.9-8.9-38.9
				c-12.4-17.7,4.3-40.1,4.3-40.1s-12.3-7.8-11.1-15.4c1.2-7.6,8.6-10.7,10.3-13.4c1.7-2.7-8-13.8-9.1-22
				C1181.6,104.4,1188.4,90.8,1188.4,90.8z"/>
			<path class="st44" d="M1285.9,143.6c-8.3-15.5-26.2-19-40.6-29.8c-20.5-14.3-41.4-53.8-56.6-44c-1.2,0.7-2.1,1.9-2.6,3.2
				c-0.9,3.8,2.8,10.9,5.7,14.5l5,6l-3.5,6.9c-2.7,5.5-5,12.9-4.6,15.2c0.3,2,2.9,6.5,4.4,9.2c3.7,6.5,7.9,13.8,3.1,21.3
				c-1.5,2.1-3.3,4-5.4,5.6c-1,0.8-2,1.6-2.9,2.6c1.6,1.8,3.4,3.4,5.4,4.7l10.9,6.9l-7.7,10.3c-2.2,3.2-4,6.7-5.2,10.3
				c-3.4,10.2-0.1,15,1,16.6l5,7.1l-5.3,6.9c-4.8,6.5-6.8,12.2-5.3,15.9c1.3,2.6,3.7,4.3,6.5,4.7c0.4,0,0.8,0.1,1.1,0.1
				c1.1,0,1.3-0.1,3.6-2.1c2.6-2.2,6.8-6,13.4-6.2h0.8c3.7,0.1,7.4,0.9,10.8,2.4c3.2,1.4,6.6,2.1,10,2.2h0.4c2.6,0,4.7-1.5,8-3.9
				c3.6-2.6,8-5.9,14.2-5.9c0.7,0,1.5,0.1,2.2,0.2c8.2,1.1,11.8,7.6,13.6,10.7c0.1,0.1,0.1,0.3,0.2,0.4l0.1-0.1c2-3,6.5-10,16.7-10
				c0.6,0,1.3,0,2,0.1l3.5,0.3l2.8,2.2c3.8,2.9,9.2,6.4,13.9,6.4c2.7,0,5-1.2,7.7-2.5c2.9-1.7,6.1-2.8,9.4-3.2
				c0.5,0,0.9-0.1,1.4-0.1c5.8,0,10,3.1,13.7,5.8c2,1.4,4.9,3.6,6.3,3.6c0.7,0,2.2-0.8,4.4-2.9c2.2-2.1,3.1-3.7,3-5.9
				c-0.6-7.7-4.2-7.4-4.4-7.7C1324.6,195.5,1305,176.9,1285.9,143.6z"/>
			<rect x="1200.7" y="74.5" class="st45" width="149.3" height="145.4"/>
		</g>
	</g>
</g>
<g id="Layer_2_4_">
	<g id="Layer_1-2_3_">
		<g id="bluebox_1_">
			<rect x="951.1" y="507.6" class="st46" width="63.1" height="42.9"/>
			<path class="st47" d="M991.7,488c-5.2-0.6-8.7,8.3-8.7,8.3s-2.6-5.6-3.8-6.7c-2.2-1.7-5.2-2-7.6-0.7c-3,1.7-1.9,4.7-1.8,6.2
				c0.1,1.5,6.6,7.9,6.6,7.9s11.4,1,13.4-0.5c1.9-1.5,4-4,6-6S997,488.7,991.7,488z M974.1,491.3c3.8-1.8,6.4,8.7,6.4,8.7
				C976.2,499.1,970.2,493.1,974.1,491.3z M985.5,500.3c0,0,2.6-10.4,6.5-8.9S989.6,499.7,985.5,500.3z"/>
			<rect x="951.1" y="505.2" class="st48" width="63.5" height="4.4"/>
			<rect x="947.5" y="502.8" class="st46" width="70.1" height="5.2"/>
			<polygon class="st47" points="978.4,502.4 978.4,550.5 987.1,550.5 987.1,502.2 			"/>
		</g>
	</g>
</g>
<g id="Layer_2_7_">
	<g id="Layer_1-2_6_">
		<g id="bluebox_4_">
			<rect x="1246.6" y="456.1" class="st46" width="77.8" height="61.3"/>
			<path class="st47" d="M1296.7,428.1c-6.4-0.9-10.7,11.8-10.7,11.8s-3.2-8-4.7-9.5c-2.7-2.5-6.4-2.8-9.4-0.9
				c-3.7,2.5-2.4,6.8-2.2,8.9s8.1,11.3,8.1,11.3s14.1,1.5,16.5-0.7c2.4-2.1,4.9-5.7,7.4-8.6C1304.2,437.5,1303.2,429,1296.7,428.1z
				 M1274.9,432.7c4.7-2.6,7.8,12.5,7.8,12.5C1277.6,443.9,1270.2,435.3,1274.9,432.7z M1289,445.6c0,0,3.2-14.9,8-12.8
				C1301.8,435,1294.1,444.7,1289,445.6z"/>
			<rect x="1246.6" y="452.6" class="st48" width="78.3" height="6.3"/>
			<rect x="1242.2" y="449.2" class="st46" width="86.5" height="7.4"/>
			<polygon class="st47" points="1280.3,448.6 1280.3,517.3 1291,517.3 1291,448.4 			"/>
		</g>
	</g>
</g>
<g id="Layer_2_6_">
	<g id="Layer_1-2_5_">
		<g id="bluebox_3_">
			<rect x="1301.1" y="473.8" class="st15" width="38.3" height="44"/>
			<path class="st16" d="M1356.8,502.2c0.6-3.6-7.4-6.1-7.4-6.1s5-1.8,5.9-2.7c1.5-1.5,1.8-3.6,0.6-5.3c-1.6-2.1-4.2-1.3-5.6-1.3
				c-1.3,0.1-7.1,4.6-7.1,4.6s-0.9,8,0.4,9.3s3.5,2.8,5.4,4.2C1350.9,506.4,1356.2,505.8,1356.8,502.2z M1353.9,489.8
				c1.6,2.7-7.8,4.4-7.8,4.4C1346.9,491.4,1352.3,487.2,1353.9,489.8z M1345.9,497.8c0,0,9.3,1.8,8,4.5
				C1352.5,505.1,1346.4,500.7,1345.9,497.8z"/>
			<rect x="1337.6" y="473.8" class="st17" width="3.9" height="44.3"/>
			<rect x="1339" y="471.3" class="st15" width="4.6" height="48.9"/>
			<polygon class="st16" points="1344,492.9 1301.1,492.9 1301.1,499 1344.1,499 			"/>
		</g>
	</g>
</g>
<g id="henry_1_" class="st21">
	<polygon class="st49" points="117.5,435.2 119.7,451.5 147.9,478.6 164.2,443.9 162.6,426.7 	"/>
	<g class="st22">
		<polygon class="st50" points="105.9,440.5 113.1,443.6 114.7,441.6 119.7,444.3 119.1,440.6 122.7,443.8 126.2,439.7 132.7,442.3 
			137.4,438.4 143.3,440.4 147.8,436.9 154.6,439.5 158.9,435.3 163.5,437.5 166.2,433.2 171.1,433.8 175.4,427.1 		"/>
		<g>
			<path class="st51" d="M191.5,355.4c0,0-2.4-17.5-13.2-24.3c0,0,0,19.1,4.5,24.8c-18.9-17.6-25.7-30.1-25.7-30.1
				s-10.1,16-5.8,22.8c-14-18.1-11.9-21.1-11.9-21.1s-14.7,13.7-11.1,20.7L113,334c0,0-16.4,16.1-13.4,27c0,0-9-6.3-7.5-18.8
				c-8.5,32.9-9.7,26.2-9.7,26.2S74,355.9,77,345c-8.1,32.8-12,28.5-12,28.5l-1.4-0.9l6.1,33.6c4.1,22.6,26,37.7,48.5,33.6l46.5-8.5
				c22.6-4.1,37.7-26,33.6-48.5l-5.4-29.8L191.5,355.4z"/>
			<path class="st50" d="M77,345c-3,10.9,5.4,23.4,5.4,23.4s1.2,6.7,9.7-26.2c-1.5,12.5,7.5,18.8,7.5,18.8c-3-11,13.4-27,13.4-27
				l17.8,21.3c-3.6-7,8.7-27.8,8.7-27.8s-2.1,3.1,11.9,21.1c-4.3-6.9,5.8-22.8,5.8-22.8s6.9,12.5,25.7,30.1
				c-4.5-5.7-4.5-24.8-4.5-24.8c10.8,6.8,13.2,24.3,13.2,24.3l1.3-2.5l-3.9-21.2c-4.1-22.6-26-37.7-48.5-33.6L94,306.6
				c-22.6,4.1-37.7,26-33.6,48.5l3.2,17.4l1.4,0.9C65,373.5,68.9,377.8,77,345z"/>
		</g>
		
			<ellipse transform="matrix(0.9838 -0.1794 0.1794 0.9838 -66.6091 24.8518)" class="st52" cx="104.1" cy="380.7" rx="10.9" ry="7.3"/>
		
			<ellipse transform="matrix(0.9838 -0.1794 0.1794 0.9838 -63.6654 35.0042)" class="st52" cx="161.7" cy="369.5" rx="10.9" ry="7.3"/>
		<path class="st53" d="M112.9,390L97,392.9c-5.6,1-11-2.7-12-8.3l-0.4-2.2c-1-5.6,2.7-11,8.3-12l15.9-2.9c5.6-1,11,2.7,12,8.3
			l0.4,2.2C122.3,383.6,118.5,389,112.9,390z"/>
		<g>
			<path class="st33" d="M172.1,355.9l-23.7,4.3c-3.5,0.6-5.8,4-5.1,7.4l1.8,10c0.6,3.5,4,5.8,7.4,5.1l6.1-1.1l16.3-25.6
				C174,355.8,173.1,355.7,172.1,355.9z"/>
			<path class="st54" d="M181.3,371l-1.8-10c-0.5-2.5-2.3-4.4-4.6-5l-16.3,25.6l17.5-3.2C179.7,377.8,182,374.5,181.3,371z"/>
		</g>
		<path class="st53" d="M172,379.2l-15.9,2.9c-5.6,1-11-2.7-12-8.3l-0.4-2.2c-1-5.6,2.7-11,8.3-12l15.9-2.9c5.6-1,11,2.7,12,8.3
			l0.4,2.2C181.4,372.8,177.6,378.2,172,379.2z"/>
		<g>
			<path class="st50" d="M164,408.8c-0.3-1.5-0.9-2.8-1.8-4.1c-1.9,5-11.1,10.1-22.8,12.3c-11.5,2.1-21.8,0.6-25.5-3.2
				c-0.4,1.4-0.4,2.8-0.2,4.2c1,5.6,7.1,9.6,15.3,10.8c0.2-3.1,4.7-6.3,10.8-7.4c6.2-1.1,11.7,0.4,12.8,3.4
				C160.3,420.8,165.1,414.7,164,408.8z"/>
			<path class="st55" d="M139.8,421.4c-6,1.1-10.5,4.3-10.8,7.4c3.8,0.5,8.1,0.5,12.6-0.3c4.1-0.7,7.8-2,11-3.7
				C151.5,421.8,146,420.2,139.8,421.4z"/>
		</g>
		<g>
			<path class="st56" d="M109.3,409.8c-2.4,1.5-3.9,4-3.4,6.5c0.4,2.2,2.2,3.9,4.5,4.7c-1.3-1.2-2.3-2.8-2.6-4.7
				C107.4,413.9,108,411.5,109.3,409.8z"/>
		</g>
		
			<rect x="121" y="374.1" transform="matrix(0.9838 -0.1794 0.1794 0.9838 -65.1422 29.8741)" class="st52" width="23.2" height="2"/>
	</g>
	<path class="st57" d="M60.9,350.2c0,0,120.5-24.5,127.8-20.9c-4.3-36.4-64.7-18.5-100.5-12.3C47.9,323.8,60.9,350.2,60.9,350.2z"/>
	<path class="st58" d="M59.1,340.1c0,0-6.7-118.9,78-93.1s93.1,105.7,93.1,105.7L182,317.2C181.9,317.2,100.5,305.1,59.1,340.1z"/>
	<circle class="st59" cx="236.5" cy="347.9" r="16"/>
	<g class="st22">
		<path class="st60" d="M181.9,317.2c-1.6-2.4-3-4.8-4.4-7.3c-0.7-1.2-1.3-2.5-2.1-3.6c-0.7-1.1-1.6-2.2-2.6-3.1c-1-1-2-1.8-3.2-2.5
			s-2.5-1.4-3.7-2.1c-2.4-1.4-4.9-2.9-7.2-4.6c2.6,1.1,5.2,2.3,7.8,3.5c1.3,0.6,2.5,1.2,3.8,1.9c1.3,0.7,2.5,1.6,3.5,2.6
			s2,2.2,2.7,3.5c0.8,1.3,1.3,2.6,1.9,3.9C179.8,312,180.9,314.6,181.9,317.2z"/>
	</g>
	<g class="st22">
		<path class="st60" d="M163.1,300.8c1.5,0.2,2.9,0.7,4.2,1.4c1.3,0.6,2.6,1.5,3.8,2.4c1.1,1,2.2,2.1,3,3.3c0.8,1.2,1.4,2.7,1.8,4.1
			c-0.4-0.6-0.6-1.3-1-1.9c-0.2-0.3-0.4-0.6-0.6-0.9l-0.6-0.9c-0.9-1.1-1.9-2.2-3-3.1s-2.3-1.7-3.6-2.5c-0.6-0.4-1.3-0.7-1.9-1
			C164.5,301.3,163.8,301,163.1,300.8z"/>
	</g>
	<path class="st49" d="M224.3,500.2l17.6,47.7l-13.3,15.3l-19,14.7l17.2,23c0,0,15.6-14.6,27.7-36.6c12.1-22,20.7-17.9-9.2-65.8
		S224.3,500.2,224.3,500.2z"/>
	<path class="st61" d="M119.7,451.5c0,0,25.1,16,44.5-7.6c61.3-13.7,94.7,61.6,94.7,61.6l-41,12.1l-21.8-43.3l55.7,137.6l-182.2,2.8
		l44-121.1l-21.2,48l-45.5-36.4l27.3-33.3c4.5-5.5,10.6-9.6,17.4-11.7L119.7,451.5z"/>
</g>
<path id="hand_1_" class="st62" d="M4.5,483.8c-0.2-0.5-11.1-27.1-17.7-46.8c-18.7-7.1-19.4-24-19.4-24s-18-1.1-22.6-1.8
	c-4.7-0.7-6.6-5.8-1.8-5.9c9.8-1.7,26.2-2.8,25.4-4.1s-16.5-7.4-23.2-14.5s0.7-9.6,3.9-7.8c3.3,1.8,32.5,17.7,29.7,11.1
	c-17.8-20.9-18.2-28.1-18.3-30.8c-0.1-2.7,6.7-10.2,9.9-1.2s18,29.6,22.8,28.1c-6.1-25.7-5.4-32.5-4.8-36.4
	c0.6-3.8,8.6-9.7,10.2-4.6c0.7,6.6,3.1,22.2,9,45.4c9.7-20.6,19.4-17.3,22.6-16.5s6.6,3.3,1.8,6.6s-7.8,3.5-13,14.4
	c-3.2,32.8-21.5,38.8-21.5,38.8l43.3,65c0,0,10.7,22.2,21.7,13.4C73.4,503.4,84,511,84,511l0.3,10.7c0,0-17,15.6-34.7,31.1
	S20.5,526.7,4.5,483.8z"/>
<g>
	<g id="Layer_2_9_">
		<g id="Layer_1-2_9_">
			<path id="right" class="st1" d="M-212.4,417L-212.4,417c0,0.5-0.4,0.8-0.9,0.8h-7.5c-0.5,0-0.9,0.4-0.9,0.8l0,0v4
				c0,0.5,0.4,0.8,0.8,0.9h7.4c0.5,0,0.8,0.4,0.8,0.9v0.1c0,0.5,0.4,0.9,0.9,0.8c0.2,0,0.4-0.1,0.6-0.2l4.3-3.7
				c0.4-0.3,0.4-0.8,0.1-1.2l-0.1-0.1l-4.1-3.7c-0.3-0.3-0.9-0.3-1.2,0.1C-212.4,416.5-212.4,416.8-212.4,417z"/>
		</g>
	</g>
	<g id="Layer_2_10_">
		<g id="Layer_1-2_10_">
			<path id="right_1_" class="st1" d="M-232.4,424L-232.4,424c0-0.5,0.4-0.8,0.9-0.8h7.5c0.5,0,0.9-0.4,0.9-0.8l0,0v-4
				c0-0.5-0.4-0.8-0.8-0.9h-7.4c-0.5,0-0.8-0.4-0.8-0.9v-0.1c0-0.5-0.4-0.9-0.9-0.8c-0.2,0-0.4,0.1-0.6,0.2l-4.3,3.7
				c-0.4,0.3-0.4,0.8-0.1,1.2l0.1,0.1l4.1,3.7c0.3,0.3,0.9,0.3,1.2-0.1C-232.5,424.5-232.4,424.3-232.4,424z"/>
		</g>
	</g>
	<g class="st21">
		<g id="Layer_2_8_" class="st22">
			<g id="Layer_1-2_8_">
				<g id="Frame_2_">
					<rect x="-297.3" y="283.5" class="st42" width="149.3" height="145.4"/>
				</g>
			</g>
		</g>
		<g id="clothes1" class="st22">
			<g id="Layer_1-2_7_">
				<g id="Clothes_1_">
					<g id="BG">
						<path class="st23" d="M-235.2,347.5c0,0,11.2-4.8,22.3,0.9c-1.5-5.8-8.5-7.4-11.5-7.2s-15.4,2.5-15.3-0.7s4.1-5.1,4.1-5.1
							l-1.3-1.3c0,0-6,2.7-5.5,7.6C-241.8,346.5-235.2,344.9-235.2,347.5z"/>
						<path class="st24" d="M-235.5,332.2c1.2,0,2.1,0.9,2.1,2s-1,2-2.1,2c-1.2,0-2.1-0.9-2.1-2
							C-237.7,333.1-236.8,332.2-235.5,332.2"/>
						<path class="st25" d="M-238.1,354c0,0,12.6-9.8,26.7,0.5c0.7-5-1.5-6-1.5-6s-9.9-5.7-22.3-0.9
							C-239.3,349.7-238.1,354-238.1,354z"/>
						<path class="st26" d="M-248,355.2c0,0-1-1-1-2.3s-1.9-1.9-2.3-0.1c-1.6-1.7-3.3-0.8-2.6,0.4c-1.2-0.9-2.4,0.4-1.4,1.4
							c-1.5,0.1-2.5,1.4-0.4,2.2c0.8,0.2,2.5,1.6,2.7,2.5C-250.8,357.6-248,355.2-248,355.2z"/>
						<g id="Face">
							<path class="st26" d="M-238,353.9c0,0-1.6,7.4,0.5,9.4s8.7,7,12.3,6.7s9.3-1.6,11.3-3.4s4.3-7.6,4.1-8.8s-1.4-3.4-1.4-3.4
								S-222.3,344.1-238,353.9z"/>
							<path class="st27" d="M-209.6,356.7c0.7-2.6-1.6-2.4-1.6-2.4c-14.2-10.4-26.7-0.5-26.7-0.5c-1.1,0.1-2.8,1.6-1.4,2.7
								c-5.9,1.5-4.2,11.1,1.2,11.6c-1.1,0.2-2.6,3.4-0.5,3.8c-1.3,0.4-2.3,4.7,0.9,4.6c-0.7,0.4-0.4,3.6,1.9,3.6
								c-0.3,1,0.9,3.2,3.5,2.9c0,2.2,2.8,3.4,4.3,2.1c2,2.4,4.1,1.4,5.5-0.3c1.3,0.3,3.4,0.7,3.9-2.5c3.4,0.8,4.3-0.4,4.3-2.6
								c2,0.1,2.8-2,2.5-3.8c2.8-1.4,1.2-4.5-0.7-4.8c0.5-0.2,0.7-1.7,0-2.6C-201.3,365.3-206.1,357.4-209.6,356.7z M-212.8,363.5
								l-4.5-0.1c0-1.6-3-3.2-4.1-2c-0.1,1.4-5.4,1.6-5.5-0.1c-3.9,0.2-4,1.4-4.8,2.1c-5.1,2-7.4-2.6-6.5-4.4c4.3-1.1,2.2-2.2,0.1-2
								c-0.3-2.9,2-3.1,2-3.1s0.1,3.2,1.6,1.4c1.5-1.8,5.6-3.1,5.6-3.1V351l8.8,0.2v1.6c0,0,3.4,0.6,5.1,2.2
								c1.7,1.6,2.4,1.5,2.3-0.8c0.7,0.2,1.2,0.8,1.5,2.8c-1.9,0.8-1.8,1.5,0.2,1.4C-209.8,359.7-212.8,363.5-212.8,363.5
								L-212.8,363.5z"/>
							<path class="st28" d="M-231.4,358.4h2C-229.5,355.2-231.2,354.9-231.4,358.4z"/>
							<path class="st28" d="M-219.8,358.4h2C-217.8,355.1-219.6,354.8-219.8,358.4z"/>
							<ellipse class="st29" cx="-224.2" cy="360.6" rx="3.6" ry="2.6"/>
							<ellipse class="st30" cx="-218.9" cy="361.4" rx="3" ry="2.4"/>
							<ellipse class="st30" cx="-230.3" cy="361.3" rx="3" ry="2.4"/>
							<ellipse class="st31" cx="-224.3" cy="360.3" rx="3.6" ry="2.6"/>
							<path class="st63" d="M-227.9,365.5l0.5,1c1.2,2.4,4,2.5,5.4,0.2l0.7-1.2"/>
						</g>
					</g>
					<g id="green_and_blue">
						<path class="st26" d="M-206.4,359.7l4.8-3.3c0,0,4.1,3.4,5.6,4.4c-1.3,3-7.7,12.3-9.7,13.5c-2-2.7-2.5-6.4-3.4-7.1
							C-207.8,365.7-204,363.8-206.4,359.7z"/>
						<path class="st26" d="M-246.3,356.6l3.6,2.4l3.7,7l-3.5,8.5c0,0-8.3-10.6-9.2-13.6C-249,358.9-246.3,356.6-246.3,356.6z"/>
						<path class="st33" d="M-235.2,347.5c0,0,11.3-4.9,22.4,0.9c-1.5-5.8-8.6-7.5-11.5-7.3s-15.4,2.5-15.3-0.7
							c0.1-3.2,4.1-5.1,4.1-5.1l-1.3-1.3c0,0-6,2.7-5.5,7.6S-235.1,344.9-235.2,347.5z"/>
						<ellipse class="st33" cx="-235.5" cy="334.1" rx="2.1" ry="2"/>
						<path class="st33" d="M-238,353.9c0,0,12.7-9.8,26.8,0.5c0.7-5-1.5-6.1-1.5-6.1s-9.9-5.7-22.4-0.9
							C-239.2,349.7-238,353.9-238,353.9z"/>
						<path class="st10" d="M-209,367.2c-1.2,0.6-2.4,1.2-3.7,1.5c0.7,0.9,0.5,2.5,0,2.6c1.9,0.2,3.5,3.3,0.7,4.7
							c0.3,1.8-0.5,3.8-2.5,3.8c0.1,2.2-0.9,3.3-4.3,2.5c-0.5,3.2-2.6,2.8-3.9,2.5c-1.4,1.8-3.5,2.6-5.5,0.3
							c-1.4,1.3-4.3,0.1-4.3-2.1c-2.7,0.4-3.8-1.9-3.6-2.9c-2.2,0.1-2.5-3.1-1.9-3.5c-3.2,0.1-2.1-4.2-0.9-4.6
							c-2.1-0.4-0.6-3.6,0.5-3.8c-0.5,0-1.1-0.2-1.5-0.4c-0.7,1.4-3.4,6.5-3.5,8.5c-0.2,2.3-0.4,12.5-0.4,12.5s12.9,5.9,39.5,0.1
							C-204.8,387.8-203.1,374-209,367.2z"/>
						<path class="st27" d="M-248,355.2l-5,4.1c-0.4,0.3-0.5,0.8-0.2,1.2l0.1,0.1l0.2,0.2c0.4,0.4,1,0.4,1.4,0.1l5-4.1
							c0.4-0.3,0.5-0.8,0.2-1.2l-0.1-0.1l-0.2-0.2C-246.9,354.9-247.5,354.8-248,355.2z"/>
						<path class="st26" d="M-248,355.2c0,0-1-1-1-2.3s-1.9-1.9-2.3-0.1c-1.6-1.7-3.3-0.8-2.6,0.4c-1.2-0.9-2.4,0.4-1.4,1.4
							c-1.5,0.1-2.5,1.5-0.4,2.2c0.8,0.2,2.8,1.4,2.7,2.5L-248,355.2z"/>
						<path class="st26" d="M-199.9,355.3c0,0,1-1,1-2.3s1.9-1.9,2.3-0.1c1.6-1.7,3.3-0.8,2.6,0.4c1.2-0.9,2.4,0.4,1.4,1.4
							c1.5,0.1,2.5,1.5,0.4,2.2c-0.8,0.2-2.8,1.4-2.7,2.5L-199.9,355.3z"/>
						<path class="st27" d="M-194.7,359.1l-5.1-4c-0.4-0.3-1.1-0.3-1.4,0.1l-0.2,0.2c-0.3,0.3-0.3,0.9,0,1.2l0.1,0.1l5.1,4
							c0.4,0.3,1.1,0.3,1.4-0.1l0.2-0.2C-194.3,360.1-194.3,359.5-194.7,359.1L-194.7,359.1z"/>
						<path class="st35" d="M-238,392.7l0.8,4.8c0,0,4.8,1.7,10.7,0.6l1.8-3.6L-238,392.7z"/>
						<path class="st35" d="M-221.5,394l3.4,4.2c0,0,7.4-1.9,9.7-4.1l-0.1-3.3L-221.5,394z"/>
						<path class="st27" d="M-243.6,388.8c0,0,14.7,5.8,39.5,0.1c2.3-0.5,2.4,1.8,1.7,2.1s-19,7.2-42.6,0.2
							C-247,390.3-245.9,388.2-243.6,388.8z"/>
						<path class="st4" d="M-226.8,400.6l0.2,6c0,0-1.2,0.8-4.3,0.2c-3.5,0.7-8,1.5-10.7-0.9c-2.7-2.5,1.6-5,4.8-4.2l0.1-2.3l10,0.2
							v1H-226.8z"/>
						<path class="st27" d="M-218.1,398.2c0,0,8-2.1,9.7-4.1c1.5-1,2.7,1.2,2,1.6s-6.6,4-11,4.5
							C-218.9,400.5-219.2,398.6-218.1,398.2z"/>
						<path class="st27" d="M-237.2,397.5c0,0,5.9,1.9,10.7,0.6c1.8-0.5,2.1,2,0.9,2.3c-1.2,0.3-9.7,0.6-12.5-0.8
							C-239.4,398.6-238.2,397.4-237.2,397.5z"/>
						<path class="st4" d="M-207.7,396.4l0.4,1.9c0,0,0.7,0.1,1.6-1c0.9-1.1,7,0.2,5.2,2.9c-1.8,2.7-3.3,3-9,4.4
							c-4.4,1.6-5,1.5-5,1.5l-2.1-5.9L-207.7,396.4z"/>
					</g>
				</g>
			</g>
		</g>
		
			<text transform="matrix(0.948 0 0 1 -288.0005 311.0176)" style="display:inline;fill:#9D0000; font-family:'Krungthep'; font-size:16.8772px;">DRESS UP SANTA</text>
		<g class="st22">
			<text transform="matrix(0.948 0 0 1 -255.8691 321.75)" style="fill:#9D0000; font-family:'Krungthep'; font-size:6px;">Click on the arrow to </text>
			<text transform="matrix(0.948 0 0 1 -258.5234 328.9502)" style="fill:#9D0000; font-family:'Krungthep'; font-size:6px;">change Santa’s clothes</text>
		</g>
	</g>
</g>
<g id="Layer_2_11_" class="st21">
	<g id="Layer_1-2_12_" class="st22">
		<g id="Frame_3_">
			<rect x="-347.8" y="281.8" class="st42" width="149.3" height="145.4"/>
		</g>
	</g>
</g>
<g id="Layer_2_12_">
	<g id="Layer_1-2_11_">
		<g id="Wreath">
			<path class="st10" d="M834.6,189.6c-3.5,0-6.8-1.6-9-4.4c-1.8,1.1-3.9,1.7-6.1,1.7c-1.5,0-2.9-0.3-4.3-0.8
				c-5.1,3.7-12.3,2.5-16-2.7c-1-1.4-1.6-2.9-1.9-4.6h-0.5c-3.9,0-7.5-1.9-9.6-5.2c-6.1,1.6-12.4-2.1-13.9-8.2
				c-0.2-0.9-0.4-1.9-0.4-2.8c0-0.9,0.1-1.7,0.3-2.6c-3.9-1.9-6.4-5.9-6.4-10.3c0-0.5,0-1.1,0.1-1.6c-6.2-1.1-10.4-7-9.3-13.2
				c0.2-1.1,0.6-2.2,1.1-3.2c-5.4-3.2-7.3-10.2-4.1-15.7c1.2-2,2.9-3.6,5-4.6c-1.4-3.6-0.8-7.7,1.5-10.8c-3.7-5.1-2.6-12.3,2.5-16
				c1.6-1.2,3.6-1.9,5.6-2.1c0.1-3.2,1.6-6.1,4-8.2c-0.2-0.8-0.3-1.6-0.3-2.4c0-6.3,5.1-11.4,11.4-11.5c1.7,0,3.4,0.4,4.9,1.1
				c2.1-3.5,5.8-5.7,9.9-5.7c0.2,0,0.4,0,0.6,0c1.9-6,8.3-9.4,14.3-7.6c1.4,0.4,2.7,1.1,3.8,2c3.4-2.8,8.2-3.3,12.1-1.4
				c5-3.9,12.2-3,16.1,2c0.4,0.5,0.8,1.1,1.1,1.7c3.1-0.6,6.3,0.1,8.8,2c5.6-2.9,12.5-0.7,15.4,4.9c0.5,1,0.9,2.1,1.1,3.2h0.5
				c6.3,0,11.4,5.1,11.4,11.4c0,0.3,0,0.7,0,1c5.5,1.9,8.6,7.6,7.4,13.2c5.9,2.3,8.8,9,6.4,14.8c-0.4,0.9-0.8,1.8-1.4,2.6
				c1.3,1.8,2.1,3.9,2.2,6.1c3.6,2,5.9,5.8,5.9,10c0,4.2-2.4,8.1-6.1,10.1c0.2,0.8,0.2,1.5,0.2,2.3c0,4.1-2.2,7.8-5.7,9.9
				c3.7,5.1,2.6,12.3-2.5,16c-0.8,0.6-1.7,1.1-2.6,1.4c0,0.4,0.1,0.7,0.1,1.1c0,6.3-5.1,11.4-11.4,11.4h0
				c-1.1,6.2-7.1,10.3-13.3,9.2c-1.3-0.2-2.5-0.7-3.6-1.3c-2.8,5.7-9.7,7.9-15.4,5.1c-0.6-0.3-1.2-0.7-1.8-1.1
				C840.8,188.3,837.7,189.6,834.6,189.6z M826.3,157.9c0.9,0,1.9,0.2,2.7,0.5c2.2-2.5,5.8-3.3,8.9-2.1c2.4-2.2,5.8-2.7,8.8-1.3
				c1.4-1.6,3.3-2.7,5.4-2.9c0.7-2.4,2.4-4.3,4.7-5.3c0.6-3.1,2.9-5.5,6-6.3c0.4-1.6,1.3-3.1,2.6-4.2c0-0.2,0-0.4,0-0.6
				c0-1.8,0.6-3.5,1.7-4.9c-0.8-2.4-0.4-5,1.1-7.1c-0.4-1-0.6-2-0.6-3c0-0.8,0.1-1.6,0.4-2.4c-2.6-2.4-3.3-6.3-1.7-9.5
				c-0.7-1.2-1.1-2.6-1.1-4c0-0.2,0-0.4,0-0.6c-4.1-1.2-6.5-5.5-5.5-9.7c-1.4-1.1-2.3-2.6-2.8-4.2c-3,0.4-6.1-0.9-7.8-3.4
				c-3.6-0.1-6.6-2.5-7.6-5.9c-0.2,0-0.3,0-0.5,0c-1.3,0-2.7-0.3-3.8-1c-2.7,3.5-7.8,4.2-11.3,1.5c-0.3-0.2-0.5-0.4-0.8-0.7
				c-0.5,0.1-0.9,0.1-1.4,0.1c-0.8,0-1.5-0.1-2.3-0.3c-1.5,2.4-4.1,3.8-6.8,3.8c-1.6,0-3.1-0.5-4.5-1.4c-0.8,0.5-1.6,0.9-2.5,1.1
				c-0.7,2.9-3,5.2-5.9,5.9c-0.7,2.9-3,5.2-5.9,5.9c-0.3,1.3-1,2.5-1.9,3.5c1.6,3.9-0.1,8.4-3.9,10.3c-0.2,1.3-0.8,2.5-1.6,3.6
				c2,2.6,2.2,6.2,0.5,9c0.7,1.2,1.1,2.7,1.1,4.1c0,0.6-0.1,1.3-0.2,1.9c4,1.9,5.7,6.7,3.9,10.7c0.9,1,1.6,2.1,2,3.4
				c4.2,0.3,7.5,3.8,7.5,8.1v0.1c1.1,0.5,2.1,1.3,2.9,2.3c0.3,0,0.6,0,0.8,0c2.4,0,4.6,1,6.2,2.8c3.6-2.6,8.7-1.8,11.3,1.8
				c0.1,0.2,0.3,0.4,0.4,0.5C825.2,158,825.7,157.9,826.3,157.9L826.3,157.9z"/>
			<path class="st64" d="M899.8,121.6c0-3.6-2.3-6.9-5.7-8.2c0-0.2,0-0.5,0-0.7c0-2.4-1-4.7-2.8-6.4c1.8-1.7,2.8-4,2.8-6.4
				c0-4.4-3.2-8-7.5-8.7c0.6-1.2,0.8-2.4,0.8-3.7c0-4.4-3.3-8.1-7.7-8.7c0.2-0.8,0.4-1.6,0.4-2.5c0-4.9-4-8.8-8.9-8.8c0,0,0,0,0,0
				c-0.8,0-1.6,0.1-2.4,0.3c0-0.1,0-0.3,0-0.4c-0.1-4.9-4.1-8.8-9-8.8c-1.8,0-3.6,0.6-5.1,1.7c-2.5-2.4-6.2-3.2-9.4-1.9
				c-1.5-4.7-6.5-7.3-11.2-5.8c-1.4,0.5-2.7,1.3-3.8,2.4c-3.8-2.6-9-1.9-11.9,1.7c-3.1-3.8-8.7-4.4-12.5-1.3c-1.8,1.5-3,3.6-3.2,6
				c-0.7-0.2-1.5-0.3-2.2-0.3c-3.9,0-7.4,2.6-8.5,6.4c-3.8-3.1-9.4-2.6-12.5,1.3c-1.3,1.6-2,3.5-2,5.5c0,1.1,0.3,2.1,0.7,3.1
				c-2.6,1.6-4.1,4.4-4.1,7.4c0,0.5,0.1,1.1,0.2,1.6c-0.4,0-0.7-0.1-1.1-0.1c-4.9,0-8.9,3.9-8.9,8.7c0,0,0,0,0,0
				c0,2.4,1,4.8,2.8,6.4c-3.2,3-3.7,7.9-1.2,11.4c-4.8,0.9-7.9,5.4-7.1,10.2c0.6,3.3,3,6,6.3,6.9c-1.4,1.6-2.2,3.7-2.2,5.8
				c0,4.9,4,8.8,8.9,8.8c0,0,0,0,0,0c0.3,0,0.5,0,0.8,0c-0.5,1.1-0.7,2.2-0.7,3.4c0,4,2.8,7.5,6.7,8.5c-2,4.4-0.1,9.6,4.2,11.7
				c1.2,0.5,2.5,0.8,3.7,0.8c1.3,0,2.6-0.3,3.7-0.8c1.4,3.2,4.6,5.4,8.1,5.4c0.8,0,1.6-0.1,2.4-0.3c0,0.1,0,0.3,0,0.4
				c0.1,4.9,4.1,8.8,9,8.8c2.2,0,4.3-0.9,5.9-2.4c3.5,2,7.9,1.4,10.7-1.5c2.1,4.5,7.4,6.4,11.8,4.3c1.7-0.8,3.1-2.1,4-3.7
				c3.1,3.8,8.7,4.3,12.5,1.2c1.6-1.3,2.7-3.2,3.1-5.3c3.4,3.6,9,3.7,12.6,0.3c1.7-1.6,2.7-3.9,2.8-6.3c0-0.1,0-0.2,0-0.3
				c0.7,0.1,1.3,0.2,2,0.2c4.8,0.1,8.8-3.8,8.9-8.7c0-0.9-0.1-1.8-0.4-2.6c4.8-0.8,7.9-5.4,7.1-10.1c-0.4-2.3-1.7-4.3-3.5-5.6
				c4.7-1,7.8-5.6,6.8-10.4c-0.1-0.5-0.3-1.1-0.5-1.6C897.3,129,899.8,125.5,899.8,121.6z M846.7,155.9c-2.3-2.2-5.9-2.1-8,0.2
				c-0.2,0.2-0.4,0.5-0.6,0.7c-2.6-1.8-6.1-1.2-7.9,1.4c-0.2,0.2-0.3,0.5-0.4,0.7c-1-0.7-2.1-1.1-3.3-1.1c-0.9,0-1.9,0.2-2.7,0.7
				c-0.8-3-3.9-4.8-6.9-4.1c-1.5,0.4-2.8,1.4-3.6,2.8c-0.7-2.5-2.9-4.2-5.5-4.2c-0.6,0-1.2,0.1-1.8,0.3c-0.8-1.6-2.3-2.8-4.1-3.1
				c0.1-0.5,0.2-1,0.2-1.5c0-3.1-2.5-5.6-5.6-5.6c-0.4,0-0.8,0-1.3,0.1v-0.1c0-2-1.1-3.8-2.8-4.8c0.9-1,1.4-2.3,1.4-3.6
				c0-2.9-2.2-5.3-5.1-5.6c1.5-2.2,1.2-5.2-0.7-7c2.2-2.2,2.2-5.7,0-7.8c-0.3-0.3-0.6-0.5-0.9-0.7c1.6-1,2.5-2.8,2.5-4.7
				c0-0.1,0-0.1,0-0.2c2.5-0.6,4.2-2.9,4.2-5.4c0-1.2-0.4-2.4-1.1-3.4c1.6-1,2.6-2.8,2.6-4.7c3.1,0,5.6-2.5,5.6-5.6
				c3.1,0,5.6-2.5,5.6-5.6c0,0,0,0,0,0c1.6,0,3.2-0.7,4.3-2c2,2.4,5.6,2.6,8,0.6c0.9-0.8,1.5-1.8,1.8-3c1.5,1.1,3.5,1.3,5.3,0.7
				c1.8,2.6,5.3,3.2,7.9,1.4c1.1-0.7,1.9-1.8,2.2-3.1c1.6,2,4.4,2.6,6.7,1.5c0,0.2,0,0.3,0,0.5c0,3.1,2.5,5.6,5.6,5.6c0,0,0,0,0,0
				c0.4,0,0.7,0,1.1-0.1c0.9,2.1,2.9,3.4,5.2,3.4c1.1,0,2.1-0.3,3-0.8c0,0.3-0.1,0.6-0.1,0.8c0,2.2,1.4,4.3,3.4,5.1
				c-0.5,0.8-0.7,1.8-0.7,2.7c0,3.1,2.5,5.6,5.6,5.6c0,0,0,0,0,0h0.3c-0.9,2-0.5,4.4,1,6c-1.9,2.4-1.6,5.9,0.8,7.8
				c0.3,0.2,0.6,0.4,0.9,0.6c-1.2,1.9-1.1,4.3,0.1,6.1c-1.9,1.7-2.4,4.6-1.1,6.8c-1.7,1.4-2.4,3.7-1.8,5.8c-1.8,1-2.9,2.9-2.9,4.9
				c-3.1,0-5.6,2.5-5.6,5.6v0.1c-2.6,0.5-4.6,2.8-4.6,5.5c0,0,0,0.1,0,0.1c-0.3-0.1-0.7-0.1-1-0.1
				C849.6,152.3,847.5,153.7,846.7,155.9L846.7,155.9z"/>
			
				<radialGradient id="SVGID_2_" cx="878.6494" cy="533.399" r="5.2289" gradientTransform="matrix(1 0 0 -1 0 612)" gradientUnits="userSpaceOnUse">
				<stop  offset="0" style="stop-color:#FFFFFF"/>
				<stop  offset="5.000000e-02" style="stop-color:#F6DFE0"/>
				<stop  offset="0.13" style="stop-color:#E9B4B6"/>
				<stop  offset="0.21" style="stop-color:#DF8E91"/>
				<stop  offset="0.3" style="stop-color:#D56E72"/>
				<stop  offset="0.39" style="stop-color:#CE5459"/>
				<stop  offset="0.49" style="stop-color:#C84045"/>
				<stop  offset="0.61" style="stop-color:#C43237"/>
				<stop  offset="0.75" style="stop-color:#C2292F"/>
				<stop  offset="1" style="stop-color:#C1272D"/>
			</radialGradient>
			<circle class="st65" cx="879.3" cy="80" r="5.2"/>
			
				<radialGradient id="SVGID_3_" cx="775.9744" cy="533.399" r="5.2289" gradientTransform="matrix(1 0 0 -1 0 612)" gradientUnits="userSpaceOnUse">
				<stop  offset="0" style="stop-color:#FFFFFF"/>
				<stop  offset="5.000000e-02" style="stop-color:#F6DFE0"/>
				<stop  offset="0.13" style="stop-color:#E9B4B6"/>
				<stop  offset="0.21" style="stop-color:#DF8E91"/>
				<stop  offset="0.3" style="stop-color:#D56E72"/>
				<stop  offset="0.39" style="stop-color:#CE5459"/>
				<stop  offset="0.49" style="stop-color:#C84045"/>
				<stop  offset="0.61" style="stop-color:#C43237"/>
				<stop  offset="0.75" style="stop-color:#C2292F"/>
				<stop  offset="1" style="stop-color:#C1272D"/>
			</radialGradient>
			<circle class="st66" cx="776.7" cy="80" r="5.2"/>
			
				<radialGradient id="SVGID_4_" cx="786.6511" cy="504.1885" r="5.2289" gradientTransform="matrix(1 0 0 -1 0 612)" gradientUnits="userSpaceOnUse">
				<stop  offset="0" style="stop-color:#FFFFFF"/>
				<stop  offset="5.000000e-02" style="stop-color:#F6DFE0"/>
				<stop  offset="0.13" style="stop-color:#E9B4B6"/>
				<stop  offset="0.21" style="stop-color:#DF8E91"/>
				<stop  offset="0.3" style="stop-color:#D56E72"/>
				<stop  offset="0.39" style="stop-color:#CE5459"/>
				<stop  offset="0.49" style="stop-color:#C84045"/>
				<stop  offset="0.61" style="stop-color:#C43237"/>
				<stop  offset="0.75" style="stop-color:#C2292F"/>
				<stop  offset="1" style="stop-color:#C1272D"/>
			</radialGradient>
			<circle class="st67" cx="787.3" cy="109.2" r="5.2"/>
			
				<radialGradient id="SVGID_5_" cx="773.7911" cy="462.1179" r="5.2289" gradientTransform="matrix(1 0 0 -1 0 612)" gradientUnits="userSpaceOnUse">
				<stop  offset="0" style="stop-color:#FFFFFF"/>
				<stop  offset="5.000000e-02" style="stop-color:#F6DFE0"/>
				<stop  offset="0.13" style="stop-color:#E9B4B6"/>
				<stop  offset="0.21" style="stop-color:#DF8E91"/>
				<stop  offset="0.3" style="stop-color:#D56E72"/>
				<stop  offset="0.39" style="stop-color:#CE5459"/>
				<stop  offset="0.49" style="stop-color:#C84045"/>
				<stop  offset="0.61" style="stop-color:#C43237"/>
				<stop  offset="0.75" style="stop-color:#C2292F"/>
				<stop  offset="1" style="stop-color:#C1272D"/>
			</radialGradient>
			<circle class="st68" cx="774.5" cy="151.3" r="5.2"/>
			
				<radialGradient id="SVGID_6_" cx="818.483" cy="441.4077" r="5.2289" gradientTransform="matrix(1 0 0 -1 0 612)" gradientUnits="userSpaceOnUse">
				<stop  offset="0" style="stop-color:#FFFFFF"/>
				<stop  offset="5.000000e-02" style="stop-color:#F6DFE0"/>
				<stop  offset="0.13" style="stop-color:#E9B4B6"/>
				<stop  offset="0.21" style="stop-color:#DF8E91"/>
				<stop  offset="0.3" style="stop-color:#D56E72"/>
				<stop  offset="0.39" style="stop-color:#CE5459"/>
				<stop  offset="0.49" style="stop-color:#C84045"/>
				<stop  offset="0.61" style="stop-color:#C43237"/>
				<stop  offset="0.75" style="stop-color:#C2292F"/>
				<stop  offset="1" style="stop-color:#C1272D"/>
			</radialGradient>
			<circle class="st69" cx="819.2" cy="172" r="5.2"/>
			
				<radialGradient id="SVGID_7_" cx="862.0798" cy="465.3893" r="5.2289" gradientTransform="matrix(1 0 0 -1 0 612)" gradientUnits="userSpaceOnUse">
				<stop  offset="0" style="stop-color:#FFFFFF"/>
				<stop  offset="5.000000e-02" style="stop-color:#F6DFE0"/>
				<stop  offset="0.13" style="stop-color:#E9B4B6"/>
				<stop  offset="0.21" style="stop-color:#DF8E91"/>
				<stop  offset="0.3" style="stop-color:#D56E72"/>
				<stop  offset="0.39" style="stop-color:#CE5459"/>
				<stop  offset="0.49" style="stop-color:#C84045"/>
				<stop  offset="0.61" style="stop-color:#C43237"/>
				<stop  offset="0.75" style="stop-color:#C2292F"/>
				<stop  offset="1" style="stop-color:#C1272D"/>
			</radialGradient>
			<circle class="st70" cx="862.8" cy="148" r="5.2"/>
			
				<radialGradient id="SVGID_8_" cx="891.0714" cy="504.1885" r="5.2289" gradientTransform="matrix(1 0 0 -1 0 612)" gradientUnits="userSpaceOnUse">
				<stop  offset="0" style="stop-color:#FFFFFF"/>
				<stop  offset="5.000000e-02" style="stop-color:#F6DFE0"/>
				<stop  offset="0.13" style="stop-color:#E9B4B6"/>
				<stop  offset="0.21" style="stop-color:#DF8E91"/>
				<stop  offset="0.3" style="stop-color:#D56E72"/>
				<stop  offset="0.39" style="stop-color:#CE5459"/>
				<stop  offset="0.49" style="stop-color:#C84045"/>
				<stop  offset="0.61" style="stop-color:#C43237"/>
				<stop  offset="0.75" style="stop-color:#C2292F"/>
				<stop  offset="1" style="stop-color:#C1272D"/>
			</radialGradient>
			<circle class="st71" cx="891.8" cy="109.2" r="5.2"/>
			
				<radialGradient id="SVGID_9_" cx="803.4397" cy="538.6279" r="5.2289" gradientTransform="matrix(1 0 0 -1 0 612)" gradientUnits="userSpaceOnUse">
				<stop  offset="0" style="stop-color:#FFFFFF"/>
				<stop  offset="3.000000e-02" style="stop-color:#EAEAFF"/>
				<stop  offset="0.1" style="stop-color:#B9B9FF"/>
				<stop  offset="0.17" style="stop-color:#8D8DFF"/>
				<stop  offset="0.25" style="stop-color:#6767FF"/>
				<stop  offset="0.33" style="stop-color:#4747FF"/>
				<stop  offset="0.42" style="stop-color:#2D2DFF"/>
				<stop  offset="0.52" style="stop-color:#1919FF"/>
				<stop  offset="0.63" style="stop-color:#0B0BFF"/>
				<stop  offset="0.77" style="stop-color:#0202FF"/>
				<stop  offset="1" style="stop-color:#0000FF"/>
			</radialGradient>
			<circle class="st72" cx="804.1" cy="74.8" r="5.2"/>
			
				<radialGradient id="SVGID_10_" cx="763.1143" cy="504.1885" r="5.2289" gradientTransform="matrix(1 0 0 -1 0 612)" gradientUnits="userSpaceOnUse">
				<stop  offset="0" style="stop-color:#FFFFFF"/>
				<stop  offset="3.000000e-02" style="stop-color:#EAEAFF"/>
				<stop  offset="0.1" style="stop-color:#B9B9FF"/>
				<stop  offset="0.17" style="stop-color:#8D8DFF"/>
				<stop  offset="0.25" style="stop-color:#6767FF"/>
				<stop  offset="0.33" style="stop-color:#4747FF"/>
				<stop  offset="0.42" style="stop-color:#2D2DFF"/>
				<stop  offset="0.52" style="stop-color:#1919FF"/>
				<stop  offset="0.63" style="stop-color:#0B0BFF"/>
				<stop  offset="0.77" style="stop-color:#0202FF"/>
				<stop  offset="1" style="stop-color:#0000FF"/>
			</radialGradient>
			<circle class="st73" cx="763.8" cy="109.2" r="5.2"/>
			
				<radialGradient id="SVGID_11_" cx="795.8085" cy="469.53" r="5.2289" gradientTransform="matrix(1 0 0 -1 0 612)" gradientUnits="userSpaceOnUse">
				<stop  offset="0" style="stop-color:#FFFFFF"/>
				<stop  offset="3.000000e-02" style="stop-color:#EAEAFF"/>
				<stop  offset="0.1" style="stop-color:#B9B9FF"/>
				<stop  offset="0.17" style="stop-color:#8D8DFF"/>
				<stop  offset="0.25" style="stop-color:#6767FF"/>
				<stop  offset="0.33" style="stop-color:#4747FF"/>
				<stop  offset="0.42" style="stop-color:#2D2DFF"/>
				<stop  offset="0.52" style="stop-color:#1919FF"/>
				<stop  offset="0.63" style="stop-color:#0B0BFF"/>
				<stop  offset="0.77" style="stop-color:#0202FF"/>
				<stop  offset="1" style="stop-color:#0000FF"/>
			</radialGradient>
			<circle class="st74" cx="796.5" cy="143.9" r="5.2"/>
			
				<radialGradient id="SVGID_12_" cx="856.8441" cy="434.8647" r="5.2289" gradientTransform="matrix(1 0 0 -1 0 612)" gradientUnits="userSpaceOnUse">
				<stop  offset="0" style="stop-color:#FFFFFF"/>
				<stop  offset="3.000000e-02" style="stop-color:#EAEAFF"/>
				<stop  offset="0.1" style="stop-color:#B9B9FF"/>
				<stop  offset="0.17" style="stop-color:#8D8DFF"/>
				<stop  offset="0.25" style="stop-color:#6767FF"/>
				<stop  offset="0.33" style="stop-color:#4747FF"/>
				<stop  offset="0.42" style="stop-color:#2D2DFF"/>
				<stop  offset="0.52" style="stop-color:#1919FF"/>
				<stop  offset="0.63" style="stop-color:#0B0BFF"/>
				<stop  offset="0.77" style="stop-color:#0202FF"/>
				<stop  offset="1" style="stop-color:#0000FF"/>
			</radialGradient>
			<circle class="st75" cx="857.5" cy="178.5" r="5.2"/>
			
				<radialGradient id="SVGID_13_" cx="862.0798" cy="513.777" r="5.2289" gradientTransform="matrix(1 0 0 -1 0 612)" gradientUnits="userSpaceOnUse">
				<stop  offset="0" style="stop-color:#FFFFFF"/>
				<stop  offset="3.000000e-02" style="stop-color:#EAEAFF"/>
				<stop  offset="0.1" style="stop-color:#B9B9FF"/>
				<stop  offset="0.17" style="stop-color:#8D8DFF"/>
				<stop  offset="0.25" style="stop-color:#6767FF"/>
				<stop  offset="0.33" style="stop-color:#4747FF"/>
				<stop  offset="0.42" style="stop-color:#2D2DFF"/>
				<stop  offset="0.52" style="stop-color:#1919FF"/>
				<stop  offset="0.63" style="stop-color:#0B0BFF"/>
				<stop  offset="0.77" style="stop-color:#0202FF"/>
				<stop  offset="1" style="stop-color:#0000FF"/>
			</radialGradient>
			<circle class="st76" cx="862.8" cy="99.6" r="5.2"/>
			
				<radialGradient id="SVGID_14_" cx="789.2725" cy="523.8105" r="5.2289" gradientTransform="matrix(1 0 0 -1 0 612)" gradientUnits="userSpaceOnUse">
				<stop  offset="0" style="stop-color:#FFFFFF"/>
				<stop  offset="6.000000e-02" style="stop-color:#FEFCD9"/>
				<stop  offset="0.13" style="stop-color:#FEF9AE"/>
				<stop  offset="0.21" style="stop-color:#FDF688"/>
				<stop  offset="0.3" style="stop-color:#FDF368"/>
				<stop  offset="0.39" style="stop-color:#FDF14E"/>
				<stop  offset="0.5" style="stop-color:#FCF03A"/>
				<stop  offset="0.61" style="stop-color:#FCEF2C"/>
				<stop  offset="0.76" style="stop-color:#FCEE23"/>
				<stop  offset="1" style="stop-color:#FCEE21"/>
			</radialGradient>
			<circle class="st77" cx="790" cy="89.6" r="5.2"/>
			
				<radialGradient id="SVGID_15_" cx="860.9916" cy="553.6713" r="5.2289" gradientTransform="matrix(1 0 0 -1 0 612)" gradientUnits="userSpaceOnUse">
				<stop  offset="0" style="stop-color:#FFFFFF"/>
				<stop  offset="6.000000e-02" style="stop-color:#FEFCD9"/>
				<stop  offset="0.13" style="stop-color:#FEF9AE"/>
				<stop  offset="0.21" style="stop-color:#FDF688"/>
				<stop  offset="0.3" style="stop-color:#FDF368"/>
				<stop  offset="0.39" style="stop-color:#FDF14E"/>
				<stop  offset="0.5" style="stop-color:#FCF03A"/>
				<stop  offset="0.61" style="stop-color:#FCEF2C"/>
				<stop  offset="0.76" style="stop-color:#FCEE23"/>
				<stop  offset="1" style="stop-color:#FCEE21"/>
			</radialGradient>
			<circle class="st78" cx="861.7" cy="59.7" r="5.2"/>
			
				<radialGradient id="SVGID_16_" cx="878.6494" cy="481.9521" r="5.2289" gradientTransform="matrix(1 0 0 -1 0 612)" gradientUnits="userSpaceOnUse">
				<stop  offset="0" style="stop-color:#FFFFFF"/>
				<stop  offset="6.000000e-02" style="stop-color:#FEFCD9"/>
				<stop  offset="0.13" style="stop-color:#FEF9AE"/>
				<stop  offset="0.21" style="stop-color:#FDF688"/>
				<stop  offset="0.3" style="stop-color:#FDF368"/>
				<stop  offset="0.39" style="stop-color:#FDF14E"/>
				<stop  offset="0.5" style="stop-color:#FCF03A"/>
				<stop  offset="0.61" style="stop-color:#FCEF2C"/>
				<stop  offset="0.76" style="stop-color:#FCEE23"/>
				<stop  offset="1" style="stop-color:#FCEE21"/>
			</radialGradient>
			<circle class="st79" cx="879.3" cy="131.4" r="5.2"/>
			
				<radialGradient id="SVGID_17_" cx="790.5797" cy="443.8031" r="5.2289" gradientTransform="matrix(1 0 0 -1 0 612)" gradientUnits="userSpaceOnUse">
				<stop  offset="0" style="stop-color:#FFFFFF"/>
				<stop  offset="6.000000e-02" style="stop-color:#FEFCD9"/>
				<stop  offset="0.13" style="stop-color:#FEF9AE"/>
				<stop  offset="0.21" style="stop-color:#FDF688"/>
				<stop  offset="0.3" style="stop-color:#FDF368"/>
				<stop  offset="0.39" style="stop-color:#FDF14E"/>
				<stop  offset="0.5" style="stop-color:#FCF03A"/>
				<stop  offset="0.61" style="stop-color:#FCEF2C"/>
				<stop  offset="0.76" style="stop-color:#FCEE23"/>
				<stop  offset="1" style="stop-color:#FCEE21"/>
			</radialGradient>
			<circle class="st80" cx="791.3" cy="169.6" r="5.2"/>
			
				<radialGradient id="SVGID_18_" cx="860.9916" cy="534.7063" r="5.2289" gradientTransform="matrix(1 0 0 -1 0 612)" gradientUnits="userSpaceOnUse">
				<stop  offset="0" style="stop-color:#FFFFFF"/>
				<stop  offset="2.000000e-02" style="stop-color:#F1FAF2"/>
				<stop  offset="0.1" style="stop-color:#C6EACB"/>
				<stop  offset="0.19" style="stop-color:#A0DBA8"/>
				<stop  offset="0.28" style="stop-color:#80CF8B"/>
				<stop  offset="0.37" style="stop-color:#66C673"/>
				<stop  offset="0.48" style="stop-color:#52BE61"/>
				<stop  offset="0.6" style="stop-color:#44B954"/>
				<stop  offset="0.75" style="stop-color:#3BB64C"/>
				<stop  offset="1" style="stop-color:#39B54A"/>
			</radialGradient>
			<circle class="st81" cx="861.7" cy="78.7" r="5.2"/>
			
				<radialGradient id="SVGID_19_" cx="843.9841" cy="451.8723" r="5.2289" gradientTransform="matrix(1 0 0 -1 0 612)" gradientUnits="userSpaceOnUse">
				<stop  offset="0" style="stop-color:#FFFFFF"/>
				<stop  offset="2.000000e-02" style="stop-color:#F1FAF2"/>
				<stop  offset="0.1" style="stop-color:#C6EACB"/>
				<stop  offset="0.19" style="stop-color:#A0DBA8"/>
				<stop  offset="0.28" style="stop-color:#80CF8B"/>
				<stop  offset="0.37" style="stop-color:#66C673"/>
				<stop  offset="0.48" style="stop-color:#52BE61"/>
				<stop  offset="0.6" style="stop-color:#44B954"/>
				<stop  offset="0.75" style="stop-color:#3BB64C"/>
				<stop  offset="1" style="stop-color:#39B54A"/>
			</radialGradient>
			<circle class="st82" cx="844.7" cy="161.5" r="5.2"/>
			<path class="st83" d="M831.8,53.9c0,0,14.4-11.3,19.5-3.2s-13.2,15.9-13.2,15.9c4.9,8.3,9.4,19.3,9.4,19.3l-3.4-1.8l-4.8,1.5
				l-7.4-17.4C831.9,68.2,827.7,57.1,831.8,53.9z"/>
			<path class="st83" d="M824.2,54.8c0,0-16.6-7.7-19.7,1.5c-3.1,9.1,16.5,12.3,16.5,12.3c-2.8,9.2-4.6,21-4.6,21l2.9-2.6l4.5,0
				l4.9-18.2C828.7,68.8,829,56.9,824.2,54.8z"/>
			<path class="st84" d="M832.3,58.1l0.6,5.2c0.2,2.1-1.2,4-3.3,4.2l0,0c-2.1,0.2-4-1.2-4.2-3.3l-0.6-5.2c-0.2-2.1,1.2-4,3.3-4.2
				l0,0C830.2,54.5,832.1,56,832.3,58.1z"/>
		</g>
	</g>
</g>
</svg>
