<svg xmlns="http://www.w3.org/2000/svg" viewBox="0 0 169.95 186.18"><defs><style>.cls-1{fill:#000004;}.cls-2{fill:#fff;}.cls-3{fill:#e8e8e8;}.cls-4{fill:red;}.cls-5{fill:#f03;}.cls-6{fill:#ffa400;}</style></defs><title>Penguin</title><g id="Layer_2" data-name="Layer 2"><g id="Layer_2-2" data-name="Layer 2"><g id="Penguin"><path class="cls-1" d="M42.76,106c9.85,33.3,33.59,80.2,33.59,80.2s87.76-70,93.6-74.63c-18.4-16.87-36-26.79-53.81-46C92.91,69,52.23,88.72,42.76,106Z"/><path class="cls-2" d="M151.35,126.49c-11.47-20.41-37.94-52-44.95-54-7.74-2.18-40.31,16.12-51.51,27.69S87.32,166,90.44,174.94C100.63,166.86,151.2,126.64,151.35,126.49Z"/><ellipse class="cls-3" cx="55.07" cy="12.19" rx="12.44" ry="11.89" transform="translate(8.66 44.23) rotate(-47.1)"/><path class="cls-4" d="M33,85.68S22.9,47,45,27.55s40.55-6.37,59.87,21.33C76,70.16,33,85.68,33,85.68Z"/><path class="cls-2" d="M32.25,95.21s-9.37-13.08,27.64-33c0,0,32.08-18.61,47.9-15,8.69,4,15.75,17.47,11.72,17.61C115.1,65,54.43,96.25,42.76,106,39.2,108.94,32.25,95.21,32.25,95.21Z"/><ellipse class="cls-1" cx="108.48" cy="87.96" rx="3.69" ry="5.34" transform="translate(-29.8 68.33) rotate(-30.96)"/><ellipse class="cls-1" cx="67.04" cy="111.33" rx="3.69" ry="5.34" transform="matrix(0.86, -0.51, 0.51, 0.86, -47.72, 50.34)"/><path class="cls-5" d="M64.63,120.19s4.09-5.84,9.21-5.45c1.17.08.92,1.07-1.85,1.75a13.59,13.59,0,0,0-6.17,4.36C65.32,121.62,64,121.61,64.63,120.19Z"/><path class="cls-5" d="M107.16,96.38s4.08-5.84,9.21-5.45c1.17.07.91,1.07-1.85,1.75s-5.68,3.58-6.18,4.35S106.51,97.8,107.16,96.38Z"/><ellipse class="cls-6" cx="90.47" cy="108.67" rx="8.29" ry="2.79" transform="translate(-42.62 60.9) rotate(-30.48)"/><path class="cls-1" d="M159.84,107s6.36,9.44-17.72,20.7-35.6-1.31-41.37-11.21c-2.78-7,2.23-10.54,4.48-11s18,2.74,27.89-4.68C150,103.52,159.84,107,159.84,107Z"/><path class="cls-3" d="M2.06,122.9a28,28,0,0,0-2,11.62l13.54-3.86a16.31,16.31,0,0,1,.86-2.82,17.67,17.67,0,0,1,2.22-4L5.2,117A30.07,30.07,0,0,0,2.06,122.9Z"/><path class="cls-3" d="M9.5,112.2l12.55,7.46a14,14,0,0,1,5.91-.77l-1.35-12.66A25.05,25.05,0,0,0,9.5,112.2Z"/><path class="cls-3" d="M20.36,160.27a6.26,6.26,0,1,0,4.31-11.72c-.65-.24-1.28-.51-1.89-.79l-9.5,9A35.86,35.86,0,0,0,20.36,160.27Z"/><path class="cls-3" d="M109.38,146.89a6.46,6.46,0,0,0,8.3-3.6l0-.1a6.46,6.46,0,0,0-4.22-8.1l-5.64-2L106.77,146Z"/><path class="cls-3" d="M85.91,138.64,87,125.77l-7-2.45L79,136.19Z"/><path class="cls-3" d="M100.22,143.67l1.08-12.87-7.76-2.73-1.08,12.87Z"/><path class="cls-3" d="M2.67,145A28,28,0,0,0,8,152.57l9.18-8.72a14.58,14.58,0,0,1-2.58-3.7,13.77,13.77,0,0,1-1-2.78L1.09,141A28.17,28.17,0,0,0,2.67,145Z"/><path class="cls-3" d="M38.62,108.59a40.75,40.75,0,0,0-5.22-1.53l1.43,13.45c2,.72,4.79,1.74,8.22,3l1.08-12.89C41.85,109.77,40,109.09,38.62,108.59Z"/><path class="cls-3" d="M50.68,112.93,49.6,125.81l8.13,2.88,1.07-12.87Z"/><path class="cls-3" d="M64.27,131l8.13,2.87L73.48,121l-8.13-2.88Z"/><path class="cls-4" d="M13.28,156.79l9.5-9a18.53,18.53,0,0,1-5.56-3.91L8,152.57A30.64,30.64,0,0,0,13.28,156.79Z"/><path class="cls-4" d="M1.09,141l12.55-3.58a14.89,14.89,0,0,1-.08-6.71L0,134.52A27.1,27.1,0,0,0,1.09,141Z"/><path class="cls-4" d="M5.2,117l11.44,6.79a11.8,11.8,0,0,1,5.41-4.16L9.5,112.2A25.3,25.3,0,0,0,5.2,117Z"/><path class="cls-4" d="M26.61,106.23,28,118.89a23.37,23.37,0,0,1,6.35,1.43l.52.19L33.4,107.06A34,34,0,0,0,26.61,106.23Z"/><path class="cls-4" d="M44.13,110.59l-1.08,12.89,6.55,2.33,1.08-12.88Z"/><path class="cls-4" d="M58.8,115.82l-1.07,12.87L64.27,131l1.08-12.88Z"/><path class="cls-4" d="M79,136.19,80,123.32,73.48,121,72.4,133.88Z"/><path class="cls-4" d="M92.46,140.94l1.08-12.87L87,125.77l-1.08,12.87Z"/><path class="cls-4" d="M106.77,146l1.08-12.86-6.55-2.31-1.08,12.87Z"/><path class="cls-1" d="M70.61,151.64s7-3.91,4.79-28.67c.31-12.82,20.39-4.76,25.49,5.86s4.67,25.19-8.46,42.58c-6.93,8.19-12.28,7.42-12.28,7.42Z"/></g></g></g></svg>