<svg xmlns="http://www.w3.org/2000/svg" viewBox="0 0 78.69 48.52"><defs><style>.cls-1{fill:red;stroke:#231f20;stroke-width:1.49px;}</style></defs><title>prevpage</title><g id="Layer_2" data-name="Layer 2"><g id="Layer_1-2" data-name="Layer 1"><g id="prevpage"><path id="nextpage" class="cls-1" d="M30.62,43.41h0A4.37,4.37,0,0,1,35,39H73.58a4.37,4.37,0,0,0,4.36-4.37V14.17A4.36,4.36,0,0,0,73.59,9.8H35.79a4.37,4.37,0,0,1-4.37-4.37V5.11a4.37,4.37,0,0,0-7.23-3.3l-21.94,19A4.38,4.38,0,0,0,1.81,27c.12.12.24.25.36.36l21.14,19.3a4.37,4.37,0,0,0,7.31-3.23Z"/></g></g></g></svg>