<?xml version="1.0" encoding="utf-8"?>
<!-- Generator: Adobe Illustrator 22.0.1, SVG Export Plug-In . SVG Version: 6.00 Build 0)  -->
<svg version="1.1" id="Layer_1" xmlns="http://www.w3.org/2000/svg" xmlns:xlink="http://www.w3.org/1999/xlink" x="0px" y="0px"
	 viewBox="0 0 83 60.3" style="enable-background:new 0 0 83 60.3;" xml:space="preserve">
<style type="text/css">
	.st0{fill:#95272D;}
	.st1{fill:#C1272D;}
	.st2{fill:#FFFFFF;}
	.st3{fill:#FFEBCD;}
	.st4{fill:#FFC4AB;}
	.st5{fill:#603713;}
	.st6{fill:#231F20;}
	.st7{fill:none;stroke:#231F20;stroke-width:9.331118e-02;stroke-miterlimit:10;}
	.st8{fill:none;}
	.st9{opacity:0.57;fill:#CCCCCC;}
	.st10{fill:#EF509C;}
	.st11{fill:#E3D3B9;}
	.st12{fill:#FFFFFF;stroke:#FFFFFF;stroke-width:0.102;stroke-miterlimit:10;}
	.st13{fill:#EC1C2B;}
	.st14{fill:#0D0D1F;}
	.st15{fill:#006838;}
</style>
<title>redbox</title>
<rect x="-125.5" y="23.8" class="st0" width="75.2" height="7.8"/>
<rect x="-125.5" y="27.8" class="st1" width="74.7" height="28"/>
<rect x="-95.4" y="28.8" class="st2" width="14.5" height="26.9"/>
<g id="open">
	<polygon class="st2" points="-100.7,-10.8 -110.1,0.2 -100.6,-10.7 	"/>
	<g>
		
			<rect x="-103.1" y="-25.3" transform="matrix(0.6551 -0.7555 0.7555 0.6551 -13.9112 -72.0879)" class="st1" width="34.4" height="9"/>
		
			<rect x="-134.9" y="11.5" transform="matrix(0.6551 -0.7555 0.7555 0.6551 -52.7529 -83.5427)" class="st1" width="34.1" height="9"/>
		
			<rect x="-109.2" y="-6.8" transform="matrix(0.6551 -0.7555 0.7555 0.6551 -33.4226 -77.8044)" class="st2" width="14.5" height="9"/>
		<path class="st2" d="M-113.2-33.2c-6.5,5.9,0.9,20,0.9,20s-9.8-2.8-12.6-2.4c-4.6,0.8-8.2,4.3-9.2,8.9c-1.1,5.7,3.9,7.6,5.9,9.1
			S-111,2.7-111,2.7s13.8-13.3,14-17.4s-0.7-9.3-1-14.1C-98.2-33.6-106.6-39-113.2-33.2z M-128.4-7.4c1.9-6.8,17.9,1.5,17.9,1.5
			C-116.1-1.5-130.3-0.5-128.4-7.4z M-104.4-11.9c0,0-10.3-14.6-4.2-17.9C-102.5-33.1-100.8-17.8-104.4-11.9z"/>
	</g>
</g>
<g id="close">
	<polygon class="st2" points="48.6,23.2 34.1,23.2 48.6,23.3 	"/>
	<g>
		
			<rect x="61.3" y="10.6" transform="matrix(3.410845e-03 -1 1 3.410845e-03 37.7261 93.5376)" class="st1" width="9" height="34.4"/>
		
			<rect x="12.6" y="10.6" transform="matrix(3.410845e-03 -1 1 3.410845e-03 -10.6254 44.5897)" class="st1" width="9" height="34.1"/>
		
			<rect x="36.9" y="20.5" transform="matrix(3.410845e-03 -1 1 3.410845e-03 13.526 68.9889)" class="st2" width="9" height="14.5"/>
		<path class="st2" d="M57.4-0.9C48.7-2,42.9,12.9,42.9,12.9s-4.3-9.3-6.4-11.1c-3.6-3-8.6-3.4-12.7-1.2c-5,2.9-3.2,7.9-3,10.4
			s11,13.2,11,13.2s19.1,1.8,22.3-0.7c3.2-2.5,6.6-6.6,10-10S66.1,0.2,57.4-0.9z M28,4.4C34.4,1.4,38.6,19,38.6,19
			C31.6,17.5,21.5,7.5,28,4.4z M47.1,19.6c0,0,4.4-17.4,10.9-14.9C64.4,7.2,53.9,18.5,47.1,19.6z"/>
	</g>
</g>
<g id="redbox">
	<rect x="3.8" y="32.4" class="st1" width="74.7" height="28"/>
	<rect x="33.9" y="33.4" class="st2" width="14.5" height="26.9"/>
	<rect x="3.8" y="28.4" class="st0" width="75.2" height="7.8"/>
</g>
<g id="elf">
	<g id="Henryelf">
		<path class="st3" d="M-80.2,4.4c0,0,4.9-6.1,5.3-7.4c1.2,6.7-3.3,11.3-4.6,12C-80.4,7-80.2,4.4-80.2,4.4z"/>
		<path class="st3" d="M-99.5,6.3c0,0-5.7-5.1-6.3-6.2c0.5,6.8,5.3,10.4,6.7,10.9C-98.7,8.8-99.5,6.3-99.5,6.3z"/>
		<path class="st4" d="M-79.5,4.5l4.2-5.9c0,0,0.7,3.6-3.8,9.4C-79.6,6.1-79.5,4.5-79.5,4.5z"/>
		<g id="henry_1_">
			<polygon class="st3" points="-92.2,15.6 -92.1,18.1 -88.1,22.5 -85.3,17.4 -85.4,14.8 			"/>
			<g>
				<polygon class="st5" points="-94,16.3 -93,16.8 -92.7,16.5 -92,17 -92.1,16.4 -91.6,16.9 -91,16.4 -90,16.8 -89.3,16.3 
					-88.4,16.7 -87.7,16.2 -86.7,16.6 -86,16.1 -85.3,16.4 -84.9,15.8 -84.2,16 -83.5,15 				"/>
				<g>
					<path class="st3" d="M-80.3,4.4c0,0-0.2-2.7-1.7-3.8c0,0-0.2,2.9,0.4,3.8c-2.6-2.8-3.5-4.8-3.5-4.8s-1.7,2.3-1.1,3.4
						c-1.9-2.9-1.6-3.3-1.6-3.3s-2.4,1.9-1.9,3l-2.2-2.3c0,0-2.6,2.2-2.3,3.9c0,0-1.3-1-0.9-2.9c-1.6,4.8-1.7,3.8-1.7,3.8
						s-1.1-2-0.6-3.6c-1.6,4.8-2.1,4.2-2.1,4.2l-0.2-0.2l0.6,5.1c0.4,3.4,3.5,5.9,6.9,5.6l7.1-0.8c3.4-0.4,5.9-3.5,5.6-6.9L-80,4.1
						L-80.3,4.4z"/>
					<path class="st5" d="M-97.4,1.6c-0.6,1.6,0.6,3.6,0.6,3.6s0.1,1,1.7-3.8c-0.4,1.9,0.9,2.9,0.9,2.9c-0.3-1.7,2.3-3.9,2.3-3.9
						l2.4,3.4c-0.5-1.1,1.6-4.1,1.6-4.1s-0.4,0.4,1.6,3.3c-0.6-1.1,1.1-3.4,1.1-3.4s0.9,2,3.5,4.8C-82.2,3.5-82,0.6-82,0.6
						c1.5,1.1,1.9,4.2,1.9,4.2l0.1-0.7l-0.4-3.2c-0.4-3.4-3.5-5.9-6.9-5.6L-94.4-4c-3.4,0.4-5.9,3.5-5.6,6.9l0.3,2.7l0.2,0.2
						C-99.5,5.8-98.9,6.5-97.4,1.6z"/>
				</g>
				
					<ellipse transform="matrix(0.9941 -0.1085 0.1085 0.9941 -1.3418 -10.1181)" class="st6" cx="-93.7" cy="7.3" rx="1.6" ry="1.1"/>
				
					<ellipse transform="matrix(0.9941 -0.1085 0.1085 0.9941 -1.1739 -9.1736)" class="st6" cx="-84.9" cy="6.2" rx="1.6" ry="1.1"/>
				<path class="st7" d="M-92.6,8.8L-94.7,9c-0.9,0.1-1.8-0.6-1.9-1.5v0c-0.1-0.9,0.6-1.8,1.5-1.9l2.1-0.2c0.9-0.1,1.8,0.6,1.9,1.5
					v0C-91,7.8-91.7,8.7-92.6,8.8z"/>
				<g>
					<path class="st8" d="M-83.2,4.3l-3.6,0.4c-0.5,0.1-0.9,0.5-0.9,1.1l0.2,1.5c0.1,0.5,0.5,0.9,1.1,0.9l0.9-0.1l2.7-3.7
						C-82.9,4.3-83,4.3-83.2,4.3z"/>
					<path class="st9" d="M-82,6.6l-0.2-1.5c0-0.4-0.3-0.7-0.6-0.8L-85.5,8l2.7-0.3C-82.3,7.7-81.9,7.2-82,6.6z"/>
				</g>
				<path class="st7" d="M-83.6,7.8L-85.7,8c-0.9,0.1-1.8-0.6-1.9-1.5v0c-0.1-0.9,0.6-1.8,1.5-1.9l2.1-0.2c0.9-0.1,1.8,0.6,1.9,1.5
					v0C-82,6.8-82.7,7.7-83.6,7.8z"/>
				<g>
					<path class="st5" d="M-85,12.1c0-0.2-0.1-0.4-0.2-0.6c-0.3,0.7-1.8,1.4-3.6,1.6c-1.8,0.2-3.3-0.1-3.8-0.8
						c-0.1,0.2-0.1,0.4-0.1,0.6c0.1,0.9,1,1.5,2.2,1.8c0.1-0.5,0.8-0.9,1.7-1c0.9-0.1,1.8,0.2,1.9,0.6C-85.6,13.9-84.9,13-85,12.1z"
						/>
					<path class="st10" d="M-88.7,13.8c-0.9,0.1-1.6,0.5-1.7,1c0.6,0.1,1.2,0.2,1.9,0.1c0.6-0.1,1.2-0.2,1.7-0.4
						C-87,13.9-87.8,13.7-88.7,13.8z"/>
				</g>
				<g>
					<path class="st11" d="M-93.2,11.7c-0.4,0.2-0.6,0.6-0.6,0.9c0,0.3,0.3,0.6,0.6,0.7c-0.2-0.2-0.3-0.4-0.3-0.7
						C-93.5,12.3-93.4,11.9-93.2,11.7z"/>
				</g>
				
					<rect x="-91.1" y="6.6" transform="matrix(0.9941 -0.1085 0.1085 0.9941 -1.2575 -9.6504)" class="st6" width="3.5" height="0.3"/>
			</g>
			<path class="st12" d="M-99.8,2.2c0,0,18.4-2.4,19.4-1.8c-0.3-5.5-9.5-3.5-15-2.9C-101.5-1.9-99.8,2.2-99.8,2.2z"/>
			<path class="st13" d="M-100,0.7c0,0,0.3-17.9,12.7-13.2S-74.4,4.4-74.4,4.4l-6.9-5.9C-81.3-1.4-93.4-4.1-100,0.7z"/>
			<circle class="st2" cx="-73.4" cy="3.8" r="2.4"/>
			<g>
				<path class="st14" d="M-81.3-1.4c-0.2-0.4-0.4-0.8-0.6-1.1C-82-3-82.2-3.4-82.5-3.7c-0.3-0.3-0.6-0.5-1-0.8
					c-0.4-0.2-0.7-0.5-1-0.8c0.4,0.2,0.8,0.4,1.1,0.6c0.4,0.2,0.8,0.4,1.1,0.8c0.3,0.3,0.5,0.8,0.6,1.2C-81.6-2.2-81.4-1.8-81.3-1.4
					z"/>
			</g>
			<g>
				<path class="st14" d="M-83.9-4.1c0.4,0.1,0.8,0.4,1.2,0.7c0.3,0.3,0.6,0.7,0.6,1.2c-0.2-0.4-0.4-0.8-0.7-1.1
					C-83.2-3.7-83.5-3.9-83.9-4.1z"/>
			</g>
			<path class="st15" d="M-92.1,18.1c0,0,3.6,2.7,6.8-0.7C-76,16-72.1,28.6-72.1,28.6h-33l3-5.1c1.2-2.1,3.2-3.7,5.5-4.4
				c0.1,0,0.2-0.1,0.3-0.1L-92.1,18.1z"/>
		</g>
		<path class="st4" d="M-104.5,2.3l4.8,4.6l0.3,3C-99.4,9.8-103.9,6.6-104.5,2.3z"/>
	</g>
	<ellipse class="st3" cx="-74.2" cy="24.7" rx="3.2" ry="2.3"/>
</g>
</svg>
