<svg xmlns="http://www.w3.org/2000/svg" viewBox="0 0 238.46 236.36"><defs><style>.cls-1{fill:#f97e54;}.cls-2{fill:#95382c;}.cls-3{fill:#ffb781;}.cls-4{fill:#000004;}.cls-5{fill:red;}.cls-6{fill:#fff;}.cls-7{fill:none;stroke:#000;stroke-miterlimit:10;stroke-width:1.55px;}.cls-8{fill:#00aa2c;}.cls-9{fill:#ffa400;}</style></defs><title>Reindeer</title><g id="Layer_2" data-name="Layer 2"><g id="Layer_2-2" data-name="Layer 2"><g id="Reindeer"><path class="cls-1" d="M143.24,224c-.26.48,12.12-13.49,18.37-5.33l56.88-46.61s-7-9.23,9.14-17.07c-8,2.16-13.63,10.68-13.63,10.68s-15.46-.14-18.1.91c-6,5.95-35,29.13-35,29.13s-6.2,14.51-6.61,18.07C150,216.24,144.92,221,143.24,224Z"/><path class="cls-2" d="M144.09,115.16c6.14-4.08,21.17-49.4,21.52-57.25,0,0,5.27-26.69-13.4-55.65-4.37-5.23-7.25-.33-3.61,4S154.91,24,154.91,24a62.24,62.24,0,0,0-6-5.5c-3.34-2.64-5.31,1.16-3.92,2.82s12.69,14.19,13.83,18.43c-2.19,0-4-1-6.21-2.3s-5.78,1.26-1.49,4,6.11,3,9.67,8.21-6,26.17-6,26.17-4.69-20.39-8-28.28c-5.24-14-6.16-11.59-7.76-10.56s6.4,21.42,6.4,21.42-8.34-1.81-11.59-.88-4.58,3.7-3.11,5.3,11.28-2.09,15.14,1.94,5.65,14.61,2.19,24c-.79,1.07-7.35-12.44-10.52-13.54s-6.51.47-6.31,3.32c0,0,10.26,8,12.27,15.8s-11.25,27.28-11.25,27.28l-7.6,5.92s-23.64,6.87-26.31,5.44-9.41-5.7-13.23-13c0,0-4.39-4.92-5.22,4,.1,2.57,12.64,12.28,12.64,12.28s-18.94,4.05-24.19-4.94c-4.1-8.88.51-10.36.41-14.28s-4-1.9-4.9-.72-3.09,7.52-1.77,12.74c-6.62-.85-12.5-7.56-17.93-8.83s-5.35,2.1-1.1,4.83,30.31,16,33.82,16c-5.12,2.81-21.46,5-26.17,2.31s-4.86-7.77-6.77-11.24-5.93-1.7-4.2,2.06a22.92,22.92,0,0,1,2,5.39s-3.48.21-8.84-6.72-7.9-9.46-10-9.42S19,125.72,25.74,133c-11.34-4.81-9.42-1.49-18.61-9.46s-9.72.16-.3,6.55,26.63,16.72,38.55,17.68,37.24,2.93,56.85-5.81,25.61-8.64,25.61-8.64Z"/><ellipse class="cls-3" cx="169.57" cy="169.03" rx="36.91" ry="18.74" transform="translate(-68.74 145.98) rotate(-39.38)"/><path class="cls-1" d="M94.39,151.23s9.37-17.39,26.59-17.51c4.42-13.94,17.68-19.83,21.45-19.36,1.81-7,5.76-14.62,20.54-22,.38,5.78.87,15.47-9.24,25.9,8.82,9.55,23.27,21.81,32,23.2-26.64,21.75-45.86,37-45.86,37s-3.07-14.07-16.63-34.63C113.69,156.13,98.06,149.05,94.39,151.23Z"/><ellipse class="cls-4" cx="136.21" cy="147.54" rx="1.87" ry="3.65" transform="translate(-62.96 121.95) rotate(-39.96)"/><ellipse class="cls-4" cx="154.38" cy="132.35" rx="1.87" ry="3.65" transform="translate(-48.95 130.07) rotate(-39.96)"/><ellipse class="cls-5" cx="162.19" cy="160.21" rx="16.94" ry="9.67" transform="translate(-64.81 139.11) rotate(-39.34)"/><ellipse class="cls-6" cx="157.68" cy="160.11" rx="5.76" ry="3" transform="translate(-65.78 136.38) rotate(-39.38)"/><path class="cls-7" d="M157,182.44s2.47.69-.22,4.8"/><path class="cls-7" d="M157.87,184.51s15.43.6,29.32-25.29"/><ellipse class="cls-6" cx="152.17" cy="225.34" rx="11.64" ry="7.8" transform="translate(-108.21 147) rotate(-39.23)"/><ellipse class="cls-8" cx="153.09" cy="226.54" rx="12.23" ry="7.8" transform="translate(-108.82 148.06) rotate(-39.27)"/><ellipse class="cls-6" cx="226.85" cy="164.19" rx="11.64" ry="7.8" transform="translate(-52.71 180.45) rotate(-39.23)"/><ellipse class="cls-8" cx="227.78" cy="165.39" rx="12.23" ry="7.8" transform="translate(-53.25 181.52) rotate(-39.27)"/><path class="cls-2" d="M144.09,115.16s2.23-11.79,16.78-20.42c.57,7.51-1.17,15.05-8,21.53C147.94,115.7,144.09,115.16,144.09,115.16Z"/><path class="cls-2" d="M120.07,135.73s-12.51.44-21.76,12.9c8.62,1.72,15.11,1.41,22.79-5.34C120.42,138.17,120.07,135.73,120.07,135.73Z"/><path class="cls-4" d="M159.69,198.56,161,195s22.89-7.56,35.29-28.57c3.83-.5,2.44-.19,2.44-.19S191.92,185,159.69,198.56Z"/><ellipse class="cls-9" cx="185.59" cy="185.33" rx="3.23" ry="3.25" transform="translate(-12.12 357.68) rotate(-86.04)"/><ellipse class="cls-4" cx="185.71" cy="185.16" rx="0.48" ry="0.68" transform="translate(-17.82 19.78) rotate(-5.82)"/><path d="M188.76,184.66a3,3,0,0,1,.09.62c-.52.51-2.91.17-2.91.17l0-.63C186.25,185.18,188.6,184.74,188.76,184.66Z"/><ellipse class="cls-9" cx="181.94" cy="188.58" rx="3.23" ry="3.25" transform="translate(-18.76 357.06) rotate(-86.04)"/><ellipse class="cls-4" cx="182.13" cy="188.69" rx="0.68" ry="0.48" transform="translate(-26.58 29.89) rotate(-8.75)"/><path d="M182.81,191.69a3.51,3.51,0,0,1-.62.12c-.54-.48-.35-2.87-.35-2.87h.64C182.14,189.22,182.72,191.53,182.81,191.69Z"/></g></g></g></svg>