<?xml version="1.0" encoding="utf-8"?>
<!-- Generator: Adobe Illustrator 22.0.1, SVG Export Plug-In . SVG Version: 6.00 Build 0)  -->
<svg version="1.1" id="Layer_1" xmlns="http://www.w3.org/2000/svg" xmlns:xlink="http://www.w3.org/1999/xlink" x="0px" y="0px"
	 viewBox="0 0 46.8 28.5" style="enable-background:new 0 0 46.8 28.5;" xml:space="preserve">
<style type="text/css">
	.st0{fill:#0071BC;}
</style>
<title>right</title>
<g id="Layer_2_1_">
	<g id="Layer_1-2">
		<path id="right" class="st0" d="M28.7,2.7L28.7,2.7c0,1.5-1.2,2.6-2.6,2.6L2.7,5.2C1.2,5.2,0,6.4,0,7.8l0,0v12.4
			c0,1.5,1.2,2.6,2.6,2.6h22.9c1.5,0,2.6,1.2,2.6,2.6v0.2c0,1.5,1.2,2.6,2.7,2.6c0.6,0,1.2-0.2,1.7-0.6l13.3-11.5
			c1.1-0.9,1.3-2.6,0.3-3.7c-0.1-0.1-0.2-0.2-0.3-0.3L33.1,0.7c-1.1-1-2.8-0.9-3.7,0.2C28.9,1.4,28.7,2,28.7,2.7z"/>
	</g>
</g>
</svg>
