<svg xmlns="http://www.w3.org/2000/svg" xmlns:xlink="http://www.w3.org/1999/xlink" viewBox="0 0 465.37 701.7"><defs><style>.cls-1{fill:#b00000;}.cls-2{fill:#7a0000;}.cls-3{fill:#fff;}.cls-4{fill:url(#radial-gradient);}.cls-5{fill:url(#radial-gradient-2);}.cls-6{fill:url(#radial-gradient-3);}.cls-7{fill:url(#radial-gradient-4);}.cls-8{fill:url(#radial-gradient-5);}</style><radialGradient id="radial-gradient" cx="52.62" cy="230.13" r="21.16" gradientTransform="translate(59.25 -40.02) rotate(9.92)" gradientUnits="userSpaceOnUse"><stop offset="0" stop-color="#fff"/><stop offset="0.69" stop-color="#ffbf4c"/><stop offset="1" stop-color="#ffa400"/></radialGradient><radialGradient id="radial-gradient-2" cx="117.62" cy="230.13" r="21.16" xlink:href="#radial-gradient"/><radialGradient id="radial-gradient-3" cx="170.62" cy="228.13" r="21.16" xlink:href="#radial-gradient"/><radialGradient id="radial-gradient-4" cx="227.62" cy="227.13" r="21.16" xlink:href="#radial-gradient"/><radialGradient id="radial-gradient-5" cx="366.26" cy="55.51" r="21.16" gradientTransform="translate(-62.76 192.81) rotate(-2.3)" xlink:href="#radial-gradient"/></defs><title>rightsock</title><g id="Layer_2" data-name="Layer 2"><g id="Layer_3" data-name="Layer 3"><g id="rightsock"><path class="cls-1" d="M316.33,359.63l29.42-178S54.86,131.51,43.53,129.53c0,0-2.58,14.77-27.59,166.18-4.86,29.43-8.56,54.56-11.17,76.19A116.08,116.08,0,0,1,142.69,505.47,115.59,115.59,0,0,1,98.4,578c58.13,47.39,133.74,104.14,168.26,114.77,53.65,16.51,116.74,18.31,177.18-67.85a65.64,65.64,0,0,0,9.92-21.83C474.82,518.86,485.68,489.35,316.33,359.63Z"/><path class="cls-2" d="M48.4,371.23a115.7,115.7,0,0,0-43.63.67C-6,461.55,2,490.8,24.56,514.06c8.87,9.13,38,34.76,73.84,63.94a115.59,115.59,0,0,0,44.29-72.53A116,116,0,0,0,48.4,371.23Z"/><rect class="cls-2" x="40.5" y="139.13" width="306.89" height="41" transform="translate(30.39 -31.01) rotate(9.92)"/><polygon class="cls-3" points="77.48 181.18 64.28 128.7 107.7 136.29 77.48 181.18"/><polygon class="cls-3" points="137.56 191.68 124.36 139.2 167.78 146.79 137.56 191.68"/><polygon class="cls-3" points="192.71 201.32 179.51 148.84 222.94 156.43 192.71 201.32"/><polygon class="cls-3" points="247.87 210.97 234.66 158.48 278.09 166.07 247.87 210.97"/><polygon class="cls-3" points="307.95 221.47 294.75 168.99 338.17 176.58 307.95 221.47"/><circle class="cls-4" cx="71.46" cy="195.74" r="21.16"/><circle class="cls-5" cx="135.49" cy="206.93" r="21.16"/><circle class="cls-6" cx="188.04" cy="214.09" r="21.16"/><circle class="cls-7" cx="244.36" cy="222.92" r="21.16"/><circle class="cls-8" cx="305.43" cy="233.6" r="21.16"/><rect class="cls-3" x="7.99" y="28.9" width="404" height="129" rx="31.28" ry="31.28" transform="translate(19.22 -34.77) rotate(9.92)"/></g></g></g></svg>