<svg xmlns="http://www.w3.org/2000/svg" viewBox="0 0 238.24 146.8"><defs><style>.cls-1{fill:#f03;}.cls-2{fill:#e8e8e8;}.cls-3{fill:#fff;}.cls-4{fill:#000004;}.cls-5{fill:#ff7500;}</style></defs><title>Santa Body</title><g id="Layer_2" data-name="Layer 2"><g id="Layer_2-2" data-name="Layer 2"><g id="Santa_Body" data-name="Santa Body"><path class="cls-1" d="M30.2,145.46l149.55.89s18.8-10.74,20.59-50.14c-34-34-161.18-31.35-188.94-1.8C6.92,113.22,30.2,145.46,30.2,145.46Z"/><path class="cls-1" d="M45.43,69.64s0-25.37,9.85-28.95,38.5,0,41.19,0S106,57.4,105.72,61.58,45.43,69.64,45.43,69.64Z"/><path class="cls-1" d="M144.23,66.65s22.09-22.38,31.94-23.28,33.13,24.18,34.92,30.45-6.27,17.91-6.27,17.91Z"/><path class="cls-2" d="M3.34,87.25s89.55-59.1,206.85,2.69c4.48,2.68,0,11.64-9.85,6.27s-98.5-51-188.94-1.8C3.34,102.47-4.72,95.31,3.34,87.25Z"/><path class="cls-3" d="M41.84,38s26.87-17.91,65.37-2.69c8.06,3.59,2.69,13.44-7.61,9s-42.53-3.58-49.25,1.79S35.58,42.48,41.84,38Z"/><path class="cls-4" d="M187.13,37.78s15-14.11,22.17-12.32,26.86,17,28.65,28.66-4.92,17-19,14.33S187.13,37.78,187.13,37.78Z"/><path class="cls-3" d="M178.85,32.63S211.09,47,222.73,74.71c5.37,13.44-7.61,11.65-12.31,2.69s-25.3-27.76-36-33.13S170.79,29.94,178.85,32.63Z"/><path class="cls-4" d="M98.56,32.33s-1-17.7-10.15-25.67C75-5,55.28,2.18,55.28,2.18S34.22,8.88,41,15.61C46.32,21,51.69,25.46,51.1,33.22,60.65,30.84,80.05,25.76,98.56,32.33Z"/><rect class="cls-2" x="102.29" y="69.79" width="10.75" height="77.01"/><path class="cls-4" d="M12.07,110.09s95.14-41.64,185.59,2.23c0,12.54-6.27,20.15-6.27,20.15S118,88.15,19.9,128.44C13.19,117.7,12.07,110.09,12.07,110.09Z"/><path class="cls-5" d="M115.27,85.46h-17A10.78,10.78,0,0,0,87.51,96.21v17A10.78,10.78,0,0,0,98.26,124h17A10.78,10.78,0,0,0,126,113.22v-17A10.78,10.78,0,0,0,115.27,85.46Zm.9,29.55H96.47V95.31h19.7Z"/></g></g></g></svg>