<svg xmlns="http://www.w3.org/2000/svg" viewBox="0 0 165.55 119.35"><defs><style>.cls-1{opacity:0.85;}.cls-2{fill:#fff;}</style></defs><title>smoke</title><g id="Layer_2" data-name="Layer 2"><g id="Layer_1-2" data-name="Layer 1"><g id="smoke" class="cls-1"><rect class="cls-2" x="12.19" y="72.77" width="86.76" height="27.99" rx="13.99" ry="13.99"/><rect class="cls-2" y="35.78" width="114.75" height="28.39" rx="14.19" ry="14.19"/><rect class="cls-2" x="21.79" width="131.14" height="28.79" rx="14.39" ry="14.39"/><rect class="cls-2" x="-237.87" y="-123.44" width="40.78" height="20.79" rx="10.4" ry="10.4" transform="translate(-90.52 316.43) rotate(90)"/><path class="cls-2" d="M-163.71-137.65a4.93,4.93,0,0,1-4.92-4.93v-.32a4.93,4.93,0,0,1,4.92-4.93h4.47v-7.4h-31v7.4h4.13a4.93,4.93,0,0,1,4.93,4.93v.32a4.93,4.93,0,0,1-4.93,4.93h-4.13v10.41h31v-10.41Z" transform="translate(240 212)"/><path class="cls-2" d="M-156.14-176.26a4.3,4.3,0,0,1-4.3-4.3,4.31,4.31,0,0,1,4.3-4.3h15.7v-11.95H-188v12h6.69a4.29,4.29,0,0,1,4.3,4.3,4.29,4.29,0,0,1-4.3,4.29H-188v5.6h47.58v-5.64Z" transform="translate(240 212)"/><rect class="cls-2" x="129.21" y="50.85" width="36.33" height="16" rx="8" ry="8"/></g></g></g></svg>