<?xml version="1.0" encoding="utf-8"?>
<!-- Generator: Adobe Illustrator 22.0.1, SVG Export Plug-In . SVG Version: 6.00 Build 0)  -->
<svg version="1.1" id="Layer_1" xmlns="http://www.w3.org/2000/svg" xmlns:xlink="http://www.w3.org/1999/xlink" x="0px" y="0px"
	 viewBox="0 0 22.1 22.1" style="enable-background:new 0 0 22.1 22.1;" xml:space="preserve">
<style type="text/css">
	.st0{fill:#FFFFFF;}
</style>
<polygon class="st0" points="21.5,14.7 13.7,12.6 19.7,17.9 13.1,13.4 17,20.4 12.2,14 13.6,21.9 11.2,14.2 10,22.1 10.2,14.1 
	6.5,21.2 9.2,13.7 3.4,19.2 8.5,13 1.2,16.3 8,12.1 0,12.8 7.8,11.1 0,9.2 8,10 1.2,5.7 8.5,9.1 3.5,2.9 9.2,8.4 6.6,0.9 10.2,8 
	10.1,0 11.2,7.9 13.7,0.3 12.3,8.2 17.1,1.8 13.1,8.8 19.8,4.3 13.8,9.6 21.5,7.5 14.1,10.6 22.1,11.1 14.1,11.6 "/>
</svg>
