<svg xmlns="http://www.w3.org/2000/svg" viewBox="0 0 260.87 268.55"><defs><style>.cls-1{fill:#332d44;}.cls-2{fill:#e6c9c8;}.cls-3{fill:#a7413d;}.cls-4{fill:#a8504d;}.cls-5{fill:#bf7572;}.cls-6{fill:#e1cbca;}.cls-7{fill:#ca8d8b;}.cls-8{fill:#e8cccb;}.cls-9{fill:#efdcdb;}.cls-10{fill:#b15956;}.cls-11{fill:#ecd0cf;}.cls-12{fill:#c78380;}.cls-13{fill:#b87e7c;}.cls-14{fill:#d9abab;}.cls-15{fill:#f0f6e8;}.cls-16{fill:#cee0d3;}.cls-17{fill:#971f1b;}.cls-18{fill:#7e1814;}.cls-19{fill:#231f20;}.cls-20{fill:#b6cdb5;}.cls-21{fill:#77b033;}.cls-22{fill:#94cb38;}.cls-23{fill:#9fbba8;}.cls-24{fill:#a9d472;}.cls-25{fill:#aa2e2a;}.cls-26{fill:#c06c66;}.cls-27{fill:#e1c1bd;}.cls-28{fill:#b7ccb5;}.cls-29{fill:#c8ebde;}.cls-30{fill:#c5e2db;}.cls-31{fill:#b9dc8e;}.cls-32{fill:#a6ce69;}.cls-33{fill:#edfaf2;}.cls-34{fill:#f9a724;}.cls-35{fill:#242021;}.cls-36{fill:#241f20;}.cls-37{fill:#f5b64b;}.cls-38{fill:#fcfcfc;}.cls-39{fill:#fdfdfd;}</style></defs><title>Snowman</title><g id="Layer_2" data-name="Layer 2"><g id="Layer_1-2" data-name="Layer 1"><g id="Snowman"><ellipse class="cls-1" cx="170.03" cy="227.18" rx="37.04" ry="86.88" transform="translate(-90.67 339.23) rotate(-76.44)"/><path class="cls-2" d="M0,121.54c.31-.21.1-.66.41-.87a6.09,6.09,0,0,1,0,4.52c-.24-.15-.13-.52-.4-.65Z"/><path class="cls-3" d="M94.74,0H97.1A.23.23,0,0,1,97,.32a3,3,0,0,1-2.21,0A.23.23,0,0,1,94.74,0Z"/><path class="cls-4" d="M260.87,85.1v2.14a.21.21,0,0,1-.31,0,2.6,2.6,0,0,1-.18-1.38,1.25,1.25,0,0,1,.18-.67A.22.22,0,0,1,260.87,85.1Z"/><path class="cls-5" d="M94.74,0a1.23,1.23,0,0,1,0,.19.59.59,0,0,1-.79.11.2.2,0,0,1,0-.3Z"/><path class="cls-6" d="M260.87,88.74h-.19a.62.62,0,0,1-.12-.81.21.21,0,0,1,.31,0Z"/><path class="cls-7" d="M97.75,0h.85a.19.19,0,0,1,0,.29.71.71,0,0,1-.79,0A.19.19,0,0,1,97.75,0Z"/><path class="cls-8" d="M98.62.18a1.1,1.1,0,0,1,0-.18h.86c0,.06,0,.12,0,.18A.54.54,0,0,1,98.62.18Z"/><path class="cls-9" d="M92.81.18a1.09,1.09,0,0,1,0-.18h.64a.2.2,0,0,1,0,.29A.45.45,0,0,1,92.81.18Z"/><path class="cls-10" d="M97.75,0a1.1,1.1,0,0,0,0,.18.43.43,0,0,1-.66,0c0-.07,0-.13,0-.2Z"/><path class="cls-11" d="M260.69,83.8a.37.37,0,0,1,.18,0v.65a.2.2,0,0,1-.29,0A.44.44,0,0,1,260.69,83.8Z"/><path class="cls-12" d="M260.69,84.43a.29.29,0,0,1,.18,0v.64l-.19,0A.41.41,0,0,1,260.69,84.43Z"/><path class="cls-13" d="M260.87,87.89l-.09,0h-.09a.41.41,0,0,1,0-.65l.18,0Z"/><path class="cls-14" d="M93.45.18c0-.06,0-.12,0-.18h.43a.62.62,0,0,1,0,.19A.27.27,0,0,1,93.45.18Z"/><path class="cls-15" d="M194.16,109.67c.24.53.77.75,1.19,1a75.61,75.61,0,0,1,8,6.53,37.39,37.39,0,0,1,3.13,3c.1.13.26,0,.39,0,1.23,1.51,2.62,2.89,3.83,4.43a5.93,5.93,0,0,1,.63.86,5.3,5.3,0,0,0,1.31,2,65,65,0,0,1,4.57,6.95,69.48,69.48,0,0,1,6.4,14.66,61.07,61.07,0,0,1,2.13,9.44c.27,2,.48,4,.68,6a62.55,62.55,0,0,1,.12,7.37c0,1.4-.17,2.82-.35,4.23-.2,1.62-.39,3.24-.67,4.84A70.05,70.05,0,0,1,213.92,209c-1.29,1.86-2.69,3.65-4.15,5.4a84.46,84.46,0,0,1-6.16,6.53c-1.64,1.57-3.4,3-5.18,4.43s-3.74,2.83-5.69,4.13a80.49,80.49,0,0,1-10.54,5.88c-1.73.82-3.52,1.54-5.31,2.22a6,6,0,0,1-3,.1c-.75-.11-1.48-.12-2.23-.16.16-.66.78-.66,1.24-.85A101.06,101.06,0,0,0,191.17,227a76.73,76.73,0,0,0,21.28-21A65.32,65.32,0,0,0,223,179.62a13.11,13.11,0,0,1,.33-2.18,73.28,73.28,0,0,1-5,7.87,92,92,0,0,1-12.63,14.11A80.06,80.06,0,0,1,193.1,209c-.33.2-.64.48-1.08.29a2.4,2.4,0,0,1-.5-.93,5.09,5.09,0,0,0-4.79-3.32c-2.25,0-3.75,1.31-4.72,3.26-.21.42-.32.87-.52,1.29a5.48,5.48,0,0,0-.31,3.92,2.65,2.65,0,0,1,.23,1.33,2,2,0,0,1-1.07.68,81.49,81.49,0,0,1-22.47,5.6,82.79,82.79,0,0,1-10.78.6,112.91,112.91,0,0,1-29.66-4.5,74.13,74.13,0,0,1-24.32-12.09,59.09,59.09,0,0,1-22.29-34.67,8,8,0,0,1-.32-2.67c0-.22-.2,0-.07-.06s0,0,0,.09c-.23,2.35-.56,4.68-.77,7-.23,2.5-.12,5-.17,7.49a67.07,67.07,0,0,0,.39,9.4,1.58,1.58,0,0,1-.26,1.42.9.9,0,0,1-.35-.52,74,74,0,0,1-2.89-10.89c-.31-1.74-.58-3.49-.77-5.24a20.65,20.65,0,0,1-.28-3.6c0-1,0-1.93,0-2.89a57.23,57.23,0,0,1,.45-9.25,1.23,1.23,0,0,1,1-.24c1.48.24,3,.11,4.47.29a2.21,2.21,0,0,0,1.45-.22,35.68,35.68,0,0,0,4.37-3.06,6.48,6.48,0,0,0,2.53-6.13c0-.32,0-.64,0-1-.2-2.08-.85-3.71-3.19-4.35a49.09,49.09,0,0,1-5.25-2.1c-.38-.15-.86-.22-.95-.75a12.84,12.84,0,0,0,1.64-3.32c.74-1.66,1.65-3.22,2.52-4.8.5-.89,1-1.77,1.56-2.65a1.36,1.36,0,0,0,.12-.63c.1,0,.24,0,.28.08.66,1.5,1.78,2.76,2.36,4.32a98.32,98.32,0,0,0,4.1,12.51,25.22,25.22,0,0,1,1.92,9.92c0,3.22-.07,6.43,0,9.65a113.76,113.76,0,0,0,2.81,23.24c.41,1.74.43,1.74,2.13,1.13,5-1.83,10-3.79,14.92-6a19.79,19.79,0,0,1,7.28-1.59,37.29,37.29,0,0,1,10.84,1.27c-.83-1.5-1.71-2.8-2.43-4.18-.22-.43-.62-.86-.06-1.33a26.39,26.39,0,0,1,3.7-1c1.07-.35,1.16-.45.75-1.5a54.85,54.85,0,0,0-4.41-8.55c-3.23-5.33-7.14-10.16-10.88-15.12-3.86-5.13-7.66-10.31-11.12-15.73-.24-.38-.59-.75-.37-1.27a1.75,1.75,0,0,1,1.25-.11c4.39.53,8.79,1,13.19,1.41q5.26.53,10.55.94c7.79.61,15.36-.91,22.91-2.43a171.53,171.53,0,0,0,21.91-5.9A71,71,0,0,0,181,125.88a28.1,28.1,0,0,0,10.17-10.2,21.88,21.88,0,0,0,2.08-5C193.4,110.18,193.58,109.74,194.16,109.67Z"/><path class="cls-16" d="M69.66,193.13a41.59,41.59,0,0,0-.39-5c0-.32,0-.64,0-1,0-2.61,0-5.22,0-7.83a62.06,62.06,0,0,1,.4-6.81c.18-1.87.48-3.72.74-5.6a4.8,4.8,0,0,1,.49,2.07,54.07,54.07,0,0,0,3.37,11.33,58.6,58.6,0,0,0,4.14,8.08,52.67,52.67,0,0,0,4.55,6.44,57.37,57.37,0,0,0,5,5.52,69.61,69.61,0,0,0,12,9,78.4,78.4,0,0,0,16,7.07,94.51,94.51,0,0,0,11.37,2.85c2.44.47,4.88.9,7.34,1.2,1.76.21,3.54.33,5.3.54s3.69.11,5.53.31a18.39,18.39,0,0,0,5.44-.11,6.06,6.06,0,0,1,1.28,0c1.75,0,3.47-.24,5.2-.39,1.88-.15,3.73-.48,5.6-.71,1.15-.14,2.3-.4,3.45-.65a83.25,83.25,0,0,0,14.83-4.7.63.63,0,0,1,.41.21,5.25,5.25,0,0,0,4.3,2.35,4.79,4.79,0,0,0,4.45-2.59c0-.09.09-.18.14-.27l.18-.44a6.72,6.72,0,0,0,1.08-4.36.46.46,0,0,1,.21-.46,29.3,29.3,0,0,0,4.06-2.53c1.91-1.36,3.8-2.75,5.63-4.23,1.25-1,2.48-2,3.64-3.12,2.19-2.05,4.34-4.16,6.37-6.37a76.82,76.82,0,0,0,6-7.35,74.38,74.38,0,0,0,5.52-8.64c0-.05.1-.08.2-.16a7.05,7.05,0,0,1-.21,2.72,57.29,57.29,0,0,1-2.75,10.94,70.31,70.31,0,0,1-6.09,12.82,80.72,80.72,0,0,1-6.77,9.44,68.26,68.26,0,0,1-6.86,7.06,83.06,83.06,0,0,1-14.29,10.41c-2.35,1.36-4.7,2.71-7.15,3.87s-4.86,2.22-7.34,3.22a2.6,2.6,0,0,0-.36.21h-.63c-.25-.21-.6,0-.86-.19a18.28,18.28,0,0,1-4.81-.86,2.7,2.7,0,0,1-.93-.5,3.4,3.4,0,0,0-2.91-.76c-1.79.26-3.56.62-5.35.9a10,10,0,0,1-6.89-1.23,18.88,18.88,0,0,0-5.85-2.25c-2.6-.56-5.25-.81-7.9-1.12a49.45,49.45,0,0,1-9.19-1.71c-1.09-.35-2.13-.83-3.24-1.07a19.73,19.73,0,0,0-6.55-.47,27.27,27.27,0,0,0-7,1.65,2.5,2.5,0,0,1-.94.11c-1.43,0-2.86,0-4.29,0a6,6,0,0,0-2.6.49,1.42,1.42,0,0,1-1.49-.17A84.39,84.39,0,0,1,91.54,224a76.84,76.84,0,0,1-7.86-7.55,67.08,67.08,0,0,1-8.21-11,64.75,64.75,0,0,1-4.59-8.92c-.34-.82-.74-1.62-1-2.47-.18-.18,0-.47-.2-.65A1.48,1.48,0,0,0,69.66,193.13Z"/><path class="cls-17" d="M.4,125.19c-.07-1.5-.06-3,0-4.52a26.69,26.69,0,0,1,5.35-12,13.94,13.94,0,0,1,3.76-3.46c3.55-2.21,7.2-2.12,10.93-.51A18.49,18.49,0,0,1,24.2,107c0-.72,0-1.31.09-1.89a8.34,8.34,0,0,1,2-4.41A12.75,12.75,0,0,1,29.5,98a4.73,4.73,0,0,1,4.11-.39,9.91,9.91,0,0,1,2.73,1.44,26.42,26.42,0,0,1,5.85,6.18,29.78,29.78,0,0,1,2.58,9.43A9.09,9.09,0,0,1,44,119.6a5.79,5.79,0,0,1-5.47,3.28c-1,0-1.93,0-2.89,0a4,4,0,0,0-3.5,1.93,17.07,17.07,0,0,0-2.74,6.91,3,3,0,0,1-1.56,2.39,15.55,15.55,0,0,1-6.4,2.26c-3.86.37-6.63-1.56-9-4.32a33.88,33.88,0,0,1-5.86-10.64c-.12-.31-.07-.81-.5-.85s-.51.35-.71.6a13.53,13.53,0,0,0-3.21,8.11c0,.39,0,.8-.31,1.09A17.09,17.09,0,0,1,.4,125.19Z"/><path class="cls-18" d="M260.69,87.26v1.49a23.25,23.25,0,0,1-2.38,8.17,29.4,29.4,0,0,1-9.14,11.16,22.23,22.23,0,0,1-7.59,3.57,3.11,3.11,0,0,1-1.36.47,16.41,16.41,0,0,1-2.89,0,43.55,43.55,0,0,1-16.13-7.38,21.36,21.36,0,0,1-5.72-6.29,10.23,10.23,0,0,1-1.54-4,29.28,29.28,0,0,1-1.07-9.36A27.45,27.45,0,0,1,214,78.67c.56.12.43.59.46.94.14,1.53.22,3.06.46,4.58a18,18,0,0,0,1.68,5.73q2.55,4.8,7.6,2.83a7,7,0,0,0,.89-.37c2.94-1.66,5.48-.93,7.79,1.27a17.89,17.89,0,0,1,3.83,4.57,1.49,1.49,0,0,0,1.07.8,13.51,13.51,0,0,0,7.3-.21c3-1,4.72-3.33,5.78-6.2a27.77,27.77,0,0,0,1.63-10c0-1.21,0-2.43,0-3.64,0-.72.38-1,1-.65,3.27,1.61,6,3.77,7.13,7.4C260.66,86.25,260.67,86.75,260.69,87.26Z"/><path class="cls-18" d="M1.9,130.38a13.73,13.73,0,0,1,.87-5.23A12.7,12.7,0,0,1,6.26,120c.29.08.31.35.38.57a35.88,35.88,0,0,0,4.08,8.68,18.34,18.34,0,0,0,5.2,5.58A8.68,8.68,0,0,0,22.37,136a14.92,14.92,0,0,0,6-2.59,1.09,1.09,0,0,0,.54-.84,18.24,18.24,0,0,1,2.1-6.46,17,17,0,0,1,1.26-2,3.91,3.91,0,0,1,3.17-1.49,26.62,26.62,0,0,1,2.68,0,8.23,8.23,0,0,0,2.32-.33,5.43,5.43,0,0,0,3.86-4.76,8.93,8.93,0,0,0,.24-2.11c-.16-1.16-.31-2.32-.52-3.47a34.31,34.31,0,0,0-1.91-6.21c-.07-.18-.12-.34,0-.48A28.57,28.57,0,0,1,48,117.93c.08.41.15.83.23,1.25a.81.81,0,0,1,.08.48,19.08,19.08,0,0,1-.19,6.17A27.47,27.47,0,0,1,42,137.31a50.08,50.08,0,0,1-6.44,6.42,9.9,9.9,0,0,1-6.16,2.66c-.78.07-1.56.17-2.34.21a23.88,23.88,0,0,1-11.84-2.74A28.19,28.19,0,0,1,2.92,132.6,8.28,8.28,0,0,1,1.9,130.38Z"/><path class="cls-19" d="M70.26,143.22c2.48,1.16,5,2.12,7.57,3.13a2.42,2.42,0,0,1,1.5,1.51,8.61,8.61,0,0,1,.6,3.44,3.9,3.9,0,0,1-2.52,3.7,2.23,2.23,0,0,1-2,0,32.75,32.75,0,0,1-3.1-1.64c-1.18-.66-2.42-1.2-3.6-1.86a3.19,3.19,0,0,1-1-.78,3.61,3.61,0,0,0-1-.59q-6.37-3.43-12.76-6.84c-.28-.15-.54-.33-.81-.5-.16-.5.31-.68.52-1a40,40,0,0,0,2.5-3.14c.21-.31.37-.7.84-.73L69.66,143C69.86,143.11,70.06,143.16,70.26,143.22Z"/><path class="cls-16" d="M53.82,141.92c-.12.35-.46.53-.64.83-.69.72-1.34,1.47-2.07,2.14a43.72,43.72,0,0,1-6.62,5.36,8.27,8.27,0,0,1-2.41,1.11,6.68,6.68,0,0,1-2.92-.17,26.3,26.3,0,0,1-7-3,12.41,12.41,0,0,1-2.77-1.77c.25-.25.6-.18.91-.27a13.65,13.65,0,0,0,5.59-3,52.51,52.51,0,0,0,8.09-8.83,23.31,23.31,0,0,0,4.18-9.86,28.62,28.62,0,0,0,.14-4.81c.06-.1.12-.09.17,0l.06,1a7.91,7.91,0,0,1,.21,3.8A47.84,47.84,0,0,1,46,136.83a12,12,0,0,1-1.64,3.1c-.44.58-.39.91.32,1.16a14.72,14.72,0,0,0,6.61.84C52.09,141.84,53,141.35,53.82,141.92Z"/><path class="cls-16" d="M215.64,98.37c.75.95,1.37,2,2.17,2.9a25.34,25.34,0,0,0,5.34,4.57,49.18,49.18,0,0,0,12.6,5.7c.44.13.93,0,1.33.31a6.92,6.92,0,0,0,3.2,0,2.83,2.83,0,0,1,1.29-.2,24.12,24.12,0,0,1-2.48,3.45,32.83,32.83,0,0,1-3.1,3.37,23.21,23.21,0,0,1-2,1.61,5.77,5.77,0,0,1-4.77.94,43.27,43.27,0,0,1-10.4-3.35,1.71,1.71,0,0,0-.82-.2c-.44,0-.86-.11-.91-.67a2.69,2.69,0,0,1,1.55-.62,14.41,14.41,0,0,0,6.8-3.63c.51-.52.53-.75-.14-1.15-2.58-1.52-4.31-3.91-6-6.26a44.8,44.8,0,0,1-3.47-5.51C215.59,99.24,215.26,98.84,215.64,98.37Z"/><path class="cls-20" d="M72.43,153.11c.91.47,1.86.89,2.73,1.43a2.59,2.59,0,0,0,3.14-.33,4,4,0,0,0,1.42-2.2c.07-.24,0-.5.21-.71a7.36,7.36,0,0,1-.68,4.26,9.1,9.1,0,0,1-2.08,2.29A30.23,30.23,0,0,1,72.7,161a1.34,1.34,0,0,1-1.13.17A4.5,4.5,0,0,0,70,161c-1.4.07-2.77-.26-4.16-.25v-.39c.23-.33,0-.75.19-1.08a8.93,8.93,0,0,0,.24-1.7.87.87,0,0,1,.87-.49,5,5,0,0,0,3.93-2.38A5.14,5.14,0,0,1,72.43,153.11Z"/><path class="cls-19" d="M217.15,116.83c.22.31.71.25.87.64l-6.48,7.72a2.67,2.67,0,0,0-.22.36.68.68,0,0,1-.52-.32c-1.18-1.46-2.4-2.88-3.69-4.25-.19-.2-.43-.39-.25-.72,2-1.87,3.91-3.8,5.79-5.78a.41.41,0,0,1,.57-.07A30.92,30.92,0,0,1,217.15,116.83Z"/><path class="cls-15" d="M72.43,153.11a11.3,11.3,0,0,1-2.78,3.44,3.9,3.9,0,0,1-2.39.77,1.55,1.55,0,0,0-1,.25c.39-2.07.87-4.12,1.42-6.15a4.53,4.53,0,0,0,.08-.74C69.35,151.4,70.88,152.28,72.43,153.11Z"/><path class="cls-15" d="M66,159.27c0,.37.11.76-.19,1.08C65.84,160,65.68,159.58,66,159.27Z"/><path class="cls-15" d="M170.2,237.3c.3,0,.62-.1.86.19C170.76,237.48,170.43,237.6,170.2,237.3Z"/><path class="cls-15" d="M69.67,193.34c.24.16.21.41.2.65C69.63,193.83,69.67,193.58,69.67,193.34Z"/><path class="cls-21" d="M194.16,109.67a2.21,2.21,0,0,0-.62.89c-3.17,5.43-7.21,9.93-13,12.71a117.27,117.27,0,0,1-19.76,7.25,147,147,0,0,1-17.49,3.61,99.92,99.92,0,0,1-12.45,1.2c-.75,0-1.47.26-2.23.23-2.67,0-5.33,0-8,0-3.41-.3-6.82-.41-10.22-.84a79.87,79.87,0,0,1-16.17-3.5A2.32,2.32,0,0,1,93.08,130a20.52,20.52,0,0,1-1.85-4.89,64.15,64.15,0,0,0-3.36-10.67,3.35,3.35,0,0,1-.2-.61c0-.24-.06-.49-.13-.72a6.24,6.24,0,0,0-.36-.84c-.08-.15-.15-.3-.22-.45a.88.88,0,0,1-.07-.23.3.3,0,0,0-.09-.32c-.27-.42-.57-.82-.81-1.25a1.76,1.76,0,0,1,.87-2.79,9.33,9.33,0,0,1,1.41-.47,1.89,1.89,0,0,0,.92-.34,30.34,30.34,0,0,1-1.78-3.73c0-.87.46-.56.79-.33A7.31,7.31,0,0,1,89.89,104a17.11,17.11,0,0,0,7.94,5.59,83.37,83.37,0,0,0,18.34,4.58c4.17.63,8.34,1.09,12.55,1.32,3.45.18,6.9.48,10.36.39,8.62-.23,17.16-1.05,25.4-3.84a65.45,65.45,0,0,0,17.42-8.79c1-.68,1.9-1.45,2.82-2.22.39-.32.73-.79,1.34-.72a8.76,8.76,0,0,1,2.16.91,4.13,4.13,0,0,1,2.09,3.07c.14,1.15.4,1.3,1.54,1.23a9.66,9.66,0,0,0,2-.42,5.53,5.53,0,0,1,1.57-.3c.82,0,1.08.36.84,1.17a7.1,7.1,0,0,1-.84,1.73C195,108.36,194.58,109,194.16,109.67Z"/><path class="cls-17" d="M93.45.18h3.66l.66,0h1.7a88.67,88.67,0,0,1,13.23,2.5c5.39,1.35,10.74,2.88,16.18,4.06a85,85,0,0,0,10.66,1.67,50.92,50.92,0,0,1,12.05,2.83,156.54,156.54,0,0,1,22.5,10.11c2.52,1.34,5,2.69,7.46,4.19a.19.19,0,0,1-.12.29,2.39,2.39,0,0,1-1.34-.25,65.17,65.17,0,0,0-17.54-3.43c-.37,0-.81,0-1-.46a.46.46,0,0,1,.26-.15c.23-.08,0-.05,0-.05-2.69-.36-5.29-1.17-7.95-1.68a101.88,101.88,0,0,0-10.69-1.66,39.41,39.41,0,0,0-10.33.75c-5.38,1-10.67,2.36-15.94,3.79-2.69.73-5.46,1.13-8.19,1.66s-5.6,1.15-8.42,1.62c-.28.05-.56.12-.84.15s-.62.08-.79-.19.06-.62.28-.83a65.32,65.32,0,0,1,6.64-6l.08-.05c.06-.06.18-.06.19-.17s0-.09,0,0-.07.09-.13.11C103.55,20.2,101.23,21,99,22c-3.53,1.56-7.1,3-10.62,4.58-.53.23-1.2.8-1.67.37s.18-1,.38-1.54c.66-1.73,1.55-3.37,2.25-5.22a57,57,0,0,0-8.86,4.7,62.75,62.75,0,0,0-7.35,5.53,10.57,10.57,0,0,1-2.65,1.79c-1.86.81-3.1,0-3.21-2a4.8,4.8,0,0,1,0-.7C65.58,31.79,64,34,62.45,36.1c-2.39,3.25-4.74,6.54-7.2,9.73-1.61,2.11-2.24,4.6-3.21,7-.85,2.07-1.67,4.17-2.41,6.3a1,1,0,0,1-.4.61c-.57.06-1.13.1-1-.75.4-3.9.73-7.81,1.3-11.7.41-2.75.89-5.49,1.56-8.19A24,24,0,0,1,53.7,32.9a69.7,69.7,0,0,1,8.82-11.81A97.36,97.36,0,0,1,79.25,6.15a46.09,46.09,0,0,1,7.61-4.33,20.48,20.48,0,0,1,6-1.64Z"/><path class="cls-22" d="M87.87,113.59c.78,2.09,1.65,4.15,2.29,6.3.44,1.49.87,3,1.18,4.52a22.84,22.84,0,0,0,2.24,6,1.61,1.61,0,0,0,.52.52c1,1.81,2,3.57,3.08,5.33a4.44,4.44,0,0,1,.77,1.61c1.47,2.54,3.19,4.91,4.85,7.31,4.14,6,8.69,11.68,13,17.53a83.75,83.75,0,0,1,7.79,12.53,34.13,34.13,0,0,1,1.63,3.83c.17.48.1.69-.42.84-1.43.43-2.89.74-4.35,1.07-1.54.84-3.25.77-4.9.88A21.44,21.44,0,0,1,104.81,180a10.71,10.71,0,0,0-8-.22,25.82,25.82,0,0,0-8.66,4.82c-.34.27-.68.81-1.16.54s-.29-.83-.24-1.29c.29-2.48.42-5,.53-7.47.23-5.59.6-11.19.45-16.79-.12-4.22-.44-8.42-2.12-12.39A38.65,38.65,0,0,0,80.39,139a13,13,0,0,1-1.92-2.95,41.23,41.23,0,0,1-2.37-4.26,14.29,14.29,0,0,1-.86-6.18,26.6,26.6,0,0,1,.93-4.6c.31-1.13.67-2.25,1-3.38,1-3.6,3.75-5.75,7.72-6.19.63-.07,1.28,0,1.92-.07.13,0,.15.19.24.28h0c.16.17,0,.45.25.61s.2.4.27.6S87.75,113.36,87.87,113.59Z"/><path class="cls-16" d="M182.17,103.31a33.51,33.51,0,0,1-5.16,3.43,67.83,67.83,0,0,1-21.89,8,78.09,78.09,0,0,1-8.9,1.1c-3.17.21-6.34.41-9.51.32-3.57-.09-7.13-.21-10.68-.52-3.81-.33-7.59-.75-11.35-1.37a80,80,0,0,1-17.23-4.48,32.74,32.74,0,0,1-3.37-1.64,13.13,13.13,0,0,1-4-3.46,15.71,15.71,0,0,0-2.13-2.26c-.38-.32-.47,0-.51.29a4.26,4.26,0,0,0-1-1.36,46.07,46.07,0,0,1-6.34-8.64,43.73,43.73,0,0,1-3.68-8.24,3.48,3.48,0,0,1-.1-.41,21.5,21.5,0,0,1,1.83-6.79,41.23,41.23,0,0,1,7.4-11.34C91.82,59,99.41,53.85,107.6,49.52a121.69,121.69,0,0,1,22.68-9.24,82.59,82.59,0,0,1,16-2.86,153.28,153.28,0,0,1,15.6-.61c.28.07.6.08.64.47a.74.74,0,0,1-.56.27c-5.51.53-10.76,2.22-16.09,3.53-7,1.74-14,3.81-20.87,6.11a90,90,0,0,0-21.72,10.54A111.42,111.42,0,0,0,93,65.2a41.51,41.51,0,0,0-3.21,3.15,3.16,3.16,0,0,0-.9,2.45,37.8,37.8,0,0,0,1.54,9,34,34,0,0,0,7.67,13.1c5,5.33,11.28,8.54,18,11a104.8,104.8,0,0,0,22.47,5.37,87.65,87.65,0,0,0,14.21.7A74.36,74.36,0,0,0,177.35,105a37,37,0,0,0,3.52-1.57C181.27,103.26,181.69,103,182.17,103.31Z"/><path class="cls-18" d="M105.89,18.86a3.51,3.51,0,0,1-1,1.06,3.83,3.83,0,0,0-.51.39C102.8,22,101,23.4,99.4,25a2.33,2.33,0,0,0-.71.91c1.42-.25,2.74-.46,4-.71,3.17-.62,6.33-1.3,9.5-1.86s6.1-1.37,9.11-2.19,6.13-1.54,9.23-2.14c1.81-.35,3.62-.7,5.44-1a29.81,29.81,0,0,1,3-.28,48.68,48.68,0,0,1,9.86.8c4.28.71,8.5,1.65,12.71,2.64.31.08.61.18,1.11.33l-1.08.12c-.61.43-1.3.25-2,.27-3,0-6.08,0-9.11,0a144.82,144.82,0,0,0-17,1.65,185.47,185.47,0,0,0-29.13,6.89,73.09,73.09,0,0,0-19,9.25,70.06,70.06,0,0,0-7.1,5.5,61.85,61.85,0,0,0-9.17,9.69c-.53.72-1.26.3-1.84.57a19.78,19.78,0,0,0-12.6,6.24A.72.72,0,0,1,54,61.6a15.43,15.43,0,0,0-4.18-1.72.68.68,0,0,1-.5-.34,4.89,4.89,0,0,1,.46-1.64c1.3-3.39,2.65-6.76,3.94-10.15a10.72,10.72,0,0,1,1.6-2.37c2.47-3.43,5-6.83,7.51-10.23,1.49-2,3-4,4.56-6.17a2.21,2.21,0,0,1,.14,1.21,2.58,2.58,0,0,0,.33,1.33,1.39,1.39,0,0,0,1.78.76,8.1,8.1,0,0,0,3.26-2A62,62,0,0,1,83.11,23,51.14,51.14,0,0,1,89,20a8,8,0,0,1,.81-.23L86.67,27a34.48,34.48,0,0,0,3.79-1.58C93.25,24.23,96,23,98.81,21.84l5.58-2.44a7.26,7.26,0,0,1,1.5-.54Z"/><path class="cls-16" d="M67.27,55.5A3.14,3.14,0,0,0,69.51,54a72.44,72.44,0,0,1,15.4-14.26s.13,0,.19-.07c.57.28.5.83.5,1.31,0,1.36,0,2.71,0,4.07,0,1.14.06,1.18,1,.68,2.77-1.4,5.48-2.93,8.22-4.38.6-.31,1.19-.66,1.81-.93.31-.14.71-.4,1-.06s-.1.59-.28.85-.47.63-.72.94a5.94,5.94,0,0,0-.68,1c-.29.57-.67,1.17-.23,1.8s1.14.48,1.77.33a23.13,23.13,0,0,0,4.68-1.81c4.22-2,8.37-4.19,12.5-6.39a43.73,43.73,0,0,1,13.39-4.31c5.22-.88,10.47-1.36,15.74-1.76,6.38-.47,12.77-.47,19.15-.34a62.32,62.32,0,0,1,11.38,1.17,60.32,60.32,0,0,0,16,1c.4,0,1-.25.86.61A4.46,4.46,0,0,1,189,35.8a22.15,22.15,0,0,1-2.7,1.27,5.31,5.31,0,0,1-3.64.14c-.31-.09-.61-.24-.88.08a54.29,54.29,0,0,1-5.39-.65c-2.79-.31-5.59-.57-8.4-.74a117.94,117.94,0,0,0-15.95-.18,101.66,101.66,0,0,0-26.33,4.37c-7.26,2.28-14,5.67-20.72,9.2a159.58,159.58,0,0,0-14.33,8.58,139.67,139.67,0,0,0-14.2,10.87c-1.22,1.06-2.13,2.18-1.82,3.93a1.06,1.06,0,0,1-.3,1.09c-.33-.52-.14-1.09-.18-1.64s0-1.05,0-1.58a20.49,20.49,0,0,1-7.74-6.38A5.46,5.46,0,0,1,65,61.73,23,23,0,0,1,68,56c.08-.11.21-.2.16-.4Z"/><path class="cls-23" d="M74.35,73.76c0-.82.05-1.64,0-2.46A1.83,1.83,0,0,1,75,69.79c1.78-1.75,3.69-3.35,5.63-4.91a138.78,138.78,0,0,1,12-8.61q4.75-3.06,9.71-5.83c3.55-2,7.17-3.83,10.84-5.59A83.79,83.79,0,0,1,137.3,37c2.59-.43,5.18-.82,7.8-1.06,1.7-.16,3.4-.29,5.1-.42,5.13-.4,10.27-.1,15.4-.19.75,0,1.47.3,2.23.22-.09.59-.62.51-1,.59a29.47,29.47,0,0,1-5,.9c-.9,0-1.79,0-2.68,0-2.89-.11-5.78.14-8.66.27-2.61.11-5.23.38-7.84.74a93.8,93.8,0,0,0-11.39,2.19c-3,.8-6,1.85-8.92,2.94a122.57,122.57,0,0,0-12.07,5.2q-4.45,2.2-8.7,4.81a89.32,89.32,0,0,0-8,5.55,39.53,39.53,0,0,0-3.51,3c-.58.57-1.24,1.07-1.82,1.65a46.59,46.59,0,0,0-7.71,9.65A29.19,29.19,0,0,0,76.72,83,1.7,1.7,0,0,1,76.31,84,40.82,40.82,0,0,1,74.35,73.76Z"/><path class="cls-16" d="M49.3,59.54a13.19,13.19,0,0,1,5.37,2.2,16.48,16.48,0,0,1,2.42,2.52,13.15,13.15,0,0,1,2.1,5.08,11.67,11.67,0,0,1-5.68,12,11.58,11.58,0,0,1-13-.77,11.81,11.81,0,0,1-3.92-5.34A8.94,8.94,0,0,1,36,72.07a12,12,0,0,1,.65-5,11.53,11.53,0,0,1,9.49-7.46c.7-.1,1.52.08,2.06-.6C48.29,59.67,48.85,59.5,49.3,59.54Z"/><path class="cls-15" d="M53.82,141.92a14.54,14.54,0,0,0-2.63.32,14.12,14.12,0,0,1-7.74-1.34c-.05-.46.29-.62.47-.86a20.22,20.22,0,0,0,2.81-6.54,56.82,56.82,0,0,0,1.67-8.66,36.41,36.41,0,0,0,.09-4.18,26.76,26.76,0,0,1,8.17,4.75,8.37,8.37,0,0,1,3.12,5.42,5.66,5.66,0,0,1-.28,1.78,13.82,13.82,0,0,1-1.86,4.28l-.6,1A32.88,32.88,0,0,1,53.82,141.92Z"/><path class="cls-15" d="M65,61.73a28,28,0,0,0,3,4,21.42,21.42,0,0,0,5.25,4.16c.33.19.76.25.9.69-.32.16-.56.44-1,.41-2.27-.16-4.54-.31-6.49-1.69a5.27,5.27,0,0,1-2.21-3.6A7.5,7.5,0,0,1,65,61.73Z"/><path class="cls-24" d="M87,111.68a.4.4,0,0,1-.24-.28.11.11,0,0,1,0-.14A.4.4,0,0,1,87,111.68Z"/><path class="cls-15" d="M48.43,119.62h-.17v-.43A.43.43,0,0,1,48.43,119.62Z"/><path class="cls-15" d="M182.17,103.31a2.07,2.07,0,0,0-1.1.37,62.68,62.68,0,0,1-15.38,5c-2.12.43-4.26.77-6.41,1-1.29.13-2.62.2-3.93.3a72.41,72.41,0,0,1-8.33.14,36.6,36.6,0,0,1-4.78-.35c-.87-.14-1.76-.13-2.65-.22-3.07-.33-6.1-.86-9.13-1.45a99,99,0,0,1-14.27-4A51.34,51.34,0,0,1,103.65,98,34.61,34.61,0,0,1,92.21,85,35.52,35.52,0,0,1,89,75.2a10.94,10.94,0,0,1-.28-2.86,2.84,2.84,0,0,0-.08-1,3.33,3.33,0,0,1,.88-3.24A50.85,50.85,0,0,1,97,61.65a150.9,150.9,0,0,1,13-8.38,60.08,60.08,0,0,1,7.81-3.72q5.57-2.23,11.27-4c3.8-1.18,7.62-2.32,11.47-3.35s7.82-2.09,11.76-3c2.45-.59,4.92-1.1,7.37-1.7a19.9,19.9,0,0,1,2.77-.17,5,5,0,0,1,3-.26c5.31.36,10.61.81,15.87,1.65a11.83,11.83,0,0,1,2.49.57,47.49,47.49,0,0,1,6.31,7.89,43.42,43.42,0,0,1,5.94,13.74,32.72,32.72,0,0,1,1.07,8c0,.64.27,1.24.23,1.9a54,54,0,0,1-1.77,11.86A46.39,46.39,0,0,1,192.81,90a42.86,42.86,0,0,1-4.68,7.51,17.42,17.42,0,0,1-1.87,2.32.68.68,0,0,0-.2.49c-.92.74-1.84,1.5-2.77,2.24C182.93,102.82,182.54,103.05,182.17,103.31Z"/><path class="cls-17" d="M260.64,85.74a8.67,8.67,0,0,1-.84-1.48,14.31,14.31,0,0,0-6.75-5.83c-.06,0-.14,0-.22,0-.21.24-.1.53-.1.8,0,1.61.05,3.22,0,4.82a24.46,24.46,0,0,1-2.51,10.59,8.9,8.9,0,0,1-6.43,4.82,17,17,0,0,1-6.56-.22c-.37-.07-.51-.34-.66-.62a18.06,18.06,0,0,0-5.17-5.76,5,5,0,0,0-5.71-.46c-.73.34-1.5.65-2.27.92-2.72,1-5-.14-6.5-2.28a13.85,13.85,0,0,1-2.1-5.54,39.36,39.36,0,0,1-.66-6.13c0-.25,0-.5-.19-.7a26.8,26.8,0,0,1,3.18-8.23,8.61,8.61,0,0,1,2.28-2.53A4.65,4.65,0,0,1,223,67a14.25,14.25,0,0,1,3.09.83,8.2,8.2,0,0,1,5,5.35c.35-.14.42-.48.59-.74A17.25,17.25,0,0,1,234.61,69a11.07,11.07,0,0,1,12.11-2.27,13.66,13.66,0,0,1,1.65.75,26.87,26.87,0,0,1,8.79,7.38,16.57,16.57,0,0,1,3.53,8.92v.63c0,.22,0,.43,0,.65S260.65,85.52,260.64,85.74Z"/><path class="cls-15" d="M191.21,33.44c0-.38-.29-.45-.61-.4a38.74,38.74,0,0,1-7.91.13,61.44,61.44,0,0,1-9.89-1.37c-1.44-.32-3-.35-4.43-.56s-3.07.06-4.57-.35a3.42,3.42,0,0,0-.85,0c-3.64,0-7.29,0-10.93,0-2.25,0-4.48.22-6.72.27-1.91,0-3.83.21-5.74.42-2.78.3-5.57.56-8.34,1s-5.46.87-8.15,1.55a28.92,28.92,0,0,0-6.41,2.32c-2,1.05-4.12,2-6.12,3.08-2.85,1.57-5.78,3-8.68,4.42a18.67,18.67,0,0,1-4.29,1.62s-.06,0-.1,0c-.74.11-1.5.31-2.06-.43s-.11-1.38.19-2a14.21,14.21,0,0,1,1.72-2.3c.1-.14.28-.22.26-.59l-12,6.42c-.31-.27-.21-.58-.21-.84,0-1.64,0-3.29,0-4.93a2.34,2.34,0,0,0-.21-1.25,62.71,62.71,0,0,1,14.75-7.89,163.79,163.79,0,0,1,23.72-6.68q6.65-1.39,13.38-2.28,6.31-.84,12.68-1.13c.21,0,.43,0,.64,0q4.71.18,9.42,0h1.9A21.4,21.4,0,0,0,165,22a64,64,0,0,1,15.77,3.48,1.51,1.51,0,0,0,.81.21c.15.05.29.11.44.15a.69.69,0,0,0,.43.18.67.67,0,0,1,.21.1h0c.07.08.14.09.21,0,1.24.78,2.61,1.28,3.91,1.94A13.41,13.41,0,0,1,190.62,31,2.51,2.51,0,0,1,191.21,33.44Z"/><path class="cls-15" d="M217.15,116.83a25.44,25.44,0,0,1-3.56-1.92c-.29-.17-.54-.47-.94-.43a1.73,1.73,0,0,0-.67-.67,17.28,17.28,0,0,1-3.31-3,6.09,6.09,0,0,1-1.12-6A16.35,16.35,0,0,1,210.66,99a25.54,25.54,0,0,1,2.94-3.37,1.31,1.31,0,0,0,.33-1.09c.53,1.3,1.08,2.59,1.71,3.85,0,1,.75,1.75,1.22,2.56a43.47,43.47,0,0,0,4.27,6.23,15.1,15.1,0,0,0,5.38,4.59,11.87,11.87,0,0,1-3.26,2.88A22.17,22.17,0,0,1,217.15,116.83Z"/><path class="cls-20" d="M183.88,39.24c-.48.25-1,0-1.42-.07-2.31-.29-4.61-.74-6.93-1-1.9-.2-3.8-.39-5.72-.52-2.44-.17-4.87-.39-7.32-.4-.17-.23-.42-.18-.65-.2a22.9,22.9,0,0,1,3.45-.86,15.72,15.72,0,0,0,2.54-.63c1.66.09,3.32.17,5,.38s3,.26,4.53.49,3,.16,4.46.83Z"/><path class="cls-25" d="M182,25.91a.38.38,0,0,1-.43-.19,1.09,1.09,0,0,1,0-.18l.43.21c.06,0,.08.07.07.1S182,25.91,182,25.91Z"/><path class="cls-26" d="M182,25.91a.81.81,0,0,1,0-.16l.42.2c.06,0,.08.08.06.13s0,.06-.06.06A.48.48,0,0,1,182,25.91Z"/><path class="cls-27" d="M182.4,26.14a.31.31,0,0,0,0-.19.25.25,0,0,1,.24.2Z"/><path class="cls-27" d="M182.84,26.15c-.08.17-.15.16-.21,0Z"/><path class="cls-16" d="M98,137.83a66.92,66.92,0,0,1-3.86-6.47c-.08-.15-.17-.32,0-.47A78,78,0,0,0,107.6,134a104.26,104.26,0,0,0,11.7,1.09,9.24,9.24,0,0,1,1.16.16,14.17,14.17,0,0,0,3.38.1,34.65,34.65,0,0,0,5-.09c1.73-.32,3.48-.21,5.22-.38,2.59-.25,5.17-.51,7.75-.85q5.25-.69,10.41-1.78a129.15,129.15,0,0,0,22.39-6.65,60.51,60.51,0,0,0,8.81-4.34,20.38,20.38,0,0,0,6.23-5.61c1.24-1.74,2.6-3.4,3.9-5.09a19.3,19.3,0,0,1-2.74,6.33,28.57,28.57,0,0,1-9.81,9.34,60,60,0,0,1-8.93,4.09c-2.1.8-4.21,1.57-6.35,2.25q-8.15,2.56-16.47,4.44c-2.11.48-4.22,1-6.35,1.37-1.95.35-3.91.69-5.87,1s-4,.45-5.9.8l-.22,0c-1.89-.07-3.77.44-5.65.19-1.34-.17-2.69-.09-4-.35a23,23,0,0,0-2.76-.21c-1.16-.08-2.34-.2-3.5-.31s-2-.13-3.07-.31c-.86-.16-1.76-.18-2.64-.28-2.37-.25-4.74-.42-7.1-.68A26.9,26.9,0,0,0,98,137.83Z"/><path class="cls-16" d="M78.47,136.08a75.72,75.72,0,0,1,6.34,8.74,23.42,23.42,0,0,1,2.87,9.23A79.51,79.51,0,0,1,88,165.39c-.09,3.74-.2,7.49-.43,11.23-.15,2.53-.23,5.06-.55,7.58a6.25,6.25,0,0,0,0,.75c.32.15.43-.15.59-.29a27.15,27.15,0,0,1,9-5.13,11.53,11.53,0,0,1,9,.5,17,17,0,0,0,6.74,1.51,37.84,37.84,0,0,0,8.09-.6c-.43.27-.26.55-.06.88,1,1.65,2,3.3,3,5.09a32.81,32.81,0,0,0-5.2-1.13,21.24,21.24,0,0,0-3.27-.36,34.06,34.06,0,0,0-5.44.21,18.41,18.41,0,0,0-4.62,1.27c-4.59,2-9.23,3.94-14,5.61-.84.3-1.68.59-2.51.91-.41.16-.63.15-.76-.36-.61-2.31-1.06-4.64-1.47-7-.31-1.7-.63-3.42-.8-5.14s-.33-3.33-.54-5c-.27-2,.07-4.13-.36-6.17a4,4,0,0,1,0-.85c0-3.61,0-7.22,0-10.83a24.06,24.06,0,0,0-1.87-9.24,80.71,80.71,0,0,1-3.71-11.13A4.75,4.75,0,0,1,78.47,136.08Z"/><path class="cls-17" d="M192.1,209.21a6.79,6.79,0,0,1-1.14,5.08.45.45,0,0,1-.2.27h0c-1.06,2-4.68,2.92-7.25.91a9.68,9.68,0,0,1-1.3-1.26,5.19,5.19,0,0,1-.88-4.79c.14-.4.27-.8.43-1.2a5.44,5.44,0,0,1,5-3.48,5.56,5.56,0,0,1,5,3.57C191.9,208.6,192,208.91,192.1,209.21Z"/><path class="cls-17" d="M173.89,137.8a6.8,6.8,0,0,1,.35-2.83,5.42,5.42,0,0,1,5.19-3.71,5.55,5.55,0,0,1,5.12,4.12,8.09,8.09,0,0,1,.19,2.64,5.62,5.62,0,0,1-4,4.91,5.77,5.77,0,0,1-5.93-2.24A5,5,0,0,1,173.89,137.8Z"/><path class="cls-17" d="M185.63,185.84a9.64,9.64,0,0,1,.42-2.19,5.39,5.39,0,0,1,5.6-3.73,5.65,5.65,0,0,1,4.93,5.23,8,8,0,0,1-.46,3,5.26,5.26,0,0,1-6,3.44A5.55,5.55,0,0,1,185.63,185.84Z"/><path class="cls-17" d="M185.59,160.36a6.16,6.16,0,0,1,.5-1.63,5.39,5.39,0,0,1,5.86-3.1,5.64,5.64,0,0,1,4.41,4.76,7.69,7.69,0,0,1-.45,3.56c-1,2.53-2.76,3.53-5.75,3.31A5.7,5.7,0,0,1,185.5,163,11.06,11.06,0,0,1,185.59,160.36Z"/><path class="cls-20" d="M173.89,137.8a1.87,1.87,0,0,1,.13.4,5.36,5.36,0,0,0,10.56.32,4.83,4.83,0,0,1,.16-.5,5.92,5.92,0,0,1-1.56,4.92,5,5,0,0,1-5.25,1.48,5.41,5.41,0,0,1-3.84-4.09A6,6,0,0,1,173.89,137.8Z"/><path class="cls-20" d="M185.59,160.36a8.34,8.34,0,0,0,.15,2.54A5.35,5.35,0,0,0,190,167a5.13,5.13,0,0,0,5.63-2.58,4.25,4.25,0,0,1,.31-.43,5.33,5.33,0,0,1-3.82,4.54,5.22,5.22,0,0,1-5.75-2,5.57,5.57,0,0,1-1-4.65C185.43,161.32,185.24,160.79,185.59,160.36Z"/><path class="cls-20" d="M185.63,185.84c.06.28.13.55.18.83a5.63,5.63,0,0,0,4.47,4.72,5.4,5.4,0,0,0,5.61-2.86c.07-.12.15-.23.23-.35a5.13,5.13,0,0,1-3.46,4.47,5.27,5.27,0,0,1-6.82-3.1A5,5,0,0,1,185.63,185.84Z"/><path class="cls-28" d="M181.33,209.41a21,21,0,0,0,.06,2.1,6.58,6.58,0,0,0,1,2.61c0,.59-.53.65-.88.89l-.22-.24a6.46,6.46,0,0,1-.41-4.63A1.34,1.34,0,0,1,181.33,209.41Z"/><path class="cls-23" d="M181.55,215c0-.57.68-.5.88-.89l.6.6a5.15,5.15,0,0,0,6.9.49c.28-.21.56-.44.83-.66a4.26,4.26,0,0,1-3.37,2.93,5.22,5.22,0,0,1-5.18-1.51A3.91,3.91,0,0,1,181.55,215Z"/><path class="cls-23" d="M190.76,214.56a.3.3,0,0,1,.2-.27A.26.26,0,0,1,190.76,214.56Z"/><path class="cls-29" d="M240.28,111.85a.54.54,0,0,1-.54.26h-2.12a.56.56,0,0,1-.54-.26Z"/><path class="cls-30" d="M128.83,135.26c-.21.26-.51.21-.78.21h-6.81c-.28,0-.58.05-.78-.22Z"/><path class="cls-31" d="M87.46,113l-.23-.64a.17.17,0,0,1,0-.28,1.56,1.56,0,0,1,.44.92A.15.15,0,0,1,87.46,113Z"/><path class="cls-32" d="M87.46,113h.24c.22.16.18.39.17.62A1.3,1.3,0,0,1,87.46,113Z"/><path class="cls-24" d="M87.26,112.05l0,.28a.65.65,0,0,1-.2-.66A.37.37,0,0,1,87.26,112.05Z"/><path class="cls-18" d="M105.89,18.86s0-.08,0-.08,0,0,0,.08Z"/><path class="cls-33" d="M159.69,21.69a.89.89,0,0,1-.7.17h-8a.88.88,0,0,1-.7-.17C153.41,21.54,156.55,21.53,159.69,21.69Z"/><path class="cls-15" d="M55.51,68.51c-.35,4.44-3.14,7.28-7.4,7.28a7.31,7.31,0,0,1,0-14.61C52.47,61.24,55.21,64.15,55.51,68.51Z"/><path class="cls-34" d="M180.25,68.56,165.94,76.3l-9.33,5c-.34.18-.62.44-1,.08a20.77,20.77,0,0,1-4.52-5c-.9-1.48-.67-2.68.86-3.88a8.24,8.24,0,0,1,4.43-1.38c2.68-.32,5.37-.68,8.06-1l7.64-.93,6.05-.77c.49-.06,1-.08,1.49-.11C179.83,68.34,180.17,68.06,180.25,68.56Z"/><path class="cls-19" d="M165.1,67.08a5.67,5.67,0,0,1-5.33-6.72A5.89,5.89,0,0,1,161.53,57a5.13,5.13,0,0,1,7-.2,5.69,5.69,0,0,1,1.88,6A5.39,5.39,0,0,1,166.16,67a1.54,1.54,0,0,1-.42.07C165.53,67.09,165.31,67.08,165.1,67.08Z"/><path class="cls-19" d="M127.41,70.56c-3.06.13-5.93-2.91-5.37-6.67a5.56,5.56,0,0,1,2.39-3.9,5.1,5.1,0,0,1,6.34.29,5.65,5.65,0,0,1,2,5.77,5.42,5.42,0,0,1-3.95,4.35A4.89,4.89,0,0,1,127.41,70.56Z"/><path class="cls-35" d="M170,86.49A2.48,2.48,0,0,1,167.56,89a2.53,2.53,0,0,1-2.48-2.44A2.48,2.48,0,0,1,167.59,84,2.45,2.45,0,0,1,170,86.49Z"/><path class="cls-35" d="M169.75,82a2.41,2.41,0,0,1,2.39-2.5,2.46,2.46,0,1,1-2.39,2.5Z"/><path class="cls-35" d="M129.94,88.54a2.38,2.38,0,0,1-2.42-2.44A2.49,2.49,0,0,1,130,83.64a2.53,2.53,0,0,1,2.44,2.49A2.43,2.43,0,0,1,129.94,88.54Z"/><path class="cls-35" d="M152.72,95.62a2.44,2.44,0,0,1-2.44-2.45,2.45,2.45,0,1,1,4.9,0A2.43,2.43,0,0,1,152.72,95.62Z"/><path class="cls-36" d="M157.51,91.41A2.42,2.42,0,0,1,160,89a2.46,2.46,0,1,1-2.45,2.44Z"/><path class="cls-36" d="M137.05,87.67a2.47,2.47,0,0,1,2.41,2.49A2.52,2.52,0,0,1,137,92.57a2.43,2.43,0,0,1-2.38-2.51A2.39,2.39,0,0,1,137.05,87.67Z"/><path class="cls-19" d="M144.66,95.44A2.41,2.41,0,0,1,142.2,93a2.45,2.45,0,0,1,2.45-2.45A2.4,2.4,0,0,1,147.08,93,2.33,2.33,0,0,1,144.66,95.44Z"/><path class="cls-37" d="M180.25,68.56c-.16-.25-.44-.14-.67-.21a1.54,1.54,0,0,1,1.16-.1C180.65,68.47,180.44,68.5,180.25,68.56Z"/><path class="cls-38" d="M166.1,60.23a1.73,1.73,0,0,1-1.68-1.83,1.75,1.75,0,0,1,1.65-1.76,1.8,1.8,0,0,1,0,3.59Z"/><path class="cls-39" d="M129.88,61.94a1.64,1.64,0,0,1-1.59,1.76A1.7,1.7,0,0,1,126.53,62a1.74,1.74,0,0,1,1.62-1.79A1.7,1.7,0,0,1,129.88,61.94Z"/></g></g></g></svg>