<svg xmlns="http://www.w3.org/2000/svg" viewBox="0 0 228.88 190.22"><defs><style>.cls-1{fill:#ec232b;}.cls-2{fill:none;stroke:#d45f00;stroke-linecap:round;stroke-miterlimit:10;stroke-width:2.84px;}.cls-3{fill:#36b54c;}</style></defs><title>swing</title><g id="Layer_2" data-name="Layer 2"><g id="Layer_1-2" data-name="Layer 1"><g id="Layer_2-2" data-name="Layer 2"><g id="Layer_1-2-2" data-name="Layer 1-2"><g id="sweater"><g id="Shirt"><path class="cls-1" d="M83.29,35.22s12,11.3,24.7,12.7,22.9-.9,37.8-12.5c17.7,9.5,26.7,15.8,26.7,15.8l-1.6,90.1a219.65,219.65,0,0,1-7,42.3l-98.2.9h0s-5.2-18.1-6.3-29.4-2.9-103.7-2.9-103.7Z"/><path class="cls-2" d="M109.49,7.22c2.7-6.3,3-6.4,5.6-5.2a8,8,0,0,1,4.5,7.4c0,2.5,0,6.3.1,11.2,5.1,3.8,39.2,27,29.7,27.6s-64.7,2.9-71.9.1c-3.2-.9,6.7-7.8,13-13.2s18-13.8,18-13.8"/><path class="cls-3" d="M81.29,36.32S99.89,62.62,110,65s18.8-2.3,37.6-28.5l9.1,5.1S135.49,71,125,74s-23,4.9-52.61-32.3Z"/><path class="cls-3" d="M164.89,190.22H64.39a2.8,2.8,0,0,1-2.8-2.8h0v-2a2.8,2.8,0,0,1,2.8-2.8h100.5a2.8,2.8,0,0,1,2.8,2.8h0v2a2.8,2.8,0,0,1-2.8,2.8Z"/><path class="cls-3" d="M17.19,115.12,52.09,132c1.4-3.6,2.6-6.8,3.5-9.4l-34.3-16.7C19.79,109,18.49,112.12,17.19,115.12Z"/><path class="cls-3" d="M4.69,159.62s6.3,2.7,24.4,12.4c3.6-2.8,7.2-7.7,10.5-13.5l-31.8-15.4A148.46,148.46,0,0,0,4.69,159.62Z"/><path class="cls-3" d="M25.79,97l31.8,15.5-.2-11.5-27-13.1C28.89,90.72,27.39,93.72,25.79,97Z"/><path class="cls-3" d="M10.69,133.22l33.8,16.4c1.4-2.8,2.6-5.6,3.8-8.4l-34.7-16.9C12.49,127.52,11.49,130.42,10.69,133.22Z"/><path class="cls-3" d="M56.39,51.82c-3.9,1.9-7.3,5-10.7,9.5l11,5.4Z"/><path class="cls-3" d="M40.09,69.62q-2.4,4.2-5.1,9.3l22.2,10.8L57,77.82Z"/><path class="cls-1" d="M7.89,143l31.8,15.4c1.6-2.8,3.2-5.8,4.7-8.9l-33.8-16.4Q9.09,138.71,7.89,143Z"/><path class="cls-1" d="M56.69,66.62l-11-5.4a92.87,92.87,0,0,0-5.6,8.4l16.8,8.2Z"/><path class="cls-1" d="M30.39,87.82l27,13.1-.2-11.2L35,78.92C33.49,81.72,32,84.62,30.39,87.82Z"/><path class="cls-1" d="M22.49,103.42c-.4.8-.8,1.7-1.2,2.5l34.3,16.7c1.3-3.7,2.1-6.1,2.1-6.1l-.1-4.1-31.8-15.5C24.69,99,23.69,101.22,22.49,103.42Z"/><path class="cls-1" d="M13.59,124.42l34.7,16.9c1.4-3.2,2.7-6.4,3.8-9.3l-34.9-16.9Q15.24,119.92,13.59,124.42Z"/><path class="cls-1" d="M24.59,177.92l-23-11.5a2.84,2.84,0,0,1-1.3-3.8l.9-1.8A2.84,2.84,0,0,1,5,159.51H5L28,171a2.84,2.84,0,0,1,1.3,3.8l-.9,1.8a2.84,2.84,0,0,1-3.8,1.3Z"/><path class="cls-3" d="M211.69,114.32l-34.9,16.9c-1.4-3.6-2.6-6.8-3.5-9.4l34.3-16.7C209.09,108.32,210.49,111.32,211.69,114.32Z"/><path class="cls-3" d="M224.19,158.92s-6.3,2.7-24.4,12.4c-3.6-2.8-7.2-7.7-10.5-13.5l31.8-15.4A144,144,0,0,1,224.19,158.92Z"/><path class="cls-3" d="M203.09,96.22l-31.8,15.5.2-11.5,27-13.1C200,89.92,201.49,93,203.09,96.22Z"/><path class="cls-3" d="M218.29,132.52l-33.8,16.4c-1.4-2.8-2.6-5.6-3.8-8.4l34.7-16.9C216.49,126.72,217.39,129.72,218.29,132.52Z"/><path class="cls-3" d="M172.49,51c3.9,1.9,7.3,5,10.7,9.5l-11,5.4Z"/><path class="cls-3" d="M188.89,68.92q2.4,4.2,5.1,9.3L171.79,89l.2-11.9Z"/><path class="cls-1" d="M221,142.32l-31.81,15.4c-1.6-2.8-3.2-5.8-4.7-8.9l33.8-16.4Q219.94,137.82,221,142.32Z"/><path class="cls-1" d="M172.29,65.82l11-5.4a90.81,90.81,0,0,1,5.6,8.4L172.09,77Z"/><path class="cls-1" d="M198.59,87.12l-27,13.1.2-11.2L194,78.22C195.39,80.92,197,83.92,198.59,87.12Z"/><path class="cls-1" d="M206.39,102.72c.4.8.8,1.7,1.2,2.5l-34.3,16.7c-1.3-3.7-2.1-6.1-2.1-6.1l.1-4.1,31.8-15.5C204.19,98.32,205.29,100.42,206.39,102.72Z"/><path class="cls-1" d="M215.39,123.72l-34.7,16.9c-1.4-3.2-2.7-6.4-3.8-9.3l34.9-16.9Q213.74,119.07,215.39,123.72Z"/><path class="cls-1" d="M204.29,177.12l23-11.5a2.84,2.84,0,0,0,1.3-3.8l-.9-1.8a2.84,2.84,0,0,0-3.8-1.3l-23,11.5a2.84,2.84,0,0,0-1.3,3.8l.9,1.8a2.76,2.76,0,0,0,3.65,1.37Z"/></g></g></g></g></g></g></svg>