<svg xmlns="http://www.w3.org/2000/svg" xmlns:xlink="http://www.w3.org/1999/xlink" viewBox="0 0 222 208.94"><defs><style>.cls-1{fill:#006837;}.cls-2{fill:#009245;}.cls-3{fill:url(#radial-gradient);}.cls-4{fill:url(#radial-gradient-2);}.cls-5{fill:url(#radial-gradient-3);}.cls-6{fill:url(#radial-gradient-4);}.cls-7{fill:url(#radial-gradient-5);}.cls-8{fill:url(#radial-gradient-6);}.cls-9{fill:url(#radial-gradient-7);}.cls-10{fill:url(#radial-gradient-8);}.cls-11{fill:url(#radial-gradient-9);}.cls-12{fill:url(#radial-gradient-10);}.cls-13{fill:url(#radial-gradient-11);}.cls-14{fill:url(#radial-gradient-12);}.cls-15{fill:url(#radial-gradient-13);}.cls-16{fill:url(#radial-gradient-14);}.cls-17{fill:url(#radial-gradient-15);}.cls-18{fill:url(#radial-gradient-16);}.cls-19{fill:url(#radial-gradient-17);}.cls-20{fill:url(#radial-gradient-18);}.cls-21{fill:#c1272d;}.cls-22{fill:#ed1c24;}</style><radialGradient id="radial-gradient" cx="183.41" cy="46.71" r="7.64" gradientUnits="userSpaceOnUse"><stop offset="0" stop-color="#fff"/><stop offset="0.05" stop-color="#f6dfe0"/><stop offset="0.13" stop-color="#e9b4b6"/><stop offset="0.21" stop-color="#df8e91"/><stop offset="0.3" stop-color="#d56e72"/><stop offset="0.39" stop-color="#ce5459"/><stop offset="0.49" stop-color="#c84045"/><stop offset="0.61" stop-color="#c43237"/><stop offset="0.75" stop-color="#c2292f"/><stop offset="1" stop-color="#c1272d"/></radialGradient><radialGradient id="radial-gradient-2" cx="33.39" cy="46.71" r="7.64" xlink:href="#radial-gradient"/><radialGradient id="radial-gradient-3" cx="48.99" cy="89.39" r="7.64" xlink:href="#radial-gradient"/><radialGradient id="radial-gradient-4" cx="30.2" cy="150.86" r="7.64" xlink:href="#radial-gradient"/><radialGradient id="radial-gradient-5" cx="95.5" cy="181.12" r="7.64" xlink:href="#radial-gradient"/><radialGradient id="radial-gradient-6" cx="159.2" cy="146.08" r="7.64" xlink:href="#radial-gradient"/><radialGradient id="radial-gradient-7" cx="201.56" cy="89.39" r="7.64" xlink:href="#radial-gradient"/><radialGradient id="radial-gradient-8" cx="73.52" cy="39.07" r="7.64" gradientUnits="userSpaceOnUse"><stop offset="0" stop-color="#fff"/><stop offset="0.03" stop-color="#eaeaff"/><stop offset="0.1" stop-color="#b9b9ff"/><stop offset="0.17" stop-color="#8d8dff"/><stop offset="0.25" stop-color="#6767ff"/><stop offset="0.33" stop-color="#4747ff"/><stop offset="0.42" stop-color="#2d2dff"/><stop offset="0.52" stop-color="#1919ff"/><stop offset="0.63" stop-color="#0b0bff"/><stop offset="0.77" stop-color="#0202ff"/><stop offset="1" stop-color="blue"/></radialGradient><radialGradient id="radial-gradient-9" cx="14.6" cy="89.39" r="7.64" xlink:href="#radial-gradient-8"/><radialGradient id="radial-gradient-10" cx="62.37" cy="140.03" r="7.64" xlink:href="#radial-gradient-8"/><radialGradient id="radial-gradient-11" cx="151.55" cy="190.68" r="7.64" xlink:href="#radial-gradient-8"/><radialGradient id="radial-gradient-12" cx="159.2" cy="75.38" r="7.64" xlink:href="#radial-gradient-8"/><radialGradient id="radial-gradient-13" cx="52.82" cy="60.72" r="7.64" gradientUnits="userSpaceOnUse"><stop offset="0" stop-color="#fff"/><stop offset="0.06" stop-color="#fefcd9"/><stop offset="0.13" stop-color="#fef9ae"/><stop offset="0.21" stop-color="#fdf688"/><stop offset="0.3" stop-color="#fdf368"/><stop offset="0.39" stop-color="#fdf14e"/><stop offset="0.5" stop-color="#fcf03a"/><stop offset="0.61" stop-color="#fcef2c"/><stop offset="0.76" stop-color="#fcee23"/><stop offset="1" stop-color="#fcee21"/></radialGradient><radialGradient id="radial-gradient-14" cx="157.61" cy="17.09" r="7.64" xlink:href="#radial-gradient-13"/><radialGradient id="radial-gradient-15" cx="183.41" cy="121.88" r="7.64" xlink:href="#radial-gradient-13"/><radialGradient id="radial-gradient-16" cx="54.73" cy="177.62" r="7.64" xlink:href="#radial-gradient-13"/><radialGradient id="radial-gradient-17" cx="157.61" cy="44.8" r="7.64" gradientUnits="userSpaceOnUse"><stop offset="0" stop-color="#fff"/><stop offset="0.02" stop-color="#f1faf2"/><stop offset="0.1" stop-color="#c6eacb"/><stop offset="0.19" stop-color="#a0dba8"/><stop offset="0.28" stop-color="#80cf8b"/><stop offset="0.37" stop-color="#66c673"/><stop offset="0.48" stop-color="#52be61"/><stop offset="0.6" stop-color="#44b954"/><stop offset="0.75" stop-color="#3bb64c"/><stop offset="1" stop-color="#39b54a"/></radialGradient><radialGradient id="radial-gradient-18" cx="132.76" cy="165.83" r="7.64" xlink:href="#radial-gradient-17"/></defs><title>Wreath</title><g id="Layer_2" data-name="Layer 2"><g id="Layer_1-2" data-name="Layer 1"><g id="Wreath"><path class="cls-1" d="M119,208.94a16.77,16.77,0,0,1-13.11-6.36A16.53,16.53,0,0,1,97,205.12a16.71,16.71,0,0,1-6.22-1.2,16.72,16.72,0,0,1-26.16-10.6h-.75a16.71,16.71,0,0,1-14-7.53A16.72,16.72,0,0,1,29,169.61a17,17,0,0,1,.43-3.78,16.72,16.72,0,0,1-9.34-15,17.69,17.69,0,0,1,.15-2.31,16.72,16.72,0,0,1-12-24.08A16.71,16.71,0,0,1,9.66,94.89a16.73,16.73,0,0,1,2.17-15.74A16.72,16.72,0,0,1,23.58,52.64a16.66,16.66,0,0,1,5.79-12A16.5,16.5,0,0,1,29,37.11,16.71,16.71,0,0,1,52.91,22,16.79,16.79,0,0,1,67.36,13.7c.3,0,.6,0,.89,0A16.73,16.73,0,0,1,94.76,5.63a16.71,16.71,0,0,1,17.73-2.08,16.72,16.72,0,0,1,25.07,5.33,16.77,16.77,0,0,1,12.85,2.88,16.73,16.73,0,0,1,24.18,11.83l.75,0a16.74,16.74,0,0,1,16.72,16.72c0,.47,0,1-.06,1.42a16.73,16.73,0,0,1,10.83,19.34,16.71,16.71,0,0,1,7.34,25.42,16.83,16.83,0,0,1,3.2,8.94A16.58,16.58,0,0,1,222,110a16.86,16.86,0,0,1-8.94,14.8,16.37,16.37,0,0,1,.34,3.36,16.83,16.83,0,0,1-8.27,14.42A16.72,16.72,0,0,1,197.71,168a14.89,14.89,0,0,1,.08,1.64,16.74,16.74,0,0,1-16.72,16.72H181a16.71,16.71,0,0,1-24.74,11.48,16.73,16.73,0,0,1-25.05,5.83A16.73,16.73,0,0,1,119,208.94Zm-12.1-46.34a11.67,11.67,0,0,1,4,.69,11.78,11.78,0,0,1,13-3.09,11.77,11.77,0,0,1,12.82-1.93,11.85,11.85,0,0,1,7.9-4.21,11.8,11.8,0,0,1,6.8-7.75,11.84,11.84,0,0,1,8.73-9.17A11.77,11.77,0,0,1,163.9,131c0-.29,0-.59,0-.88a11.8,11.8,0,0,1,2.48-7.23,11.7,11.7,0,0,1,1.56-10.34,11.77,11.77,0,0,1-.85-4.41,11.9,11.9,0,0,1,.53-3.51,11.76,11.76,0,0,1-2.47-13.86,11.82,11.82,0,0,1-1.57-5.88q0-.42,0-.84a11.78,11.78,0,0,1-8-14.11,11.69,11.69,0,0,1-4.08-6.19,11.8,11.8,0,0,1-11.39-5A11.79,11.79,0,0,1,129,50.14c-.25,0-.5,0-.75,0a11.67,11.67,0,0,1-5.62-1.42A11.79,11.79,0,0,1,105,50a11.61,11.61,0,0,1-2,.16,11.75,11.75,0,0,1-3.35-.48,11.7,11.7,0,0,1-10,5.58,11.82,11.82,0,0,1-6.53-2,11.6,11.6,0,0,1-3.69,1.62,11.84,11.84,0,0,1-8.6,8.61,11.81,11.81,0,0,1-8.6,8.59,11.71,11.71,0,0,1-2.75,5.13,11.81,11.81,0,0,1-5.66,15,11.8,11.8,0,0,1-2.27,5.21,11.79,11.79,0,0,1,.76,13.22,11.69,11.69,0,0,1,1.67,6,11.94,11.94,0,0,1-.32,2.74A11.78,11.78,0,0,1,59.29,135a11.87,11.87,0,0,1,2.86,5A11.81,11.81,0,0,1,73.1,151.77v.2a11.9,11.9,0,0,1,4.18,3.37,10.14,10.14,0,0,1,1.23-.07,11.81,11.81,0,0,1,9,4.16,11.79,11.79,0,0,1,17,3.41A11.57,11.57,0,0,1,106.86,162.6Z"/><path class="cls-2" d="M214.36,109.6a12.84,12.84,0,0,0-8.28-12c0-.34,0-.68,0-1A12.74,12.74,0,0,0,202,87.25a12.74,12.74,0,0,0,4.09-9.36,12.88,12.88,0,0,0-11-12.69,12.67,12.67,0,0,0,1.22-5.43,12.87,12.87,0,0,0-11.19-12.71,12.58,12.58,0,0,0,.52-3.6,12.89,12.89,0,0,0-13-12.83,13.18,13.18,0,0,0-3.52.48c0-.21,0-.42,0-.63a13,13,0,0,0-20.63-10.35,13,13,0,0,0-13.79-2.82,13,13,0,0,0-21.83-5,13,13,0,0,0-17.38,2.5,13,13,0,0,0-23,6.84,13.08,13.08,0,0,0-3.27-.41,12.93,12.93,0,0,0-12.45,9.3,13,13,0,0,0-21.23,9.87A12.78,12.78,0,0,0,36.55,45a12.81,12.81,0,0,0-6,10.84,12.37,12.37,0,0,0,.23,2.37,12.17,12.17,0,0,0-1.6-.1,12.89,12.89,0,0,0-13,12.83,12.73,12.73,0,0,0,4.1,9.36A12.74,12.74,0,0,0,18.51,97a12.8,12.8,0,0,0-1.19,24.93,12.72,12.72,0,0,0-3.26,8.51,12.9,12.9,0,0,0,13,12.84,11.85,11.85,0,0,0,1.19-.06,12.66,12.66,0,0,0-1,5,12.87,12.87,0,0,0,9.73,12.43A12.83,12.83,0,0,0,48.66,178.9a13,13,0,0,0,5.44-1.19A13,13,0,0,0,66,185.54a13.18,13.18,0,0,0,3.52-.48c0,.21,0,.42,0,.64a13,13,0,0,0,21.82,9.35A13,13,0,0,0,107,192.86a13,13,0,0,0,23.07.94,13,13,0,0,0,22.83-6,13,13,0,0,0,22.43-8.75c0-.16,0-.32,0-.48a13.31,13.31,0,0,0,2.91.33,12.81,12.81,0,0,0,12.41-16.52,12.79,12.79,0,0,0,5.24-23,12.82,12.82,0,0,0,9.26-17.47A12.86,12.86,0,0,0,214.36,109.6Zm-77.68,50a8.28,8.28,0,0,0-12.54,1.33A8.27,8.27,0,0,0,112,164a8.2,8.2,0,0,0-4.8-1.54,8.31,8.31,0,0,0-3.92,1A8.26,8.26,0,0,0,88,161.63a8.22,8.22,0,0,0-8-6.13,8.36,8.36,0,0,0-2.62.42,8.22,8.22,0,0,0-5.93-4.51,8,8,0,0,0,.32-2.25A8.19,8.19,0,0,0,63.6,141a7.9,7.9,0,0,0-1.83.21V141a8.11,8.11,0,0,0-4.13-7.06,8.05,8.05,0,0,0,2-5.32,8.18,8.18,0,0,0-7.51-8.12,8.1,8.1,0,0,0-1-10.3,8.11,8.11,0,0,0-1.3-12.53,8.12,8.12,0,0,0,3.68-6.8,2.44,2.44,0,0,0,0-.27,8.18,8.18,0,0,0,6.11-7.88A8.07,8.07,0,0,0,58,77.81a8.13,8.13,0,0,0,3.79-6.87A8.19,8.19,0,0,0,70,62.79a8.19,8.19,0,0,0,8.23-8.15,8.22,8.22,0,0,0,6.25-2.86,8.25,8.25,0,0,0,14.28-3.49,8.32,8.32,0,0,0,7.73,1,8.27,8.27,0,0,0,14.75-2.46A8.3,8.3,0,0,0,131,49.08q0,.36,0,.72A8.19,8.19,0,0,0,139.21,58a8.09,8.09,0,0,0,1.56-.15,8.22,8.22,0,0,0,7.58,5,8.31,8.31,0,0,0,4.37-1.24,7.24,7.24,0,0,0-.1,1.24,8.14,8.14,0,0,0,5,7.5,8,8,0,0,0-1,4,8.2,8.2,0,0,0,8.24,8.16h.41a8.08,8.08,0,0,0,1.4,8.79,8.12,8.12,0,0,0,2.48,12.27,8.07,8.07,0,0,0,.18,8.9,8.07,8.07,0,0,0-1.56,10,8.14,8.14,0,0,0-2.61,8.43,8.16,8.16,0,0,0-4.27,7.15,8.2,8.2,0,0,0-8.23,8.16v.14a8.17,8.17,0,0,0-6.71,8c0,.05,0,.09,0,.14a8.62,8.62,0,0,0-1.53-.14A8.23,8.23,0,0,0,136.68,159.59Z"/><circle class="cls-3" cx="184.42" cy="48.73" r="7.64"/><circle class="cls-4" cx="34.4" cy="48.73" r="7.64"/><circle class="cls-5" cx="50.01" cy="91.41" r="7.64"/><circle class="cls-6" cx="31.21" cy="152.88" r="7.64"/><circle class="cls-7" cx="96.51" cy="183.14" r="7.64"/><circle class="cls-8" cx="160.21" cy="148.11" r="7.64"/><circle class="cls-9" cx="202.57" cy="91.41" r="7.64"/><circle class="cls-10" cx="74.53" cy="41.09" r="7.64"/><circle class="cls-11" cx="15.61" cy="91.41" r="7.64"/><circle class="cls-12" cx="63.38" cy="142.05" r="7.64"/><circle class="cls-13" cx="152.57" cy="192.7" r="7.64"/><circle class="cls-14" cx="160.21" cy="77.4" r="7.64"/><circle class="cls-15" cx="53.83" cy="62.75" r="7.64"/><circle class="cls-16" cx="158.62" cy="19.11" r="7.64"/><circle class="cls-17" cx="184.42" cy="123.9" r="7.64"/><circle class="cls-18" cx="55.74" cy="179.64" r="7.64"/><circle class="cls-19" cx="158.62" cy="46.82" r="7.64"/><circle class="cls-20" cx="133.77" cy="167.85" r="7.64"/><path class="cls-21" d="M115,10.55S136-6,143.42,5.9s-19.28,23.19-19.28,23.19c7.16,12.09,13.75,28.23,13.75,28.23l-5-2.68-7,2.25L115.06,31.44S108.92,15.25,115,10.55Z"/><path class="cls-21" d="M103.86,11.87S79.6.66,75.14,14,99.31,32,99.31,32C95.17,45.46,92.53,62.7,92.53,62.7l4.23-3.78,6.63.07,7.09-26.58S110.87,15,103.86,11.87Z"/><rect class="cls-22" x="101.26" y="15.67" width="18.78" height="11.13" rx="5.56" ry="5.56" transform="translate(118.72 -91.15) rotate(83.24)"/></g></g></g></svg>